<svg width="180" height="80" viewBox="0 0 180 80" fill="none" xmlns="http://www.w3.org/2000/svg">
<g clip-path="url(#clip0_413_912)">
<mask id="mask0_413_912" style="mask-type:luminance" maskUnits="userSpaceOnUse" x="16" y="22" width="149" height="35">
<path d="M165 22H16V56.8349H165V22Z" fill="white"/>
</mask>
<g mask="url(#mask0_413_912)">
<path d="M71.2662 31.1201H71.413V22.4375H62.7568V26.7817C65.886 27.2207 68.9541 28.602 71.2662 31.1201Z" fill="white"/>
<path d="M71.4127 39.584H71.266C69.5486 44.869 65.7185 48.2437 61.0989 48.2437C55.4235 48.2437 52.5313 45.3524 52.5313 39.328V22.4375H41.0992L16 52.7109V52.8553H31.3306V52.7109C28.8324 50.074 28.4893 44.5759 33.3445 38.7174L43.8751 26.0167V39.584C43.8751 49.4321 49.2523 53.2971 58.2342 53.2971C67.2163 53.2971 71.7472 47.3715 71.4127 39.584Z" fill="white"/>
<path d="M118.181 43.376H115.22V43.5204C116.061 43.9538 116.199 44.6772 115.61 46.1588L114.359 49.3289L113.106 46.1588C112.517 44.6701 112.684 44.0067 113.349 43.5204V43.376H108.561V43.5204C109.355 43.9266 109.656 44.5214 110.314 46.1644L113 52.8566H113.614L116.299 46.1644C117.006 44.4056 117.183 43.988 118.178 43.5204V43.376H118.181Z" fill="white"/>
<path d="M138 45.0909C138 44.3559 138.496 43.8382 139.43 43.8382C140.532 43.8382 141.417 44.7218 142.188 46.0903H142.435V43.6867C141.484 43.3935 140.549 43.1875 139.562 43.1875C137.663 43.1875 136.027 44.3715 136.027 46.0903C136.027 49.3262 140.859 48.983 140.859 50.9608C140.859 51.996 140.164 52.3993 139.261 52.3993C137.913 52.3993 136.812 51.1495 136.046 49.6665H135.799L135.966 52.4594C136.818 52.8297 137.945 53.0513 139.185 53.0513C141.417 53.0513 142.984 51.8072 142.984 50.0184C142.984 46.7267 138 47.0155 138 45.0922V45.0909Z" fill="white"/>
<path d="M122.863 43.186C119.933 43.186 117.94 45.4312 117.94 48.0107C117.94 50.5903 119.658 53.0498 122.619 53.0498C125.579 53.0498 126.634 50.7992 126.769 49.6852H126.622C126.1 50.7262 124.95 51.2238 123.861 51.2238C121.485 51.2238 120.643 49.6781 120.518 47.6547H126.76C126.959 44.7819 125.242 43.186 122.863 43.186ZM124.192 47.0384H120.503C120.527 45.2252 121.361 43.7995 122.553 43.7995C123.637 43.7995 124.275 44.9621 124.192 47.0384Z" fill="white"/>
<path d="M162.04 43.3762V43.5206C162.88 43.9539 163.018 44.6774 162.43 46.1589L161.179 49.3291L159.926 46.1589C159.337 44.6703 159.504 44.0069 160.168 43.5206V43.3762H153.02V40.5835H152.873L149.257 43.8838V44.0283H150.349V50.0683C150.349 51.9259 151.422 53.044 153.193 53.044C154.849 53.044 155.907 51.9944 156.296 50.4401H156.149C155.728 51.0822 154.996 51.4296 154.346 51.4254C153.52 51.4196 153.02 50.822 153.02 49.6881V44.0296H154.926C155.933 44.0296 156.391 44.3127 156.763 45.2394L159.76 52.7052C159.172 54.1694 158.355 55.3693 156.203 54.2982H156.056V56.6875C156.382 56.7691 156.724 56.8378 157.141 56.8378C158.678 56.8378 159.306 55.6679 160.433 52.8582L163.119 46.1661C163.825 44.4073 164.003 43.9897 164.997 43.522V43.3776H162.037L162.04 43.3762Z" fill="white"/>
<path d="M87.7543 39.7284C89.015 40.1531 89.6127 40.6665 89.6127 41.7189V47.4158C89.6127 50.0227 88.4784 51.8386 86.2201 51.8386C83.8136 51.8386 82.9136 50.0855 82.9136 47.4116V41.7203C82.9136 40.6665 83.5113 40.1545 84.7719 39.7298V39.5854H78.6982V39.7298C79.5343 40.2675 79.9836 40.6564 79.9836 41.7203V47.5959C79.9836 50.7089 81.4436 53.0497 85.1514 53.0497C89.0776 53.0497 90.3804 50.6732 90.3804 47.5073V41.7189C90.3804 40.6549 90.8341 40.176 91.6499 39.7284V39.584H87.7528V39.7284H87.7543Z" fill="white"/>
<path d="M101.555 50.9879V46.2004C101.555 44.333 100.378 43.186 98.5492 43.186C97.2812 43.186 96.2924 43.8239 95.58 44.7433V43.186H95.433L91.8604 44.0499V44.1943C92.6063 44.5818 92.9814 45.1109 92.9814 46.0646V50.9894C92.9814 51.8587 92.5292 52.3049 91.8691 52.7125V52.8568H96.7651V52.7125C96.1048 52.3049 95.6526 51.8488 95.6526 50.9879V45.6729C96.0219 45.0522 96.7053 44.5574 97.383 44.5574C98.4692 44.5574 98.8822 45.2496 98.8822 46.6193V50.9865C98.8822 51.856 98.43 52.302 97.7697 52.7095V52.8554H102.666V52.7095C102.006 52.302 101.553 51.8473 101.553 50.9865L101.555 50.9879Z" fill="white"/>
<path d="M104.194 40.7422C104.194 41.6231 104.921 42.3381 105.817 42.3381C106.713 42.3381 107.44 41.6231 107.44 40.7422C107.44 39.8615 106.713 39.1465 105.817 39.1465C104.921 39.1465 104.194 39.8615 104.194 40.7422Z" fill="white"/>
<path d="M107.152 50.9879V43.186H107.005L103.359 44.0499V44.1943C104.105 44.5818 104.481 45.1109 104.481 46.0646V50.9879C104.481 51.8572 104.028 52.3034 103.368 52.711V52.8554H108.264V52.711C107.604 52.3034 107.152 51.8473 107.152 50.9865V50.9879Z" fill="white"/>
<path d="M146.348 42.3366C147.243 42.3366 147.971 41.6216 147.971 40.7409C147.971 39.86 147.244 39.145 146.348 39.145C145.453 39.145 144.726 39.86 144.726 40.7409C144.726 41.6216 145.453 42.3366 146.348 42.3366Z" fill="white"/>
<path d="M147.683 50.9879V43.186H147.536L143.891 44.0499V44.1943C144.637 44.5818 145.012 45.1109 145.012 46.0646V50.9879C145.012 51.8572 144.56 52.3034 143.9 52.711V52.8554H148.796V52.711C148.136 52.3034 147.683 51.8473 147.683 50.9865V50.9879Z" fill="white"/>
<path d="M134.171 43.1859C133.215 43.1859 132.098 43.8752 131.47 45.3166V43.1859H131.323L127.75 44.0497V44.1941C128.496 44.5816 128.871 45.1107 128.871 46.0645V50.9877C128.871 51.8571 128.419 52.3033 127.759 52.7108V52.8552H133.081V52.7108C132.183 52.3247 131.544 51.8257 131.544 50.9863V46.1416C132.393 45.3965 133.739 45.1578 134.852 46.1631H134.999V43.499C134.824 43.2846 134.49 43.1846 134.173 43.1846L134.171 43.1859Z" fill="white"/>
<path d="M101.243 33.8413V22.4375H101.096L97.4503 23.3012V23.4456C98.1963 23.8331 98.5714 24.3622 98.5714 25.316V26.6229C98.0711 26.2483 97.3209 26.041 96.5487 26.041C94.0956 26.041 92.2432 27.9442 92.2432 31.1073C92.2432 34.0615 93.6667 35.9047 95.9132 35.9047C97.1188 35.9047 98.0247 35.3542 98.6455 34.4633V35.7117H102.355V35.5673C101.695 35.1597 101.243 34.7036 101.243 33.8427V33.8413ZM97.2322 34.5048C95.5018 34.5048 94.9624 32.5744 94.9624 30.6311C94.9624 27.8041 96.0559 26.8317 97.097 26.8317C97.9419 26.8317 98.5714 27.7283 98.5714 28.8522V33.96C98.1832 34.256 97.6742 34.5048 97.2322 34.5048Z" fill="white"/>
<path d="M142.978 33.8413V22.4375H142.831L139.186 23.3012V23.4456C139.932 23.8331 140.307 24.3622 140.307 25.316V26.6229C139.807 26.2483 139.056 26.041 138.284 26.041C135.831 26.041 133.979 27.9442 133.979 31.1073C133.979 34.0615 135.402 35.9047 137.649 35.9047C138.854 35.9047 139.76 35.3542 140.381 34.4633V35.7117H144.09V35.5673C143.43 35.1597 142.978 34.7036 142.978 33.8427V33.8413ZM138.968 34.5048C137.237 34.5048 136.698 32.5744 136.698 30.6311C136.698 27.8041 137.791 26.8317 138.832 26.8317C139.677 26.8317 140.307 27.7283 140.307 28.8522V33.96C139.919 34.256 139.41 34.5048 138.968 34.5048Z" fill="white"/>
<path d="M83.2562 35.5644C81.965 35.1111 81.033 34.5749 82.189 31.8208H86.9075L87.37 32.9219C88.0142 34.4576 87.4906 35.2398 86.3186 35.5658V35.7103H92.2063V35.5658C91.5054 35.1426 91.0881 34.5234 90.6198 33.4209L85.9565 22.4375H85.356L81.3427 31.9252C80.3539 34.2631 79.9352 35.001 78.6963 35.5644V35.7088H83.2548V35.5644H83.2562ZM84.549 26.2011L86.6138 31.1201H82.4827L84.5475 26.2011H84.549Z" fill="white"/>
<path d="M130.796 25.1902C131.69 25.1902 132.418 24.4752 132.418 23.5944C132.418 22.7135 131.692 21.9985 130.796 21.9985C129.9 21.9985 129.173 22.7135 129.173 23.5944C129.173 24.4752 129.9 25.1902 130.796 25.1902Z" fill="white"/>
<path d="M129.46 28.9166V33.8399C129.46 34.7093 129.008 35.1554 128.348 35.563V35.7074H133.244V35.563C132.583 35.1554 132.131 34.6993 132.131 33.8385V26.0396H131.984L128.339 26.9032V27.0477C129.085 27.4352 129.46 27.9643 129.46 28.918V28.9166Z" fill="white"/>
<path d="M113.839 25.3145V33.8413C113.839 34.7107 113.387 35.1569 112.727 35.5644V35.7088H117.623V35.5644C116.962 35.1569 116.51 34.7007 116.51 33.8399V22.4375H116.363L112.718 23.3012V23.4456C113.464 23.8331 113.839 24.3622 113.839 25.316V25.3145Z" fill="white"/>
<path d="M107.723 35.9033C110.683 35.9033 111.738 33.6526 111.873 32.5386H111.726C111.204 33.5797 110.054 34.0773 108.965 34.0773C106.589 34.0773 105.747 32.5315 105.622 30.5081H111.864C112.063 27.6354 110.346 26.0396 107.967 26.0396C105.037 26.0396 103.044 28.2846 103.044 30.8642C103.044 33.4438 104.762 35.9033 107.723 35.9033ZM107.659 26.6516C108.742 26.6516 109.381 27.8141 109.298 29.8904H105.609C105.632 28.0772 106.467 26.6516 107.659 26.6516Z" fill="white"/>
<path d="M149.458 35.9033C152.419 35.9033 153.473 33.6526 153.608 32.5386H153.462C152.94 33.5797 151.789 34.0773 150.7 34.0773C148.324 34.0773 147.482 32.5315 147.357 30.5081H153.6C153.799 27.6354 152.082 26.0396 149.703 26.0396C146.773 26.0396 144.779 28.2846 144.779 30.8642C144.779 33.4438 146.498 35.9033 149.458 35.9033ZM149.393 26.6516C150.476 26.6516 151.115 27.8141 151.032 29.8904H147.343C147.366 28.0772 148.201 26.6516 149.393 26.6516Z" fill="white"/>
<path d="M126.533 33.8413V28.8079C126.533 27.0434 125.226 26.0396 123.068 26.0396C119.398 26.0396 118.524 28.3761 119.126 29.6459L121.508 29.0825V28.938C121.089 27.797 121.521 26.6301 122.631 26.6301C123.528 26.6301 123.859 27.4638 123.859 28.3132V29.9619C120.553 30.877 118.582 31.8351 118.582 33.7212C118.582 35.1669 119.615 35.9033 121.126 35.9033C121.988 35.9033 123.09 35.6388 123.933 34.4805V35.7088H127.646V35.5644C126.986 35.1569 126.533 34.7007 126.533 33.8399V33.8413ZM123.861 33.6869C123.398 34.2589 122.785 34.6864 122.186 34.6864C121.475 34.6864 121.099 34.0358 121.099 33.2579C121.099 31.8365 122.548 31.0458 123.861 30.5882V33.6869Z" fill="white"/>
</g>
</g>
<defs>
<clipPath id="clip0_413_912">
<rect width="149" height="35" fill="white" transform="translate(16 22)"/>
</clipPath>
</defs>
</svg>
