<svg width="155" height="80" viewBox="0 0 155 80" fill="none" xmlns="http://www.w3.org/2000/svg">
<path d="M76.8554 20.7805H78.4244L82.5983 31.4569H81.0272L79.8598 28.2413H75.3446L74.1487 31.4569H72.6836L76.8554 20.7805ZM75.7926 27.0455H79.4118L77.6316 22.0656H77.6025L75.7926 27.0455ZM89.4596 31.4567H88.2618V30.2304H88.2334C87.694 31.188 86.8278 31.636 85.7206 31.636C83.687 31.636 83.0589 30.47 83.0589 28.8102V23.7258H84.3302V28.9591C84.3302 29.9015 84.9278 30.515 85.8999 30.515C87.4399 30.515 88.1884 29.4826 88.1884 28.0922V23.7258H89.4596V31.4567ZM91.7764 29.0194C91.8207 30.1563 92.8074 30.515 93.8544 30.515C94.6465 30.515 95.7232 30.335 95.7232 29.3635C95.7232 28.3761 94.4672 28.212 93.1959 27.9274C91.9405 27.6435 90.6685 27.2253 90.6685 25.7442C90.6685 24.189 92.2085 23.5458 93.5545 23.5458C95.26 23.5458 96.6206 24.0845 96.7251 25.9686H95.4545C95.3638 24.9819 94.4962 24.6682 93.6591 24.6682C92.8961 24.6682 92.0139 24.8773 92.0139 25.6549C92.0139 26.5668 93.3607 26.7164 94.5412 27.001C95.8125 27.2842 97.0693 27.7031 97.0693 29.1987C97.0693 31.0385 95.35 31.636 93.7796 31.636C92.0444 31.636 90.5785 30.9332 90.5044 29.0194H91.7764ZM99.9382 23.7257H101.479V24.8475H99.9382V29.648C99.9382 30.2303 100.103 30.3349 100.896 30.3349H101.479V31.4566H100.507C99.1911 31.4566 98.6683 31.1879 98.6683 29.7664V24.8475H97.352V23.7257H98.6683V21.4075H99.9382V23.7257ZM102.763 23.7257H103.961V25.3556H103.99C104.604 24.1142 105.455 23.5014 106.832 23.5464V24.8925C104.782 24.8925 104.035 26.0585 104.035 28.0181V31.4566H102.763V23.7257ZM114.338 31.4271C114.113 31.5614 113.829 31.6362 113.426 31.6362C112.767 31.6362 112.349 31.2775 112.349 30.4397C111.646 31.2623 110.702 31.6362 109.626 31.6362C108.222 31.6362 107.07 31.0082 107.07 29.4676C107.07 27.7178 108.371 27.3439 109.686 27.0905C111.093 26.8211 112.288 26.9112 112.288 25.9535C112.288 24.8471 111.376 24.6677 110.57 24.6677C109.493 24.6677 108.699 24.9966 108.64 26.1336H107.369C107.443 24.219 108.924 23.546 110.644 23.546C112.034 23.546 113.545 23.8604 113.545 25.6696V29.6476C113.545 30.2451 113.545 30.5145 113.949 30.5145C114.054 30.5145 114.172 30.4993 114.338 30.4397V31.4271ZM112.274 27.4644C111.78 27.8231 110.823 27.8376 109.971 27.9872C109.134 28.1367 108.415 28.4359 108.415 29.3782C108.415 30.2154 109.134 30.5145 109.911 30.5145C111.585 30.5145 112.274 29.4676 112.274 28.7654V27.4644ZM115.293 20.7805H116.564V31.4569H115.293V20.7805ZM119.209 22.335H117.939V20.7798H119.209V22.335ZM117.939 23.726H119.209V31.4569H117.939V23.726ZM127.584 31.4271C127.358 31.5614 127.075 31.6362 126.67 31.6362C126.012 31.6362 125.594 31.2775 125.594 30.4397C124.891 31.2623 123.949 31.6362 122.872 31.6362C121.467 31.6362 120.316 31.0082 120.316 29.4676C120.316 27.7178 121.617 27.3439 122.932 27.0905C124.339 26.8211 125.534 26.9112 125.534 25.9535C125.534 24.8471 124.623 24.6677 123.815 24.6677C122.738 24.6677 121.945 24.9966 121.886 26.1336H120.614C120.689 24.219 122.17 23.546 123.889 23.546C125.281 23.546 126.791 23.8604 126.791 25.6696V29.6476C126.791 30.2451 126.791 30.5145 127.194 30.5145C127.299 30.5145 127.419 30.4993 127.584 30.4397V31.4271ZM125.52 27.4644C125.026 27.8231 124.069 27.8376 123.216 27.9872C122.381 28.1367 121.661 28.4359 121.661 29.3782C121.661 30.2154 122.381 30.5145 123.157 30.5145C124.831 30.5145 125.52 29.4676 125.52 28.7654V27.4644ZM128.464 23.7257H129.66V24.9513H129.69C130.228 23.9944 131.096 23.5464 132.202 23.5464C134.237 23.5464 134.863 24.7124 134.863 26.3729V31.4566H133.593V26.2233C133.593 25.2809 132.996 24.6681 132.024 24.6681C130.483 24.6681 129.735 25.6998 129.735 27.0902V31.4566H128.464V23.7257ZM80.4438 42.334H80.4743V33.6753H81.8196V44.3531H80.2645L74.687 35.7837H74.6566V44.3531H73.3112V33.6753H74.8214L80.4438 42.334ZM90.3862 44.3226C90.1619 44.4569 89.8773 44.5324 89.4743 44.5324C88.8158 44.5324 88.3983 44.173 88.3983 43.3352C87.6941 44.1578 86.7524 44.5324 85.6764 44.5324C84.2701 44.5324 83.1186 43.9037 83.1186 42.3637C83.1186 40.614 84.4197 40.2401 85.736 39.9866C87.1423 39.7166 88.3374 39.8066 88.3374 38.8497C88.3374 37.7425 87.4262 37.5632 86.6181 37.5632C85.5414 37.5632 84.7493 37.8921 84.689 39.029H83.4177C83.4932 37.1152 84.9729 36.4422 86.6936 36.4422C88.084 36.4422 89.5934 36.7558 89.5934 38.5651V42.5431C89.5934 43.142 89.5934 43.41 89.9985 43.41C90.1024 43.41 90.2221 43.3954 90.3862 43.3352V44.3226ZM88.3221 40.3606C87.8298 40.7185 86.8722 40.7338 86.0205 40.8826C85.1827 41.0322 84.4647 41.332 84.4647 42.2744C84.4647 43.1108 85.1827 43.41 85.9603 43.41C87.6353 43.41 88.3221 42.3637 88.3221 41.6609V40.3606ZM93.0312 36.6212H94.5725V37.7422H93.0312V42.5428C93.0312 43.1258 93.196 43.231 93.9888 43.231H94.5725V44.3528H93.6004C92.2841 44.3528 91.7606 44.0834 91.7606 42.6626V37.7422H90.445V36.6212H91.7606V34.3037H93.0312V36.6212ZM97.0225 35.2305H95.7512V33.6753H97.0225V35.2305ZM95.7512 36.6209H97.0225V44.3525H95.7512V36.6209ZM101.733 36.4417C104.185 36.4417 105.486 38.2213 105.486 40.4938C105.486 42.7518 104.185 44.532 101.733 44.532C99.28 44.532 97.979 42.7518 97.979 40.4938C97.979 38.2213 99.28 36.4417 101.733 36.4417ZM101.733 43.4102C103.063 43.4102 104.141 42.3633 104.141 40.4938C104.141 38.6097 103.063 37.5635 101.733 37.5635C100.402 37.5635 99.325 38.6097 99.325 40.4938C99.325 42.3633 100.402 43.4102 101.733 43.4102ZM106.606 36.6212H107.803V37.8475H107.832C108.371 36.8906 109.239 36.4419 110.344 36.4419C112.379 36.4419 113.007 37.6086 113.007 39.2683V44.3528H111.736V39.1188C111.736 38.1764 111.138 37.5636 110.166 37.5636C108.626 37.5636 107.877 38.5953 107.877 39.9864V44.3528H106.606V36.6212ZM121.095 44.3226C120.87 44.4569 120.587 44.5324 120.184 44.5324C119.524 44.5324 119.106 44.173 119.106 43.3352C118.403 44.1578 117.46 44.5324 116.384 44.5324C114.979 44.5324 113.828 43.9037 113.828 42.3637C113.828 40.614 115.128 40.2401 116.445 39.9866C117.851 39.7166 119.047 39.8066 119.047 38.8497C119.047 37.7425 118.133 37.5632 117.327 37.5632C116.251 37.5632 115.458 37.8921 115.398 39.029H114.127C114.201 37.1152 115.682 36.4422 117.401 36.4422C118.792 36.4422 120.303 36.7558 120.303 38.5651V42.5431C120.303 43.142 120.303 43.41 120.707 43.41C120.811 43.41 120.931 43.3954 121.095 43.3352V44.3226ZM119.031 40.3606C118.538 40.7185 117.581 40.7338 116.73 40.8826C115.892 41.0322 115.173 41.332 115.173 42.2744C115.173 43.1108 115.892 43.41 116.668 43.41C118.343 43.41 119.031 42.3637 119.031 41.6609V40.3606ZM122.051 33.6754H123.321V44.3532H122.051V33.6754ZM81.8494 53.3896C81.8494 56.0817 80.3102 57.5019 77.6478 57.5019C74.8968 57.5019 73.2662 56.2313 73.2662 53.3896V46.5706H74.687V53.3896C74.687 55.2743 75.7644 56.306 77.6478 56.306C79.4426 56.306 80.4286 55.2743 80.4286 53.3896V46.5706H81.8494V53.3896ZM83.239 49.5163H84.4348V50.7433H84.4646C85.0026 49.7857 85.8716 49.3377 86.9767 49.3377C89.011 49.3377 89.6397 50.5037 89.6397 52.1634V57.2479H88.3671V52.0139C88.3671 51.0715 87.7695 50.458 86.7974 50.458C85.2581 50.458 84.5096 51.4904 84.5096 52.8808V57.2479H83.239V49.5163ZM92.2233 48.1255H90.9534V46.5703H92.2233V48.1255ZM90.9534 49.5165H92.2233V57.2481H90.9534V49.5165ZM93.1509 49.5165H94.5717L96.739 55.9615H96.7687L98.8779 49.5165H100.209L97.3829 57.248H96.0223L93.1509 49.5165ZM107.116 54.7952C106.772 56.4999 105.547 57.4271 103.811 57.4271C101.344 57.4271 100.178 55.7223 100.103 53.3598C100.103 51.0423 101.628 49.3376 103.737 49.3376C106.474 49.3376 107.311 51.894 107.236 53.7636H101.448C101.404 55.1096 102.167 56.3061 103.856 56.3061C104.903 56.3061 105.637 55.7972 105.861 54.7953L107.116 54.7952ZM105.89 52.6418C105.83 51.4307 104.919 50.4579 103.662 50.4579C102.332 50.4579 101.538 51.4612 101.448 52.6418H105.89ZM108.207 49.5163H109.403V51.1463H109.432C110.045 49.9055 110.898 49.292 112.274 49.3377V50.6831C110.225 50.6831 109.477 51.8498 109.477 53.8086V57.2479H108.207V49.5163ZM114.007 54.8099C114.052 55.9469 115.039 56.3063 116.086 56.3063C116.879 56.3063 117.956 56.1262 117.956 55.1534C117.956 54.1674 116.698 54.0033 115.428 53.7187C114.172 53.4348 112.9 53.0166 112.9 51.5355C112.9 49.9796 114.442 49.3378 115.786 49.3378C117.492 49.3378 118.853 49.8758 118.957 51.7605H117.685C117.596 50.7731 116.729 50.4581 115.892 50.4581C115.13 50.4581 114.247 50.6679 114.247 51.4455C114.247 52.3588 115.592 52.507 116.774 52.7915C118.045 53.0747 119.302 53.4943 119.302 54.9893C119.302 56.829 117.582 57.4273 116.011 57.4273C114.277 57.4273 112.812 56.7252 112.737 54.8099H114.007ZM121.452 48.1255H120.182V46.5703H121.452V48.1255ZM120.182 49.5165H121.452V57.2481H120.182V49.5165ZM124.892 49.5163H126.431V50.6387H124.892V55.4393C124.892 56.0216 125.056 56.1262 125.848 56.1262H126.431V57.2479H125.46C124.144 57.2479 123.62 56.9785 123.62 55.5577V50.6387H122.304V49.5163H123.62V47.1988H124.892V49.5163ZM130.872 58.2799C130.288 59.7901 129.764 60.344 128.629 60.344C128.33 60.344 128.031 60.3129 127.745 60.2083V59.0416C127.986 59.1171 128.241 59.2216 128.494 59.2216C129.017 59.2216 129.301 58.9675 129.541 58.5195L130.065 57.2025L126.999 49.516H128.434L130.692 55.8426H130.721L132.891 49.516H134.237L130.872 58.2799Z" fill="white"/>
<path d="M65.6025 51.1884C65.5859 51.1704 63.8922 49.5031 62.445 48.8079C61.7526 48.4762 61.189 48.2366 60.6157 48.0774C60.768 47.7665 60.921 47.4556 61.0692 47.1544C62.1411 44.9989 63.0661 43.1356 62.6659 41.8996C62.6465 41.8394 62.6154 41.7778 62.5891 41.7154L62.5918 41.7134C62.5873 41.7051 62.5824 41.697 62.5773 41.6891C62.4187 41.3367 62.1542 40.96 61.842 40.6609C61.2714 40.116 59.8339 39.3217 59.0605 38.8945L58.8216 38.7623C58.1597 38.3911 57.4029 38.3641 56.6357 38.6833C55.2176 39.2733 54.0765 40.8783 53.8293 41.7632C53.4201 43.2339 54.1132 43.7034 54.1907 43.7491L55.7431 44.7136L54.0211 48.8051C52.2208 49.4214 50.3125 50.2543 48.4353 51.0742C45.8436 52.2063 43.3945 53.2774 41.3775 53.7275L41.2127 53.7656C41.005 53.8134 40.7689 53.8695 40.4234 53.9138C40.1159 53.9512 39.9497 53.9595 39.85 53.9595H39.8355C39.769 53.9602 39.6181 53.9574 39.2663 53.9138C38.9208 53.8695 38.6847 53.8134 38.477 53.7649L38.3129 53.7275C36.2952 53.2774 33.8461 52.2063 31.2544 51.0742C29.3772 50.2543 27.4682 49.4214 25.6686 48.8051L23.9473 44.7143L25.499 43.7491L25.5433 43.7158C25.5765 43.6854 26.3458 42.9549 25.8486 41.7307C25.4554 40.7641 24.2208 39.1036 22.8207 38.6127C22.1331 38.3717 21.476 38.4216 20.8674 38.7623L20.6292 38.8945C19.8558 39.3217 18.4176 40.116 17.8477 40.6609C17.5348 40.96 17.271 41.3367 17.1124 41.6891L17.0972 41.7134L17.1006 41.7154C17.0736 41.7778 17.0425 41.8408 17.0238 41.8996C16.6229 43.1356 17.5479 44.9982 18.6198 47.1544C18.7694 47.4542 18.9217 47.7665 19.074 48.0774C18.5 48.2366 17.9364 48.4762 17.2453 48.8079C15.7968 49.5031 14.1031 51.1704 14.0872 51.1884C14.0402 51.2349 14.0102 51.2958 14.0022 51.3614C13.9941 51.427 14.0085 51.4934 14.0429 51.5499C14.0519 51.5637 14.9105 52.9818 15.1757 53.9616C15.4457 54.9663 15.3793 56.5464 15.3502 57.0338C15.3398 57.0954 15.3377 57.1536 15.3405 57.2104H15.3391C15.3391 57.2138 15.3398 57.2173 15.3398 57.2215C15.3398 57.2242 15.3391 57.227 15.3391 57.2305C15.3391 57.2339 15.3412 57.236 15.3419 57.2388C15.3592 57.855 15.8986 58.4588 16.798 58.859C17.3942 59.1242 18.1282 59.2925 18.8725 59.2925C19.7879 59.2925 20.7185 59.0384 21.4289 58.4006C21.4296 58.4 21.4324 58.3986 21.4324 58.3972C21.4331 58.3965 21.4338 58.3965 21.4345 58.3965C21.4386 58.393 21.4428 58.3896 21.4497 58.382C21.6117 58.2365 23.223 56.8095 25.6388 55.5714C25.8729 55.6794 26.1104 55.793 26.3555 55.9156L26.4691 55.9703C27.4066 56.4162 30.7157 57.9533 33.9216 59.0418C36.9426 60.0687 39.1126 60.1954 39.7129 60.2092H39.9837C40.5771 60.1954 42.7471 60.0687 45.7674 59.0418C48.974 57.9533 52.2824 56.4162 53.22 55.9703L53.3342 55.9156C53.5786 55.793 53.8168 55.6794 54.0509 55.5714C56.4667 56.8095 58.0787 58.2379 58.2393 58.382C58.2469 58.3896 58.2511 58.393 58.2552 58.3965C58.2552 58.3965 58.2566 58.3965 58.2566 58.3972C58.2573 58.3986 58.2594 58.4006 58.2608 58.4013C58.9712 59.0391 59.9011 59.2925 60.8165 59.2925C61.5608 59.2925 62.2955 59.1242 62.891 58.859C63.7904 58.4588 64.3312 57.855 64.3478 57.2388C64.3485 57.236 64.3499 57.2339 64.3499 57.2305V57.2215C64.3499 57.2173 64.3506 57.2138 64.3506 57.2104H64.3492C64.352 57.1536 64.3499 57.0954 64.3395 57.0338C64.3104 56.5464 64.2433 54.9663 64.514 53.9622C64.7792 52.9818 65.6378 51.5637 65.6461 51.5499C65.6808 51.4936 65.6954 51.4272 65.6874 51.3615C65.6795 51.2959 65.6496 51.2348 65.6025 51.1884ZM54.3978 41.9218C54.6124 41.1518 55.6794 39.7199 56.8628 39.2269C57.4645 38.9769 58.0274 38.9928 58.5343 39.2767L58.7752 39.4104C59.3984 39.7545 60.6178 40.4289 61.2382 40.9212C60.9647 40.9095 60.6558 40.9565 60.3089 41.0971C58.6367 41.7736 57.148 43.6847 57.148 44.7171C57.148 44.7856 57.157 44.8417 57.1619 44.9026L54.5072 43.2526C54.5037 43.2505 54.1097 42.9535 54.3978 41.9218ZM57.9914 45.4178C57.9672 45.4046 57.738 45.2724 57.738 44.7171C57.738 44.4297 57.9277 43.999 58.2462 43.5434L59.2627 44.1597C59.2717 44.2504 59.2717 44.3889 59.2315 44.5377C59.1214 44.931 58.7081 45.4746 58.1583 45.4552C58.1105 45.4531 58.0219 45.4323 57.9914 45.4178ZM56.2493 45.03L57.6556 45.9032C57.6556 45.9032 57.657 45.9039 57.6577 45.906L57.6639 45.9094C57.666 45.9101 57.668 45.9108 57.6694 45.9115C57.7241 45.9461 57.7678 45.9648 57.7823 45.9697C57.9194 46.023 58.078 46.0424 58.1368 46.0444C58.9636 46.0881 59.6103 45.3721 59.7993 44.6956C59.9129 44.2885 59.8277 43.9416 59.818 43.9028L59.7875 43.7885L58.6132 43.076C59.1173 42.4972 59.7952 41.9419 60.5305 41.6434C61.4971 41.2501 61.9486 41.8048 62.0552 41.9654C62.0711 42.0042 62.0926 42.0457 62.1051 42.0824C62.4319 43.0892 61.5553 44.8521 60.5416 46.892C60.3713 47.2368 60.1961 47.5892 60.0223 47.9472C59.6158 47.8766 59.1865 47.8392 58.6838 47.8392C57.5095 47.8392 56.1759 48.1224 54.762 48.5635L56.2493 45.03ZM20.9138 39.4104L21.1547 39.2767C21.6166 39.0185 22.0978 38.9838 22.6261 39.1687C23.8988 39.6153 24.997 41.2024 25.3023 41.9529C25.6118 42.7139 25.2407 43.1771 25.1576 43.2671L22.5271 44.9033C22.5333 44.8417 22.5417 44.7856 22.5417 44.7171C22.5417 43.6847 21.0523 41.7736 19.3801 41.0971C19.0339 40.9565 18.7243 40.9095 18.4508 40.9212C19.0706 40.4303 20.2913 39.7545 20.9138 39.4104ZM21.6997 45.4185C21.672 45.4323 21.5792 45.4531 21.5314 45.4552C20.9671 45.4732 20.5683 44.9303 20.4582 44.5377C20.4173 44.3889 20.418 44.2504 20.4263 44.1597L21.4435 43.5434C21.7613 43.999 21.951 44.4297 21.951 44.7171C21.951 45.2073 21.7738 45.3673 21.7218 45.4046L21.6997 45.4185ZM19.1474 46.8913C18.1337 44.8514 17.2578 43.0892 17.5846 42.0824C17.5964 42.0457 17.6179 42.0049 17.6345 41.9654C17.7404 41.8055 18.1919 41.2522 19.1592 41.6434C19.8945 41.9419 20.5724 42.4972 21.0765 43.076L19.9022 43.7885L19.8717 43.9028C19.8613 43.9416 19.7768 44.2885 19.8904 44.6956C20.0787 45.3721 20.731 46.0874 21.5529 46.0444C21.6138 46.0417 21.7841 46.0202 21.9178 45.9648C21.9323 45.96 21.9559 45.9475 21.987 45.9302C21.9953 45.926 22.005 45.9226 22.012 45.9184L23.4397 45.03L24.927 48.5635C23.5131 48.1224 22.1809 47.8392 21.0059 47.8392C20.5032 47.8392 20.0732 47.8766 19.6667 47.9472C19.4957 47.5942 19.3226 47.2422 19.1474 46.8913ZM21.7163 56.8545C21.4047 57.5877 21.098 57.9035 21.0509 57.9485C21.0446 57.9533 21.0419 57.9568 21.0391 57.9582C19.9949 58.9013 18.2362 58.8542 17.0376 58.3203C16.3549 58.017 15.9311 57.5926 15.9291 57.2125L15.9353 57.1058C16.098 56.3227 17.9911 54.3313 21.4047 54.2905C21.6055 54.9365 21.9739 56.2486 21.7163 56.8545ZM22.3132 56.9334C22.516 56.2493 22.3007 55.2411 22.0327 54.332C22.784 54.44 23.7804 54.7578 24.9547 55.2647C23.8732 55.8484 22.9744 56.448 22.3132 56.9334ZM54.7357 55.2647C55.91 54.7578 56.9064 54.44 57.657 54.332C57.389 55.2411 57.1737 56.2493 57.3765 56.9341C56.7153 56.448 55.8179 55.8484 54.7357 55.2647ZM62.6521 58.3203C61.4535 58.8535 59.6948 58.9006 58.6506 57.9582C58.6478 57.9568 58.6457 57.9547 58.6416 57.9513C58.5987 57.9097 58.2878 57.5954 57.9734 56.8545C57.7158 56.2479 58.0842 54.9351 58.2843 54.2905C61.6986 54.3313 63.591 56.3227 63.7537 57.1058L63.7613 57.2125C63.7593 57.5926 63.3348 58.017 62.6521 58.3203ZM63.9448 53.8085C63.7766 54.4324 63.7274 55.2439 63.7226 55.9183C62.7836 54.8472 60.84 53.6964 58.1804 53.6964C57.0629 53.6964 55.2965 54.2808 53.0718 55.3872L52.9679 55.4378C52.0373 55.8796 48.7539 57.4049 45.5784 58.483C42.5692 59.5064 40.3887 59.6089 39.9733 59.6193H39.7206C39.3127 59.6103 37.1288 59.5085 34.1113 58.483C30.9358 57.4049 27.6524 55.8796 26.7218 55.4378L26.6179 55.3872C24.3932 54.2808 22.6268 53.6964 21.5093 53.6964C18.8497 53.6964 16.9061 54.8472 15.9678 55.9183C15.9623 55.2439 15.9131 54.4317 15.7449 53.8085C15.5185 52.9693 14.925 51.8933 14.6682 51.4488C15.1182 51.0257 16.4103 49.8624 17.5002 49.3397C18.8386 48.6971 19.6217 48.4284 21.0059 48.4284C23.7285 48.4284 27.4343 50.048 31.0182 51.6136C33.637 52.7588 36.111 53.8397 38.1848 54.3022L38.342 54.3382C38.5635 54.3909 38.8156 54.4504 39.1922 54.4982C39.5475 54.5425 39.7406 54.5501 39.8639 54.5501C39.9484 54.5501 40.1422 54.5425 40.4975 54.4982C40.8741 54.4504 41.1255 54.3909 41.3477 54.3382L41.5049 54.3022C43.578 53.8397 46.052 52.7588 48.6715 51.6136C52.2547 50.048 55.9612 48.4284 58.6838 48.4284C60.068 48.4284 60.8511 48.6971 62.1895 49.3397C63.2787 49.8624 64.5722 51.0257 65.0215 51.4488C64.7646 51.8933 64.1712 52.9693 63.9448 53.8085Z" fill="white"/>
<path d="M39.8788 52.0914H39.8746C38.9018 52.0914 37.4373 51.8166 33.9524 49.7877C30.3109 47.6655 28.4864 46.2281 27.3044 43.3165C26.1398 40.4485 25.707 36.9635 25.707 30.4562C25.707 24.2036 25.9632 19.3283 25.9653 19.2805C25.9701 19.2002 26.0068 19.1254 26.0671 19.0728C26.0968 19.0465 26.1316 19.0265 26.1694 19.0143C26.2072 19.002 26.2471 18.9976 26.2866 19.0015C32.8486 19.5873 37.0142 19.6745 38.9135 19.6745C39.5457 19.6745 39.8635 19.6648 39.867 19.6641C39.8898 19.6648 40.2077 19.6745 40.8398 19.6745C42.7398 19.6745 46.9054 19.5873 53.4675 19.0015C53.5457 18.9932 53.626 19.0202 53.6863 19.0728C53.7472 19.1254 53.7839 19.2002 53.7881 19.2805C53.7901 19.3283 54.047 24.2036 54.047 30.4562C54.047 36.9635 53.6136 40.4485 52.4489 43.3165C51.267 46.2281 49.4424 47.6655 45.8017 49.7878C42.3161 51.8166 40.8523 52.0914 39.8788 52.0914ZM26.5393 19.6163C26.4839 20.7754 26.2963 25.1106 26.2963 30.4561C26.2963 36.879 26.718 40.3044 27.8508 43.0941C28.9683 45.8465 30.7278 47.2272 34.2494 49.2774C37.6326 51.2494 39.0333 51.5022 39.8746 51.5022H39.8788C40.7214 51.5022 42.1215 51.2494 45.5047 49.2774C49.0263 47.2272 50.785 45.8465 51.9026 43.0941C53.0361 40.3044 53.4564 36.879 53.4564 30.4561C53.4564 25.1092 53.2694 20.7754 53.2147 19.6163C46.8057 20.1792 42.7191 20.2644 40.8398 20.2644C40.209 20.2644 39.885 20.254 39.8691 20.2533C39.8691 20.2533 39.5443 20.2644 38.9135 20.2644C37.035 20.2644 32.9483 20.1792 26.5393 19.6163Z" fill="white"/>
<path d="M50.219 39.8798C48.8529 39.8798 47.9154 40.4718 47.0886 40.9952C46.4059 41.4252 45.8153 41.7985 45.0481 41.7985C44.2809 41.7985 43.6909 41.4252 43.0082 40.9952C42.1807 40.4718 41.2439 39.8798 39.8757 39.8798C38.5095 39.8798 37.5727 40.4718 36.7453 40.9952C36.0625 41.4252 35.4726 41.7985 34.7047 41.7985C33.9382 41.7985 33.3483 41.4252 32.6648 40.9952C31.8374 40.4718 30.9006 39.8798 29.533 39.8798C28.8198 39.8798 28.225 40.0432 27.7002 40.2717C27.8324 40.854 27.9841 41.4017 28.1593 41.9162C28.5775 41.7064 29.0109 41.5644 29.5344 41.5644C30.4131 41.5644 31.039 41.9612 31.7654 42.4189C32.5554 42.9174 33.45 43.4831 34.7047 43.4831C35.9601 43.4831 36.8554 42.9174 37.6447 42.4189C38.3704 41.9612 38.997 41.5644 39.8771 41.5644C40.7564 41.5644 41.3831 41.9612 42.108 42.4189C42.8981 42.9174 43.7941 43.4831 45.0481 43.4831C46.3027 43.4831 47.198 42.9174 47.9881 42.4189C48.7137 41.9612 49.3397 41.5644 50.2211 41.5644C50.7439 41.5644 51.1766 41.7064 51.5949 41.9162C51.77 41.4017 51.9217 40.8554 52.0539 40.2724C51.5291 40.0432 50.9336 39.8798 50.219 39.8798ZM31.7651 38.6286C32.5552 39.1272 33.4505 39.6929 34.7051 39.6929C35.9598 39.6929 36.8551 39.1272 37.6444 38.6286C38.3701 38.1703 38.9974 37.7742 39.8775 37.7742C40.7562 37.7742 41.3828 38.1703 42.1085 38.6286C42.8985 39.1272 43.7938 39.6929 45.0485 39.6929C46.3024 39.6929 47.1977 39.1272 47.9878 38.6286C48.0266 38.6037 48.0626 38.5815 48.1006 38.558C47.4013 38.3399 42.4374 36.8547 42.4311 36.8512C41.1481 36.4891 40.1558 36.2377 39.8636 36.2377H39.8456C39.1664 36.2377 34.7356 37.5886 31.6481 38.5552C31.6869 38.5788 31.7256 38.6037 31.7651 38.6286ZM50.219 43.6706C48.8529 43.6706 47.9154 44.2619 47.0886 44.7855C46.4059 45.2169 45.8153 45.5887 45.0481 45.5887C44.2809 45.5887 43.6909 45.2169 43.0082 44.7855C42.1807 44.262 41.2439 43.6707 39.8757 43.6707C38.5095 43.6707 37.5727 44.262 36.7453 44.7855C36.0625 45.2169 35.4726 45.5887 34.7047 45.5887C33.9382 45.5887 33.3483 45.2169 32.6648 44.7855C31.8374 44.262 30.9006 43.6707 29.533 43.6707C29.3225 43.6707 29.1259 43.6887 28.9355 43.7129C29.2872 44.3569 29.6992 44.9163 30.1874 45.4343C30.7524 45.5707 31.2322 45.8726 31.7654 46.2091C32.5554 46.7076 33.45 47.2733 34.7047 47.2733C35.9601 47.2733 36.8554 46.7076 37.6447 46.2091C38.3704 45.7507 38.997 45.3553 39.8771 45.3553C40.7564 45.3553 41.3831 45.7507 42.108 46.2091C42.8981 46.7076 43.7941 47.2733 45.0481 47.2733C46.3027 47.2733 47.198 46.7076 47.9881 46.2091C48.5205 45.8726 49.0018 45.5707 49.5668 45.4343C50.0549 44.9163 50.4662 44.3569 50.8187 43.7136C50.6276 43.6887 50.4295 43.6706 50.219 43.6706ZM42.2005 48.3714C41.5371 47.9241 40.8503 47.4609 39.8753 47.4609C39.0424 47.4609 38.4296 47.8861 37.8382 48.2967C37.2739 48.6886 36.693 49.0881 35.7984 49.2723C36.6653 49.7307 37.3563 50.0395 37.9158 50.2465C38.2495 50.0568 38.5417 49.8588 38.7986 49.6808C39.2916 49.3388 39.5838 49.1449 39.8774 49.1449C40.3143 49.1449 40.6688 49.3699 41.2581 49.7681C41.4644 49.9072 41.6902 50.0589 41.9429 50.2084C42.4906 49.9993 43.1609 49.6933 43.9883 49.255C43.2606 49.0798 42.7385 48.7343 42.2005 48.3714ZM47.0125 22.4462L46.4267 23.2432L47.1849 23.8788L46.1975 23.9141L46.1726 24.9063L45.5252 24.1641L44.7372 24.7554L44.9096 23.7909L43.961 23.5395L44.8196 23.0742L44.4284 22.1741L45.3341 22.5535L45.7862 21.688L46.0549 22.6401L47.0125 22.4462ZM41.0972 25.4277L40.1763 25.7532L41.0736 26.1492L40.7537 27.0736L41.6234 26.6131L42.1469 27.4475L42.3269 26.4718L43.3081 26.5909L42.6579 25.8459L43.3614 25.1493L42.3851 25.1909L42.2681 24.209L41.6871 24.9921L40.8507 24.4763L41.0972 25.4277ZM48.172 26.0355L47.2913 26.4551L48.2247 26.7549L48.0024 27.7097L48.8208 27.1593L49.4274 27.9348L49.5042 26.946L50.493 26.9626L49.7681 26.2882L50.3954 25.5231L49.4281 25.6657L49.2093 24.7019L48.7128 25.5397L47.8272 25.1159L48.172 26.0355ZM45.4505 27.9947L45.1846 28.8887L45.9539 28.359L46.7287 28.8887L46.4635 27.9851L47.2051 27.42L46.2731 27.3979L45.9559 26.5123L45.643 27.3833L44.7075 27.42L45.4505 27.9947ZM43.5484 30.7237L42.7417 31.2756L43.7118 31.4265L43.6426 32.4035L44.3634 31.7333L45.0849 32.4035L45.0053 31.414L45.9843 31.2756L45.1638 30.7237L45.6631 29.87L44.7304 30.1628L44.3634 29.244L44.0047 30.1504L43.0637 29.87L43.5484 30.7237Z" fill="white"/>
<path d="M39.9469 35.2417C40.9904 35.2417 50.9231 38.4283 51.2112 38.5141C51.4992 38.6 52.4465 38.9842 52.4465 38.1762C52.4465 37.3696 51.1295 36.9749 47.2706 35.1289C43.4125 33.2843 40.8942 31.9756 39.9594 31.9756C39.0246 31.9756 36.507 33.2843 32.6481 35.1289C28.7893 36.9749 27.4723 37.3696 27.4723 38.1762C27.4723 38.9842 28.4195 38.6 28.7076 38.5141C28.9949 38.4283 38.8868 35.2417 39.9296 35.2417H39.9469ZM17.7037 51.5188C17.6379 51.3769 17.5991 51.2827 17.5901 51.2301C17.5929 51.2239 17.6109 51.2017 17.7272 51.1172L17.649 51.0071C17.5458 51.0646 17.4606 51.1096 17.3935 51.1428C17.3249 51.1775 17.2488 51.2114 17.1518 51.2758L17.2301 51.3859C17.3235 51.3409 17.3699 51.336 17.3852 51.3319C17.3879 51.3333 17.3997 51.3388 17.4205 51.372C17.4655 51.4434 17.595 51.6961 17.8055 52.1226L17.8982 52.2625L17.946 52.3601C17.7985 52.2923 17.6116 52.1981 17.381 52.0735C17.0431 51.8907 16.7516 51.7279 16.4857 51.5805L16.2489 51.7079C16.208 51.7279 16.1437 51.7563 16.0439 51.8214L16.1215 51.9329C16.2157 51.8948 16.2447 51.8872 16.2669 51.8851L16.2925 51.8685L16.3084 51.9121C16.3209 51.9287 16.341 51.9647 16.3694 52.0208L16.7364 52.752C16.7883 52.858 16.8298 52.9445 16.8596 53.0117C16.9109 53.1301 16.942 53.2062 16.9531 53.2374L16.9739 53.2312L16.9559 53.2914C16.9517 53.297 16.9254 53.315 16.8215 53.3974L16.8811 53.5185L16.9012 53.5081C17.0106 53.4458 17.0985 53.4001 17.165 53.3669L17.3962 53.2339L17.3485 53.137L17.3194 53.1287L17.3 53.1384C17.2806 53.1488 17.2474 53.1599 17.2017 53.1758L17.2079 53.1959L17.158 53.1696C17.149 53.1578 17.1248 53.1218 17.0653 53.011C16.9946 52.878 16.9282 52.7506 16.8672 52.6267L16.69 52.313L16.5709 52.0721C17.2418 52.4418 17.7639 52.7202 18.135 52.8988C18.1988 52.8794 18.2611 52.8607 18.3241 52.8448L18.3442 52.7963C18.2791 52.6869 18.115 52.3629 17.8546 51.8366C17.8207 51.7688 17.7708 51.6622 17.7037 51.5188ZM17.6407 51.0362C17.6386 51.0369 17.6365 51.0369 17.6351 51.039C17.6365 51.0369 17.6379 51.0369 17.64 51.0341L17.6407 51.0362ZM17.1802 51.2848L17.1823 51.2903L17.1788 51.2848H17.1802ZM17.9613 52.3906C17.9246 52.3733 17.8775 52.3504 17.8359 52.3303C17.8747 52.3435 17.9156 52.3622 17.9516 52.3705L17.9613 52.3906ZM17.3104 53.1564L17.3111 53.1571L17.3097 53.1578H17.309C17.309 53.1571 17.3097 53.1571 17.3104 53.1564ZM16.5543 52.0395C16.6865 52.1122 16.8077 52.1794 16.9282 52.2445C16.8118 52.1863 16.6941 52.1282 16.5667 52.0651L16.5543 52.0395ZM19.9056 52.1548C19.8696 52.1631 19.8468 52.1638 19.8468 52.1638L18.705 50.6703L18.5353 50.7347L18.4633 52.3085C18.4543 52.4332 18.4495 52.5052 18.446 52.5246L18.4176 52.5827C18.4142 52.5855 18.3982 52.5952 18.3082 52.6506L18.3456 52.7773L18.8809 52.5993L18.8248 52.4775C18.7597 52.4934 18.714 52.501 18.6579 52.4754C18.6524 52.4574 18.6461 52.4027 18.6489 52.2462L18.6364 52.0987L19.1751 51.9256L19.351 52.1804C19.3877 52.2324 19.3995 52.2594 19.4022 52.2933C19.3988 52.2961 19.3794 52.3099 19.2541 52.3736L19.3115 52.4948L20.0116 52.2684L19.9569 52.1472L19.9056 52.1548ZM19.0955 51.783C19.0914 51.7845 19.0873 51.7856 19.083 51.7864C19.0865 51.7844 19.09 51.783 19.0941 51.7809L19.0955 51.783ZM18.6378 51.9159L18.644 51.7567L18.6434 51.9152C18.6413 51.9152 18.6399 51.9159 18.6378 51.9159ZM18.8656 51.8328C18.7908 51.8543 18.7278 51.8744 18.6828 51.9035C18.6752 51.9062 18.6662 51.9083 18.6586 51.9111L18.6877 51.2464L18.993 51.639L19.083 51.765C19.0186 51.7858 18.9473 51.8079 18.8656 51.8328ZM18.8545 52.5841V52.5806L18.8559 52.5841H18.8545ZM19.3247 52.4678L19.3351 52.465L19.3247 52.4692V52.4678ZM20.9627 50.3259L20.9239 50.2934C20.89 50.3024 20.856 50.31 20.8221 50.3148C20.7584 50.3252 20.6324 50.3412 20.4434 50.3633L19.9878 50.4166C19.8036 50.4381 19.6796 50.4519 19.6152 50.4561C19.5751 50.4596 19.5384 50.4609 19.5031 50.4609L19.4733 50.5011C19.4844 50.5447 19.4927 50.5856 19.4996 50.6237C19.5031 50.6465 19.5169 50.749 19.564 50.947L19.6762 50.9131C19.6692 50.8369 19.6665 50.7691 19.6692 50.7061L19.7025 50.6624C19.7627 50.6493 19.8333 50.6382 19.9137 50.6285L20.0521 50.5925C20.057 50.6174 20.0722 50.7386 20.0978 50.9539L20.1906 51.7488C20.2183 51.9843 20.2211 52.0646 20.2183 52.0895C20.2163 52.1096 20.2093 52.1241 20.1982 52.1324C20.1927 52.1373 20.1664 52.1498 20.0328 52.192L20.048 52.3229L20.0695 52.3194C20.2073 52.2945 20.3291 52.2772 20.4351 52.264C20.5348 52.2522 20.658 52.2418 20.8235 52.21L20.7882 52.0812C20.6857 52.0902 20.6393 52.0833 20.6352 52.0812C20.622 52.0743 20.6123 52.0632 20.6061 52.0459C20.5978 52.021 20.5818 51.9413 20.5542 51.7059L20.4614 50.9124C20.4364 50.7005 20.4233 50.58 20.4032 50.571L20.5645 50.5517C20.6497 50.542 20.7238 50.5357 20.8083 50.535C20.8083 50.535 20.8138 50.544 20.8242 50.5821C20.8394 50.6424 20.8519 50.7061 20.8844 50.7926L20.9966 50.7594C20.9779 50.5759 20.9675 50.4796 20.9668 50.4679C20.9639 50.4206 20.9625 50.3733 20.9627 50.3259ZM20.8 52.1913L20.7993 52.1865L20.802 52.1913H20.8ZM22.6724 50.5783C22.6772 50.5755 22.6911 50.5686 22.734 50.5686C22.7513 50.5672 22.7714 50.57 22.8164 50.552L22.8067 50.4191L22.5235 50.4052C22.4979 50.4017 22.4176 50.3865 22.2583 50.3941L22.268 50.5271C22.367 50.5382 22.4044 50.5534 22.4342 50.5859C22.4377 50.6012 22.4411 50.6482 22.4328 50.784C22.4211 50.9264 22.4091 51.0688 22.3968 51.2112L22.374 51.484C22.358 51.6689 22.3352 51.7949 22.3033 51.8579C22.2743 51.9188 22.2272 51.9673 22.1655 52.0012C22.1032 52.0365 22.0201 52.049 21.9218 52.0407C21.8339 52.0345 21.7626 52.0123 21.7086 51.9784C21.6566 51.9445 21.6185 51.9029 21.595 51.8524C21.5728 51.8011 21.5611 51.7353 21.5618 51.655C21.5618 51.6169 21.5687 51.5158 21.5825 51.3552L21.6199 50.8899C21.6365 50.7057 21.6511 50.5852 21.6843 50.4994C21.6912 50.4945 21.7113 50.4869 21.7619 50.4869C21.7813 50.4862 21.8034 50.4876 21.8512 50.471L21.8401 50.338L21.1027 50.2965L21.1103 50.4287L21.2661 50.4821C21.2696 50.4931 21.273 50.5167 21.2723 50.5617C21.2668 50.6614 21.2599 50.7729 21.2495 50.8975L21.1975 51.4909C21.1858 51.6336 21.1809 51.7201 21.1823 51.7533C21.1823 51.8067 21.1934 51.8614 21.2135 51.9216C21.2336 51.9825 21.2661 52.0393 21.3097 52.0892C21.3533 52.1404 21.4129 52.1833 21.4856 52.2173C21.5846 52.263 21.694 52.2907 21.8096 52.2997C21.8408 52.3031 21.8706 52.3052 21.8997 52.3052C21.9641 52.3052 22.0243 52.2976 22.0783 52.2851C22.1579 52.265 22.2286 52.2332 22.2895 52.1868C22.3473 52.1436 22.3965 52.0898 22.4342 52.0282C22.4702 51.9687 22.4979 51.8946 22.5152 51.808C22.5325 51.7229 22.5443 51.6398 22.5512 51.5595L22.5775 51.2458C22.5858 51.153 22.599 51.0277 22.6177 50.8684C22.6419 50.6649 22.6523 50.6164 22.6724 50.5783ZM21.1221 50.3193V50.3214L21.1214 50.3193H21.1221ZM25.651 53.1432C25.6087 53.1231 25.5997 53.1162 25.5984 53.1148L25.5838 53.13L25.5803 53.067L25.581 52.9361L25.5776 51.2349L25.4024 51.1857L24.6248 52.1371C24.5147 52.2693 24.4413 52.3587 24.4039 52.403C24.3229 52.4978 24.2751 52.5512 24.2606 52.5664L24.2758 52.5802L24.2038 52.5955C24.2011 52.5955 24.1837 52.5934 24.1221 52.5879L24.1249 52.5657C24.0833 52.5539 24.0695 52.5449 24.0439 52.5075C24.0349 52.4895 24.0155 52.43 23.9829 52.3323L23.8431 51.8165C23.836 51.7877 23.8284 51.7591 23.8202 51.7306C23.8071 51.687 23.7967 51.6462 23.7731 51.6268C23.7731 51.6247 23.7724 51.6233 23.7724 51.6219C23.9026 51.6005 24.0086 51.5527 24.0882 51.48C24.1678 51.4052 24.2225 51.3124 24.2509 51.2044C24.2738 51.113 24.2731 51.0285 24.2468 50.9531C24.2218 50.8776 24.1796 50.8201 24.1235 50.7834C24.0695 50.7481 23.9857 50.7162 23.8666 50.6844C23.7906 50.6657 23.7142 50.6488 23.6374 50.6338C23.571 50.6208 23.5049 50.6058 23.4394 50.5888C23.3494 50.5653 23.2801 50.5473 23.2247 50.53C23.1292 50.5009 23.0731 50.4843 23.0316 50.4954L23.0177 50.6269C23.1333 50.665 23.159 50.6837 23.1687 50.7031C23.17 50.7142 23.1659 50.7543 23.1327 50.8935L22.8377 52.0249C22.8183 52.0907 22.8024 52.1405 22.7601 52.2015C22.7456 52.2015 22.7103 52.1973 22.5939 52.1925L22.5808 52.3317C22.6798 52.351 22.7857 52.376 22.9 52.4051C23.0281 52.4376 23.1534 52.4743 23.3037 52.4971L23.3182 52.358C23.2497 52.3386 23.2095 52.3254 23.1707 52.2901C23.1693 52.2825 23.1693 52.2603 23.1825 52.1987C23.1874 52.1759 23.2109 52.0741 23.2538 51.8954C23.2891 51.7493 23.3231 51.6115 23.3563 51.4827C23.3778 51.401 23.4221 51.2383 23.4892 50.996C23.519 50.8873 23.5391 50.8187 23.5287 50.8021C23.5619 50.8042 23.5966 50.809 23.6312 50.8187C23.7074 50.8388 23.7593 50.8582 23.7835 50.8769C23.8223 50.9067 23.8507 50.951 23.868 51.0078C23.8853 51.0645 23.8839 51.1317 23.8652 51.2072C23.8458 51.2813 23.8133 51.347 23.7683 51.3997C23.724 51.4516 23.6783 51.4834 23.6319 51.4966C23.5841 51.5091 23.5294 51.4973 23.4117 51.4869L23.3888 51.5485C23.4048 51.5721 23.42 51.6039 23.4325 51.6462C23.4602 51.732 23.4899 51.8497 23.5239 51.9979L23.6416 52.5151C23.6471 52.5463 23.6499 52.5719 23.6658 52.6114C23.724 52.6239 23.7821 52.6363 23.841 52.6516C23.8853 52.6633 23.958 52.6827 24.0508 52.7104L24.0501 52.7159L24.566 52.8863L24.5923 52.7547C24.4849 52.7097 24.4628 52.6896 24.4593 52.6536C24.4662 52.6356 24.4939 52.5879 24.5895 52.4639L24.6677 52.3386L25.203 52.5235L25.1919 52.8316C25.1905 52.8946 25.1843 52.9244 25.1649 52.9528C25.1559 52.9528 25.1247 52.9472 24.998 52.9285L24.9724 53.0594L25.3477 53.1889L25.6607 53.317L25.6967 53.1667L25.651 53.1432ZM24.7785 52.1925L24.8789 52.0685L24.7834 52.1952C24.782 52.1946 24.7799 52.1946 24.7785 52.1925ZM25.2258 52.3379C25.1539 52.3137 25.0823 52.2883 25.0112 52.2617C24.9357 52.234 24.8672 52.207 24.8118 52.207C24.8076 52.2049 24.8028 52.2022 24.7993 52.2015L25.2196 51.6856L25.2286 52.1779L25.2258 52.3379ZM25.2251 52.3573V52.36C25.2209 52.3582 25.2165 52.3569 25.212 52.3559C25.2168 52.3566 25.221 52.3573 25.2251 52.3573ZM22.605 52.3164C22.6064 52.3164 22.6085 52.3164 22.6099 52.3171C22.6085 52.3171 22.6064 52.3164 22.605 52.3164ZM23.2891 52.4708L23.2898 52.4674V52.4715C23.2898 52.4715 23.2891 52.4715 23.2891 52.4708ZM28.3815 52.6133L28.4252 52.4624L28.1122 52.3329C28.0866 52.3218 28.0305 52.2927 27.9169 52.2519C27.8664 52.3073 27.8227 52.3537 27.7867 52.389C27.75 52.4264 27.651 52.5212 27.4911 52.6743L27.203 52.9512C27.1456 53.0073 27.0673 53.0869 26.9863 53.1825C26.9621 53.2047 26.9399 53.224 26.9129 53.2497L26.9538 51.8032C26.8797 51.7769 26.8077 51.7478 26.737 51.7166C26.683 51.6924 26.5868 51.6453 26.4185 51.5865L26.3818 51.718C26.4171 51.7353 26.4545 51.7589 26.4954 51.7873L26.5148 51.8288C26.5127 51.8434 26.4988 51.8918 26.4282 52.0566C26.3735 52.1847 26.3091 52.3315 26.235 52.4963C26.1526 52.6798 26.0938 52.8086 26.0571 52.8841C25.9844 53.0378 25.9352 53.1368 25.9096 53.1818C25.8964 53.2026 25.8881 53.2116 25.8667 53.2192C25.8611 53.2192 25.8348 53.2164 25.7005 53.1887L25.6659 53.3217C25.7303 53.3438 25.8154 53.3785 25.92 53.4248C26.001 53.4608 26.0785 53.4996 26.1817 53.5294L26.2184 53.3978C26.1332 53.3528 26.1097 53.3355 26.1035 53.33L26.0668 53.3099L26.0924 53.2697C26.0979 53.2504 26.1298 53.1721 26.1886 53.0343C26.2482 52.8958 26.2994 52.7761 26.3444 52.677L26.4635 52.3606L26.5715 52.1182L26.5522 52.846C26.5487 52.9644 26.5418 53.1437 26.53 53.3826C26.5245 53.5225 26.5182 53.6312 26.5252 53.7316L26.6193 53.7579C26.6623 53.7136 26.7197 53.6561 26.7924 53.5855C26.9108 53.4678 27.0022 53.3798 27.0666 53.3175L27.4696 52.9069L27.7521 52.6431L27.3741 53.4844C27.2979 53.6554 27.2508 53.7537 27.2321 53.7814C27.212 53.8119 27.1982 53.8168 27.1933 53.8188C27.1836 53.8188 27.1525 53.8126 27.0237 53.7828L26.9891 53.9144L27.3159 54.0508L27.6621 54.217L27.7092 54.0667C27.6033 54.0092 27.5894 53.9975 27.5783 53.9573C27.5846 53.9331 27.6081 53.8673 27.6476 53.7634C27.6545 53.7461 27.6822 53.6845 27.7279 53.582L28.1482 52.6583C28.1766 52.5946 28.2015 52.5732 28.2354 52.5642C28.2604 52.5642 28.2977 52.5759 28.3469 52.5981L28.3815 52.6133ZM26.8914 53.2684L26.9032 52.8882L26.906 53.2559C26.9004 53.2607 26.897 53.2642 26.8914 53.2684ZM25.6922 53.3085C25.6943 53.3099 25.697 53.3106 25.6991 53.312C25.697 53.312 25.6936 53.3106 25.6922 53.3106V53.3085ZM26.1706 53.501L26.1734 53.4955L26.1727 53.5024C26.172 53.5024 26.1713 53.5024 26.1706 53.501ZM26.5937 52.0684L26.584 52.4368L26.5757 52.1093L26.5937 52.0684ZM27.7916 52.6064L27.6019 53.0274L27.7584 52.6362L27.7916 52.6064ZM29.8938 53.9623C29.9697 53.898 30.0306 53.8179 30.0724 53.7276C30.1174 53.6327 30.1347 53.5448 30.1237 53.4658C30.1133 53.3876 30.0849 53.3232 30.0406 53.274C29.9963 53.2242 29.9277 53.1785 29.8363 53.1349L29.0442 52.7873L29.0054 52.9147L29.1383 53.0109C29.1383 53.0171 29.1356 53.0303 29.1245 53.0601C29.1148 53.085 29.0871 53.1459 29.0435 53.2443L28.7395 53.8993C28.6647 54.0565 28.5941 54.1984 28.5256 54.323C28.4937 54.3819 28.4812 54.3971 28.4625 54.4068C28.4452 54.4068 28.4078 54.3992 28.2957 54.3715L28.2562 54.5058C28.3469 54.5419 28.4411 54.5827 28.5373 54.6277C28.626 54.6713 28.7561 54.735 28.9285 54.8237L28.9486 54.8341L28.9992 54.681L28.8662 54.6049L28.8551 54.6236L28.8441 54.5675C28.8455 54.5543 28.8558 54.5204 28.8939 54.4352C28.9472 54.3127 29.0006 54.195 29.0546 54.0821L29.3855 53.3883C29.4312 53.2934 29.4686 53.2207 29.4721 53.184C29.5219 53.1944 29.5656 53.2089 29.6036 53.227C29.6791 53.263 29.7241 53.3142 29.7421 53.3855C29.7594 53.4575 29.7428 53.5469 29.693 53.6528C29.6452 53.7539 29.5884 53.8204 29.5247 53.8529C29.461 53.8861 29.4347 53.9083 29.308 53.8384C29.2969 53.83 29.2858 53.8197 29.2498 53.8037L29.2027 53.8259L29.2041 53.8397C29.2055 53.8806 29.2041 53.9152 29.2083 53.9588C29.2263 53.9748 29.2457 53.9886 29.2664 54.0025C29.2865 54.0149 29.308 54.0267 29.3308 54.0385C29.4202 54.08 29.5185 54.0946 29.6237 54.08C29.7276 54.0655 29.819 54.0253 29.8938 53.9623ZM28.2839 54.4948C28.2853 54.4955 28.286 54.4962 28.2874 54.4968C28.286 54.4968 28.2853 54.4955 28.2832 54.4955L28.2839 54.4948ZM30.9271 55.5357C30.9223 55.517 30.9126 55.4561 30.8981 55.3536C30.8974 55.3467 30.8925 55.2961 30.8849 55.2019L30.8524 54.8205C30.8524 54.8108 30.8496 54.7817 30.8454 54.7319C30.8406 54.6848 30.8378 54.6398 30.8302 54.6176C30.9569 54.6176 31.0656 54.5892 31.1543 54.5324C31.2457 54.475 31.3156 54.3926 31.3613 54.2915C31.4014 54.2063 31.416 54.1225 31.4035 54.0429C31.3911 53.964 31.3613 53.901 31.3121 53.8546C31.2657 53.8102 31.1882 53.7632 31.0767 53.7119C31.0206 53.687 30.9486 53.6565 30.86 53.6205C30.7968 53.5959 30.7345 53.5694 30.673 53.5409C30.5892 53.5028 30.5241 53.4717 30.4791 53.4488C30.3864 53.401 30.3275 53.3699 30.288 53.3775L30.2513 53.5035C30.3607 53.5637 30.3815 53.5859 30.3871 53.6046C30.3857 53.6198 30.3725 53.6621 30.3178 53.7874L29.8262 54.8468C29.795 54.9091 29.7708 54.9541 29.7216 55.0074C29.714 55.0074 29.6856 55.0005 29.5561 54.9694L29.5188 55.1044C29.6122 55.1404 29.7126 55.184 29.82 55.2325C29.9397 55.2872 30.0575 55.3453 30.2008 55.3952L30.2403 55.2602C30.216 55.2484 30.1426 55.2124 30.1059 55.1674C30.1066 55.1577 30.1122 55.1355 30.1343 55.0801C30.1433 55.0573 30.1842 54.961 30.2583 54.7935C30.3185 54.6571 30.3774 54.5283 30.4328 54.4064C30.4681 54.3289 30.5408 54.1772 30.6502 53.9501C30.6986 53.8497 30.7312 53.7846 30.7229 53.7673C30.7568 53.7756 30.7893 53.7874 30.8212 53.8019C30.9098 53.8421 30.9465 53.8698 30.9611 53.8864C30.9936 53.9217 31.0137 53.9702 31.0206 54.029C31.0282 54.0879 31.0151 54.1537 30.9825 54.2257C30.95 54.2963 30.9064 54.3545 30.853 54.3981C30.7997 54.441 30.7492 54.4653 30.6889 54.4687C30.6419 54.4687 30.5823 54.4507 30.4861 54.4196L30.4535 54.477C30.4653 54.502 30.4736 54.5373 30.4785 54.5802C30.4909 54.6709 30.4999 54.7914 30.5061 54.943L30.5304 55.4714C30.5304 55.5039 30.5283 55.5302 30.5366 55.5731C30.592 55.5946 30.6467 55.6175 30.7014 55.6431C30.7492 55.6645 30.8247 55.7019 30.9292 55.7532L30.9486 55.7622L30.9971 55.6078C30.9576 55.5891 30.9465 55.5786 30.9271 55.5357ZM29.5458 55.0926C29.5458 55.0926 29.5471 55.094 29.5485 55.0947C29.5478 55.0947 29.547 55.0945 29.5465 55.094L29.5458 55.0926ZM30.1904 55.3675L30.1925 55.3626L30.1918 55.3675H30.1904ZM31.6175 55.8897L31.6113 55.8309C31.6155 55.8052 31.6342 55.7505 31.6709 55.6681L31.9804 54.9487C31.9873 54.9328 32.0358 54.8262 32.1258 54.6261C32.1514 54.5679 32.1701 54.5291 32.1805 54.5083C32.2026 54.4633 32.2158 54.4453 32.2594 54.4287C32.2753 54.4301 32.3543 54.4613 32.4111 54.4619L32.4457 54.3249C32.33 54.2812 32.2096 54.2328 32.0829 54.1774C31.97 54.1282 31.871 54.0818 31.7574 54.0493L31.7207 54.1836C31.8114 54.2279 31.8377 54.2431 31.855 54.2812C31.8481 54.3096 31.8246 54.3747 31.7837 54.4786C31.7643 54.5263 31.7193 54.6302 31.6487 54.7929L31.4257 55.306C31.3897 55.3884 31.3475 55.4777 31.2997 55.5726C31.2679 55.6363 31.2485 55.6723 31.2104 55.6889C31.1979 55.6868 31.1564 55.6709 31.0581 55.6557L31.0228 55.7914C31.1121 55.8232 31.2132 55.8634 31.3247 55.9119C31.4528 55.9687 31.5718 56.0227 31.6826 56.0781L31.702 56.0877L31.7477 55.932C31.6653 55.8946 31.639 55.8793 31.6307 55.8731L31.6175 55.8897ZM32.4187 54.3373C32.4173 54.3366 32.4152 54.3345 32.4138 54.3345C32.4152 54.3345 32.4173 54.3352 32.4187 54.3366V54.3373ZM31.7678 54.077L31.7664 54.0818L31.7671 54.0763L31.7678 54.077ZM31.0498 55.7789C31.0512 55.7796 31.0532 55.7796 31.0546 55.781C31.0532 55.781 31.0512 55.7796 31.0491 55.7796L31.0498 55.7789ZM34.5207 55.3161L34.558 55.1638L34.2375 55.0495C34.2125 55.0392 34.1544 55.0142 34.0394 54.9782C33.991 55.0378 33.9501 55.0862 33.9162 55.1243C33.8809 55.1617 33.7881 55.2621 33.6357 55.4241L33.3622 55.715C33.3075 55.7738 33.2328 55.8576 33.1573 55.9566C33.1347 55.9804 33.1116 56.0038 33.088 56.0265L33.0541 54.5815C32.9798 54.5585 32.9061 54.5333 32.8332 54.506C32.7785 54.4838 32.6788 54.443 32.5085 54.3917L32.4787 54.5254C32.514 54.5406 32.5535 54.5635 32.5957 54.5884L32.6068 54.5718L32.6179 54.6279C32.6151 54.6542 32.5902 54.731 32.5424 54.8605C32.4939 54.9921 32.4372 55.1416 32.3721 55.3092C32.2987 55.4982 32.2467 55.6305 32.2142 55.7066C32.1491 55.8645 32.1055 55.9656 32.082 56.0113C32.0716 56.0328 32.0626 56.0425 32.0411 56.0522C32.0335 56.0522 32.0044 56.048 31.8742 56.0293L31.8465 56.1636C31.9123 56.1823 31.9982 56.2135 32.1055 56.2543C32.1879 56.2862 32.2675 56.3201 32.3721 56.3451L32.4025 56.2128C32.3139 56.1706 32.2904 56.1553 32.2841 56.1491L32.2467 56.1318L32.2689 56.0902C32.2738 56.0709 32.3021 55.9912 32.3534 55.8514C32.406 55.7087 32.451 55.5869 32.4912 55.4851L32.593 55.1638L32.6885 54.9159L32.7065 55.6429C32.7093 55.7627 32.7114 55.9414 32.7127 56.1803C32.7141 56.3187 32.7134 56.4302 32.7252 56.5285L32.8215 56.5514C32.8616 56.5043 32.9163 56.4434 32.9849 56.37C33.0977 56.246 33.1843 56.1526 33.2445 56.0875L33.6254 55.6575L33.8947 55.3784L33.561 56.2398C33.4772 56.4551 33.446 56.523 33.4342 56.5431C33.4156 56.5735 33.4024 56.5798 33.3962 56.5819C33.383 56.5819 33.3477 56.5742 33.2265 56.5542L33.1981 56.6871L33.5319 56.8069L33.8871 56.9558L33.9252 56.802C33.8248 56.7543 33.8054 56.7425 33.7888 56.7003C33.7936 56.6746 33.8137 56.6096 33.8483 56.5029C33.8552 56.4842 33.8788 56.4226 33.9196 56.316L34.2908 55.3736C34.3164 55.3085 34.3399 55.2863 34.3773 55.2746C34.4022 55.2746 34.4396 55.2843 34.4867 55.3037L34.5207 55.3161ZM34.5303 55.1762L34.5193 55.1728L34.531 55.1756L34.5303 55.1762ZM33.068 56.048L33.0569 55.5377L33.0811 56.0342C33.0763 56.039 33.0728 56.0432 33.068 56.048ZM31.8722 56.1505C31.8742 56.1505 31.8777 56.1526 31.8798 56.1526C31.8777 56.1533 31.8742 56.1512 31.8722 56.1519V56.1505ZM32.3603 56.3174L32.3624 56.3125L32.3617 56.3187C32.3617 56.3187 32.3603 56.318 32.3603 56.3174ZM32.6927 54.9062L32.7079 54.8654L32.7176 55.2344L32.6927 54.9062ZM33.9321 55.3397L33.7638 55.7738L33.9009 55.3722L33.9321 55.3397ZM36.0707 55.823L36.1088 55.796C36.1247 55.796 36.1552 55.7995 36.239 55.803L36.2563 55.67L35.9828 55.598C35.9585 55.5904 35.8817 55.5641 35.7252 55.5329L35.7072 55.6659C35.802 55.6977 35.836 55.7192 35.8581 55.7573C35.8588 55.7697 35.854 55.812 35.8159 55.9497C35.8013 55.9989 35.7612 56.1374 35.694 56.3624L35.6158 56.6235C35.5618 56.8021 35.5133 56.9212 35.4704 56.9759C35.4288 57.0299 35.3734 57.0666 35.3056 57.0874C35.2384 57.1102 35.1546 57.1054 35.0584 57.077C34.9746 57.0521 34.9088 57.0161 34.8638 56.9725C34.8188 56.9274 34.7904 56.8776 34.7786 56.8257C34.7662 56.7703 34.7676 56.7052 34.7849 56.6256C34.7939 56.5868 34.8209 56.4919 34.8666 56.3354L34.9995 55.8881C35.0528 55.7095 35.093 55.5952 35.1172 55.5475L35.1643 55.5156C35.1913 55.5156 35.2322 55.5232 35.3104 55.5253L35.3423 55.4187L35.3077 55.3875L34.6139 55.2012L34.5945 55.3335L34.7357 55.4173C34.7371 55.4339 34.7336 55.4602 34.7253 55.4962C34.7004 55.5938 34.6699 55.6998 34.6346 55.8196L34.4629 56.3915C34.4221 56.5272 34.3985 56.6117 34.393 56.6429C34.3831 56.7001 34.3819 56.7584 34.3895 56.816C34.3971 56.8804 34.4172 56.9413 34.4497 56.9988C34.4823 57.0569 34.5315 57.1116 34.5958 57.1601C34.6824 57.2238 34.7828 57.2743 34.8957 57.3083C34.9843 57.3346 35.0667 57.3477 35.1429 57.3477L35.1622 57.3471C35.2433 57.345 35.3194 57.3277 35.3887 57.2944C35.4548 57.2644 35.5143 57.2216 35.5639 57.1684C35.6116 57.1172 35.6532 57.0507 35.6878 56.969C35.7217 56.8894 35.7501 56.8111 35.7737 56.7343L35.8637 56.4331C35.89 56.3437 35.9288 56.2239 35.9793 56.0716C36.0458 55.875 36.0652 55.8313 36.0707 55.823ZM35.3021 55.4076L35.2931 55.4048L35.3021 55.4062V55.4076ZM35.1429 57.3235C35.1436 57.3235 35.1442 57.3242 35.1449 57.3242L35.1429 57.327V57.3235Z" fill="white"/>
<path d="M37.8672 56.0026C37.8319 56.0698 37.8001 56.1245 37.7738 56.1674C37.7468 56.211 37.6741 56.3267 37.5543 56.515L37.3389 56.8515C37.296 56.9187 37.2392 57.0149 37.1824 57.1271C37.1644 57.1541 37.1478 57.1783 37.1277 57.2088L36.8265 55.7949C36.749 55.7862 36.6719 55.7746 36.5953 55.7603C36.5371 55.7499 36.4318 55.7277 36.2553 55.709L36.2504 55.8454C36.2885 55.8544 36.3308 55.8676 36.3771 55.8863L36.4062 55.9216C36.4076 55.9389 36.4035 55.9957 36.3751 56.1632C36.3522 56.3017 36.3238 56.4589 36.2913 56.6369C36.2539 56.8356 36.2276 56.9754 36.2096 57.0558C36.1757 57.2233 36.1507 57.3307 36.1362 57.3791C36.1306 57.3971 36.1244 57.411 36.0808 57.4283C36.0559 57.4283 36.0143 57.4255 35.9347 57.4366L35.9326 57.573C36.0005 57.5799 36.0912 57.5931 36.204 57.6139C36.2913 57.6305 36.3744 57.6492 36.4831 57.654L36.4879 57.5176C36.391 57.4927 36.3661 57.4816 36.3598 57.4774L36.3197 57.4671L36.3349 57.4227C36.3356 57.4027 36.3481 57.3182 36.3723 57.1714C36.3979 57.0232 36.4208 56.8944 36.4409 56.7864L36.481 56.4513L36.5295 56.1916L36.6818 56.902C36.706 57.017 36.7414 57.1936 36.7871 57.4283C36.8134 57.5654 36.8341 57.6734 36.8639 57.769L36.9622 57.7731C36.9934 57.7205 37.0356 57.6506 37.0896 57.5647C37.1776 57.4227 37.2454 57.314 37.2925 57.24L37.5861 56.7463L37.7994 56.4222L37.6311 57.33C37.5972 57.5128 37.5743 57.6194 37.5633 57.6506C37.5508 57.6852 37.539 57.6942 37.5162 57.6976C37.4899 57.6976 37.4462 57.6928 37.3611 57.7018L37.3583 57.8368L38.084 57.9732L38.0937 57.8147C37.9801 57.7856 37.9628 57.7773 37.9406 57.7413C37.9406 57.7149 37.9482 57.6464 37.9628 57.5356C37.9656 57.5162 37.9773 57.4511 37.9981 57.339L38.1885 56.344C38.201 56.2754 38.2204 56.2484 38.2335 56.2387C38.2453 56.2304 38.2917 56.2235 38.3679 56.238L38.4045 56.2456L38.4122 56.0871L38.0763 56.0358C38.0493 56.031 37.9877 56.0164 37.8672 56.0026ZM37.1111 57.233L36.9352 56.3952L37.1222 57.2164C37.118 57.2233 37.1153 57.2268 37.1111 57.233ZM35.9555 57.5543C35.9569 57.5543 35.9596 57.555 35.961 57.555C35.9596 57.5557 35.9569 57.555 35.9555 57.5557V57.5543ZM36.4658 57.6298L36.4672 57.6229V57.6305C36.4672 57.6305 36.4665 57.6305 36.4658 57.6298ZM36.5392 56.1369L36.6167 56.4991L36.5309 56.1819L36.5392 56.1369ZM37.8298 56.3765L37.7454 56.8321L37.8049 56.4139L37.8298 56.3765ZM39.9545 56.3003C40.0493 56.3024 40.1276 56.3176 40.1871 56.3474C40.2474 56.3779 40.3021 56.4243 40.345 56.4734C40.3498 56.5316 40.3526 56.6105 40.3734 56.7276L40.4828 56.7096C40.4876 56.6237 40.4966 56.5316 40.5091 56.4319C40.5167 56.3703 40.5264 56.3183 40.5389 56.2775L40.5216 56.2353C40.4135 56.1882 40.3187 56.1535 40.2363 56.1342C40.1532 56.1155 40.059 56.1051 39.9323 56.103C39.6415 56.103 39.4109 56.1916 39.2461 56.3661C39.0772 56.5441 38.9892 56.7795 38.9844 57.0641C38.9816 57.2296 39.0079 57.3861 39.0619 57.5287C39.0979 57.6236 39.1499 57.7129 39.217 57.7946C39.2842 57.8777 39.3687 57.9441 39.467 57.9954C39.5923 58.0584 39.7384 58.0909 39.9011 58.093L39.9309 58.0937C40.0327 58.0937 40.1193 58.084 40.1899 58.0639C40.266 58.0432 40.3547 58.003 40.4606 57.9344L40.5112 57.7793L40.4717 57.7343L40.4572 57.7433C40.3768 57.7911 40.3021 57.8244 40.2349 57.8437C40.1719 57.861 40.1026 57.8701 40.0223 57.8701C39.9088 57.8687 39.8111 57.8458 39.7322 57.8036C39.6754 57.7724 39.6166 57.7219 39.5605 57.6533C39.503 57.5848 39.458 57.4968 39.4248 57.3923C39.3908 57.2884 39.3749 57.1638 39.377 57.0232C39.3811 56.792 39.4358 56.6112 39.5411 56.4845C39.6429 56.3627 39.7786 56.3003 39.9545 56.3003ZM39.9295 58.0715C39.9302 58.0715 39.9309 58.0709 39.9309 58.0709V58.0729L39.9295 58.0715ZM42.3047 56.5763C42.2777 56.4953 42.2438 56.4212 42.2023 56.3561C42.16 56.2896 42.1019 56.2266 42.0298 56.167C41.9558 56.1082 41.8734 56.0639 41.7854 56.039C41.6663 56.0064 41.5362 55.9981 41.397 56.0126C41.2578 56.0293 41.1297 56.068 41.0161 56.1303C40.9268 56.1788 40.8472 56.2508 40.7773 56.3471C40.7073 56.4412 40.6582 56.5534 40.6291 56.6808C40.6014 56.8082 40.5958 56.9557 40.6145 57.1191C40.6388 57.331 40.6949 57.5069 40.7821 57.6433C40.8687 57.7776 40.9801 57.8773 41.1138 57.9369C41.2128 57.9819 41.325 58.0047 41.4475 58.0047C41.4877 58.0047 41.5299 58.0026 41.5729 57.9971C41.7321 57.9784 41.872 57.9327 41.9904 57.8572C42.0755 57.8012 42.1503 57.7264 42.2113 57.6343C42.2729 57.5422 42.3165 57.439 42.3407 57.3268C42.374 57.1766 42.3816 57.016 42.3622 56.847C42.3504 56.748 42.3317 56.6566 42.3047 56.5763ZM41.9689 57.4176C41.9419 57.5443 41.8955 57.6377 41.8304 57.6966C41.7653 57.7548 41.6864 57.7894 41.5964 57.7998C41.4995 57.8108 41.4108 57.7949 41.3333 57.7492C41.2557 57.7042 41.1851 57.6184 41.1235 57.4923C41.0618 57.3663 41.0182 57.1988 40.9954 56.9952C40.9788 56.8546 40.9815 56.7217 41.003 56.6019C41.0231 56.4849 41.0674 56.3914 41.1339 56.3256C41.2003 56.2598 41.2876 56.2197 41.3921 56.2079C41.4157 56.2058 41.4378 56.2037 41.4593 56.2037C41.5216 56.2037 41.5749 56.2148 41.6185 56.237C41.6781 56.2674 41.7328 56.3152 41.782 56.3789C41.8318 56.4426 41.8734 56.5264 41.9073 56.6234C41.9412 56.7224 41.9655 56.8345 41.98 56.9564C42.0001 57.1344 41.9966 57.2895 41.9689 57.4176ZM44.18 56.8563C44.1696 56.8064 44.1724 56.7953 44.1738 56.794C44.1772 56.7829 44.1925 56.7649 44.2472 56.7171L44.2008 56.616L43.5236 56.8037L43.5735 56.9248C43.6759 56.9075 43.7424 56.8992 43.8033 56.9041C43.8068 56.9096 43.8186 56.9338 43.8456 57.0425L43.8719 57.1637C43.8871 57.2302 43.8961 57.2752 43.9065 57.28C43.8698 57.3126 43.8293 57.3407 43.786 57.3638C43.7439 57.3865 43.6989 57.4038 43.6524 57.4151C43.4904 57.4559 43.3339 57.4151 43.1864 57.2987C43.0375 57.1789 42.9309 56.9913 42.8693 56.7413C42.8132 56.5128 42.8236 56.3176 42.8983 56.1618C42.9731 56.0067 43.1005 55.9077 43.2764 55.864C43.3533 55.8453 43.4246 55.8377 43.489 55.8447C43.5541 55.8509 43.615 55.8668 43.6697 55.8924C43.6932 55.9028 43.7168 55.9181 43.7348 55.9312C43.7459 55.9554 43.7569 55.9859 43.768 56.0233C43.7846 56.0759 43.7957 56.1168 43.8283 56.159L43.9321 56.114C43.8996 55.9187 43.883 55.781 43.8823 55.7013L43.8518 55.6584C43.7819 55.6418 43.6912 55.6328 43.5728 55.6314C43.4557 55.6314 43.3332 55.6459 43.2085 55.6771C43.1061 55.7027 43.0133 55.7359 42.9316 55.7782C42.8492 55.8204 42.7737 55.8758 42.7072 55.943C42.6387 56.0108 42.5833 56.0925 42.5397 56.1846C42.4967 56.2767 42.4697 56.3813 42.46 56.4928C42.4504 56.6029 42.4628 56.7303 42.4967 56.8667C42.5369 57.0301 42.5999 57.1734 42.6858 57.2939C42.7412 57.3728 42.8111 57.4421 42.8935 57.5009C42.9766 57.5605 43.0708 57.6027 43.1732 57.629C43.2411 57.6449 43.311 57.6533 43.383 57.6533C43.4675 57.6533 43.5561 57.6422 43.6469 57.62C43.7493 57.5951 43.8504 57.5563 43.9474 57.5065C44.0436 57.4573 44.1551 57.3853 44.2853 57.269C44.2624 57.2039 44.2428 57.1379 44.2264 57.0709C44.216 57.0273 44.2008 56.956 44.18 56.8563ZM45.6646 55.4228C45.6147 55.2747 45.587 55.177 45.5849 55.1237C45.5891 55.1161 45.6099 55.096 45.7338 55.0261L45.6673 54.9091C45.5586 54.9541 45.4693 54.9894 45.3994 55.015C45.3267 55.0413 45.2463 55.0662 45.1439 55.1189L45.2083 55.2366C45.2969 55.2068 45.3384 55.202 45.3689 55.202C45.3717 55.2033 45.3827 55.2103 45.3994 55.2449C45.4354 55.3197 45.5365 55.5849 45.6985 56.0349L45.7747 56.1845L45.8114 56.2856C45.6722 56.2025 45.497 56.0889 45.2817 55.938C44.9666 55.7185 44.6959 55.5225 44.4466 55.3487L44.1973 55.4478C44.1551 55.463 44.0879 55.4838 43.982 55.5371L44.0457 55.6569C44.1461 55.6292 44.1752 55.625 44.1862 55.625L44.2222 55.6126L44.2347 55.6589C44.2451 55.6749 44.2603 55.7137 44.2825 55.7725L44.565 56.5397C44.6052 56.6512 44.6363 56.7419 44.6585 56.8118C44.6966 56.9351 44.7194 57.0133 44.727 57.0466L44.7471 57.0424L44.7236 57.1013C44.7187 57.1047 44.6945 57.1186 44.5775 57.1899L44.6239 57.3187L44.6439 57.309C44.7596 57.2612 44.8524 57.2238 44.9216 57.1989L45.0642 57.1504L45.1667 57.093L45.13 56.9912L45.1016 56.9801L45.0822 56.9877C45.0615 56.9946 45.0275 57.0036 44.9798 57.0133L44.9638 57.0334H44.9604L44.9375 57.0016C44.9257 56.9849 44.9008 56.9282 44.8627 56.8333C44.8073 56.6948 44.7568 56.5605 44.7097 56.4303L44.5685 56.1014L44.4764 55.8459C45.1148 56.2981 45.5891 56.6228 45.9381 56.8423C46.0038 56.8305 46.0682 56.8194 46.1326 56.8098L46.1583 56.7634C46.1063 56.6491 45.9789 56.3105 45.7788 55.7559C45.7532 55.6839 45.7151 55.5731 45.6646 55.4228ZM45.6563 54.9354C45.6541 54.9366 45.6518 54.9373 45.6493 54.9374C45.6507 54.9368 45.6535 54.9361 45.6556 54.934L45.6563 54.9354ZM45.1709 55.1313L45.1722 55.1369L45.1695 55.132C45.1695 55.132 45.1702 55.1313 45.1709 55.1313ZM45.8231 56.3188C45.7892 56.2987 45.7456 56.2697 45.7068 56.2447C45.7428 56.2634 45.7809 56.2842 45.8155 56.2987L45.8231 56.3188ZM44.009 55.5502L44.0104 55.5558L44.0076 55.5502H44.009ZM45.0912 57.0071H45.0899C45.0891 57.0072 45.0884 57.0074 45.0878 57.0078C45.0885 57.0071 45.0899 57.0071 45.0905 57.0043L45.0912 57.0071ZM44.4639 55.812L44.8129 56.0578C44.7002 55.984 44.5871 55.9108 44.4736 55.8383L44.4639 55.812ZM47.4549 54.7972C47.405 54.728 47.3503 54.6678 47.2901 54.6172C47.2319 54.5674 47.1571 54.5237 47.0699 54.4891C46.9875 54.4559 46.8933 54.4337 46.7985 54.4393C46.6759 54.4427 46.5485 54.4739 46.4204 54.5307C46.2916 54.5881 46.1808 54.6629 46.0908 54.7557C46.0202 54.8284 45.9662 54.9219 45.9281 55.034C45.89 55.1455 45.8762 55.2681 45.8879 55.3976C45.8976 55.5277 45.9371 55.6697 46.0043 55.8199C46.0901 56.0152 46.1968 56.1668 46.3193 56.2686C46.4439 56.3732 46.5797 56.4348 46.7244 56.4507C46.7535 56.4549 46.7818 56.4563 46.8109 56.4563C46.93 56.4563 47.054 56.4272 47.1807 56.3711C47.3275 56.306 47.4473 56.2195 47.5373 56.1142C47.6024 56.0339 47.6508 55.9397 47.682 55.8338C47.7131 55.7278 47.7235 55.6164 47.7132 55.5014C47.7007 55.3477 47.6584 55.1919 47.5906 55.0389C47.5497 54.9468 47.504 54.8658 47.4549 54.7972ZM46.966 56.2167C46.9364 56.2167 46.9069 56.2132 46.8781 56.2063C46.7915 56.1869 46.6981 56.126 46.6011 56.0249C46.5049 55.9217 46.4128 55.7756 46.3304 55.588C46.2729 55.4585 46.2355 55.3311 46.2196 55.2106C46.2044 55.0922 46.2189 54.989 46.2632 54.9066C46.3062 54.8242 46.3775 54.7605 46.4737 54.7183C46.5388 54.6892 46.5997 54.6733 46.6531 54.6733C46.669 54.6733 46.6835 54.6761 46.6981 54.6774C46.7645 54.6892 46.8317 54.7183 46.8968 54.7654C46.9626 54.8111 47.0277 54.8776 47.09 54.9606C47.1523 55.0451 47.2084 55.1441 47.2582 55.2563C47.3302 55.4197 47.3739 55.5693 47.3856 55.7002C47.3981 55.8289 47.3815 55.9314 47.3365 56.0076C47.2915 56.0831 47.2271 56.1385 47.1447 56.1758C47.0844 56.2028 47.0242 56.2167 46.966 56.2167ZM48.8334 54.6273C48.7967 54.5858 48.7593 54.5539 48.7219 54.5318C48.6845 54.5089 48.6409 54.4944 48.5931 54.4868C48.5454 54.4791 48.49 54.4812 48.4228 54.493C48.3993 54.4964 48.348 54.5089 48.2698 54.529C48.1929 54.5505 48.132 54.5636 48.0898 54.5733C48.0337 54.5823 47.988 54.5844 47.9527 54.5782C47.9196 54.5721 47.8889 54.557 47.864 54.5345C47.8356 54.511 47.8093 54.4743 47.783 54.4244C47.7498 54.3545 47.7442 54.2839 47.7664 54.2091C47.7879 54.135 47.8426 54.0768 47.9291 54.0339C47.9873 54.0062 48.0551 53.982 48.114 53.9917C48.1756 53.9944 48.2234 54.0055 48.2525 54.0228C48.2767 54.0581 48.3113 54.1212 48.3861 54.2216L48.481 54.1516C48.4501 54.0854 48.4215 54.0182 48.3951 53.9501C48.3748 53.8977 48.357 53.8443 48.3418 53.7902L48.3183 53.7611L48.2622 53.7486C48.2068 53.7486 48.1472 53.7563 48.0863 53.7708C48.008 53.7902 47.9326 53.8172 47.8606 53.8525C47.7904 53.8874 47.725 53.9312 47.666 53.9827C47.608 54.0339 47.5609 54.0963 47.5275 54.1662C47.495 54.2361 47.4804 54.3192 47.4853 54.4141C47.4908 54.5075 47.5164 54.6024 47.5614 54.6938C47.5933 54.7582 47.6335 54.8163 47.6798 54.8648C47.7269 54.9147 47.7796 54.9507 47.837 54.9728C47.8952 54.9957 47.961 55.004 48.0323 54.995C48.0787 54.9894 48.1708 54.9721 48.3093 54.9417C48.384 54.9271 48.4401 54.9209 48.5156 54.9216C48.5558 54.9257 48.5911 54.941 48.6215 54.9659C48.6534 54.9936 48.6811 55.0303 48.7046 55.0774C48.7323 55.1342 48.7462 55.1916 48.7469 55.2456C48.7476 55.2997 48.7295 55.3509 48.6949 55.3994C48.6603 55.4478 48.6111 55.4873 48.5502 55.5178C48.4907 55.5462 48.429 55.56 48.3286 55.56C48.2518 55.5531 48.1895 55.5316 48.1472 55.5025C48.0967 55.4222 48.0586 55.3537 48.0025 55.2858L47.9076 55.3557C47.997 55.5406 48.0551 55.6839 48.0974 55.8003C48.1292 55.8017 48.1597 55.803 48.1888 55.803C48.2532 55.803 48.3113 55.7975 48.364 55.7885C48.4401 55.7747 48.5218 55.747 48.6063 55.7047C48.7226 55.6479 48.814 55.578 48.8791 55.4977C48.92 55.4464 48.9525 55.3834 48.9788 55.3087C49.0034 55.2372 49.0153 55.162 49.0141 55.0864C49.0121 54.9874 48.9851 54.8856 48.9338 54.781C48.904 54.7222 48.8708 54.6709 48.8334 54.6273ZM50.5209 54.3311L50.5119 54.3463C50.4627 54.4253 50.4129 54.4897 50.363 54.5374C50.3101 54.5865 50.2504 54.6278 50.1858 54.66C50.0868 54.7105 49.9912 54.7362 49.8991 54.7362C49.834 54.7362 49.7586 54.7182 49.6762 54.6828C49.5951 54.6496 49.5141 54.5942 49.4352 54.516C49.357 54.4391 49.2849 54.3366 49.2205 54.2106C49.116 54.005 49.0807 53.8194 49.1146 53.6588C49.1485 53.4995 49.2434 53.3797 49.395 53.3029C49.4788 53.2599 49.555 53.2378 49.6284 53.2364C49.6935 53.2364 49.7613 53.2509 49.8209 53.2738C49.8527 53.3229 49.8908 53.3908 49.9649 53.4863L50.0535 53.4185C50.0147 53.334 49.9791 53.2481 49.9469 53.1609C49.924 53.1021 49.9095 53.0522 49.9012 53.0107L49.8666 52.9809C49.7482 52.9885 49.6485 53.0037 49.5668 53.0252C49.4857 53.046 49.3978 53.0806 49.3043 53.1277C49.035 53.2641 48.8646 53.4538 48.7982 53.6906C48.7317 53.9281 48.7642 54.176 48.8923 54.4301C48.9678 54.5783 49.0641 54.705 49.1769 54.8047C49.2524 54.8726 49.3403 54.928 49.4387 54.9688C49.5349 55.009 49.6395 55.0291 49.7468 55.0291H49.7537C49.8929 55.0263 50.0376 54.9882 50.183 54.9148C50.2841 54.8636 50.3665 54.8096 50.4247 54.7535C50.4835 54.6995 50.5431 54.6226 50.6047 54.5125L50.5763 54.3505L50.5209 54.3311ZM51.5411 53.6363C51.5799 53.7478 51.6027 53.826 51.609 53.8856C51.6062 53.8918 51.5903 53.9119 51.5141 53.9569C51.4559 53.9943 51.3902 54.0303 51.3182 54.0649C51.2434 54.1023 51.1776 54.1314 51.1464 54.1626C51.1204 54.1162 51.0957 54.0691 51.0723 54.0213L50.8155 53.5449C50.8549 53.5186 50.9082 53.4895 50.974 53.457C51.046 53.4196 51.1084 53.3954 51.1991 53.3857C51.2122 53.3954 51.2385 53.4293 51.3216 53.5519L51.4137 53.4819L51.1243 52.9467L51.0322 53.0166C51.0654 53.0859 51.0855 53.1371 51.0924 53.1876C51.0924 53.1876 51.0841 53.1973 51.0405 53.2195C50.9449 53.2714 50.8902 53.2998 50.875 53.3081C50.8252 53.3324 50.7767 53.3545 50.7552 53.3829L50.6334 53.135C50.5634 52.9965 50.5122 52.8795 50.4672 52.8096C50.5274 52.7736 50.587 52.7396 50.6465 52.7099C50.7102 52.6787 50.7767 52.651 50.848 52.6268C50.8979 52.6081 50.9172 52.6067 50.9387 52.6171C50.9491 52.6295 50.9733 52.6676 51.0606 52.7909L51.1492 52.7251L51.008 52.3664L50.9706 52.3408L50.9276 52.3519C50.8515 52.3865 50.8002 52.4094 50.7753 52.4225L50.5724 52.5305C50.4589 52.5887 50.3571 52.6413 50.2643 52.6877L49.8848 52.9024L49.9582 53.0041C50.0538 52.964 50.0905 52.9543 50.1168 52.9591C50.1272 52.9688 50.1514 53.0041 50.2082 53.1122L50.5946 53.8828C50.6257 53.9438 50.6721 54.0455 50.7351 54.1847C50.7691 54.2609 50.7926 54.3156 50.8051 54.3371C50.7912 54.3731 50.7705 54.4118 50.7407 54.4721L50.7829 54.5566L50.8016 54.5462C51.0086 54.4361 51.1201 54.3779 51.1367 54.3696C51.1977 54.3391 51.3098 54.2858 51.4719 54.2076L51.6387 54.1314C51.7191 54.0912 51.7814 54.0566 51.8215 54.0303L51.8347 53.9812C51.7842 53.878 51.7274 53.7457 51.6353 53.5692L51.5411 53.6363ZM51.6256 53.5976L51.6201 53.601L51.6242 53.5955C51.6256 53.5969 51.6256 53.5976 51.6256 53.5976ZM51.3313 53.5228H51.3327L51.3313 53.5242V53.5228ZM51.1153 52.9758H51.1132L51.1146 52.9751L51.1153 52.9758ZM53.2866 53.1796L53.2845 53.2011L53.2457 53.1671C53.2277 53.1588 53.1751 53.1263 53.0885 53.0702L52.6558 52.7558C52.6475 52.7489 52.6232 52.7316 52.5838 52.7032C52.5471 52.6776 52.5117 52.6499 52.482 52.6513C52.4813 52.6499 52.4799 52.6499 52.4785 52.6485C52.5671 52.5502 52.6191 52.447 52.6357 52.3397C52.6509 52.2324 52.6357 52.1264 52.5893 52.024C52.5505 51.9381 52.4965 51.8723 52.4287 51.8301C52.3698 51.7927 52.3116 51.7788 52.2258 51.7754C52.1621 51.7823 52.0755 51.81 51.964 51.8606C51.908 51.8855 51.838 51.9208 51.7535 51.9637C51.7037 51.9914 51.6428 52.0205 51.5708 52.053C51.487 52.0925 51.4205 52.1209 51.3741 52.1403C51.2779 52.1791 51.2204 52.2019 51.1948 52.2372L51.2661 52.348C51.3651 52.312 51.4025 52.3044 51.4323 52.312C51.4399 52.321 51.4627 52.3542 51.5237 52.4837L52.0035 53.5487C52.0298 53.6124 52.0485 53.6608 52.0575 53.7322C52.0513 53.7384 52.0277 53.7564 51.9197 53.8326L51.9772 53.96L51.9973 53.9503C52.0859 53.9025 52.1842 53.8547 52.2916 53.8062C52.4113 53.7515 52.5318 53.6996 52.6634 53.6241L52.5872 53.5064C52.5221 53.5341 52.4785 53.5452 52.4293 53.5473C52.4231 53.5404 52.4093 53.5217 52.3816 53.4683C52.3698 53.4462 52.3248 53.3527 52.2466 53.1872C52.1828 53.0515 52.1233 52.9234 52.0672 52.8015C52.0326 52.7254 51.9647 52.5696 51.865 52.3397C51.82 52.2365 51.793 52.1694 51.7743 52.1638C51.8029 52.1437 51.8332 52.1263 51.865 52.1119C51.9537 52.071 51.998 52.0614 52.0236 52.0614C52.0714 52.0614 52.1198 52.078 52.1676 52.1105C52.2168 52.1437 52.2576 52.1964 52.2902 52.2677C52.3227 52.3383 52.3379 52.4096 52.3366 52.4789C52.3338 52.5474 52.3186 52.6007 52.2902 52.6388C52.2618 52.6776 52.2057 52.7136 52.1122 52.7697L52.1344 52.832C52.1607 52.8396 52.1918 52.8562 52.2292 52.8805C52.3047 52.931 52.4023 53.0037 52.5221 53.0972L52.9376 53.4261C52.9618 53.4469 52.9798 53.4649 53.0172 53.4863C53.0698 53.458 53.1232 53.4323 53.1779 53.4074C53.2256 53.3859 53.3032 53.3527 53.4216 53.28L53.3461 53.1623C53.3087 53.1782 53.2928 53.1796 53.2866 53.1796ZM53.3939 53.2696L53.3925 53.2675L53.3946 53.2689C53.3946 53.2689 53.3939 53.2689 53.3939 53.2696ZM54.3807 52.417C54.3772 52.4094 54.3758 52.4046 54.373 52.3977L54.2733 52.4558C54.3017 52.5708 54.3176 52.6497 54.3183 52.7092C54.3135 52.7176 54.2941 52.7349 54.2172 52.7736C54.1501 52.8063 54.0814 52.8358 54.0116 52.8623C53.9334 52.8927 53.8662 52.9156 53.8316 52.9433C53.8136 52.9031 53.7928 52.8533 53.7713 52.7958L53.5594 52.2986C53.601 52.2758 53.6564 52.2509 53.7249 52.2246C53.8004 52.1955 53.8641 52.1761 53.9562 52.1754C53.9659 52.1837 53.9887 52.2169 54.0621 52.3506L54.1605 52.2903L53.9223 51.7309L53.8239 51.7911C53.8503 51.8645 53.8655 51.9178 53.8676 51.9677C53.8662 51.9691 53.8579 51.9767 53.8129 51.9954L53.6391 52.0681C53.5878 52.0875 53.538 52.1055 53.5151 52.1311L53.4147 51.8742C53.3586 51.7288 53.3178 51.6076 53.2797 51.5342C53.3407 51.5034 53.4034 51.4759 53.4674 51.4518C53.5331 51.4262 53.6031 51.4047 53.6758 51.3867C53.7194 51.3756 53.7402 51.3729 53.7679 51.3853C53.781 51.4047 53.8066 51.4636 53.8724 51.5702L53.9673 51.5121L53.8593 51.1423L53.8239 51.1139L53.781 51.1201C53.7007 51.1472 53.6488 51.1665 53.6225 51.1762L53.4099 51.2649C53.2929 51.314 53.1848 51.3563 53.0886 51.3937L52.6918 51.5723L52.7549 51.6803C52.8483 51.6512 52.8878 51.6457 52.9176 51.6498C52.9252 51.6595 52.9467 51.6928 52.9944 51.8105L53.3088 52.6144C53.3337 52.6781 53.3711 52.7833 53.4203 52.9281C53.4473 53.007 53.466 53.0638 53.4764 53.0866C53.4597 53.1185 53.4362 53.1538 53.3988 53.2147L53.4334 53.3026L53.4535 53.2936C53.6695 53.2036 53.7859 53.1552 53.8032 53.1489C53.8669 53.1247 53.9832 53.0804 54.1522 53.0188L54.3253 52.9571C54.4097 52.9246 54.4734 52.8969 54.5171 52.8734L54.5337 52.8249C54.4949 52.7245 54.4513 52.5902 54.3807 52.417ZM54.3613 52.4254L54.355 52.4267L54.3606 52.4233C54.3606 52.424 54.3606 52.424 54.3613 52.4254ZM56.6139 52.1311L56.5987 52.1505L56.5675 52.1104C56.5516 52.0993 56.5059 52.0571 56.4304 51.9857C56.4249 51.9802 56.3903 51.9442 56.3259 51.8763L56.0641 51.5973C56.0579 51.589 56.0371 51.5682 56.0032 51.5315C55.972 51.4997 55.9423 51.4685 55.9132 51.4623C55.9125 51.4616 55.9111 51.4609 55.9097 51.4595C56.0143 51.3792 56.0856 51.2864 56.1216 51.1853C56.1562 51.0814 56.1611 50.9734 56.1341 50.8661C56.1119 50.7733 56.0711 50.6999 56.0122 50.6459C55.9533 50.5905 55.8903 50.5601 55.7899 50.5531C55.729 50.5531 55.6501 50.5642 55.5504 50.5884C55.4901 50.603 55.4146 50.6238 55.3246 50.6514C55.2713 50.6688 55.2048 50.6875 55.1287 50.7061C55.0387 50.7283 54.9687 50.7442 54.9189 50.7532C54.8171 50.7747 54.7568 50.7872 54.725 50.8169L54.7748 50.9388C54.8386 50.9284 54.8849 50.9229 54.9445 50.9333C54.9507 50.9437 54.9667 50.9817 55.002 51.1195L55.2769 52.2551C55.2907 52.3223 55.2997 52.3749 55.2949 52.4462C55.2838 52.4545 55.2367 52.4704 55.1411 52.5189L55.1744 52.6553L55.1951 52.6477C55.2914 52.6186 55.3966 52.5888 55.5109 52.5618C55.639 52.53 55.7671 52.5016 55.9111 52.4517L55.8578 52.3216C55.7892 52.3368 55.747 52.3451 55.6951 52.3319C55.6895 52.325 55.6791 52.3049 55.6625 52.2461C55.6556 52.2225 55.6279 52.1221 55.5822 51.9456C55.5441 51.8002 55.5095 51.6631 55.4777 51.5322C55.4576 51.4505 55.4195 51.2864 55.3641 51.0406C55.3399 50.9312 55.3246 50.8613 55.3073 50.8516C55.3392 50.8377 55.3724 50.8266 55.4063 50.8176C55.4673 50.8017 55.5095 50.7975 55.5677 50.7975C55.6161 50.8045 55.6618 50.8308 55.7041 50.8716C55.7463 50.9139 55.7775 50.9727 55.7962 51.0489C55.8142 51.1264 55.8162 51.1971 55.8017 51.2642C55.7872 51.3314 55.7615 51.382 55.7269 51.4138C55.6902 51.4477 55.6293 51.4727 55.5282 51.51L55.5372 51.5758C55.5628 51.5883 55.5919 51.6104 55.6217 51.6409C55.6868 51.7039 55.7692 51.7926 55.8689 51.9082L56.2165 52.3084C56.2407 52.3382 56.2525 52.359 56.2836 52.3818C56.3411 52.3645 56.3986 52.3486 56.4567 52.3347C56.508 52.3216 56.5904 52.3036 56.7192 52.2544L56.6665 52.1242C56.6388 52.1305 56.6229 52.1311 56.6139 52.1311ZM55.8848 52.4365L55.8841 52.4323L55.8862 52.4365H55.8848ZM57.868 51.6606C57.8673 51.6523 57.8666 51.6475 57.8659 51.6399L57.7552 51.6724C57.7538 51.7901 57.7503 51.8711 57.7365 51.9293C57.7309 51.9335 57.7101 51.9466 57.6229 51.966C57.5557 51.9805 57.481 51.9916 57.4013 52.0013C57.3182 52.0117 57.2469 52.0166 57.2075 52.0352C57.1983 51.9826 57.1904 51.9297 57.1839 51.8767L57.1015 51.3442C57.1479 51.3317 57.2075 51.3221 57.2802 51.3124C57.3411 51.3054 57.393 51.3027 57.438 51.3027L57.517 51.3214C57.5239 51.3317 57.5384 51.3691 57.5765 51.518L57.6866 51.4834L57.5931 50.8824L57.483 50.9163C57.4907 50.9932 57.492 51.0486 57.4817 51.0984C57.4803 51.0991 57.4699 51.1053 57.4221 51.1116C57.3155 51.1275 57.2538 51.1372 57.2365 51.1393C57.1818 51.1462 57.1285 51.1496 57.0994 51.1704L57.0669 50.8962C57.0475 50.7418 57.0371 50.6144 57.0191 50.5334C57.0877 50.5189 57.1541 50.5078 57.2213 50.4995C57.2857 50.4918 57.3459 50.4856 57.4387 50.4877C57.5059 50.4891 57.519 50.4953 57.528 50.5092C57.5336 50.5244 57.544 50.5694 57.5841 50.7155L57.6901 50.683L57.6769 50.2966L57.6527 50.2647L57.6091 50.255L57.6063 50.2557C57.5225 50.2627 57.4671 50.2675 57.4394 50.271L57.2116 50.3049C57.0856 50.3229 56.9713 50.3381 56.8682 50.3499L56.4396 50.4261L56.4742 50.5465C56.5739 50.5403 56.6175 50.5431 56.639 50.5576C56.6459 50.5701 56.6577 50.6116 56.6743 50.7321L56.7809 51.5873C56.7892 51.6558 56.7996 51.7659 56.8121 51.9196C56.819 52.002 56.8225 52.0623 56.8273 52.0858C56.8031 52.1142 56.7712 52.144 56.7214 52.1917L56.7325 52.2845L56.8495 52.2679C57.0198 52.2423 57.114 52.2298 57.1285 52.227C57.1964 52.2201 57.3196 52.2063 57.4983 52.1876L57.6818 52.1703C57.7718 52.1599 57.841 52.1474 57.8881 52.1363L57.9165 52.0941C57.9033 51.9854 57.8936 51.8462 57.868 51.6627V51.6606ZM57.8472 51.6634L57.841 51.6641L57.8472 51.6613V51.6634ZM59.4672 51.9593C59.454 51.9441 59.4208 51.8907 59.3668 51.8028L59.114 51.332C59.1092 51.323 59.0953 51.2966 59.0718 51.2544C59.0503 51.2142 59.0302 51.1769 59.0032 51.1623C59.0019 51.1616 59.0012 51.1602 59.0005 51.1589C59.123 51.1083 59.2158 51.0377 59.2761 50.9484C59.337 50.8583 59.3695 50.7566 59.3709 50.6444C59.3737 50.5495 59.3536 50.4678 59.3114 50.4C59.2684 50.3314 59.2151 50.2864 59.1528 50.2622C59.0905 50.2407 58.9991 50.2275 58.8793 50.2255L58.8101 50.2248C58.7549 50.2248 58.6997 50.2257 58.6446 50.2276C58.6127 50.2289 58.5767 50.2296 58.5372 50.2296L58.4417 50.2289C58.3622 50.2273 58.2828 50.2243 58.2035 50.2199C58.1128 50.213 58.0595 50.2102 58.0228 50.231L58.0394 50.3619C58.1606 50.375 58.1903 50.3854 58.2042 50.4013C58.209 50.4145 58.2139 50.4595 58.2125 50.5959L58.1827 51.7633C58.1786 51.8326 58.1737 51.8845 58.1502 51.9531C58.1453 51.9544 58.119 51.96 57.9833 51.9828L58.002 52.1213C58.0643 52.1192 58.1294 52.1185 58.1973 52.1185L58.3295 52.1192C58.4618 52.1241 58.5926 52.1289 58.7436 52.1179L58.7263 51.9787C58.6965 51.9766 58.6169 51.9731 58.5663 51.9468C58.5636 51.9378 58.5594 51.9157 58.5573 51.8554C58.5566 51.8305 58.5566 51.7273 58.558 51.5431C58.5594 51.3936 58.5615 51.2516 58.5642 51.118C58.5656 51.0335 58.5726 50.8653 58.5822 50.6132C58.5871 50.5017 58.5906 50.4297 58.5767 50.4173C58.6079 50.411 58.6328 50.4097 58.6806 50.4083C58.7602 50.4103 58.8142 50.418 58.8426 50.4304C58.8869 50.4512 58.9243 50.4879 58.9541 50.5391C58.9838 50.5904 58.9984 50.6562 58.9963 50.7344C58.9949 50.8106 58.9783 50.8819 58.9458 50.9442C58.9153 51.0044 58.8772 51.0467 58.835 51.0688C58.8011 51.0868 58.7512 51.0958 58.6889 51.0958L58.6189 51.109L58.6113 51.1755C58.6314 51.1942 58.6536 51.2219 58.675 51.2593C58.7214 51.3375 58.7782 51.4448 58.8447 51.5812L59.0766 52.0576C59.0891 52.0874 59.0981 52.1123 59.1223 52.1469L59.2359 52.1455L59.3024 52.1462C59.3536 52.1469 59.4381 52.1504 59.5544 52.1566L59.5759 52.1587V52.1365L59.5592 51.9974C59.5156 51.9953 59.5004 51.9891 59.4672 51.9593ZM58.7228 52.0964L58.7235 52.0929L58.7242 52.0964H58.7228ZM61.0081 51.7284L61.0767 51.4216C61.0975 51.3316 61.1272 51.2084 61.1674 51.054C61.2172 50.8622 61.2353 50.8088 61.2415 50.7978L61.2228 50.7874L61.2858 50.7694C61.308 50.7694 61.3405 50.7735 61.4084 50.7659L61.416 50.6337L61.1376 50.5803C61.1127 50.5755 61.0344 50.554 60.8773 50.5339L60.8683 50.6676C60.9687 50.6932 61.0019 50.7133 61.0241 50.7486C61.0268 50.7631 61.0227 50.8102 60.9957 50.9432C60.9853 50.9944 60.9541 51.1336 60.9029 51.3628L60.8426 51.6294C60.8018 51.8108 60.7616 51.9326 60.7222 51.9894C60.6848 52.0467 60.6299 52.0905 60.5657 52.114C60.4992 52.1404 60.4161 52.1417 60.3185 52.1203C60.2312 52.1002 60.1655 52.0704 60.1177 52.0289C60.0692 51.988 60.0374 51.9409 60.0221 51.8883C60.0055 51.8357 60.0034 51.7678 60.0145 51.6882C60.0194 51.6501 60.0401 51.5525 60.0761 51.3939L60.1772 50.939C60.2174 50.7569 60.2492 50.6406 60.2714 50.5893L60.3282 50.5547C60.3545 50.5547 60.3905 50.5603 60.4625 50.554L60.4867 50.446L60.4494 50.4176L59.7452 50.2805L59.7341 50.4121L59.8809 50.4869C59.8836 50.4986 59.8836 50.5222 59.876 50.5665C59.8587 50.6641 59.8359 50.7735 59.8082 50.8961L59.6766 51.477C59.6455 51.6155 59.6281 51.7014 59.6247 51.7332C59.6185 51.7872 59.6212 51.8447 59.633 51.9063C59.6448 51.9686 59.6697 52.0289 59.7064 52.0843C59.7431 52.141 59.7957 52.1916 59.8629 52.2352C59.9536 52.2934 60.0581 52.3363 60.1724 52.3619C60.2437 52.3785 60.3123 52.3855 60.376 52.3855C60.4762 52.387 60.5752 52.3627 60.6633 52.3148C60.7298 52.2775 60.7859 52.2304 60.8288 52.1757C60.8724 52.1237 60.9091 52.0538 60.9382 51.9693C60.9673 51.8876 60.9908 51.8066 61.0081 51.7284ZM60.8932 50.5589L60.8918 50.563V50.5589H60.8932ZM60.4459 50.4384L60.4348 50.4356L60.4459 50.437V50.4384ZM63.3043 51.4826C63.28 51.4715 63.2246 51.4411 63.1125 51.3975C63.0605 51.4529 63.0155 51.4979 62.9788 51.5332C62.9414 51.5692 62.8417 51.6613 62.6783 51.8129L62.384 52.0836C62.3259 52.1383 62.2463 52.2159 62.1632 52.3101C62.1389 52.3315 62.1161 52.3523 62.0884 52.3752L62.1576 50.9315C62.0851 50.9033 62.0135 50.8728 61.943 50.8401C61.8897 50.8144 61.7934 50.766 61.6272 50.703L61.5878 50.8331C61.6224 50.8518 61.6605 50.8761 61.6999 50.9058L61.7131 50.8878L61.7186 50.9467C61.7165 50.964 61.6979 51.0173 61.6272 51.1731C61.5704 51.3005 61.5026 51.4445 61.4257 51.6086C61.3392 51.7914 61.2776 51.9195 61.2402 51.9943C61.164 52.146 61.1128 52.2436 61.0865 52.2865C61.074 52.3087 61.065 52.317 61.0428 52.3246C61.038 52.3246 61.0103 52.3218 60.8773 52.2914L60.8406 52.4229C60.9043 52.4458 60.9881 52.4832 61.0927 52.5316C61.1723 52.5697 61.2485 52.6092 61.3516 52.641L61.3911 52.5109C61.3066 52.4638 61.2838 52.4458 61.2782 52.4396L61.2416 52.4195L61.2672 52.38C61.2734 52.3606 61.3066 52.2831 61.3683 52.1467C61.4212 52.0278 61.4757 51.9096 61.5317 51.7921L61.657 51.4764L61.7692 51.2396L61.7359 51.9652C61.7297 52.0836 61.7186 52.2623 61.7027 52.5005C61.6937 52.6404 61.6861 52.7498 61.6909 52.8495L61.7844 52.8792C61.828 52.8356 61.8876 52.7795 61.9603 52.7096C62.0821 52.5947 62.1763 52.5081 62.2407 52.4486L62.6492 52.0463L62.9387 51.7859L62.544 52.6203C62.4657 52.7885 62.4152 52.8875 62.3972 52.9139C62.3757 52.945 62.3619 52.9499 62.357 52.9506C62.348 52.9506 62.3176 52.9436 62.1895 52.9111L62.1507 53.042L62.8182 53.3577L62.868 53.2081C62.841 53.1922 62.7586 53.1472 62.7393 53.0967C62.7462 53.0717 62.7704 53.008 62.8126 52.9042C62.8203 52.8869 62.8487 52.8259 62.8964 52.7234L63.3347 51.8101C63.3652 51.7457 63.3894 51.725 63.4227 51.716C63.4476 51.716 63.4857 51.7291 63.5355 51.7534L63.5688 51.7693L63.6159 51.6197L63.3043 51.4826ZM63.5875 51.6301L63.5798 51.626L63.5889 51.6294L63.5875 51.6301ZM62.0662 52.3945L62.1098 51.5318L62.0815 52.3821C62.0759 52.3869 62.0725 52.3904 62.0662 52.3945ZM61.6376 50.7314L61.6362 50.7341L61.6369 50.7307C61.6369 50.7307 61.6369 50.7314 61.6376 50.7314ZM60.867 52.4112C60.869 52.4119 60.8711 52.4132 60.8732 52.4132C60.8718 52.4132 60.8683 52.4112 60.867 52.4112ZM61.3419 52.6127L61.344 52.6078L61.3433 52.6133C61.3426 52.6127 61.3419 52.6127 61.3419 52.6127ZM61.7927 51.1897L61.7754 51.5595L61.774 51.2299L61.7927 51.1897ZM62.9788 51.7499L62.7822 52.166L62.9456 51.7797L62.9788 51.7499ZM62.1791 53.0309L62.1874 53.035L62.1784 53.0316L62.1791 53.0309Z" fill="white"/>
</svg>
