<svg width="180" height="80" viewBox="0 0 180 80" fill="none" xmlns="http://www.w3.org/2000/svg">
<path d="M77.7052 51.1987C77.6556 51.1356 77.6015 51.0725 77.5519 51.0093L77.5474 51.0048C77.2588 50.6442 76.9658 50.288 76.6728 49.9364C76.6682 49.9273 76.6592 49.9228 76.6547 49.9138C76.6412 49.8958 76.6277 49.8823 76.6096 49.8642C76.3166 49.5126 76.0145 49.1699 75.7125 48.8273C75.5953 48.6921 75.4735 48.5613 75.3563 48.4306C75.1489 48.2006 74.9416 47.9707 74.7342 47.7453C74.5989 47.5965 74.4592 47.4523 74.3194 47.308C74.121 47.1006 73.9227 46.8932 73.7198 46.6858C73.5755 46.5371 73.4358 46.3928 73.2915 46.2485C73.0841 46.0411 72.8767 45.8383 72.6693 45.6309C72.5296 45.4956 72.3943 45.3604 72.2546 45.2251C71.9931 44.9772 71.7316 44.7292 71.4656 44.4858C71.3078 44.337 71.1455 44.1927 70.9877 44.0485C70.7172 43.805 70.4467 43.5616 70.1717 43.3226C70.0094 43.1829 69.8471 43.0431 69.6803 42.9033C69.4774 42.732 69.2791 42.5607 69.0762 42.3939C68.8959 42.2451 68.7155 42.0964 68.5352 41.9521C68.3459 41.7988 68.152 41.6455 67.9626 41.4967C67.7733 41.348 67.5839 41.1992 67.3901 41.0504C67.2052 40.9062 67.0159 40.7664 66.8265 40.6266C66.6282 40.4779 66.4298 40.3291 66.2314 40.1803C66.0511 40.0496 65.8708 39.9188 65.6859 39.7926C65.2712 39.4996 64.8564 39.2065 64.4371 38.9225C64.2838 38.8188 64.1351 38.7151 63.9818 38.6159C63.7428 38.4581 63.4994 38.3003 63.2559 38.1425C63.0982 38.0434 62.9404 37.9397 62.7826 37.8405C62.5346 37.6827 62.2821 37.5294 62.0342 37.3761C61.8809 37.2814 61.7321 37.1913 61.5788 37.1011C61.3174 36.9433 61.0559 36.7855 60.7899 36.6322C60.6591 36.5556 60.5239 36.479 60.3931 36.4023C60.1046 36.2355 59.8161 36.0732 59.523 35.9109C59.505 35.9019 59.487 35.8929 59.4689 35.8839C58.3779 35.2843 57.2644 34.7162 56.1285 34.1752C56.0383 34.1301 55.9482 34.0895 55.858 34.0445C55.5244 33.8867 55.1908 33.7334 54.8572 33.5801C54.7625 33.535 54.6633 33.4944 54.5686 33.4494C54.2215 33.2961 53.8743 33.1428 53.5227 32.9895C53.4641 32.9625 53.4055 32.9399 53.3469 32.9129C51.7284 32.2276 50.065 31.5919 48.3609 31.0104C48.3338 31.0013 48.3113 30.9923 48.2843 30.9833C47.8695 30.8435 47.4547 30.7038 47.0354 30.573C46.9904 30.5595 46.9498 30.546 46.9047 30.5325C44.6866 29.8247 42.3921 29.2025 40.0297 28.666C38.9027 29.4279 37.7846 30.2124 36.6758 31.0104C52.3553 33.8731 69.8108 42.6008 78.6737 52.4197C78.6737 52.4197 78.6737 52.4152 78.6692 52.4152C78.6692 52.4107 78.6647 52.4107 78.6647 52.4062C78.3581 52.0049 78.0516 51.6037 77.736 51.2115C77.7142 51.2077 77.7097 51.2032 77.7052 51.1987Z" fill="white"/>
<path d="M68.1875 15.8776C68.1965 15.8595 68.2055 15.837 68.2191 15.8145C68.2146 15.8235 68.21 15.837 68.201 15.846C68.1965 15.8595 68.192 15.8686 68.1875 15.8776Z" fill="white"/>
<path d="M68.7539 38.0547C68.7584 38.0682 68.7674 38.0817 68.7764 38.0998C68.7674 38.0862 68.7629 38.0682 68.7539 38.0547Z" fill="white"/>
<path d="M68.7344 38.0137C68.7389 38.0272 68.7479 38.0407 68.7524 38.0542C68.7479 38.0362 68.7389 38.0272 68.7344 38.0137Z" fill="white"/>
<path d="M47.0201 30.5743C47.4393 30.7096 47.8541 30.8448 48.2689 30.9846C48.2959 30.9936 48.3185 31.0026 48.3455 31.0116C50.0542 31.5932 51.713 32.2289 53.3315 32.9141C53.3901 32.9412 53.4487 32.9637 53.5073 32.9908C53.859 33.1395 54.2061 33.2928 54.5532 33.4506C54.6479 33.4957 54.7471 33.5363 54.8418 33.5814C55.1799 33.7346 55.5135 33.8879 55.8426 34.0457C55.9328 34.0908 56.023 34.1314 56.1131 34.1765C57.2492 34.7175 58.3628 35.2855 59.4536 35.8851C59.4716 35.8941 59.4896 35.9032 59.5077 35.9122C59.8007 36.0745 60.0892 36.2368 60.3778 36.4036C60.5085 36.4802 60.6438 36.5569 60.7745 36.6335C61.0405 36.7868 61.302 36.9446 61.5635 37.1024C61.7167 37.1925 61.87 37.2872 62.0188 37.3774C62.2713 37.5307 62.5192 37.684 62.7672 37.8417C62.925 37.9409 63.0828 38.0446 63.2406 38.1438C63.484 38.3016 63.7275 38.4549 63.9664 38.6172C64.1197 38.7164 64.2685 38.8246 64.4217 38.9237C64.841 39.2078 65.2603 39.5008 65.6706 39.7939C65.8509 39.9246 66.0357 40.0508 66.2161 40.1816C66.4189 40.3303 66.6128 40.4791 66.8112 40.6279C67.0005 40.7677 67.1854 40.9119 67.3747 41.0517C67.5686 41.2005 67.7579 41.3492 67.9473 41.498C68.1411 41.6513 68.3305 41.8001 68.5198 41.9533C68.7002 42.1021 68.8805 42.2464 69.0608 42.3952C69.2637 42.562 69.4666 42.7333 69.6649 42.9046C69.8272 43.0444 69.9941 43.1796 70.1564 43.3239C70.4314 43.5628 70.7019 43.8063 70.9724 44.0497C71.1347 44.194 71.2925 44.3383 71.4502 44.487C71.7162 44.7305 71.9777 44.9785 72.2392 45.2264C72.379 45.3617 72.5187 45.4969 72.654 45.6322C72.8614 45.835 73.0732 46.0424 73.2761 46.2498C73.4204 46.3941 73.5647 46.5428 73.7044 46.6871C73.9028 46.8945 74.1057 47.1019 74.304 47.3093C74.4438 47.4535 74.579 47.6023 74.7188 47.7466C74.9262 47.972 75.1336 48.2019 75.3409 48.4318C75.4582 48.5626 75.5799 48.6978 75.6971 48.8286C75.9992 49.1712 76.2967 49.5138 76.5943 49.8655C76.6168 49.888 76.6348 49.9151 76.6574 49.9376C76.9549 50.2893 77.2435 50.6454 77.532 51.0061C77.5861 51.0737 77.6447 51.1413 77.6988 51.2135C78.0144 51.6057 78.321 52.0069 78.6275 52.4082C78.632 52.4127 78.632 52.4172 78.6365 52.4217C81.053 43.8832 84.2041 36.5531 88.0449 30.4128L68.7545 38.0992C68.741 38.0722 68.7184 38.0271 68.6869 37.9595C68.6869 37.9595 68.6869 37.964 68.6914 37.964C68.6914 37.964 68.6914 37.9595 68.6869 37.9595L85.4797 28.4564L41.8678 27.2031V27.0453L85.3219 25.7965L68.1639 15.8741C68.1594 15.8831 68.1594 15.8876 68.1549 15.8922C68.1594 15.8876 68.1594 15.8786 68.1639 15.8741C68.1684 15.8651 68.1729 15.8516 68.1774 15.8426C68.182 15.829 68.191 15.8155 68.2 15.7975C68.209 15.7794 68.218 15.7569 68.2315 15.7344C68.2225 15.7479 68.218 15.7659 68.209 15.7794C68.218 15.7614 68.227 15.7434 68.2315 15.7344L86.9855 23.511L82.3962 13.2235C82.4053 13.219 82.4098 13.2144 82.4188 13.2099C82.4503 13.1919 82.4729 13.1784 82.4909 13.1694C82.5044 13.1603 82.518 13.1558 82.5315 13.1468L89.9971 23.1639L91.3991 12.439H91.4352H91.5119H91.5479L93.0086 23.5876C97.4581 18.3447 102.602 14.3323 108.4 11.5554C102.755 10.5816 97.1157 10 91.4715 10C71.4327 10 51.5878 16.618 34.0781 27.5096C38.5772 28.2355 42.8376 29.2453 46.8633 30.5257C46.9344 30.5473 46.975 30.5608 47.0201 30.5743ZM82.4992 13.1819C82.4812 13.1954 82.4586 13.2044 82.4451 13.2134C82.4541 13.2089 82.4721 13.1999 82.4992 13.1819ZM68.2716 15.6975C68.2759 15.693 68.2759 15.693 68.2716 15.6975V15.6975ZM68.6997 37.9407C68.6997 37.9362 68.6952 37.9317 68.6952 37.9317C68.6997 37.9362 68.6997 37.9362 68.6997 37.9407Z" fill="white"/>
<path d="M94.6066 27.5215H91.4961V44.2241H94.6066V27.5215Z" fill="white"/>
<path d="M106.472 44.2241L99.2816 35.8752L106.472 27.5215H102.316L95.3008 35.8752L102.316 44.2241H106.472Z" fill="white"/>
<path d="M140.284 37.2819C142.813 38.0664 143.597 38.4902 143.597 39.6398C143.597 40.2168 143.376 40.4693 143.16 40.6496C141.861 41.7046 138.088 41.5198 135.829 41.0554L135.216 43.9948C135.577 44.076 137.43 44.4367 139.535 44.4367C141.483 44.4367 143.655 44.1256 145.057 42.9805C146.072 42.1599 146.608 41.0058 146.608 39.6355C146.608 36.0877 143.466 35.1094 141.176 34.3971C138.62 33.6126 137.827 33.1753 137.827 32.0032C137.827 31.4081 138.052 31.1556 138.264 30.9843C139.544 29.9789 143.241 30.3035 145.382 30.84L146 27.887C145.324 27.7202 139.305 26.3317 136.407 28.6129C135.37 29.4289 134.824 30.5966 134.824 31.9984C134.82 35.5825 137.975 36.5606 140.284 37.2819Z" fill="white"/>
<path d="M119.021 30.6339L120.31 27.5234H107.895V44.2261H111.005V37.8966H115.892L117.145 34.8673H111.005V30.6339H119.021Z" fill="white"/>
<path d="M121.255 40.6538H125.668L126.926 37.6242H122.418L125.195 30.4111L130.519 44.2241H133.972L127.057 27.5215H123.337L116.422 44.2241H119.88L121.255 40.6538Z" fill="white"/>
<path d="M36.5451 65.6426H36.0492L35.1114 66.9004L34.5524 67.6758H34.4983L34.5344 66.9004V65.6426H34.1016V69.4068H34.5344V68.158L35.0258 67.5406L36.1213 69.4068H36.6262L35.3053 67.2566L36.5451 65.6426Z" fill="white"/>
<path d="M38.6386 68.523C38.6386 68.7079 38.58 68.8476 38.4673 68.9513C38.3501 69.0505 38.2103 69.1001 38.048 69.1001C37.8587 69.1001 37.7144 69.0415 37.6242 68.9243C37.5341 68.807 37.4845 68.6357 37.4845 68.4103V66.625H37.0742V68.4374C37.0742 68.789 37.1464 69.0505 37.2861 69.2218C37.4304 69.3931 37.6242 69.4743 37.8722 69.4743C38.0661 69.4743 38.2193 69.4292 38.332 69.3435C38.4448 69.2579 38.5304 69.1271 38.5845 68.9558H38.6386V69.4112H39.0489V66.625H38.6386V68.523Z" fill="white"/>
<path d="M42.4301 67.8332L42.1957 69.0457H42.1416L41.8666 67.8332L41.5825 66.625H41.1092L40.8296 67.8332L40.5546 69.0457H40.5005L40.2616 67.8332L39.9911 66.625H39.5898L40.2616 69.4064H40.78L41.1182 68.0584L41.321 67.0398H41.3751L41.56 68.0584L41.9026 69.4064H42.4211L43.0883 66.625H42.7006L42.4301 67.8332Z" fill="white"/>
<path d="M45.3256 67.4726C45.3256 67.175 45.2445 66.9496 45.0822 66.7963C44.9199 66.643 44.6764 66.5664 44.3608 66.5664C44.1444 66.5664 43.9596 66.616 43.7973 66.7197C43.6395 66.8234 43.5223 66.9496 43.4501 67.0984L43.6936 67.3238C43.7657 67.1886 43.8514 67.0894 43.9506 67.0172C44.0498 66.9451 44.1805 66.9135 44.3428 66.9135C44.5412 66.9135 44.6854 66.9631 44.7756 67.0578C44.8658 67.157 44.9154 67.3058 44.9154 67.5132V67.8197H44.4149C44.0498 67.8197 43.7838 67.8964 43.6124 68.0451C43.4411 68.1984 43.3555 68.4013 43.3555 68.6628C43.3555 68.9288 43.4231 69.1316 43.5538 69.2669C43.6891 69.4021 43.8875 69.4743 44.158 69.4743C44.3293 69.4743 44.478 69.4292 44.6043 69.339C44.7305 69.2489 44.8117 69.1181 44.8613 68.9513H44.9154V69.0054C44.9154 69.2759 45.0506 69.4112 45.3166 69.4112H45.6096V69.0505H45.3301V67.4726H45.3256ZM44.9154 68.5543C44.9154 68.6265 44.8973 68.6941 44.8658 68.7617C44.8342 68.8293 44.7891 68.8879 44.7305 68.9375C44.6719 68.9871 44.6043 69.0322 44.5231 69.0638C44.442 69.0953 44.3563 69.1134 44.2616 69.1134C44.1129 69.1134 43.9957 69.0818 43.91 69.0142C43.8243 68.9466 43.7793 68.8474 43.7793 68.7076V68.5588C43.7793 68.4236 43.8288 68.3199 43.928 68.2478C44.0272 68.1756 44.185 68.1396 44.4014 68.1396H44.9154V68.5543Z" fill="white"/>
<path d="M46.3579 65.4219C46.1866 65.4219 46.1055 65.494 46.1055 65.6428V65.7284C46.1055 65.8772 46.1911 65.9494 46.3579 65.9494C46.5247 65.9494 46.6104 65.8772 46.6104 65.7284V65.6428C46.6104 65.494 46.5247 65.4219 46.3579 65.4219Z" fill="white"/>
<path d="M46.5587 66.625H46.1484V69.4112H46.5587V66.625Z" fill="white"/>
<path d="M47.9227 65.8594H47.5485V66.3778C47.5485 66.459 47.535 66.5221 47.5079 66.5627C47.4809 66.6033 47.4268 66.6258 47.3411 66.6258H47.0977V66.9865H47.5079V68.9882C47.5079 69.1369 47.5395 69.2406 47.6071 69.3083C47.6747 69.3759 47.7829 69.4074 47.9272 69.4074H48.4276V69.0468H47.9137V66.9865H48.4547V66.6258H47.9137V65.8594H47.9227Z" fill="white"/>
<path d="M50.2461 69.4087H50.6789V67.6958H52.1351V67.3126H50.6789V66.0277H52.2794V65.6445H50.2461V69.4087Z" fill="white"/>
<path d="M54.5504 66.9006C54.4512 66.7834 54.3295 66.6978 54.1897 66.6437C54.0499 66.5896 53.8967 66.5625 53.7344 66.5625C53.5721 66.5625 53.4233 66.5896 53.279 66.6437C53.1393 66.6978 53.0175 66.7834 52.9184 66.9006C52.8192 67.0178 52.738 67.1711 52.6794 67.356C52.6208 67.5408 52.5938 67.7617 52.5938 68.0187C52.5938 68.2757 52.6208 68.5011 52.6794 68.6814C52.738 68.8663 52.8147 69.015 52.9184 69.1368C53.0175 69.254 53.1393 69.3441 53.279 69.3937C53.4188 69.4478 53.5721 69.4749 53.7344 69.4749C53.8967 69.4749 54.0454 69.4478 54.1897 69.3937C54.3295 69.3396 54.4512 69.254 54.5504 69.1368C54.6496 69.0195 54.7307 68.8663 54.7893 68.6814C54.8479 68.4966 54.875 68.2757 54.875 68.0187C54.875 67.7617 54.8479 67.5363 54.7893 67.356C54.7307 67.1711 54.6541 67.0178 54.5504 66.9006ZM54.4332 68.298C54.4332 68.573 54.3745 68.7758 54.2528 68.9111C54.1311 69.0463 53.9598 69.1095 53.7389 69.1095C53.518 69.1095 53.3421 69.0418 53.2249 68.9111C53.1032 68.7758 53.0446 68.573 53.0446 68.298V67.7344C53.0446 67.4594 53.1032 67.2565 53.2249 67.1213C53.3466 66.986 53.518 66.9184 53.7389 66.9184C53.9598 66.9184 54.1356 66.986 54.2528 67.1213C54.3745 67.2565 54.4332 67.4594 54.4332 67.7344V68.298Z" fill="white"/>
<path d="M57.0331 68.523C57.0331 68.7079 56.9745 68.8476 56.8618 68.9513C56.7446 69.0505 56.6049 69.1001 56.4426 69.1001C56.2532 69.1001 56.1089 69.0415 56.0188 68.9243C55.9286 68.807 55.879 68.6357 55.879 68.4103V66.625H55.4688V68.4374C55.4688 68.789 55.5409 69.0505 55.6806 69.2218C55.8249 69.3931 56.0188 69.4743 56.2667 69.4743C56.4606 69.4743 56.6139 69.4292 56.7266 69.3435C56.8393 69.2579 56.9249 69.1271 56.979 68.9558H57.0331V69.4112H57.4434V66.625H57.0331V68.523Z" fill="white"/>
<path d="M59.4306 66.5586C59.2367 66.5586 59.0834 66.6037 58.9707 66.6893C58.858 66.775 58.7724 66.9057 58.7183 67.0771H58.6642V66.6217H58.2539V69.4079H58.6642V67.5099C58.6642 67.325 58.7228 67.1852 58.8355 67.0816C58.9527 66.9824 59.0925 66.9283 59.2548 66.9283C59.4441 66.9283 59.5884 66.9869 59.6785 67.1086C59.7687 67.2258 59.8183 67.3971 59.8183 67.6226V69.4079H60.2286V67.5955C60.2286 67.2439 60.1564 66.9824 60.0167 66.8111C59.8724 66.6443 59.6785 66.5586 59.4306 66.5586Z" fill="white"/>
<path d="M62.6077 67.0723H62.5536C62.4995 66.8919 62.4139 66.7612 62.2921 66.6801C62.1704 66.5989 62.0261 66.5583 61.8503 66.5583C61.6835 66.5583 61.5392 66.5944 61.413 66.662C61.2868 66.7296 61.1831 66.8288 61.0929 66.9551C61.0073 67.0813 60.9396 67.2346 60.8991 67.4149C60.854 67.5952 60.8359 67.7981 60.8359 68.019C60.8359 68.2444 60.8585 68.4428 60.8991 68.6231C60.9441 68.8035 61.0073 68.9568 61.0929 69.083C61.1786 69.2092 61.2868 69.3084 61.413 69.376C61.5392 69.4437 61.6835 69.4797 61.8503 69.4797C62.0216 69.4797 62.1704 69.4392 62.2921 69.358C62.4139 69.2769 62.4995 69.1461 62.5536 68.9658H62.6077V69.4121H63.018V65.418H62.6077V67.0723ZM62.6077 68.5823C62.6077 68.6635 62.5897 68.7356 62.5581 68.7987C62.5221 68.8618 62.477 68.9204 62.4229 68.9655C62.3688 69.0106 62.3011 69.0467 62.2245 69.0737C62.1479 69.1008 62.0667 69.1098 61.9811 69.1098C61.7556 69.1098 61.5798 69.0377 61.4626 68.8979C61.3454 68.7536 61.2823 68.5553 61.2823 68.2983V67.7348C61.2823 67.4778 61.3409 67.2794 61.4626 67.1351C61.5798 66.9909 61.7556 66.9187 61.9811 66.9187C62.0667 66.9187 62.1479 66.9323 62.2245 66.9548C62.3011 66.9819 62.3688 67.0179 62.4229 67.063C62.477 67.1081 62.5221 67.1667 62.5581 67.2298C62.5942 67.2929 62.6077 67.3651 62.6077 67.4462V68.5823Z" fill="white"/>
<path d="M65.599 67.4726C65.599 67.175 65.5179 66.9496 65.3556 66.7963C65.1933 66.643 64.9498 66.5664 64.6343 66.5664C64.4179 66.5664 64.233 66.616 64.0707 66.7197C63.9129 66.8234 63.7957 66.9496 63.7236 67.0984L63.967 67.3238C64.0392 67.1886 64.1248 67.0894 64.224 67.0172C64.3232 66.9451 64.4539 66.9135 64.6162 66.9135C64.8146 66.9135 64.9589 66.9631 65.049 67.0578C65.1392 67.157 65.1888 67.3058 65.1888 67.5132V67.8197H64.6884C64.3232 67.8197 64.0572 67.8964 63.8859 68.0451C63.7146 68.1984 63.6289 68.4013 63.6289 68.6628C63.6289 68.9288 63.6965 69.1316 63.8273 69.2669C63.9625 69.4021 64.1609 69.4743 64.4314 69.4743C64.6027 69.4743 64.7515 69.4292 64.8777 69.339C65.0039 69.2489 65.0851 69.1181 65.1347 68.9513H65.1888V69.0054C65.1888 69.2759 65.324 69.4112 65.59 69.4112H65.8831V69.0505H65.6036V67.4726H65.599ZM65.1888 68.5543C65.1888 68.6265 65.1708 68.6941 65.1392 68.7617C65.1076 68.8293 65.0626 68.8879 65.004 68.9375C64.9453 68.9871 64.8777 69.0322 64.7966 69.0638C64.7154 69.0953 64.6298 69.1134 64.5351 69.1134C64.3863 69.1134 64.2691 69.0818 64.1834 69.0142C64.0978 68.9466 64.0527 68.8474 64.0527 68.7076V68.5588C64.0527 68.4236 64.1023 68.3199 64.2015 68.2478C64.3006 68.1756 64.4584 68.1396 64.6748 68.1396H65.1888V68.5543Z" fill="white"/>
<path d="M66.9696 65.8594H66.5954V66.3778C66.5954 66.459 66.5818 66.5221 66.5548 66.5627C66.5277 66.6033 66.4736 66.6258 66.388 66.6258H66.1445V66.9865H66.5548V68.9882C66.5548 69.1369 66.5863 69.2406 66.654 69.3083C66.7216 69.3759 66.8298 69.4074 66.9741 69.4074H67.4835V69.0468H66.9696V66.9865H67.5106V66.6258H66.9696V65.8594Z" fill="white"/>
<path d="M68.5314 66.625H68.1211V69.4112H68.5314V66.625Z" fill="white"/>
<path d="M68.3306 65.4219C68.1593 65.4219 68.0781 65.494 68.0781 65.6428V65.7284C68.0781 65.8772 68.1638 65.9494 68.3306 65.9494C68.4974 65.9494 68.5831 65.8772 68.5831 65.7284V65.6428C68.5831 65.494 68.4974 65.4219 68.3306 65.4219Z" fill="white"/>
<path d="M71.1051 66.9006C71.0059 66.7834 70.8841 66.6978 70.7444 66.6437C70.6046 66.5896 70.4513 66.5625 70.289 66.5625C70.1267 66.5625 69.978 66.5896 69.8337 66.6437C69.6939 66.6978 69.5722 66.7834 69.473 66.9006C69.3739 67.0178 69.2927 67.1711 69.2341 67.356C69.1755 67.5408 69.1484 67.7617 69.1484 68.0187C69.1484 68.2757 69.1755 68.5011 69.2341 68.6814C69.2927 68.8663 69.3693 69.015 69.473 69.1368C69.5722 69.254 69.6939 69.3441 69.8337 69.3937C69.9735 69.4478 70.1267 69.4749 70.289 69.4749C70.4513 69.4749 70.6001 69.4478 70.7444 69.3937C70.8841 69.3396 71.0059 69.254 71.1051 69.1368C71.2042 69.0195 71.2854 68.8663 71.344 68.6814C71.4026 68.4966 71.4297 68.2757 71.4297 68.0187C71.4297 67.7617 71.4026 67.5363 71.344 67.356C71.2854 67.1711 71.2087 67.0178 71.1051 66.9006ZM70.9878 68.298C70.9878 68.573 70.9292 68.7758 70.8075 68.9111C70.6858 69.0463 70.5145 69.1095 70.2936 69.1095C70.0726 69.1095 69.8968 69.0418 69.7796 68.9111C69.6579 68.7758 69.5993 68.573 69.5993 68.298V67.7344C69.5993 67.4594 69.6579 67.2565 69.7796 67.1213C69.9013 66.986 70.0726 66.9184 70.2936 66.9184C70.5145 66.9184 70.6903 66.986 70.8075 67.1213C70.9292 67.2565 70.9878 67.4594 70.9878 67.7344V68.298Z" fill="white"/>
<path d="M73.2314 66.5586C73.0375 66.5586 72.8842 66.6037 72.7715 66.6893C72.6588 66.775 72.5731 66.9057 72.519 67.0771H72.4649V66.6217H72.0547V69.4079H72.4649V67.5099C72.4649 67.325 72.5236 67.1852 72.6363 67.0816C72.7535 66.9824 72.8932 66.9283 73.0555 66.9283C73.2449 66.9283 73.3892 66.9869 73.4793 67.1086C73.5695 67.2258 73.6191 67.3971 73.6191 67.6226V69.4079H74.0293V67.5955C74.0293 67.2439 73.9572 66.9824 73.8174 66.8111C73.6732 66.6443 73.4793 66.5586 73.2314 66.5586Z" fill="white"/>
<path d="M76.2039 65.5445C76.1182 65.6302 76.0776 65.7609 76.0776 65.9458V66.6265H75.6719V66.9872H76.0776V69.4127H76.4879V66.9872H77.0244V66.6265H76.4879V65.7789H77.0244V65.4183H76.6096C76.4248 65.4138 76.2895 65.4589 76.2039 65.5445Z" fill="white"/>
<path d="M79.2574 66.9006C79.1582 66.7834 79.0365 66.6978 78.8967 66.6437C78.757 66.5896 78.6037 66.5625 78.4414 66.5625C78.2791 66.5625 78.1303 66.5896 77.9861 66.6437C77.8463 66.6978 77.7246 66.7834 77.6254 66.9006C77.5262 67.0178 77.4451 67.1711 77.3864 67.356C77.3278 67.5408 77.3008 67.7617 77.3008 68.0187C77.3008 68.2757 77.3278 68.5011 77.3864 68.6814C77.4451 68.8663 77.5217 69.015 77.6254 69.1368C77.7246 69.254 77.8463 69.3441 77.9861 69.3937C78.1258 69.4478 78.2791 69.4749 78.4414 69.4749C78.6037 69.4749 78.7525 69.4478 78.8967 69.3937C79.0365 69.3396 79.1582 69.254 79.2574 69.1368C79.3566 69.0195 79.4377 68.8663 79.4963 68.6814C79.555 68.4966 79.582 68.2757 79.582 68.0187C79.582 67.7617 79.555 67.5363 79.4963 67.356C79.4377 67.1711 79.3611 67.0178 79.2574 66.9006ZM79.1402 68.298C79.1402 68.573 79.0816 68.7758 78.9599 68.9111C78.8381 69.0463 78.6668 69.1095 78.4459 69.1095C78.225 69.1095 78.0492 69.0418 77.9319 68.9111C77.8102 68.7758 77.7516 68.573 77.7516 68.298V67.7344C77.7516 67.4594 77.8102 67.2565 77.9319 67.1213C78.0537 66.986 78.225 66.9184 78.4459 66.9184C78.6668 66.9184 78.8426 66.986 78.9599 67.1213C79.0816 67.2565 79.1402 67.4594 79.1402 67.7344V68.298Z" fill="white"/>
<path d="M80.9064 66.7609C80.7937 66.851 80.7126 66.9818 80.6675 67.1396H80.6134V66.6211H80.2031V69.4073H80.6134V67.5543C80.6134 67.383 80.6675 67.2523 80.7757 67.1666C80.8839 67.0809 81.0372 67.0359 81.231 67.0359H81.5015V66.6211H81.3482C81.1679 66.6256 81.0191 66.6707 80.9064 66.7609Z" fill="white"/>
<path d="M83.6688 65.8594H83.2946V66.3778C83.2946 66.459 83.2811 66.5221 83.254 66.5627C83.227 66.6033 83.1729 66.6258 83.0872 66.6258H82.8438V66.9865H83.2585V68.9882C83.2585 69.1369 83.2901 69.2406 83.3577 69.3083C83.4253 69.3759 83.5335 69.4074 83.6778 69.4074H84.1782V69.0468H83.6643V66.9865H84.2053V66.6258H83.6643V65.8594H83.6688Z" fill="white"/>
<path d="M86.0009 66.5592C85.807 66.5592 85.6538 66.6043 85.541 66.6899C85.4283 66.7756 85.3427 66.9063 85.2886 67.0776H85.2345V65.4141H84.8242V69.4082H85.2345V67.5102C85.2345 67.3253 85.2931 67.1856 85.4058 67.0819C85.523 66.9827 85.6628 66.9286 85.8251 66.9286C86.0144 66.9286 86.1587 66.9872 86.2489 67.1089C86.339 67.2262 86.3886 67.3975 86.3886 67.6229V69.4082H86.7989V67.5958C86.7989 67.2442 86.7267 66.9827 86.587 66.8114C86.4427 66.6448 86.2489 66.5592 86.0009 66.5592Z" fill="white"/>
<path d="M89.3202 66.9006C89.2255 66.7834 89.1128 66.6978 88.9776 66.6437C88.8423 66.5896 88.6935 66.5625 88.5312 66.5625C88.3689 66.5625 88.2202 66.5896 88.0759 66.6437C87.9361 66.6978 87.8144 66.7834 87.7152 66.9006C87.616 67.0178 87.5349 67.1711 87.4763 67.356C87.4177 67.5408 87.3906 67.7617 87.3906 68.0187C87.3906 68.2757 87.4177 68.5011 87.4763 68.6814C87.5349 68.8663 87.6115 69.015 87.7152 69.1368C87.8144 69.254 87.9361 69.3441 88.0759 69.3937C88.2157 69.4478 88.3689 69.4749 88.5312 69.4749C88.7882 69.4749 89.0046 69.4163 89.1714 69.2946C89.3382 69.1773 89.4645 69.0195 89.5501 68.8302L89.2706 68.6273C89.203 68.7896 89.1083 68.9113 88.9911 68.9925C88.8739 69.0736 88.7206 69.1142 88.5312 69.1142C88.3103 69.1142 88.139 69.0466 88.0173 68.9113C87.8911 68.7761 87.8324 68.5732 87.8324 68.2982V68.1224H89.6177V68.0187C89.6177 67.7617 89.5907 67.5363 89.5411 67.356C89.487 67.1711 89.4149 67.0178 89.3202 66.9006ZM89.1804 67.8068H87.8324V67.7347C87.8324 67.4597 87.8956 67.2523 88.0173 67.1125C88.139 66.9728 88.3103 66.9006 88.5357 66.9006C88.9685 66.9006 89.1849 67.1756 89.1849 67.7302V67.8068H89.1804Z" fill="white"/>
<path d="M92.2548 65.6445L91.0781 69.4133H91.5109L91.8445 68.2862H93.2016L93.5352 69.4133H93.977L92.7958 65.6445H92.2548ZM91.9482 67.9255L92.3765 66.4964L92.4937 66.0275H92.5478L92.6651 66.4964L93.1024 67.9255H91.9482Z" fill="white"/>
<path d="M96.0726 67.0723H96.0185C95.9644 66.8919 95.8787 66.7612 95.757 66.6801C95.6352 66.5989 95.491 66.5583 95.3152 66.5583C95.1484 66.5583 95.0041 66.5944 94.8779 66.662C94.7516 66.7296 94.6479 66.8288 94.5578 66.9551C94.4721 67.0813 94.4045 67.2346 94.3639 67.4149C94.3188 67.5952 94.3008 67.7981 94.3008 68.019C94.3008 68.2444 94.3233 68.4428 94.3639 68.6231C94.409 68.8035 94.4721 68.9568 94.5578 69.083C94.6434 69.2092 94.7516 69.3084 94.8779 69.376C95.0041 69.4437 95.1484 69.4797 95.3152 69.4797C95.4865 69.4797 95.6352 69.4392 95.757 69.358C95.8787 69.2769 95.9644 69.1461 96.0185 68.9658H96.0726V69.4121H96.4828V65.418H96.0726V67.0723ZM96.0726 68.5823C96.0726 68.6635 96.0545 68.7356 96.023 68.7987C95.9869 68.8618 95.9418 68.9204 95.8877 68.9655C95.8336 69.0106 95.766 69.0467 95.6894 69.0737C95.6127 69.1008 95.5316 69.1098 95.4459 69.1098C95.2205 69.1098 95.0447 69.0377 94.9274 68.8979C94.8102 68.7536 94.7471 68.5553 94.7471 68.2983V67.7348C94.7471 67.4778 94.8057 67.2794 94.9274 67.1351C95.0447 66.9909 95.2205 66.9187 95.4459 66.9187C95.5316 66.9187 95.6127 66.9323 95.6894 66.9548C95.766 66.9819 95.8336 67.0179 95.8877 67.063C95.9418 67.1081 95.9869 67.1667 96.023 67.2298C96.059 67.2929 96.0726 67.3651 96.0726 67.4462V68.5823Z" fill="white"/>
<path d="M98.3754 68.0268L98.1184 69.0457H98.0643L97.8028 68.0268L97.379 66.625H96.9688L97.8434 69.4064H98.3258L99.2004 66.625H98.8036L98.3754 68.0268Z" fill="white"/>
<path d="M101.4 67.4726C101.4 67.175 101.319 66.9496 101.156 66.7963C100.994 66.643 100.751 66.5664 100.435 66.5664C100.219 66.5664 100.034 66.616 99.8715 66.7197C99.7137 66.8234 99.5965 66.9496 99.5244 67.0984L99.7678 67.3238C99.8399 67.1886 99.9256 67.0894 100.025 67.0172C100.124 66.9451 100.255 66.9135 100.417 66.9135C100.615 66.9135 100.76 66.9631 100.85 67.0578C100.94 67.157 100.99 67.3058 100.99 67.5132V67.8197H100.489C100.124 67.8197 99.858 67.8964 99.6867 68.0451C99.5153 68.1984 99.4297 68.4013 99.4297 68.6628C99.4297 68.9288 99.4973 69.1316 99.6281 69.2669C99.7633 69.4021 99.9617 69.4743 100.232 69.4743C100.403 69.4743 100.552 69.4292 100.678 69.339C100.805 69.2489 100.886 69.1181 100.935 68.9513H100.99V69.0054C100.99 69.2759 101.125 69.4112 101.391 69.4112H101.684V69.0505H101.404V67.4726H101.4ZM100.99 68.5543C100.99 68.6265 100.972 68.6941 100.94 68.7617C100.908 68.8293 100.863 68.8879 100.805 68.9375C100.746 68.9871 100.679 69.0322 100.597 69.0638C100.516 69.0953 100.431 69.1134 100.336 69.1134C100.187 69.1134 100.07 69.0818 99.9842 69.0142C99.8986 68.9466 99.8535 68.8474 99.8535 68.7076V68.5588C99.8535 68.4236 99.9031 68.3199 100.002 68.2478C100.101 68.1756 100.259 68.1396 100.476 68.1396H100.99V68.5543Z" fill="white"/>
<path d="M103.403 66.5586C103.209 66.5586 103.056 66.6037 102.943 66.6893C102.831 66.775 102.745 66.9057 102.691 67.0771H102.637V66.6217H102.227V69.4079H102.637V67.5099C102.637 67.325 102.695 67.1852 102.808 67.0816C102.921 66.9779 103.065 66.9283 103.227 66.9283C103.417 66.9283 103.561 66.9869 103.651 67.1086C103.741 67.2258 103.791 67.3971 103.791 67.6226V69.4079H104.201V67.5955C104.201 67.2439 104.129 66.9824 103.989 66.8111C103.845 66.6443 103.651 66.5586 103.403 66.5586Z" fill="white"/>
<path d="M106.338 68.9931C106.23 69.0742 106.086 69.1103 105.905 69.1103C105.68 69.1103 105.513 69.0427 105.405 68.9119C105.297 68.7767 105.243 68.5738 105.243 68.2988V67.7353C105.243 67.4603 105.297 67.2574 105.405 67.1221C105.513 66.9869 105.68 66.9193 105.905 66.9193C106.077 66.9193 106.216 66.9598 106.316 67.0365C106.415 67.1131 106.491 67.2258 106.536 67.3701L106.875 67.1988C106.802 67.0139 106.69 66.8607 106.532 66.7389C106.374 66.6217 106.167 66.5586 105.905 66.5586C105.558 66.5586 105.288 66.6713 105.094 66.8967C104.9 67.1221 104.801 67.4963 104.801 68.0148C104.801 68.5332 104.9 68.9074 105.094 69.1329C105.292 69.3583 105.563 69.471 105.905 69.471C106.153 69.471 106.361 69.4124 106.527 69.2997C106.694 69.187 106.821 69.0337 106.902 68.8398L106.6 68.6279C106.532 68.7947 106.446 68.9165 106.338 68.9931Z" fill="white"/>
<path d="M109.125 66.9006C109.03 66.7834 108.917 66.6978 108.782 66.6437C108.647 66.5896 108.498 66.5625 108.336 66.5625C108.174 66.5625 108.025 66.5896 107.881 66.6437C107.741 66.6978 107.619 66.7834 107.52 66.9006C107.421 67.0178 107.34 67.1711 107.281 67.356C107.222 67.5408 107.195 67.7617 107.195 68.0187C107.195 68.2757 107.222 68.5011 107.281 68.6814C107.34 68.8663 107.416 69.015 107.52 69.1368C107.619 69.254 107.741 69.3441 107.881 69.3937C108.02 69.4478 108.174 69.4749 108.336 69.4749C108.593 69.4749 108.809 69.4163 108.976 69.2946C109.143 69.1773 109.269 69.0195 109.355 68.8302L109.075 68.6273C109.008 68.7896 108.913 68.9113 108.796 68.9925C108.679 69.0736 108.525 69.1142 108.336 69.1142C108.115 69.1142 107.944 69.0466 107.822 68.9113C107.696 68.7761 107.637 68.5732 107.637 68.2982V68.1224H109.422V68.0187C109.422 67.7617 109.395 67.5363 109.346 67.356C109.292 67.1711 109.22 67.0178 109.125 66.9006ZM108.985 67.8068H107.637V67.7347C107.637 67.4597 107.7 67.2523 107.822 67.1125C107.944 66.9728 108.115 66.9006 108.34 66.9006C108.773 66.9006 108.99 67.1756 108.99 67.7302V67.8068H108.985Z" fill="white"/>
<path d="M112.712 66.5586C112.509 66.5586 112.347 66.6037 112.225 66.6893C112.103 66.775 112.013 66.9057 111.955 67.0771H111.9C111.837 66.9012 111.747 66.7705 111.63 66.6848C111.508 66.5992 111.364 66.5586 111.188 66.5586C110.999 66.5586 110.85 66.6037 110.746 66.6893C110.643 66.775 110.561 66.9057 110.507 67.0771H110.453V66.6217H110.043V69.4079H110.453V67.5099C110.453 67.325 110.507 67.1852 110.62 67.0816C110.728 66.9824 110.868 66.9283 111.026 66.9283C111.211 66.9283 111.346 66.9869 111.432 67.1086C111.522 67.2258 111.562 67.3971 111.562 67.6226V69.4079H111.973V67.5099C111.973 67.325 112.027 67.1852 112.139 67.0816C112.248 66.9824 112.383 66.9283 112.545 66.9283C112.73 66.9283 112.865 66.9869 112.951 67.1086C113.041 67.2258 113.082 67.3971 113.082 67.6226V69.4079H113.492V67.5955C113.492 67.2439 113.42 66.9824 113.275 66.8111C113.14 66.6443 112.951 66.5586 112.712 66.5586Z" fill="white"/>
<path d="M116.023 66.9006C115.929 66.7834 115.816 66.6978 115.681 66.6437C115.545 66.5896 115.397 66.5625 115.234 66.5625C115.072 66.5625 114.923 66.5896 114.779 66.6437C114.639 66.6978 114.518 66.7834 114.418 66.9006C114.319 67.0178 114.238 67.1711 114.179 67.356C114.121 67.5408 114.094 67.7617 114.094 68.0187C114.094 68.2757 114.121 68.5011 114.179 68.6814C114.238 68.8663 114.315 69.015 114.418 69.1368C114.518 69.254 114.639 69.3441 114.779 69.3937C114.919 69.4478 115.072 69.4749 115.234 69.4749C115.491 69.4749 115.708 69.4163 115.875 69.2946C116.041 69.1773 116.168 69.0195 116.253 68.8302L115.974 68.6273C115.906 68.7896 115.811 68.9113 115.694 68.9925C115.577 69.0736 115.424 69.1142 115.234 69.1142C115.013 69.1142 114.842 69.0466 114.72 68.9113C114.594 68.7761 114.536 68.5732 114.536 68.2982V68.1224H116.321V68.0187C116.321 67.7617 116.294 67.5363 116.244 67.356C116.19 67.1711 116.118 67.0178 116.023 66.9006ZM115.884 67.8068H114.536V67.7347C114.536 67.4597 114.599 67.2523 114.72 67.1125C114.842 66.9728 115.013 66.9006 115.239 66.9006C115.672 66.9006 115.888 67.1756 115.888 67.7302V67.8068H115.884Z" fill="white"/>
<path d="M118.122 66.5586C117.928 66.5586 117.775 66.6037 117.662 66.6893C117.549 66.775 117.464 66.9057 117.41 67.0771H117.356V66.6217H116.945V69.4079H117.356V67.5099C117.356 67.325 117.414 67.1852 117.527 67.0816C117.64 66.9779 117.784 66.9283 117.946 66.9283C118.136 66.9283 118.28 66.9869 118.37 67.1086C118.46 67.2258 118.51 67.3971 118.51 67.6226V69.4079H118.92V67.5955C118.92 67.2439 118.848 66.9824 118.708 66.8111C118.564 66.6443 118.37 66.5586 118.122 66.5586Z" fill="white"/>
<path d="M120.255 65.8594H119.881V66.3778C119.881 66.459 119.867 66.5221 119.84 66.5627C119.813 66.6033 119.759 66.6258 119.673 66.6258H119.43V66.9865H119.84V68.9882C119.84 69.1369 119.872 69.2406 119.939 69.3083C120.007 69.3759 120.115 69.4074 120.259 69.4074H120.76V69.0468H120.246V66.9865H120.787V66.6258H120.246V65.8594H120.255Z" fill="white"/>
<path d="M124.308 66.9006C124.209 66.7834 124.087 66.6978 123.948 66.6437C123.808 66.5896 123.654 66.5625 123.492 66.5625C123.33 66.5625 123.181 66.5896 123.037 66.6437C122.897 66.6978 122.775 66.7834 122.676 66.9006C122.577 67.0178 122.496 67.1711 122.437 67.356C122.379 67.5408 122.352 67.7617 122.352 68.0187C122.352 68.2757 122.379 68.5011 122.437 68.6814C122.496 68.8663 122.572 69.015 122.676 69.1368C122.775 69.254 122.897 69.3441 123.037 69.3937C123.177 69.4478 123.33 69.4749 123.492 69.4749C123.654 69.4749 123.803 69.4478 123.948 69.3937C124.087 69.3396 124.209 69.254 124.308 69.1368C124.407 69.0195 124.489 68.8663 124.547 68.6814C124.606 68.4966 124.633 68.2757 124.633 68.0187C124.633 67.7617 124.606 67.5363 124.547 67.356C124.489 67.1711 124.407 67.0178 124.308 66.9006ZM124.191 68.298C124.191 68.573 124.132 68.7758 124.011 68.9111C123.889 69.0463 123.718 69.1095 123.497 69.1095C123.276 69.1095 123.1 69.0418 122.983 68.9111C122.861 68.7758 122.802 68.573 122.802 68.298V67.7344C122.802 67.4594 122.861 67.2565 122.983 67.1213C123.104 66.986 123.276 66.9184 123.497 66.9184C123.718 66.9184 123.893 66.986 124.011 67.1213C124.132 67.2565 124.191 67.4594 124.191 67.7344V68.298Z" fill="white"/>
<path d="M125.497 65.5445C125.411 65.6302 125.371 65.7609 125.371 65.9458V66.6265H124.965V66.9872H125.371V69.4127H125.781V66.9872H126.317V66.6265H125.781V65.7789H126.317V65.4183H125.903C125.713 65.4138 125.582 65.4589 125.497 65.5445Z" fill="white"/>
<path d="M129.911 67.6719C129.834 67.5863 129.735 67.5142 129.613 67.4555C129.491 67.3969 129.343 67.3428 129.167 67.3023L128.887 67.2301C128.666 67.176 128.509 67.1039 128.409 67.0092C128.31 66.9145 128.261 66.7793 128.261 66.5945C128.261 66.369 128.319 66.2022 128.441 66.103C128.563 66.0039 128.739 65.9498 128.968 65.9498C129.171 65.9498 129.338 65.9903 129.464 66.067C129.591 66.1436 129.699 66.2563 129.798 66.4096L130.118 66.1842C129.983 65.9768 129.83 65.8235 129.649 65.7243C129.469 65.6252 129.252 65.5801 128.986 65.5801C128.639 65.5801 128.364 65.6657 128.157 65.8371C127.95 66.0084 127.846 66.2608 127.846 66.5945C127.846 66.8875 127.923 67.1129 128.08 67.2707C128.238 67.433 128.482 67.5502 128.811 67.6359L129.09 67.708C129.32 67.7666 129.482 67.8433 129.577 67.947C129.672 68.0461 129.717 68.1949 129.717 68.3888C129.717 68.8667 129.46 69.1056 128.95 69.1056C128.757 69.1056 128.585 69.0605 128.441 68.9704C128.297 68.8802 128.166 68.7494 128.053 68.5781L127.742 68.8351C127.877 69.038 128.044 69.1958 128.243 69.3085C128.445 69.4212 128.68 69.4798 128.95 69.4798C129.32 69.4798 129.613 69.3851 129.821 69.2003C130.032 69.0154 130.136 68.7449 130.136 68.3888C130.136 68.2355 130.118 68.1002 130.087 67.983C130.046 67.8613 129.992 67.7576 129.911 67.6719Z" fill="white"/>
<path d="M132.119 68.9931C132.011 69.0742 131.867 69.1103 131.687 69.1103C131.461 69.1103 131.294 69.0427 131.186 68.9119C131.078 68.7767 131.024 68.5738 131.024 68.2988V67.7353C131.024 67.4603 131.078 67.2574 131.186 67.1221C131.294 66.9869 131.461 66.9193 131.687 66.9193C131.858 66.9193 131.998 66.9598 132.097 67.0365C132.196 67.1131 132.273 67.2258 132.318 67.3701L132.656 67.1988C132.584 67.0139 132.471 66.8607 132.313 66.7389C132.155 66.6217 131.948 66.5586 131.687 66.5586C131.339 66.5586 131.069 66.6713 130.875 66.8967C130.677 67.1221 130.582 67.4963 130.582 68.0148C130.582 68.5332 130.681 68.9074 130.875 69.1329C131.069 69.3583 131.344 69.471 131.687 69.471C131.935 69.471 132.142 69.4124 132.309 69.2997C132.476 69.187 132.602 69.0337 132.683 68.8398L132.381 68.6279C132.318 68.7947 132.228 68.9165 132.119 68.9931Z" fill="white"/>
<path d="M133.617 66.625H133.207V69.4112H133.617V66.625Z" fill="white"/>
<path d="M133.413 65.4219C133.241 65.4219 133.16 65.494 133.16 65.6428V65.7284C133.16 65.8772 133.246 65.9494 133.413 65.9494C133.579 65.9494 133.665 65.8772 133.665 65.7284V65.6428C133.665 65.494 133.579 65.4219 133.413 65.4219Z" fill="white"/>
<path d="M136.164 66.9006C136.069 66.7834 135.957 66.6978 135.821 66.6437C135.686 66.5896 135.537 66.5625 135.375 66.5625C135.213 66.5625 135.064 66.5896 134.92 66.6437C134.78 66.6978 134.658 66.7834 134.559 66.9006C134.46 67.0178 134.379 67.1711 134.32 67.356C134.261 67.5408 134.234 67.7617 134.234 68.0187C134.234 68.2757 134.261 68.5011 134.32 68.6814C134.379 68.8663 134.455 69.015 134.559 69.1368C134.658 69.254 134.78 69.3441 134.92 69.3937C135.059 69.4478 135.213 69.4749 135.375 69.4749C135.632 69.4749 135.848 69.4163 136.015 69.2946C136.182 69.1773 136.308 69.0195 136.394 68.8302L136.114 68.6273C136.047 68.7896 135.952 68.9113 135.835 68.9925C135.718 69.0736 135.564 69.1142 135.375 69.1142C135.154 69.1142 134.983 69.0466 134.861 68.9113C134.735 68.7761 134.676 68.5732 134.676 68.2982V68.1224H136.461V68.0187C136.461 67.7617 136.434 67.5363 136.385 67.356C136.331 67.1711 136.259 67.0178 136.164 66.9006ZM136.024 67.8068H134.676V67.7347C134.676 67.4597 134.739 67.2523 134.861 67.1125C134.983 66.9728 135.154 66.9006 135.379 66.9006C135.812 66.9006 136.029 67.1756 136.029 67.7302V67.8068H136.024Z" fill="white"/>
<path d="M138.263 66.5586C138.069 66.5586 137.915 66.6037 137.803 66.6893C137.69 66.775 137.604 66.9057 137.55 67.0771H137.496V66.6217H137.086V69.4079H137.496V67.5099C137.496 67.325 137.555 67.1852 137.668 67.0816C137.785 66.9824 137.924 66.9283 138.087 66.9283C138.276 66.9283 138.42 66.9869 138.511 67.1086C138.601 67.2258 138.65 67.3971 138.65 67.6226V69.4079H139.061V67.5955C139.061 67.2439 138.988 66.9824 138.849 66.8111C138.709 66.6443 138.511 66.5586 138.263 66.5586Z" fill="white"/>
<path d="M141.201 68.9931C141.093 69.0742 140.949 69.1103 140.769 69.1103C140.543 69.1103 140.376 69.0427 140.268 68.9119C140.16 68.7767 140.106 68.5738 140.106 68.2988V67.7353C140.106 67.4603 140.16 67.2574 140.268 67.1221C140.376 66.9869 140.543 66.9193 140.769 66.9193C140.94 66.9193 141.08 66.9598 141.179 67.0365C141.278 67.1131 141.355 67.2258 141.4 67.3701L141.738 67.1988C141.666 67.0139 141.553 66.8607 141.395 66.7389C141.237 66.6217 141.03 66.5586 140.769 66.5586C140.421 66.5586 140.151 66.6713 139.957 66.8967C139.759 67.1221 139.664 67.4963 139.664 68.0148C139.664 68.5332 139.763 68.9074 139.957 69.1329C140.151 69.3583 140.426 69.471 140.769 69.471C141.017 69.471 141.224 69.4124 141.391 69.2997C141.558 69.187 141.684 69.0337 141.765 68.8398L141.463 68.6279C141.4 68.7947 141.31 68.9165 141.201 68.9931Z" fill="white"/>
<path d="M143.984 66.9006C143.89 66.7834 143.777 66.6978 143.642 66.6437C143.506 66.5896 143.358 66.5625 143.195 66.5625C143.033 66.5625 142.884 66.5896 142.74 66.6437C142.6 66.6978 142.478 66.7834 142.379 66.9006C142.28 67.0178 142.199 67.1711 142.14 67.356C142.082 67.5408 142.055 67.7617 142.055 68.0187C142.055 68.2757 142.082 68.5011 142.14 68.6814C142.199 68.8663 142.276 69.015 142.379 69.1368C142.478 69.254 142.6 69.3441 142.74 69.3937C142.88 69.4478 143.033 69.4749 143.195 69.4749C143.452 69.4749 143.669 69.4163 143.835 69.2946C144.002 69.1773 144.129 69.0195 144.214 68.8302L143.935 68.6273C143.867 68.7896 143.772 68.9113 143.655 68.9925C143.538 69.0736 143.385 69.1142 143.195 69.1142C142.974 69.1142 142.803 69.0466 142.681 68.9113C142.555 68.7761 142.496 68.5732 142.496 68.2982V68.1224H144.282V68.0187C144.282 67.7617 144.255 67.5363 144.205 67.356C144.151 67.1711 144.079 67.0178 143.984 66.9006ZM143.844 67.8068H142.496V67.7347C142.496 67.4597 142.56 67.2523 142.681 67.1125C142.803 66.9728 142.974 66.9006 143.2 66.9006C143.633 66.9006 143.849 67.1756 143.849 67.7302V67.8068H143.844Z" fill="white"/>
<path d="M145.83 67.8332L145.618 67.7972C145.46 67.7701 145.348 67.7205 145.275 67.6574C145.203 67.5943 145.172 67.4951 145.172 67.3599C145.172 67.0623 145.334 66.9135 145.663 66.9135C145.821 66.9135 145.952 66.9451 146.051 67.0127C146.15 67.0804 146.231 67.157 146.294 67.2427L146.56 66.9992C146.457 66.8594 146.33 66.7512 146.191 66.6791C146.046 66.607 145.875 66.5664 145.663 66.5664C145.532 66.5664 145.415 66.5799 145.302 66.6115C145.194 66.643 145.1 66.6926 145.018 66.7558C144.937 66.8234 144.879 66.9045 144.834 67.0082C144.788 67.1119 144.77 67.2336 144.77 67.3734C144.77 67.6123 144.838 67.7927 144.969 67.9144C145.1 68.0316 145.302 68.1173 145.573 68.1669L145.785 68.2029C145.952 68.23 146.064 68.2841 146.123 68.3607C146.186 68.4374 146.213 68.5365 146.213 68.6583C146.213 68.8116 146.164 68.9243 146.069 69.0054C145.974 69.0866 145.843 69.1271 145.681 69.1271C145.523 69.1271 145.388 69.0911 145.275 69.0189C145.163 68.9468 145.054 68.8431 144.96 68.7079L144.676 68.9468C144.793 69.1136 144.928 69.2398 145.095 69.3345C145.257 69.4292 145.456 69.4743 145.686 69.4743C145.992 69.4743 146.222 69.3976 146.38 69.2444C146.538 69.0911 146.614 68.8792 146.614 68.6087C146.614 68.3923 146.556 68.221 146.434 68.0947C146.312 67.9728 146.114 67.8828 145.83 67.8332Z" fill="white"/>
<path d="M119.23 55.4004C119.004 55.4004 118.855 55.5266 118.855 55.8242C118.855 56.1172 119.004 56.248 119.23 56.248H119.342C119.568 56.248 119.721 56.1127 119.721 55.8242C119.721 55.5266 119.563 55.4004 119.342 55.4004H119.23Z" fill="white"/>
<path d="M118.042 55.4004C117.817 55.4004 117.668 55.5266 117.668 55.8242C117.668 56.1172 117.817 56.248 118.042 56.248H118.155C118.38 56.248 118.534 56.1127 118.534 55.8242C118.534 55.5266 118.376 55.4004 118.155 55.4004H118.042Z" fill="white"/>
<path d="M137.891 59.5306C137.891 59.3142 137.868 59.0392 137.832 58.7416L137.774 58.3539L137.134 58.4531L137.201 58.8498C137.246 59.1474 137.269 59.3863 137.269 59.5351C137.269 59.8687 137.12 60.022 136.845 60.022H136.732C136.412 60.022 136.268 59.8371 136.268 59.3502V58.8137H135.619V59.3502C135.619 59.8507 135.416 60.0355 134.97 60.0355C134.681 60.0355 134.41 59.9589 134.113 59.7875L134.059 59.756L134.401 59.0932L133.842 58.8092L133.536 59.4269C133.342 59.8236 133.162 59.9318 132.738 59.9318H132.589H132.228C131.832 59.9318 131.647 59.747 131.647 59.3412V58.5072H130.998V59.3412C130.998 59.8281 130.858 60.0129 130.542 60.0129H130.407C130.073 60.0129 129.952 59.8281 129.952 59.3412V58.8047H129.303V59.3412C129.303 59.8416 129.1 60.0265 128.653 60.0265C128.365 60.0265 128.103 59.9498 127.801 59.7785L127.747 59.747L128.081 59.0842L127.522 58.8002L127.215 59.4178C127.021 59.8146 126.841 59.9228 126.417 59.9228H120.165C119.777 59.9228 119.606 59.8101 119.606 59.4539V56.8887H118.925V57.2854L118.136 57.7047C117.28 58.16 116.883 58.5838 116.883 59.2646C116.883 59.9273 117.262 60.315 117.951 60.315C118.465 60.315 118.781 60.0851 118.93 59.5306H118.966V59.6207C118.966 60.4052 119.331 60.7704 120.233 60.7704H126.093C126.684 60.7704 127.026 60.6937 127.324 60.3916L127.527 60.5089C127.937 60.7568 128.221 60.8605 128.51 60.8605C128.965 60.8605 129.253 60.563 129.339 59.9904H129.384C129.483 60.572 129.772 60.8605 130.286 60.8605C130.755 60.8605 131.025 60.6081 131.084 59.9904H131.12C131.255 60.5269 131.625 60.7749 132.319 60.7749H132.405C132.995 60.7749 133.343 60.6982 133.636 60.3962L133.838 60.5134C134.249 60.7613 134.533 60.865 134.821 60.865C135.277 60.865 135.565 60.5675 135.651 59.9949H135.696C135.8 60.5765 136.142 60.865 136.778 60.865C137.508 60.865 137.891 60.4052 137.891 59.5306ZM118.934 58.9715C118.934 59.3502 118.718 59.4765 118.123 59.4765C117.667 59.4765 117.505 59.3592 117.505 59.0662C117.505 58.7596 117.735 58.5793 118.267 58.3043L118.939 57.9617V58.9715H118.934Z" fill="white"/>
<path d="M139.184 56.6317V57.1457H140.816V56.5867H140.302C139.968 56.5867 139.779 56.483 139.779 56.2891C139.779 56.1629 139.896 56.0637 140.076 56.0637C140.211 56.0637 140.347 56.1313 140.45 56.235L140.762 55.8338C140.604 55.6399 140.329 55.5137 140.076 55.5137C139.652 55.5137 139.337 55.8112 139.337 56.208C139.337 56.3477 139.391 56.4965 139.477 56.5957L139.468 56.6317H139.184Z" fill="white"/>
<path d="M145.443 57.8305C144.781 57.8305 144.416 58.2408 144.177 58.8539L143.969 59.3904C143.82 59.7872 143.694 59.9359 143.311 59.9359H141.765H141.413C141.399 58.6015 140.867 57.8125 140.002 57.8125C139.172 57.8125 138.568 58.5654 138.568 59.5212C138.568 60.3191 139.037 60.779 139.835 60.779H140.732C140.547 61.3696 139.966 61.7257 138.929 61.7257H138.496V62.5688H138.96C140.286 62.5688 141.084 61.9196 141.332 60.779H141.584H143.131C143.622 60.779 143.929 60.6618 144.154 60.3552L146.151 60.9142L146.71 60.0937V59.8052C146.71 58.5699 146.255 57.8305 145.443 57.8305ZM140.796 59.9359H139.871C139.43 59.9359 139.191 59.7781 139.191 59.413C139.191 58.9666 139.484 58.6601 139.934 58.6601C140.439 58.6601 140.791 59.1064 140.791 59.7917V59.9359H140.796ZM146.07 60.0081L144.506 59.5662L144.623 59.2462C144.758 58.89 144.957 58.6736 145.308 58.6736C145.786 58.6736 146.07 59.0974 146.07 59.8007V60.0081Z" fill="white"/>
<path d="M37.3578 63.623C37.3578 63.3254 37.2 63.1992 36.9791 63.1992H36.8664C36.641 63.1992 36.4922 63.3254 36.4922 63.623C36.4922 63.9115 36.641 64.0468 36.8664 64.0468H36.9791C37.2045 64.0468 37.3578 63.916 37.3578 63.623Z" fill="white"/>
<path d="M35.7916 64.0468C36.017 64.0468 36.1703 63.9115 36.1703 63.623C36.1703 63.3254 36.0125 63.1992 35.7916 63.1992H35.6789C35.4535 63.1992 35.3047 63.3254 35.3047 63.623C35.3047 63.9115 35.4535 64.0468 35.6789 64.0468H35.7916Z" fill="white"/>
<path d="M57.3071 59.3442V55.332H56.6083V59.3442C56.6083 59.7454 56.4505 59.9348 56.0177 59.9348H55.2648H54.6472L54.6337 59.9168C55.2243 59.4479 55.4452 59.2225 55.4452 58.695C55.4452 57.9511 54.9222 57.5544 53.9078 57.5544C53.4074 57.5544 52.8484 57.6896 52.393 57.9105V58.7761L53.3037 59.9032L53.2947 59.9348H51.8881H45.4372C45.0359 59.9348 44.8466 59.7499 44.8466 59.3442V55.332H44.1523V59.3442C44.1523 59.7409 43.9494 59.9348 43.5346 59.9348H42.9666C42.633 59.9348 42.5022 59.8221 42.3399 59.3848L41.7809 57.888H41.028L40.6177 58.1405C39.9144 58.5823 39.5583 59.0421 39.5583 59.5967C39.5583 59.6958 39.5673 59.777 39.5808 59.8581C39.4411 59.9258 39.2743 59.9393 38.9677 59.9393C38.6566 59.9393 38.2058 59.8942 37.6918 59.8221L36.7586 59.6823V60.5389L38.4357 60.7778C38.2779 61.3459 37.6377 61.675 36.6549 61.675H36.1415C35.1812 61.675 34.5996 61.2422 34.5996 60.4893C34.5996 60.1467 34.7349 59.6823 34.9197 59.2811L34.3517 59.1098C34.1352 59.6237 34 60.1918 34 60.6381C34 61.8553 34.8881 62.5767 36.3939 62.5767C37.9493 62.5767 38.9186 61.9094 39.0584 60.7553C39.3379 60.6832 39.5092 60.4803 39.6129 60.1422H39.658C39.8428 60.5524 40.2711 60.7914 40.9338 60.7914H41.849V60.2459L41.8941 60.2368C42.133 60.6381 42.4171 60.7869 42.9581 60.7869H43.1159C43.7651 60.7869 44.0536 60.5479 44.1753 59.9348H44.2204C44.3466 60.5164 44.7659 60.7869 45.5098 60.7869H51.9069H52.6733C53.1196 60.7869 53.5614 60.6742 53.9401 60.4217C54.3188 60.6742 54.7967 60.7869 55.2521 60.7869H56.0049C56.9329 60.7779 57.3071 60.3225 57.3071 59.3442ZM40.8254 59.9348C40.379 59.9348 40.1311 59.8086 40.1311 59.511C40.1311 59.2495 40.4151 59.0331 40.8073 58.8302L41.2537 58.6048L41.6504 59.6643C41.6865 59.7635 41.718 59.8491 41.7541 59.9348H40.8254ZM54.0118 59.777L52.9884 58.5597V58.5282C53.2859 58.447 53.606 58.402 53.9036 58.402C54.5392 58.402 54.8368 58.5417 54.8368 58.8483C54.8368 59.1098 54.6339 59.245 54.2462 59.5696L54.0118 59.777Z" fill="white"/>
<path d="M59.0302 55.334H58.3359V60.7798H59.0302V55.334Z" fill="white"/>
<path d="M61.0352 61.1725V63.0434H61.7204V61.186C61.7204 60.636 61.9143 60.4421 62.4643 60.4421H64.6779V59.6577C64.6779 58.3367 64.0963 57.5703 63.1406 57.5703C62.5455 57.5703 61.9323 57.922 61.6934 58.6658L62.284 59.0085C62.4688 58.6343 62.7303 58.4134 63.1496 58.4134C63.6951 58.4134 64.0422 58.8552 64.0603 59.59H62.4643C61.4995 59.5946 61.0352 60.0995 61.0352 61.1725Z" fill="white"/>
<path d="M76.6398 55.5723C76.4144 55.5723 76.2656 55.6985 76.2656 55.996C76.2656 56.2891 76.4144 56.4198 76.6398 56.4198H76.7525C76.9779 56.4198 77.1312 56.2846 77.1312 55.996C77.1312 55.6985 76.9734 55.5723 76.7525 55.5723H76.6398Z" fill="white"/>
<path d="M77.8273 55.5723C77.6019 55.5723 77.4531 55.6985 77.4531 55.996C77.4531 56.2891 77.6019 56.4198 77.8273 56.4198H77.94C78.1654 56.4198 78.3187 56.2846 78.3187 55.996C78.3187 55.6985 78.1609 55.5723 77.94 55.5723H77.8273Z" fill="white"/>
<path d="M81.3078 56.6758C81.0824 56.6758 80.9336 56.802 80.9336 57.0996C80.9336 57.3926 81.0824 57.5233 81.3078 57.5233H81.4205C81.6459 57.5233 81.7992 57.3881 81.7992 57.0996C81.7992 56.802 81.6414 56.6758 81.4205 56.6758H81.3078Z" fill="white"/>
<path d="M80.1164 56.6758C79.891 56.6758 79.7422 56.802 79.7422 57.0996C79.7422 57.3926 79.891 57.5233 80.1164 57.5233H80.2291C80.4545 57.5233 80.6078 57.3881 80.6078 57.0996C80.6078 56.802 80.45 56.6758 80.2291 56.6758H80.1164Z" fill="white"/>
<path d="M86.4215 59.3442V55.332H85.7227V59.3442C85.7227 59.7454 85.5649 59.9348 85.1321 59.9348H84.6091C84.2079 59.9348 84.0185 59.7499 84.0185 59.3442V55.332H83.3243V59.3442C83.3243 59.7409 83.1214 59.9348 82.7066 59.9348H81.6922C81.2955 59.9348 81.1107 59.7499 81.1107 59.3442V58.2126H80.4615V59.3442C80.4615 59.7409 80.2586 59.9348 79.8438 59.9348H79.0188H78.0495L78.036 59.8987C78.4823 59.511 78.7077 59.0692 78.7077 58.5507C78.7077 57.7077 78.1352 57.0314 77.3056 57.0314C76.4716 57.0314 75.9035 57.7167 75.9035 58.5507C75.9035 59.0737 76.1199 59.511 76.5753 59.8987L76.5617 59.9348H75.597H69.1548C68.8031 59.9348 68.6318 59.7499 68.3703 59.0196L67.6084 56.9097L66.9006 57.1622L67.5949 59.0917C67.6851 59.3532 67.7347 59.502 67.7347 59.6147C67.7347 59.8627 67.5724 59.9348 67.0404 59.9348H66.026V59.4073H65.3633V59.9528C65.3633 60.5119 65.6789 60.7824 66.1748 60.7824H66.8691C67.5047 60.7824 67.7843 60.5524 67.8744 59.9709L67.9105 59.9618C68.199 60.5885 68.5056 60.7824 69.1638 60.7824L69.1728 60.7778V60.7824H75.8584C76.3724 60.7824 76.8728 60.6697 77.2966 60.3811C77.7294 60.6742 78.2208 60.7824 78.7438 60.7824H79.411C80.0737 60.7824 80.3668 60.5434 80.484 59.9303H80.5291C80.6553 60.5119 81.0521 60.7824 81.7824 60.7824L81.7914 60.7733L82.2918 60.7824C82.941 60.7824 83.2296 60.5434 83.3513 59.9303H83.3964C83.5226 60.5119 83.9419 60.7824 84.6858 60.7824H85.1276C86.0473 60.7778 86.4215 60.3225 86.4215 59.3442ZM77.3059 59.7635C76.8054 59.4885 76.4989 59.1368 76.4989 58.6589C76.4989 58.181 76.819 57.87 77.2608 57.87H77.3419C77.7883 57.87 78.1038 58.181 78.1038 58.6589C78.1038 59.1368 77.8063 59.484 77.3059 59.7635Z" fill="white"/>
<path d="M92.5617 57.043C92.3363 57.043 92.1875 57.1692 92.1875 57.4668C92.1875 57.7598 92.3363 57.8905 92.5617 57.8905H92.6744C92.8998 57.8905 93.0531 57.7553 93.0531 57.4668C93.0531 57.1692 92.8953 57.043 92.6744 57.043H92.5617Z" fill="white"/>
<path d="M91.3742 57.043C91.1488 57.043 91 57.1692 91 57.4668C91 57.7598 91.1488 57.8905 91.3742 57.8905H91.4869C91.7123 57.8905 91.8656 57.7553 91.8656 57.4668C91.8656 57.1692 91.7078 57.043 91.4869 57.043H91.3742Z" fill="white"/>
<path d="M97.4554 61.9004C97.4554 61.6028 97.2977 61.4766 97.0767 61.4766H96.964C96.7386 61.4766 96.5898 61.6028 96.5898 61.9004C96.5898 62.1889 96.7386 62.3241 96.964 62.3241H97.0767C97.3022 62.3286 97.4554 62.1934 97.4554 61.9004Z" fill="white"/>
<path d="M95.7765 61.4785C95.5511 61.4785 95.4023 61.6047 95.4023 61.9023C95.4023 62.1908 95.5511 62.3261 95.7765 62.3261H95.8892C96.1147 62.3261 96.2679 62.1908 96.2679 61.9023C96.2679 61.6047 96.1102 61.4785 95.8892 61.4785H95.7765Z" fill="white"/>
<path d="M101.39 60.7805H101.643H110.096L110.335 60.4154C110.605 60.6994 110.894 60.7805 111.318 60.7805H111.759C112.675 60.7805 113.049 60.3252 113.049 59.3469V55.3347H112.35V59.3469C112.35 59.7481 112.192 59.9375 111.759 59.9375H111.322C111.052 59.9375 110.853 59.9059 110.637 59.7752V59.6129C110.637 58.3731 110.091 57.8005 108.901 57.8005H102.657V57.7644L105.835 56.1144V55.2578L102.355 57.0612V58.6481H108.91C109.672 58.6481 110.019 58.9637 110.019 59.6534V59.9375H101.828H101.476C101.463 58.603 100.931 57.814 100.065 57.814C99.2354 57.814 98.6313 58.5669 98.6313 59.5227C98.6313 60.3207 99.1002 60.785 99.8982 60.785H100.791C100.606 61.3756 100.024 61.7318 98.9875 61.7318H98.5547V62.5748H99.019C100.344 62.5701 101.142 61.9209 101.39 60.7805ZM99.9297 59.9375C99.4879 59.9375 99.249 59.7797 99.249 59.4145C99.249 58.9682 99.5375 58.6616 99.9928 58.6616C100.498 58.6616 100.849 59.1079 100.849 59.7932V59.933H99.9297V59.9375Z" fill="white"/>
<path d="M114.772 55.332H114.078V60.7779H114.772V55.332Z" fill="white"/>
<path d="M98.0156 59.3994C98.0156 59.174 97.9841 58.8539 97.9255 58.4617L97.8263 57.8125L97.1771 57.9162L97.2943 58.5654C97.3619 58.9892 97.3845 59.2281 97.3845 59.3994C97.3845 59.8097 97.1365 59.9359 96.4603 59.9359H96.059C95.6352 59.9359 95.4414 59.7511 95.4414 59.3453V58.2137H94.7922V59.3453C94.7922 59.8367 94.4405 59.963 93.0159 59.963H90.7166C89.4633 59.963 88.9494 59.7105 88.9494 59.0974C88.9494 58.8134 89.0531 58.4797 89.2424 58.083L88.6698 57.9117C88.467 58.3986 88.3633 58.8494 88.3633 59.2462C88.3633 60.4409 89.0936 60.8646 91.2125 60.8646H92.4704C94.1565 60.8646 94.693 60.6482 94.8327 59.9089H94.8688C95.0041 60.4995 95.4053 60.7745 96.1266 60.7745H96.4603C97.5152 60.779 98.0156 60.3282 98.0156 59.3994Z" fill="white"/>
</svg>
