<svg width="156" height="80" viewBox="0 0 156 80" fill="none" xmlns="http://www.w3.org/2000/svg">
<path d="M0.358311 36.6845L-0.574219 26.8941C-0.574219 26.7602 -0.387724 26.5492 -0.278951 26.4463C0.0681897 25.9985 0.570711 25.494 0.943699 25.0977C1.02662 25.7051 1.07844 26.3691 1.13025 26.9765C1.31675 29.1178 1.63792 32.3761 1.90213 34.1211C1.90213 34.1726 2.03687 34.2807 2.14044 34.3064C2.40466 34.3579 2.64817 34.5689 2.91238 34.5689H3.36309V36.6845H0.353105H0.358311Z" fill="white"/>
<path d="M8.58514 34.5696V36.6852H7.04132C6.69418 36.6852 6.29528 36.2065 6.24347 35.9439C6.10879 36.1035 5.52334 36.6852 5.25913 36.6852H2.57031V34.5696H6.00516C6.48698 34.5696 6.40405 33.1952 6.45587 33.1386C6.88067 32.557 7.54899 31.8672 8.18625 31.2598C8.21215 32.0267 7.73554 33.0563 7.46612 34.1166C7.70443 34.3277 7.99975 34.5644 8.31572 34.5644C8.47637 34.5644 8.63695 34.3791 8.76649 34.3791C8.71468 34.3791 8.65766 34.5644 8.58 34.5644L8.58514 34.5696Z" fill="white"/>
<path d="M8.15234 36.6856V34.5701H8.66007C10.7375 33.8288 15.022 30.0197 16.7264 30.0197C17.6849 30.0197 19.9747 31.6874 19.9747 32.8251C19.9747 32.9331 19.3894 33.8545 19.177 34.5701H20.4825V36.6856H8.15234ZM12.7321 29.227C12.6233 29.227 11.3748 28.3519 11.3748 28.1152C11.3748 27.9556 12.5197 26.8438 12.7062 26.8438C12.8927 26.8438 14.1154 27.9299 14.1154 28.1152C14.1154 28.4343 12.8617 29.227 12.7321 29.227ZM15.5297 32.3206C14.3071 32.3206 12.8668 33.6692 11.4265 34.359H17.0476C17.1253 34.3847 17.8196 34.1994 17.8196 33.8545C17.8196 33.0361 15.9545 32.3206 15.5297 32.3206Z" fill="white"/>
<path d="M19.6016 36.6843V34.5688H22.5287C22.5805 34.2753 22.5028 33.8275 22.6634 33.6165C23.5441 32.5046 25.7252 30.389 27.1343 30.389C28.1446 30.389 28.3881 32.0311 28.3881 32.5304C28.3881 32.6385 28.3881 32.9525 28.3363 33.112C28.1239 33.5598 27.7508 34.0128 27.4866 34.5688H29.0823V36.6843H19.6016ZM25.1915 29.0095L23.8601 27.9234C24.2849 27.4756 25.0828 26.6777 25.1915 26.6777C25.3263 26.6777 26.15 27.4447 26.6318 27.8668C26.207 28.2631 25.6215 28.7419 25.1915 29.0044V29.0095ZM26.7613 33.4826C26.6525 33.2201 26.4971 32.8752 26.2018 32.6899C26.0412 32.6127 25.7511 32.5046 25.6423 32.5046C25.4299 32.5046 23.8601 33.0091 23.8601 33.5084C23.8601 34.1724 25.2174 34.5688 25.5128 34.5688C25.6474 34.5688 26.2588 34.4349 26.58 34.3062C26.6888 34.229 26.7924 34.1209 26.8442 34.0952C26.8442 33.8841 26.8183 33.5908 26.7665 33.4878L26.7613 33.4826Z" fill="white"/>
<path d="M32.7052 36.6832C32.358 36.4721 32.4927 35.839 32.2803 35.4684C32.0161 35.839 31.7208 36.2868 31.3737 36.6832H28.2031V34.5676H32.0886L31.1302 28.087L32.7518 25.8633C32.8036 26.445 32.9383 27.2634 32.9642 27.634C33.1248 29.3275 33.4149 31.8395 33.5496 33.955C33.5755 34.3771 33.9226 34.5624 34.2438 34.5624H34.5909V36.678H32.7L32.7052 36.6832Z" fill="white"/>
<path d="M39.8648 28.7223C39.6006 29.0414 39.1706 29.6231 38.8287 30.0452C38.7768 30.0967 38.7768 30.1533 38.7768 30.2819L39.2276 33.9315L38.7198 36.5773C38.5852 36.5773 38.4815 36.6853 38.3468 36.6853H33.793V34.5697H37.7355C37.7873 34.2506 37.8132 34.0653 37.8132 33.9366C37.8132 33.8079 37.6785 32.7476 37.5749 32.1659C37.4402 31.3732 37.2019 29.7827 36.8548 28.6451C36.803 28.4855 36.373 28.2744 36.0829 28.0377C36.5336 27.1111 36.8807 26.4214 37.5749 25.5C37.5749 25.7625 37.6008 26.1074 37.7614 26.3442C37.9998 26.6633 38.4815 26.9001 38.8805 27.1369C39.3312 27.4303 39.8389 27.7443 40.3466 28.0377C40.2378 28.2487 40.0513 28.5164 39.8648 28.7274V28.7223Z" fill="white"/>
<path d="M55.7067 36.6588H47.5057C47.371 36.6588 47.319 36.5816 47.2155 36.5816C46.604 36.5558 45.4588 35.7065 45.3505 34.9395C45.3242 34.8315 45.3242 34.5432 45.3242 34.4093C45.3242 33.4571 45.9357 30.9194 46.5208 30.626L46.6297 30.7084C46.6297 31.2128 46.4437 32.4791 46.4437 32.6901C46.4437 32.7982 46.4694 33.246 46.5783 33.5085C46.7644 33.9306 47.8575 34.4866 48.3086 34.4866H55.3645C55.4423 34.3785 55.5254 34.3012 55.5254 34.1674C55.5254 33.663 54.7793 32.582 54.6184 32.3144L55.7115 30.4098C56.2452 30.8885 56.8567 32.0775 56.8567 32.8445C56.8567 34.0593 56.2715 35.5418 55.7115 36.6536L55.7067 36.6588ZM52.562 29.3031L51.0441 28.5104C50.7485 28.6957 50.4847 28.9891 50.2717 29.2517C49.7386 29.0406 49.1528 28.7472 48.6191 28.4332C48.9147 28.0626 49.6297 27.2441 49.8163 27.2441C49.951 27.2441 51.013 27.9854 51.1476 27.9854C51.2565 27.9854 51.8105 27.4552 52.1318 27.2441L53.7018 28.0368C53.4062 28.4332 52.9557 28.9634 52.5566 29.3083L52.562 29.3031Z" fill="white"/>
<path d="M60.1522 36.6844L59.168 28.5103C59.168 28.1654 60.4478 26.2352 60.7116 25.916L61.2453 32.7415C61.2453 34.1159 61.1107 35.2535 60.1522 36.6844Z" fill="white"/>
<path d="M65.1821 40.5977C64.2494 40.5977 61.0011 39.2748 60.7109 38.9042V38.6674C60.7887 38.616 60.7887 38.5903 60.9233 38.5903C61.1615 38.5903 62.7057 39.2233 63.374 39.2233C64.3582 39.2233 67.9278 36.6548 67.9278 35.2032C67.9278 34.5958 66.0108 33.0362 65.8504 32.9538L66.5965 30.8125C68.1402 31.7133 68.9377 33.4582 68.9377 34.8326C68.9377 36.2069 67.6322 40.6029 65.1821 40.6029V40.5977Z" fill="white"/>
<path d="M71.2531 36.6845L70.3203 26.8941C70.3203 26.7602 70.507 26.5492 70.6159 26.4463C70.9629 25.9985 71.4655 25.494 71.8382 25.0977C71.9214 25.7051 71.9734 26.3691 72.0249 26.9765C72.2116 29.1178 72.5329 32.3761 72.7967 34.1211C72.7967 34.1726 72.9319 34.2807 73.0354 34.3064C73.2993 34.3579 73.5428 34.5689 73.8073 34.5689H74.2578V36.6845H71.2477H71.2531Z" fill="white"/>
<path d="M83.2398 34.6205C82.8928 35.2279 82.468 35.8662 82.0689 36.4736L78.0231 35.0169C77.2507 35.336 77.4373 36.1287 76.8001 36.6846H73.4688V34.569H77.0646C77.2249 34.1985 77.3596 33.9616 77.4116 33.694C77.7066 32.7675 78.6651 31.3107 79.7534 30.8114C80.2608 30.5747 81.2971 29.9672 82.1778 30.0187C82.2298 30.0702 82.3124 30.1268 82.3381 30.204C82.6026 31.0482 83.0842 32.3762 83.3487 33.4315C83.4007 33.5653 83.4265 33.9616 83.4265 34.0646C83.4265 34.1984 83.3176 34.4609 83.2398 34.6205ZM80.7891 32.2115C80.6808 32.1034 80.6288 32.1343 80.4941 32.1343C80.3595 32.1343 80.0436 32.2115 79.9084 32.2681C79.696 32.3505 79.4578 32.4535 79.2401 32.5873C79.1886 32.6388 79.054 32.7211 79.054 32.7726L81.4526 33.7249C81.318 33.1689 81.2917 32.613 80.7891 32.2167V32.2115Z" fill="white"/>
<path d="M89.1734 40.8133C88.4016 40.7618 87.4688 41.2611 86.5881 41.8736V41.6883C86.5881 41.5545 87.1218 41.0552 87.412 40.8133C87.0392 40.6537 86.5624 40.6794 86.2674 40.4684C86.2411 40.0206 86.5055 39.3566 87.0392 38.883C87.1739 38.7492 87.412 38.6205 87.5729 38.5381C87.7333 38.4866 87.9714 38.4043 88.106 38.4043C88.2412 38.4043 88.3184 38.4815 88.4273 38.4815C88.4794 38.5329 88.5883 38.641 88.6397 38.6925C88.6397 38.744 88.7175 38.744 88.7175 38.8779C88.7175 39.0116 88.5051 39.2742 88.3448 39.4852C88.3448 39.4852 88.267 39.408 88.267 39.3514C88.2412 39.2999 88.1324 39.2433 88.0288 39.1918C87.92 39.1403 87.8422 39.1146 87.7075 39.1146C87.5729 39.1146 87.3342 39.2227 87.1218 39.2999C87.0703 39.2999 86.9615 39.4338 86.8579 39.5367C86.8059 39.5882 86.8059 39.5109 86.8059 39.6448C86.8059 39.7786 86.9662 39.8816 87.0703 39.9073C87.552 40.0412 88.4016 40.0926 88.5362 40.0926C88.6708 40.0926 88.9353 40.0926 89.5725 40.0412C89.4636 40.2522 89.3344 40.5713 89.1734 40.8081V40.8133Z" fill="white"/>
<path d="M95.0319 29.0922C95.0061 29.0922 95.0061 29.1179 94.8715 29.1179C94.7626 29.1179 94.576 29.0408 94.421 28.9326C94.3121 29.5143 94.1565 30.2812 93.9388 30.8886C93.7264 31.4446 93.0892 32.3196 93.0892 32.4483C93.0892 32.5564 93.2501 32.7366 93.2758 32.8189C93.7838 33.694 93.8352 34.2757 93.8352 34.9346C93.8352 35.0684 93.7838 36.0978 93.6749 36.6795H88.0017C87.7115 36.52 87.6032 35.7273 87.6032 35.3566C87.6032 35.2485 87.629 34.8007 87.6547 34.4301C87.6804 34.219 87.7893 33.9256 87.8928 33.6631C88.028 33.7403 88.1573 34.008 88.2919 34.1933C88.4786 34.4301 88.7424 34.4558 88.9291 34.4558C89.6752 34.4558 91.0585 33.1072 91.4833 32.7366C91.2452 32.1549 89.8876 30.7548 89.1678 30.3276C89.0069 30.5129 88.9811 30.7497 88.8465 30.9607C88.0484 30.4563 87.0899 29.9312 86.3181 29.504C86.1057 29.3702 85.9453 28.7113 85.9453 28.4436C85.9453 28.3098 86.1057 27.5686 86.2092 27.1465H87.8049C87.8569 27.0384 87.8826 26.7758 87.8569 26.5648C89.3748 27.4656 91.5611 29.7408 92.4107 31.3262C92.8612 30.5849 92.9701 29.6585 92.9701 28.8915C92.9701 28.2841 92.8355 27.9392 92.4364 27.4605L94.0321 25C94.0584 25.2111 94.0584 25.5302 94.2188 25.767C94.3534 25.978 94.7004 26.1891 94.9391 26.3744C94.9391 26.3744 96.1926 27.0075 96.1926 27.2185C96.1926 27.3267 95.4208 28.49 95.0217 29.0716L95.0319 29.0922ZM91.9446 33.4057C91.5712 33.8279 91.0639 34.358 90.6905 34.5948C91.2763 34.6463 91.9703 34.6463 92.5555 34.5948C92.3951 34.2242 92.157 33.7763 91.9446 33.4057Z" fill="white"/>
<path d="M99.4803 36.6844L98.4961 28.5103C98.4961 28.1654 99.7753 26.2352 100.04 25.916L100.573 32.7415C100.573 34.1159 100.439 35.2535 99.4803 36.6844Z" fill="white"/>
<path d="M109.516 28.0574C109.381 28.0574 108.506 27.5529 107.972 27.2389C107.708 27.5323 107.2 28.0059 107.123 28.0059C106.987 28.0059 106.138 27.5014 105.656 27.1874C105.869 26.8426 106.35 26.3947 106.749 25.916C107.174 26.2352 108.003 26.7602 108.133 26.7602C108.21 26.7602 108.801 26.1528 109.091 25.916L110.718 26.8426C110.371 27.1874 109.651 28.0574 109.521 28.0574H109.516ZM112.018 36.6844C111.909 36.6844 111.832 36.633 111.754 36.5506C111.593 36.4425 111.381 36.2057 111.329 36.0204C111.168 35.516 111.117 34.9343 110.956 34.4041C110.262 34.7233 110.288 36.0204 109.464 36.0976L106.242 35.4645V35.1711C106.242 35.063 106.775 33.6886 107.04 32.8959C107.226 32.34 108.158 31.7841 108.532 31.5731C109.065 31.2796 109.651 30.909 110.184 30.5693C110.132 30.3582 109.972 30.0648 109.972 29.9361C109.972 29.8075 110.744 28.6905 111.117 28.0574C111.464 29.859 111.676 32.1856 112.184 34.2239C112.262 34.5946 112.609 34.5689 112.982 34.5689H113.541V36.6844H112.023H112.018ZM110.874 33.3746C110.874 33.2408 110.661 32.026 110.5 31.3878C110.314 31.4392 110.127 31.6502 110.101 31.7584C109.728 32.8702 108.583 33.0812 108.05 33.3746C108.583 33.5342 109.542 33.771 109.676 33.771H110.874V33.3746Z" fill="white"/>
<path d="M118.861 28.7223C118.597 29.0414 118.167 29.6231 117.825 30.0452C117.773 30.0967 117.773 30.1533 117.773 30.2819L118.224 33.9315L117.716 36.5773C117.582 36.5773 117.478 36.6853 117.343 36.6853H112.789V34.5697H116.732C116.783 34.2506 116.81 34.0653 116.81 33.9366C116.81 33.8079 116.675 32.7476 116.571 32.1659C116.436 31.3732 116.198 29.7827 115.851 28.6451C115.799 28.4855 115.37 28.2744 115.079 28.0377C115.53 27.1111 115.877 26.4214 116.571 25.5C116.571 25.7625 116.597 26.1074 116.758 26.3442C116.996 26.6633 117.478 26.9001 117.877 27.1369C118.328 27.4303 118.835 27.7443 119.343 28.0377C119.234 28.2487 119.047 28.5164 118.861 28.7274V28.7223Z" fill="white"/>
<path d="M122.374 36.6845L121.441 26.8941C121.441 26.7602 121.628 26.5492 121.736 26.4463C122.084 25.9985 122.586 25.494 122.959 25.0977C123.042 25.7051 123.094 26.3691 123.146 26.9765C123.332 29.1178 123.653 32.3761 123.918 34.1211C123.918 34.1726 124.052 34.2807 124.156 34.3064C124.42 34.3579 124.664 34.5689 124.928 34.5689H125.379V36.6845H122.369H122.374Z" fill="white"/>
<path d="M132.199 27.9233C130.708 28.4277 129.163 28.927 127.594 29.4315C128.977 30.6772 130.708 31.9434 132.039 33.6936C132.148 33.8274 132.225 34.0385 132.225 34.198L131.614 36.6842H124.848V34.5686H130.495L127.511 32.0824C127.459 32.1905 127.273 32.3449 127.215 32.4531C127.055 32.2935 126.734 32.0052 126.495 31.7375C126.122 31.3412 125.511 30.6514 125.511 30.5228C125.511 30.3941 126.019 28.6954 126.257 27.8255C128.386 27.1924 130.599 26.5026 132.779 25.8438C132.671 26.4512 132.458 27.2747 132.194 27.9336L132.199 27.9233Z" fill="white"/>
<path d="M136.965 41.337C135.82 41.337 132.81 40.4929 132.359 40.1222C132.359 39.7516 132.654 39.8031 132.732 39.8031C132.867 39.8031 134.649 40.1737 134.784 40.1737C135.98 40.1737 140.136 37.6051 140.136 35.5977C140.136 35.4895 140.109 35.1498 140.001 34.8821H139.949C139.415 36.3388 138.804 36.6786 137.768 36.6786C136.385 36.6786 136.25 35.8344 136.25 34.7483C136.25 34.6145 136.224 34.352 136.25 34.1152C136.302 33.6365 137.742 30.7539 139.022 30.7539C139.845 30.7539 140.592 32.3393 140.7 32.6585C140.778 32.8438 140.861 33.0806 140.913 33.3225C141.021 33.7188 141.099 34.4858 141.099 34.6197C141.099 36.9205 139.633 41.3422 136.97 41.3422L136.965 41.337ZM138.271 33.0806C138.084 33.0806 137.048 33.374 137.048 33.9247C137.048 34.3468 138.219 34.5064 138.353 34.5064C138.727 34.5064 138.861 34.4807 139.337 34.2439C139.337 33.4254 138.7 33.0806 138.271 33.0806Z" fill="white"/>
<path d="M4.54287 52.4975C4.16468 53.4395 3.69321 54.6388 3.48081 55.1587C3.41344 55.3028 3.28396 55.3852 3.0249 55.3852C2.6674 55.3852 1.94734 55.2874 1.58984 55.1742V55.1072C2.43951 53.1255 4.98837 47.0876 5.61008 45.6154L5.48055 45.2757C6.0867 45.147 6.99852 45.0801 7.19537 45.0801C7.34046 45.0801 7.4907 45.1779 7.56842 45.3735C8.3196 47.1596 9.56295 50.3562 10.1328 51.7666C10.8012 53.4241 11.1949 54.4432 11.5213 55.1278V55.1948C11.1638 55.308 10.05 55.3904 9.69248 55.3904C9.42827 55.3904 9.29873 55.308 9.13815 54.8705C8.84288 54.0417 8.61492 53.4241 8.24188 52.5027H4.54802L4.54287 52.4975ZM7.84298 51.1489C7.09174 49.1363 6.59957 47.9215 6.42343 47.4016C6.01418 48.4722 5.55827 49.7539 5.00393 51.1489H7.84813H7.84298Z" fill="white"/>
<path d="M13.9255 47.4165C13.9255 46.6393 13.9255 46.0524 13.8789 45.373C14.3348 45.2597 15.0549 45.1619 15.7233 45.1465H19.6917C19.5933 45.8774 19.3964 46.1863 19.1995 46.3973C18.956 46.4951 18.4017 46.4951 17.666 46.4951H15.9667V49.3983H19.5259C19.3809 50.5358 19.0182 50.7469 18.4483 50.7469H15.9667V53.928C16.3449 54.0104 16.863 54.0412 17.4847 54.0412C18.153 54.0412 19.3445 54.0412 20.132 53.9743L20.1631 54.0052C20.0181 54.7052 19.7072 55.0759 19.2979 55.3023C19.07 55.3487 18.3344 55.3847 17.0754 55.3847C15.6352 55.3847 14.5576 55.3024 14.169 55.22L13.9255 54.9112V47.4113V47.4165Z" fill="white"/>
<path d="M30.099 44.8997C30.9642 44.8997 32.0418 45.2548 32.4511 45.6769C32.4511 46.0836 32.192 46.7476 31.617 46.7167C31.2388 46.5211 30.5394 46.3101 30.0161 46.3101C29.1509 46.3101 28.5293 46.7167 28.5293 47.4322C28.5293 48.194 29.0681 48.5852 30.586 49.4448C32.0573 50.2736 32.8914 50.8913 32.8914 52.4303C32.8914 54.443 31.13 55.5291 29.1976 55.5291C28.0682 55.5291 27.2393 55.2048 26.8145 54.896C26.5398 54.7158 26.4414 54.5563 26.4414 54.3452C26.4414 54.0054 26.6849 53.4032 26.8352 53.3054C27.4206 53.712 28.4049 54.0673 29.1872 54.0673C30.1664 54.0673 30.8554 53.6451 30.8554 52.8164C30.8554 52.1009 30.4772 51.6943 28.8298 50.8038C26.9336 49.7794 26.6072 48.7448 26.6072 47.7668C26.6072 46.6652 27.3895 44.8945 30.0887 44.8945H30.1042L30.099 44.8997Z" fill="white"/>
<path d="M35.583 47.4314C35.583 46.6541 35.583 45.9849 35.5156 45.2386C35.956 45.1717 37.0647 45.043 38.1941 45.043C40.6756 45.043 42.406 45.8871 42.406 48.3373C42.406 50.7875 40.3804 51.5647 39.3028 51.5853C39.0438 51.5853 38.65 51.5545 38.4687 51.4566C38.2251 51.328 37.9299 50.875 37.9299 50.3551C38.0594 50.386 38.2874 50.4014 38.4531 50.4014C39.2716 50.4014 40.2819 49.9793 40.2819 48.3425C40.2819 46.7982 39.2354 46.3144 38.2718 46.3144C38.0749 46.3144 37.8469 46.3298 37.6191 46.3607V53.3252C37.6191 54.4627 37.6501 54.9311 37.6657 55.2554C37.3859 55.3378 36.3756 55.3841 35.9353 55.3841C35.6918 55.3841 35.5779 55.3378 35.5779 55.0907V47.4314H35.583Z" fill="white"/>
<path d="M46.1911 52.4975C45.813 53.4395 45.3415 54.6388 45.1291 55.1587C45.0621 55.3028 44.9323 55.3852 44.6733 55.3852C44.3159 55.3852 43.5958 55.2874 43.2383 55.1742V55.1072C44.0879 53.1255 46.6369 47.0876 47.2585 45.6154L47.1293 45.2757C47.7354 45.147 48.6472 45.0801 48.844 45.0801C48.9888 45.0801 49.139 45.1779 49.2168 45.3735C49.9683 47.1596 51.2116 50.3562 51.7812 51.7666C52.4495 53.4241 52.8432 54.4432 53.1698 55.1278V55.1948C52.812 55.308 51.6986 55.3904 51.3408 55.3904C51.0769 55.3904 50.9471 55.308 50.7868 54.8705C50.4912 54.0417 50.2632 53.4241 49.8905 52.5027H46.1965L46.1911 52.4975ZM49.4914 51.1489C48.7399 49.1363 48.2481 47.9215 48.0716 47.4016C47.6624 48.4722 47.2065 49.7539 46.6524 51.1489H49.4968H49.4914Z" fill="white"/>
<path d="M63.4735 53.6974C63.4268 54.2481 63.2096 54.7217 62.935 54.9791C62.5257 55.2364 61.6606 55.5298 60.5675 55.5298C56.8424 55.5298 54.832 53.4194 54.832 50.3206C54.832 46.9594 57.3964 44.9004 60.6297 44.9004C62.1835 44.9004 63.3753 45.4203 63.6344 45.7137C63.6655 46.2645 63.2922 46.8152 62.7692 46.738C62.2768 46.527 61.5104 46.3005 60.6141 46.3005C58.6349 46.3005 57.0183 47.5822 57.0183 50.1817C57.0183 52.3899 58.4381 54.0783 61.0389 54.0783C62.132 54.0783 62.9972 53.8003 63.422 53.6716L63.4687 53.7025L63.4735 53.6974Z" fill="white"/>
<path d="M66.1053 47.4165C66.1053 46.6393 66.1053 46.0524 66.0586 45.373C66.5145 45.2597 67.2349 45.1619 67.9032 45.1465H71.8712C71.7731 45.8774 71.5762 46.1863 71.3794 46.3973C71.1359 46.4951 70.5812 46.4951 69.8459 46.4951H68.1467V49.3983H71.7055C71.5607 50.5358 71.1981 50.7469 70.6279 50.7469H68.1467V53.928C68.5248 54.0104 69.043 54.0412 69.6646 54.0412C70.3329 54.0412 71.5242 54.0412 72.3116 53.9743L72.3427 54.0052C72.1979 54.7052 71.8868 55.0759 71.4775 55.3023C71.2496 55.3487 70.5142 55.3847 69.2554 55.3847C67.8152 55.3847 66.7371 55.3024 66.3488 55.22L66.1053 54.9112V47.4113V47.4165Z" fill="white"/>
<path d="M81.3824 52.4975C81.0042 53.4395 80.5327 54.6388 80.3203 55.1587C80.2533 55.3028 80.1235 55.3852 79.8644 55.3852C79.5072 55.3852 78.7869 55.2874 78.4297 55.1742V55.1072C79.2793 53.1255 81.8281 47.0876 82.4497 45.6154L82.3199 45.2757C82.9266 45.147 83.8384 45.0801 84.0353 45.0801C84.1801 45.0801 84.3302 45.1779 84.408 45.3735C85.1595 47.1596 86.4028 50.3562 86.9724 51.7666C87.6407 53.4241 88.0344 54.4432 88.3611 55.1278V55.1948C88.0033 55.308 86.8898 55.3904 86.532 55.3904C86.2682 55.3904 86.1383 55.308 85.978 54.8705C85.6824 54.0417 85.4545 53.4241 85.0817 52.5027H81.3877L81.3824 52.4975ZM84.6826 51.1489C83.9312 49.1363 83.4393 47.9215 83.2628 47.4016C82.8536 48.4722 82.3977 49.7539 81.8437 51.1489H84.688H84.6826Z" fill="white"/>
<path d="M97.1634 51.9633C97.1634 51.2839 97.1323 50.9082 97.0964 50.5169C97.6193 50.4346 98.4019 50.275 98.8578 50.275C99.1013 50.275 99.1994 50.3728 99.1994 50.7125V54.3826C98.8889 54.64 98.3498 54.9849 97.9095 55.196C97.3399 55.3555 96.4538 55.5357 95.6712 55.5357C92.9255 55.5357 90.0195 54.3363 90.0195 50.2956C90.0195 46.9549 92.615 44.9062 95.8166 44.9062C97.5989 44.9062 98.8057 45.4724 99.1994 45.8482C99.215 46.4814 98.7435 46.9704 98.2206 46.8725C97.4847 46.5174 96.6351 46.3372 95.7699 46.3372C93.7596 46.3372 92.2106 47.6344 92.2106 50.1669C92.2106 52.9929 94.1066 54.2746 96.0188 54.2746C96.4747 54.2746 96.9665 54.1767 97.1634 54.0944V51.9685V51.9633Z" fill="white"/>
<path d="M102.328 47.4165C102.328 46.6393 102.328 46.0524 102.281 45.373C102.737 45.2597 103.458 45.1619 104.126 45.1465H108.094C107.996 45.8774 107.799 46.1863 107.602 46.3973C107.359 46.4951 106.804 46.4951 106.069 46.4951H104.369V49.3983H107.928C107.783 50.5358 107.421 50.7469 106.851 50.7469H104.369V53.928C104.747 54.0104 105.266 54.0412 105.887 54.0412C106.556 54.0412 107.747 54.0412 108.534 53.9743L108.565 54.0052C108.421 54.7052 108.109 55.0759 107.7 55.3023C107.472 55.3487 106.737 55.3847 105.478 55.3847C104.038 55.3847 102.96 55.3024 102.571 55.22L102.328 54.9112V47.4113V47.4165Z" fill="white"/>
<path d="M110.792 45.2911V45.2088C111.103 45.1625 112.507 45.0801 112.802 45.0801C112.963 45.0801 113.097 45.1933 113.258 45.3735C113.781 46.1199 115.118 48.1479 116.294 49.9496C117.029 51.1026 117.636 52.0085 118.024 52.8373C117.926 51.5864 117.941 50.9533 117.941 50.1451V45.6154C117.941 45.2396 118.056 45.1779 118.283 45.147C118.791 45.1007 119.231 45.0801 119.605 45.0801C119.573 45.7801 119.558 46.7169 119.558 48.0656V55.2205C119.413 55.2874 118.48 55.4778 118.003 55.4778C117.807 55.4778 117.708 55.411 117.594 55.2514C116.745 54.0829 115.911 52.8167 114.621 50.8349C113.755 49.4708 113.279 48.5649 112.61 47.3141C112.709 48.9509 112.693 49.7951 112.693 50.6239V54.8756C112.693 55.2154 112.595 55.2668 112.336 55.3131C112.041 55.3595 111.517 55.3955 111.03 55.3801C111.061 54.7315 111.077 53.7895 111.077 52.4254V45.6926L110.781 45.286L110.792 45.2911Z" fill="white"/>
<path d="M131.13 53.6974C131.083 54.2481 130.865 54.7217 130.591 54.9791C130.181 55.2364 129.316 55.5298 128.223 55.5298C124.499 55.5298 122.488 53.4194 122.488 50.3206C122.488 46.9594 125.053 44.9004 128.285 44.9004C129.84 44.9004 131.031 45.4203 131.29 45.7137C131.321 46.2645 130.948 46.8152 130.425 46.738C129.933 46.527 129.166 46.3005 128.27 46.3005C126.291 46.3005 124.675 47.5822 124.675 50.1817C124.675 52.3899 126.094 54.0783 128.695 54.0783C129.788 54.0783 130.653 53.8003 131.078 53.6716L131.124 53.7025L131.13 53.6974Z" fill="white"/>
<path d="M136.375 51.2621C136.375 50.9533 136.359 50.7113 136.246 50.5157C135.365 49.0076 133.909 46.8148 132.945 45.4198V45.3735C133.5 45.2139 134.303 45.0801 134.728 45.0801C135.023 45.0801 135.137 45.1625 135.546 45.8419C136.116 46.753 136.935 48.1634 137.639 49.3319C138.344 48.2612 139.908 45.6463 140.219 45.0801C140.825 45.0801 141.364 45.1625 141.592 45.2396C141.851 45.3375 141.82 45.5485 141.608 45.9037C141.198 46.5677 138.784 50.1246 138.603 50.3973C138.473 50.6239 138.422 50.8658 138.422 51.0768V53.3005C138.422 54.4021 138.453 54.8911 138.468 55.2462C138.09 55.3286 137.572 55.3749 136.67 55.3749C136.427 55.3749 136.375 55.3286 136.375 55.0815V51.2518V51.2621Z" fill="white"/>
</svg>
