<svg width="180" height="80" viewBox="0 0 180 80" fill="none" xmlns="http://www.w3.org/2000/svg">
<g clip-path="url(#clip0_897_8085)">
<mask id="mask0_897_8085" style="mask-type:luminance" maskUnits="userSpaceOnUse" x="16" y="22" width="149" height="35">
<path d="M165 22H16V56.8349H165V22Z" fill="white"/>
</mask>
<g mask="url(#mask0_897_8085)">
<path d="M71.2672 31.1201H71.414V22.4375H62.7578V26.7817C65.887 27.2207 68.9551 28.602 71.2672 31.1201Z" fill="white"/>
<path d="M71.4127 39.584H71.266C69.5486 44.869 65.7185 48.2437 61.0989 48.2437C55.4235 48.2437 52.5313 45.3524 52.5313 39.328V22.4375H41.0992L16 52.7109V52.8553H31.3306V52.7109C28.8324 50.074 28.4893 44.5759 33.3445 38.7174L43.8751 26.0167V39.584C43.8751 49.4321 49.2523 53.2971 58.2342 53.2971C67.2163 53.2971 71.7472 47.3715 71.4127 39.584Z" fill="white"/>
<path d="M118.183 43.3789H115.222V43.5233C116.063 43.9567 116.201 44.6801 115.612 46.1617L114.361 49.3318L113.108 46.1617C112.519 44.673 112.686 44.0096 113.351 43.5233V43.3789H108.562V43.5233C109.356 43.9296 109.657 44.5244 110.316 46.1674L113.002 52.8595H113.615L116.301 46.1674C117.008 44.4086 117.185 43.9909 118.18 43.5233V43.3789H118.183Z" fill="white"/>
<path d="M137.998 45.0909C137.998 44.3559 138.494 43.8382 139.428 43.8382C140.53 43.8382 141.415 44.7218 142.186 46.0903H142.433V43.6867C141.482 43.3935 140.547 43.1875 139.56 43.1875C137.661 43.1875 136.025 44.3715 136.025 46.0903C136.025 49.3262 140.857 48.983 140.857 50.9608C140.857 51.996 140.162 52.3993 139.259 52.3993C137.911 52.3993 136.81 51.1495 136.044 49.6665H135.797L135.964 52.4594C136.816 52.8297 137.943 53.0513 139.183 53.0513C141.415 53.0513 142.982 51.8072 142.982 50.0184C142.982 46.7267 137.998 47.0155 137.998 45.0922V45.0909Z" fill="white"/>
<path d="M122.865 43.1875C119.935 43.1875 117.941 45.4326 117.941 48.0122C117.941 50.5917 119.66 53.0513 122.621 53.0513C125.581 53.0513 126.635 50.8006 126.771 49.6867H126.624C126.102 50.7277 124.951 51.2252 123.862 51.2252C121.486 51.2252 120.644 49.6795 120.519 47.6561H126.762C126.961 44.7834 125.244 43.1875 122.865 43.1875ZM124.194 47.0399H120.505C120.528 45.2267 121.363 43.801 122.555 43.801C123.638 43.801 124.277 44.9635 124.194 47.0399Z" fill="white"/>
<path d="M162.041 43.3786V43.523C162.881 43.9564 163.019 44.6798 162.431 46.1614L161.18 49.3315L159.927 46.1614C159.338 44.6727 159.505 44.0093 160.169 43.523V43.3786H153.021V40.5859H152.874L149.258 43.8862V44.0308H150.35V50.0708C150.35 51.9283 151.423 53.0465 153.194 53.0465C154.85 53.0465 155.907 51.9969 156.297 50.4426H156.15C155.729 51.0847 154.997 51.4321 154.347 51.4279C153.521 51.422 153.021 50.8244 153.021 49.6905V44.0321H154.927C155.934 44.0321 156.392 44.3152 156.764 45.2419L159.761 52.7077C159.173 54.1718 158.356 55.3717 156.204 54.3006H156.057V56.69C156.383 56.7715 156.725 56.8402 157.142 56.8402C158.679 56.8402 159.307 55.6704 160.434 52.8607L163.12 46.1685C163.826 44.4097 164.004 43.9921 164.998 43.5245V43.3801H162.038L162.041 43.3786Z" fill="white"/>
<path d="M87.7553 39.7304C89.016 40.1551 89.6137 40.6684 89.6137 41.7208V47.4178C89.6137 50.0246 88.4794 51.8406 86.2211 51.8406C83.8146 51.8406 82.9146 50.0875 82.9146 47.4136V41.7223C82.9146 40.6684 83.5123 40.1565 84.7728 39.7318V39.5874H78.6992V39.7318C79.5353 40.2694 79.9845 40.6584 79.9845 41.7223V47.5979C79.9845 50.7109 81.4445 53.0517 85.1524 53.0517C89.0786 53.0517 90.3814 50.6751 90.3814 47.5092V41.7208C90.3814 40.6569 90.8351 40.1779 91.6509 39.7304V39.5859H87.7538V39.7304H87.7553Z" fill="white"/>
<path d="M101.554 50.9894V46.2019C101.554 44.3344 100.378 43.1875 98.5482 43.1875C97.2802 43.1875 96.2914 43.8254 95.579 44.7447V43.1875H95.432L91.8594 44.0513V44.1957C92.6053 44.5833 92.9804 45.1123 92.9804 46.0661V50.9909C92.9804 51.8602 92.5282 52.3064 91.8681 52.7139V52.8583H96.7641V52.7139C96.1038 52.3064 95.6516 51.8503 95.6516 50.9894V45.6743C96.0209 45.0537 96.7043 44.5589 97.3821 44.5589C98.4683 44.5589 98.8812 45.251 98.8812 46.6208V50.9879C98.8812 51.8574 98.429 52.3034 97.7687 52.711V52.8568H102.665V52.711C102.005 52.3034 101.552 51.8488 101.552 50.9879L101.554 50.9894Z" fill="white"/>
<path d="M104.195 40.7442C104.195 41.625 104.922 42.3401 105.818 42.3401C106.714 42.3401 107.441 41.625 107.441 40.7442C107.441 39.8634 106.714 39.1484 105.818 39.1484C104.922 39.1484 104.195 39.8634 104.195 40.7442Z" fill="white"/>
<path d="M107.152 50.9894V43.1875H107.005L103.359 44.0513V44.1957C104.105 44.5833 104.481 45.1123 104.481 46.0661V50.9894C104.481 51.8587 104.028 52.3049 103.368 52.7124V52.8568H108.264V52.7124C107.604 52.3049 107.152 51.8488 107.152 50.9879V50.9894Z" fill="white"/>
<path d="M146.349 42.3381C147.244 42.3381 147.972 41.6231 147.972 40.7424C147.972 39.8615 147.245 39.1465 146.349 39.1465C145.453 39.1465 144.727 39.8615 144.727 40.7424C144.727 41.6231 145.453 42.3381 146.349 42.3381Z" fill="white"/>
<path d="M147.683 50.9894V43.1875H147.536L143.891 44.0513V44.1957C144.637 44.5833 145.012 45.1123 145.012 46.0661V50.9894C145.012 51.8587 144.56 52.3049 143.899 52.7124V52.8568H148.795V52.7124C148.135 52.3049 147.683 51.8488 147.683 50.9879V50.9894Z" fill="white"/>
<path d="M134.171 43.1888C133.215 43.1888 132.098 43.8782 131.47 45.3196V43.1888H131.323L127.75 44.0526V44.197C128.496 44.5846 128.871 45.1136 128.871 46.0674V50.9907C128.871 51.86 128.419 52.3062 127.759 52.7137V52.8581H133.081V52.7137C132.183 52.3276 131.544 51.8287 131.544 50.9892V46.1445C132.393 45.3995 133.739 45.1607 134.852 46.166H134.999V43.5019C134.824 43.2876 134.49 43.1875 134.173 43.1875L134.171 43.1888Z" fill="white"/>
<path d="M101.242 33.8413V22.4375H101.095L97.4494 23.3012V23.4456C98.1953 23.8331 98.5704 24.3622 98.5704 25.316V26.6229C98.0701 26.2483 97.3199 26.041 96.5477 26.041C94.0946 26.041 92.2422 27.9442 92.2422 31.1073C92.2422 34.0615 93.6657 35.9047 95.9122 35.9047C97.1178 35.9047 98.0238 35.3542 98.6445 34.4633V35.7117H102.354V35.5673C101.694 35.1597 101.242 34.7036 101.242 33.8427V33.8413ZM97.2313 34.5048C95.5008 34.5048 94.9614 32.5744 94.9614 30.6311C94.9614 27.8041 96.0549 26.8317 97.096 26.8317C97.9409 26.8317 98.5704 27.7283 98.5704 28.8522V33.96C98.1823 34.256 97.6732 34.5048 97.2313 34.5048Z" fill="white"/>
<path d="M142.976 33.8413V22.4375H142.829L139.184 23.3012V23.4456C139.93 23.8331 140.305 24.3622 140.305 25.316V26.6229C139.805 26.2483 139.054 26.041 138.282 26.041C135.829 26.041 133.977 27.9442 133.977 31.1073C133.977 34.0615 135.4 35.9047 137.647 35.9047C138.852 35.9047 139.758 35.3542 140.379 34.4633V35.7117H144.088V35.5673C143.428 35.1597 142.976 34.7036 142.976 33.8427V33.8413ZM138.966 34.5048C137.235 34.5048 136.696 32.5744 136.696 30.6311C136.696 27.8041 137.789 26.8317 138.83 26.8317C139.675 26.8317 140.305 27.7283 140.305 28.8522V33.96C139.917 34.256 139.408 34.5048 138.966 34.5048Z" fill="white"/>
<path d="M83.2553 35.5644C81.964 35.1111 81.032 34.5749 82.1881 31.8208H86.9065L87.369 32.9219C88.0132 34.4576 87.4897 35.2398 86.3176 35.5658V35.7103H92.2053V35.5658C91.5045 35.1426 91.0871 34.5234 90.6189 33.4209L85.9555 22.4375H85.3551L81.3417 31.9252C80.3529 34.2631 79.9342 35.001 78.6953 35.5644V35.7088H83.2538V35.5644H83.2553ZM84.548 26.2011L86.6128 31.1201H82.4818L84.5465 26.2011H84.548Z" fill="white"/>
<path d="M130.795 25.1916C131.689 25.1916 132.417 24.4767 132.417 23.5958C132.417 22.715 131.691 22 130.795 22C129.899 22 129.172 22.715 129.172 23.5958C129.172 24.4767 129.899 25.1916 130.795 25.1916Z" fill="white"/>
<path d="M129.461 28.9181V33.8414C129.461 34.7108 129.009 35.1569 128.349 35.5644V35.7089H133.245V35.5644C132.584 35.1569 132.132 34.7007 132.132 33.8399V26.041H131.985L128.34 26.9047V27.0491C129.086 27.4366 129.461 27.9657 129.461 28.9195V28.9181Z" fill="white"/>
<path d="M113.84 25.3145V33.8413C113.84 34.7107 113.388 35.1569 112.728 35.5644V35.7088H117.623V35.5644C116.963 35.1569 116.511 34.7007 116.511 33.8399V22.4375H116.364L112.719 23.3012V23.4456C113.465 23.8331 113.84 24.3622 113.84 25.316V25.3145Z" fill="white"/>
<path d="M107.722 35.9048C110.683 35.9048 111.737 33.654 111.872 32.5401H111.725C111.203 33.5811 110.053 34.0787 108.964 34.0787C106.588 34.0787 105.746 32.533 105.621 30.5096H111.864C112.063 27.6368 110.345 26.041 107.966 26.041C105.037 26.041 103.043 28.286 103.043 30.8656C103.043 33.4453 104.762 35.9048 107.722 35.9048ZM107.658 26.653C108.742 26.653 109.38 27.8156 109.297 29.8919H105.608C105.631 28.0787 106.466 26.653 107.658 26.653Z" fill="white"/>
<path d="M149.46 35.9048C152.421 35.9048 153.475 33.654 153.61 32.5401H153.464C152.942 33.5811 151.791 34.0787 150.702 34.0787C148.326 34.0787 147.484 32.533 147.359 30.5096H153.602C153.801 27.6368 152.084 26.041 149.705 26.041C146.775 26.041 144.781 28.286 144.781 30.8656C144.781 33.4453 146.5 35.9048 149.46 35.9048ZM149.395 26.653C150.478 26.653 151.117 27.8156 151.034 29.8919H147.345C147.368 28.0787 148.203 26.653 149.395 26.653Z" fill="white"/>
<path d="M126.533 33.8428V28.8094C126.533 27.0448 125.226 26.041 123.068 26.041C119.398 26.041 118.524 28.3775 119.126 29.6473L121.508 29.0839V28.9395C121.089 27.7984 121.521 26.6316 122.63 26.6316C123.528 26.6316 123.859 27.4652 123.859 28.3146V29.9633C120.552 30.8785 118.582 31.8366 118.582 33.7227C118.582 35.1684 119.614 35.9048 121.125 35.9048C121.988 35.9048 123.09 35.6402 123.933 34.482V35.7103H127.646V35.5659C126.985 35.1583 126.533 34.7022 126.533 33.8414V33.8428ZM123.861 33.6884C123.398 34.2603 122.784 34.6879 122.185 34.6879C121.474 34.6879 121.099 34.0373 121.099 33.2594C121.099 31.838 122.547 31.0472 123.861 30.5897V33.6884Z" fill="white"/>
</g>
</g>
<defs>
<clipPath id="clip0_897_8085">
<rect width="149" height="35" fill="white" transform="translate(16 22)"/>
</clipPath>
</defs>
</svg>
