<svg width="180" height="80" viewBox="0 0 180 80" fill="none" xmlns="http://www.w3.org/2000/svg">
<g clip-path="url(#clip0_897_8358)">
<path fill-rule="evenodd" clip-rule="evenodd" d="M56 5H125V74H56V5Z" fill="#090909"/>
<path fill-rule="evenodd" clip-rule="evenodd" d="M76.2973 68.2523C75.5109 68.6453 74.8229 68.7928 73.9383 68.7928C71.5793 68.7928 69.957 67.2693 69.957 65.1068C69.957 63.7798 70.6944 62.5506 71.8736 61.9116C72.5125 61.5676 73.25 61.3711 74.0854 61.3711C74.7735 61.3711 75.2649 61.4695 75.9533 61.7151L76.3467 61.9116V63.4351C75.7568 63.0421 74.9213 62.7969 74.1839 62.7969C72.7588 62.7969 71.7268 63.7798 71.7268 65.1068C71.7268 66.384 72.7098 67.367 74.1352 67.367C74.8232 67.367 75.6097 67.1207 76.1996 66.7288L76.298 66.679V68.2523H76.2973ZM80.5238 68.3503V66.8268C80.8678 67.0731 81.1134 67.1709 81.4083 67.2693C81.8998 67.4658 82.1948 67.4658 82.6372 67.367C82.8832 67.318 83.2268 67.1207 83.2268 66.7778C83.2268 66.0898 82.5878 65.9423 81.7033 65.4508C80.9663 65.0571 80.5729 64.3204 80.5729 63.6324C80.5729 62.6003 81.1134 61.4699 83.1284 61.4699C83.6202 61.4699 84.1607 61.6174 84.6522 61.8139V63.1899C84.0133 62.895 83.6199 62.7969 83.0793 62.7969C82.5878 62.7969 82.2932 63.1409 82.2932 63.3861C82.2438 63.6324 82.2932 63.976 82.8338 64.2713L83.5218 64.6644C84.4063 65.1559 84.9472 65.6473 84.9472 66.6303C84.9472 67.8098 83.9639 68.7928 82.5388 68.7928C81.4083 68.7928 80.8678 68.5469 80.5238 68.3503ZM89.4687 61.4699H91.189V68.6944H89.4687V61.4699ZM101.461 68.5963L101.313 68.1538L101.067 67.7114L100.92 67.2696L100.625 66.6797C100.429 66.2867 100.134 65.6477 99.6424 65.3527C99.888 65.255 100.035 65.1562 100.232 64.9597C100.625 64.6157 100.822 64.0752 100.822 63.5343C100.822 62.8953 100.478 62.2073 99.9363 61.8633C99.4946 61.5683 99.1505 61.4703 98.1185 61.4703H95.5136V68.6947H97.2336V65.7458H97.4799C97.7742 65.7458 97.8239 65.7458 97.9714 65.7955C98.3154 65.8933 98.6097 66.287 98.9046 66.926L99.1509 67.5152L99.3474 68.0067L99.4949 68.3017L99.5926 68.5966L99.6424 68.6944H101.51L101.461 68.5963ZM98.2657 64.4679L98.0691 64.5169H97.2336V62.7482H98.1189C98.6594 62.7482 99.0521 63.0922 99.0521 63.6327C99.0525 64.0748 98.7085 64.4679 98.2657 64.4679ZM111.388 65.1068C111.388 63.0421 109.717 61.4201 107.555 61.3711C105.392 61.4201 103.721 63.0421 103.721 65.1068C103.721 67.1709 105.392 68.743 107.506 68.7928H107.555C109.717 68.7928 111.388 67.1709 111.388 65.1068ZM107.555 67.3674C106.375 67.3674 105.442 66.3354 105.442 65.1559C105.442 63.9273 106.375 62.895 107.555 62.895C108.685 62.895 109.668 63.9277 109.668 65.1559C109.668 66.3354 108.685 67.3674 107.555 67.3674Z" fill="white"/>
<path fill-rule="evenodd" clip-rule="evenodd" d="M103.723 14.0918V31.785C103.772 31.9325 103.821 32.0306 103.87 32.178C104.264 33.4069 104.411 34.193 103.969 35.176C103.919 35.3235 103.821 35.471 103.722 35.6675V55.0803C110.456 50.7063 114.879 43.1869 114.879 34.5864C114.879 25.986 110.456 18.4168 103.723 14.0918ZM81.0167 40.3858C80.2303 40.3361 80.2303 39.6978 80.2303 39.3538V30.3105C80.2303 30.3105 80.1322 29.426 81.1646 27.9021C81.2132 27.7547 81.4101 27.4601 81.6066 27.1647V11.8803C80.3778 12.3715 79.1983 12.9614 78.0678 13.6004V29.77C78.2647 29.6716 78.4118 29.6225 78.6083 29.6225C79.1983 29.6225 79.3948 29.6225 79.4435 30.2121V40.926C79.3454 41.27 79.0014 41.4665 78.1165 40.6804L78.0674 55.5228C79.1979 56.2108 80.3774 56.8007 81.6063 57.2428V40.3858C81.4128 40.4345 81.2102 40.4345 81.0167 40.3858ZM93.6969 39.4515C93.4507 39.1569 93.107 38.9604 93.107 37.7809V26.4771C93.107 26.2312 93.0093 25.8381 93.5985 25.7397L94.3849 25.6903V10.5043C93.2323 10.3065 92.0649 10.2079 90.8955 10.2093V23.6266C90.9445 23.6756 90.9445 23.7247 90.9445 23.8231C91.043 24.6583 91.8785 25.1501 91.9275 25.2485C92.124 25.4447 92.2715 25.5922 92.3213 26.035V38.8623C92.2715 39.2557 92.075 39.5013 91.6325 39.1573C91.4858 39.0592 91.1908 38.8133 90.8955 38.5677V58.9642C92.075 58.9145 93.2545 58.8168 94.3849 58.6693V40.2878C94.0409 39.8943 93.7456 39.5503 93.6969 39.4515ZM76.3968 34.537C75.5119 33.5541 76.1509 31.7356 76.5443 31.2932C76.6914 31.1457 76.9373 30.8511 77.3308 30.4577V14.0915C70.5974 18.4164 66.125 25.9852 66.125 34.5861C66.125 43.1869 70.5978 50.7063 77.3308 55.08V36.208C77.1342 35.6185 76.7899 35.0776 76.3968 34.537ZM85.5382 38.518C85.1448 38.6161 84.6043 38.8126 84.5062 38.1246V36.7976V25.0517C84.5062 24.6092 85.0961 24.4123 85.4891 24.6579C85.5876 24.7073 85.7351 24.7073 85.8825 24.6089V10.6514C84.654 10.8483 83.5236 11.1923 82.3931 11.5854V25.9362C82.5406 25.6903 82.7371 25.4444 82.8352 25.3466C83.1792 25.0517 83.7201 24.4617 83.7201 26.1327V37.584C83.7201 38.3211 83.9166 39.3041 83.1301 39.6975C82.8355 39.894 82.5896 40.0415 82.3931 40.1399V57.5378C83.5236 57.9802 84.654 58.2755 85.8825 58.5207V38.3708C85.7347 38.4195 85.6366 38.4689 85.5382 38.518ZM89.3226 37.2894C89.0276 37.0435 88.7821 36.7979 88.7821 35.5691V24.0197C88.7821 23.3313 89.077 22.8892 89.372 22.6433C89.5682 22.5452 89.8635 22.2499 90.109 22.1027V10.209C88.9295 10.209 87.7991 10.3074 86.6686 10.5039V23.7737C86.9636 23.3313 87.406 22.7908 87.6022 22.7417C87.8481 22.6927 88.0447 22.6927 88.0447 23.5282V36.6995C88.0447 37.2894 87.9956 37.3875 87.3566 37.6821C87.1598 37.8296 86.9142 37.928 86.6686 38.0755V58.6682C87.7991 58.8157 88.9292 58.9138 90.109 58.9632V37.928C89.765 37.6334 89.4701 37.3875 89.3226 37.2894ZM102.347 29.5241C102.347 29.5241 102.642 29.9175 102.936 30.3596V13.6004C101.855 12.9123 100.676 12.3715 99.4473 11.8803V26.9682C99.889 27.3613 100.283 27.7053 100.43 27.8527C100.872 28.0983 100.872 29.0322 100.872 29.5728V39.1566C100.872 39.9427 100.97 41.0244 100.135 41.7125C99.9875 41.8599 99.7412 42.0074 99.4469 42.0565V43.3834H99.496C99.7909 43.285 100.331 43.236 100.331 43.7765C100.282 44.1212 100.037 45.5459 99.5937 45.8412C99.5447 45.8903 99.496 45.8903 99.4469 45.939V57.2925C100.652 56.8086 101.818 56.2333 102.936 55.5718V37.3875C102.739 37.928 102.592 38.3708 102.592 38.6164C102.543 39.2554 102.445 39.5994 102.199 40.3858C101.904 41.1723 101.658 40.6808 101.658 40.2384V29.6225C101.659 28.6392 102.347 29.5241 102.347 29.5241ZM98.5134 45.8412C98.2184 45.6937 98.0709 45.6447 97.9728 45.0548C97.9231 44.5143 97.8253 44.2683 97.6281 43.9737C97.3339 43.4325 97.7756 42.941 98.4146 43.285C98.513 43.3348 98.562 43.3834 98.6608 43.3834V42.253C97.9728 42.253 97.3829 42.0074 97.3829 41.27V25.6412C97.3829 25.1497 97.6285 25.052 97.9234 25.4447C98.0709 25.5922 98.3172 25.8872 98.6612 26.2312V11.5854C97.5307 11.192 96.3512 10.848 95.1717 10.6514V21.4641C95.3192 21.9062 95.5158 22.2996 95.8107 22.6436C96.6462 23.5285 96.5965 24.3146 96.5965 25.5435V41.4179C96.5965 41.7128 96.5474 42.6958 95.6632 41.8603C95.6632 41.8603 95.4667 41.614 95.1717 41.2704V58.5211C96.3512 58.2755 97.5307 57.9806 98.6612 57.5381V45.9393C98.6111 45.8903 98.5624 45.8903 98.5134 45.8412Z" fill="white"/>
</g>
<defs>
<clipPath id="clip0_897_8358">
<rect width="69" height="69" fill="white" transform="translate(56 5)"/>
</clipPath>
</defs>
</svg>
