<svg width="180" height="80" viewBox="0 0 180 80" fill="none" xmlns="http://www.w3.org/2000/svg">
<path d="M90.0093 66.221C102.928 66.221 113.401 55.7809 113.401 42.9025C113.401 30.024 102.928 19.584 90.0093 19.584C77.0902 19.584 66.6172 30.024 66.6172 42.9025C66.6172 55.7809 77.0902 66.221 90.0093 66.221Z" fill="white"/>
<path d="M60.7461 35.7388C63.4389 26.8771 69.9764 19.681 78.5416 16.1073C82.7269 14.377 87.2528 13.6008 91.795 13.811C96.2885 14.0212 100.685 15.234 104.659 17.3524C92.3141 11.256 77.3899 14.3123 68.484 24.7911C65.6614 28.1223 63.6012 32.0195 62.4656 36.2401L60.7461 35.7388Z" fill="white"/>
<path d="M63.3725 45.7966C62.9183 46.6375 62.2045 47.3167 61.3448 47.7533C60.4525 48.2223 59.3981 48.4487 58.1652 48.4487H54.418V37.2422H58.1652C59.3981 37.2422 60.4525 37.4686 61.3448 37.9375C62.2045 38.3742 62.9021 39.0372 63.3725 39.8781C64.2972 41.7539 64.2972 43.937 63.3725 45.7966ZM61.1339 45.7804C61.8639 45.0851 62.2207 44.0987 62.2207 42.8373C62.2207 41.576 61.8639 40.6057 61.1339 39.8942C60.4039 39.1989 59.3819 38.8431 58.0355 38.8431H56.2348V46.8154H58.0355C59.3819 46.8154 60.4201 46.4758 61.1339 45.7804Z" fill="white"/>
<path d="M76.3343 39.4745C77.1454 40.089 77.7132 40.9784 77.9565 41.9648H76.2695C76.0586 41.3988 75.6692 40.8975 75.1664 40.5579C74.6148 40.2022 73.9659 40.0081 73.3008 40.0405C72.7493 40.0243 72.1977 40.186 71.7435 40.4771C71.2731 40.7682 70.9 41.2048 70.6567 41.7061C70.1213 42.8865 70.1213 44.2449 70.6567 45.4254C70.9 45.9267 71.2731 46.3471 71.7435 46.6544C72.214 46.9455 72.7493 47.091 73.3008 47.091C73.9659 47.1072 74.6148 46.9293 75.1664 46.5735C75.6692 46.2339 76.0586 45.7488 76.2695 45.1828H77.9565C77.7132 46.1693 77.1454 47.0425 76.3343 47.657C75.5395 48.2715 74.5337 48.5626 73.3333 48.5626C72.4735 48.5787 71.6138 48.3685 70.8675 47.9319C70.1538 47.5114 69.586 46.8969 69.2129 46.1693C68.4342 44.536 68.4342 42.6278 69.2129 40.9945C69.586 40.2507 70.1538 39.6362 70.8675 39.2157C71.6138 38.7791 72.4735 38.5527 73.3333 38.5851C74.5337 38.5527 75.5395 38.86 76.3343 39.4745Z" fill="#222222"/>
<path d="M83.8431 38.6504V44.4719C83.8431 45.3452 84.0377 45.992 84.4271 46.4124C84.8164 46.8329 85.3517 47.0431 86.0493 47.0431C86.7306 47.0431 87.2659 46.8329 87.6552 46.4124C88.0446 45.992 88.2392 45.3452 88.2392 44.4719V38.6504H89.829V44.4719C89.829 45.8141 89.4883 46.8329 88.7908 47.5282C88.0932 48.2236 87.1686 48.5632 86.033 48.5632C84.8975 48.5632 83.9891 48.2236 83.3077 47.5282C82.6264 46.8329 82.2695 45.8303 82.2695 44.4719V38.6504H83.8431Z" fill="#222222"/>
<path d="M101.023 44.2455C101.38 44.6822 101.575 45.232 101.575 45.798C101.575 46.6065 101.299 47.2533 100.747 47.7385C100.196 48.2236 99.4008 48.45 98.3626 48.45H94.4531V38.6504H98.2977C99.2873 38.6504 100.033 38.8768 100.569 39.3134C101.088 39.75 101.364 40.3645 101.364 41.1245C101.396 41.6744 101.218 42.208 100.877 42.6284C100.553 43.0165 100.098 43.2915 99.5955 43.4046C100.147 43.5017 100.65 43.8089 101.023 44.2455ZM96.0429 42.871H98.0057C98.5573 42.871 98.9953 42.7416 99.2873 42.4829C99.8713 41.8846 99.8713 40.9305 99.2873 40.3322C98.9953 40.0734 98.5573 39.9441 97.9571 39.9441H96.0429V42.871ZM99.4495 46.7359C100.082 46.1375 100.115 45.1349 99.5144 44.5043C99.4982 44.4881 99.4657 44.4558 99.4495 44.4396C99.1088 44.1647 98.6384 44.0191 98.0382 44.0191H96.0429V47.1401H98.0544C98.6546 47.1563 99.1251 47.0108 99.4495 46.7359Z" fill="#222222"/>
<path d="M107.433 39.9274V42.9028H111.05V44.1318H107.433V47.1719H111.472V48.4656H105.859V38.666H111.488V39.9435H107.433V39.9274Z" fill="#222222"/>
<path d="M124.9 45.7966C124.446 46.6375 123.732 47.3167 122.873 47.7533C121.98 48.2223 120.926 48.4487 119.693 48.4487H115.93V37.2422H119.677C120.91 37.2422 121.964 37.4686 122.856 37.9375C123.716 38.3742 124.414 39.0372 124.884 39.8781C125.825 41.7539 125.825 43.937 124.9 45.7966ZM122.662 45.7804C123.392 45.0851 123.749 44.0987 123.749 42.8535C123.749 41.6083 123.392 40.6219 122.662 39.9104C121.932 39.215 120.91 38.8593 119.563 38.8593H117.763V46.8316H119.563C120.91 46.8154 121.932 46.4758 122.662 45.7804Z" fill="white"/>
<path d="M114.518 62.0002C116.203 62.0002 117.568 60.6391 117.568 58.9601C117.568 57.281 116.203 55.9199 114.518 55.9199C112.834 55.9199 111.469 57.281 111.469 58.9601C111.469 60.6391 112.834 62.0002 114.518 62.0002Z" fill="white"/>
<path d="M109.507 65.51C110.439 65.51 111.194 64.7571 111.194 63.8283C111.194 62.8994 110.439 62.1465 109.507 62.1465C108.576 62.1465 107.82 62.8994 107.82 63.8283C107.82 64.7571 108.576 65.51 109.507 65.51Z" fill="white"/>
<path d="M109.981 23.2229C109.543 22.4629 109.008 21.8484 108.164 21.4764C108.764 20.6517 109.332 19.8432 109.916 19.0508C110.743 19.8432 111.538 20.6032 112.366 21.3956C111.603 21.9777 110.808 22.5922 109.981 23.2229Z" fill="white"/>
<path d="M107.109 17.1426C107.725 17.7247 108.374 18.3231 109.007 18.9376C109.039 18.9699 109.056 19.0831 109.039 19.1316C108.65 19.7138 108.261 20.2959 107.888 20.8619C107.125 20.1342 106.379 19.4227 105.633 18.7112C106.103 18.2099 106.606 17.6762 107.109 17.1426Z" fill="white"/>
<path d="M110.645 23.4974C111.196 23.0931 111.764 22.6727 112.332 22.2684C112.364 22.2361 112.478 22.2361 112.51 22.2684C113.159 22.8667 113.792 23.4812 114.408 24.0957C113.905 24.6294 113.386 25.1468 112.899 25.6643C112.169 24.9528 111.407 24.2413 110.645 23.4974Z" fill="white"/>
<path d="M109.267 25.4054C108.18 24.3705 107.11 23.3355 106.039 22.3168C106.493 21.7669 107.856 21.864 108.635 22.4946C109.575 23.2708 109.884 24.6777 109.267 25.4054Z" fill="white"/>
</svg>
