<svg width="180" height="80" viewBox="0 0 180 80" fill="none" xmlns="http://www.w3.org/2000/svg">
<path d="M127.212 70.5061C127.212 69.6088 128.259 69.4593 128.957 69.4593H129.605C129.605 69.9079 129.555 70.3566 129.256 70.7055C129.006 71.0046 128.658 71.2538 128.159 71.2538C127.661 71.2538 127.212 71.0046 127.212 70.5061ZM126.414 67.914C126.913 67.5152 127.611 67.266 128.259 67.266C129.156 67.266 129.605 67.6149 129.605 68.562H128.757C128.109 68.562 127.361 68.6119 126.763 68.911C126.165 69.21 125.766 69.7085 125.766 70.6058C125.766 71.7523 126.813 72.3505 127.86 72.3505C128.558 72.3505 129.355 72.0015 129.704 71.3037C129.704 71.5031 129.704 71.9019 129.754 72.2009H131.1C131.05 71.7523 131.05 71.3037 131.05 70.855C131.05 70.4064 131.05 69.9578 131.05 69.3596V68.6119C131.05 66.8672 130.303 66.1195 128.458 66.1195C127.81 66.1195 127.013 66.269 126.365 66.5681L126.414 67.914ZM122.975 65.1723H124.52V63.6769H122.975V65.1723ZM122.975 72.2009H124.52V66.269H122.975V72.2009ZM119.834 72.2009H121.38V63.5273H119.834V72.2009ZM114.55 70.5061C114.55 69.6088 115.597 69.4593 116.295 69.4593H116.943C116.943 69.9079 116.893 70.3566 116.644 70.7055C116.395 71.0046 116.046 71.2538 115.547 71.2538C114.949 71.2538 114.55 71.0046 114.55 70.5061ZM113.753 67.914C114.251 67.5152 114.949 67.266 115.597 67.266C116.495 67.266 116.943 67.6149 116.943 68.562H116.096C115.448 68.562 114.7 68.6119 114.102 68.911C113.504 69.21 113.105 69.7085 113.105 70.6058C113.105 71.7523 114.152 72.3505 115.198 72.3505C115.896 72.3505 116.694 72.0015 117.043 71.3037C117.043 71.5031 117.043 71.9019 117.093 72.2009H118.439C118.389 71.7523 118.389 71.3037 118.389 70.855C118.389 70.4064 118.389 69.9578 118.389 69.3596V68.6119C118.389 66.8672 117.641 66.1195 115.847 66.1195C115.199 66.1195 114.401 66.269 113.753 66.5681V67.914ZM109.017 72.2009H110.563V70.0076C110.563 69.1602 110.563 67.5651 111.809 67.5651C112.108 67.5651 112.357 67.6149 112.507 67.7146V66.1693C112.357 66.1195 112.158 66.1195 112.008 66.1195C111.061 66.1195 110.463 67.0666 110.363 67.6149V66.269H108.967V72.2009H109.017ZM105.079 70.4563C105.079 71.6526 105.727 72.4003 106.974 72.4003C107.422 72.4003 107.771 72.3505 108.12 72.2508L108.07 71.0046C107.921 71.1043 107.622 71.1541 107.372 71.1541C106.774 71.1541 106.625 70.6556 106.625 70.1572V67.3657H108.02V66.2192H106.625V64.5243L105.079 65.0228V66.2192H103.933V67.3657H105.079V70.4563ZM103.135 66.3687C102.637 66.269 102.188 66.1693 101.44 66.1693C100.244 66.1693 99.0975 66.7176 99.0975 68.0137C99.0975 70.1572 101.789 69.3596 101.789 70.5559C101.789 71.1541 101.141 71.3037 100.792 71.3037C100.244 71.3037 99.7455 71.1541 99.247 70.9049L99.1474 72.2009C99.6957 72.3505 100.294 72.4502 100.892 72.4502C102.138 72.4502 103.384 71.9019 103.384 70.5061C103.384 68.3626 100.693 68.9608 100.693 68.0137C100.693 67.5152 101.191 67.3657 101.59 67.3657C102.138 67.3657 102.487 67.4654 102.986 67.6149L103.135 66.3687ZM97.951 66.269H96.4057V69.1602C96.4057 69.9079 96.1565 71.1541 95.0598 71.1541C94.0628 71.1541 94.0628 70.1572 94.0628 69.4593V66.269H92.5175V70.0076C92.5175 71.3535 93.1157 72.3505 94.5613 72.3505C95.3589 72.3505 96.0568 72.0015 96.5054 71.4034V72.2009H97.951V66.269ZM83.495 72.2009H85.1898L85.8877 70.3566H89.1777L89.8756 72.2009H91.6701L88.43 64.1754H86.5856L83.495 72.2009ZM88.6792 69.1103H86.3363L87.4829 65.7705L88.6792 69.1103ZM74.0238 72.2009H75.5691V69.3097C75.5691 68.562 75.8184 67.3158 76.915 67.3158C77.912 67.3158 77.912 68.3128 77.912 69.0107V72.2009H79.4573V68.4623C79.4573 67.1164 78.8591 66.1195 77.4135 66.1195C76.6159 66.1195 75.9181 66.4684 75.5193 67.0666V63.5273H73.974L74.0238 72.2009ZM70.0858 70.4563C70.0858 71.6526 70.7338 72.4003 71.98 72.4003C72.4287 72.4003 72.7776 72.3505 73.1266 72.2508L73.0767 71.0046C72.9272 71.1043 72.6281 71.1541 72.3788 71.1541C71.7807 71.1541 71.6311 70.6556 71.6311 70.1572V67.3657H72.977V66.2192H71.5813V64.5243L70.036 65.0228V66.2192H68.8895V67.3657H70.036L70.0858 70.4563ZM68.042 66.269H66.4967V69.1602C66.4967 69.9079 66.2475 71.1541 65.1508 71.1541C64.1539 71.1541 64.1539 70.1572 64.1539 69.4593V66.269H62.6086V70.0076C62.6086 71.3535 63.2068 72.3505 64.6524 72.3505C65.4499 72.3505 66.1478 72.0015 66.5964 71.4034V72.2009H68.042V66.269ZM56.7763 69.1103C56.7763 68.2131 57.2748 67.3158 58.2718 67.3158C59.2687 67.3158 59.7672 68.1632 59.7672 69.1103C59.7672 70.1073 59.4681 71.1541 58.2718 71.1541C57.0754 71.1541 56.7763 70.1073 56.7763 69.1103ZM55.1812 69.3097C55.1812 71.0046 56.3277 72.4003 58.2718 72.4003C60.2657 72.4003 61.4122 71.0544 61.4122 69.3097C61.4122 67.3657 60.0663 66.1693 58.2718 66.1693C56.5271 66.1195 55.1812 67.3158 55.1812 69.3097ZM53.7854 64.3249C53.1873 64.1255 52.5392 64.0258 51.8414 64.0258C50.3958 64.0258 49 64.6739 49 66.4684C49 69.1602 52.5392 68.5122 52.5392 70.0575C52.5392 70.8052 51.7417 71.1043 51.0936 71.1043C50.4456 71.1043 49.7976 70.9049 49.2492 70.6058L49.0997 72.0514C49.8973 72.2508 50.2961 72.3505 51.1933 72.3505C52.8383 72.3505 54.2341 71.7025 54.2341 69.9079C54.2341 67.2161 50.6948 67.8143 50.6948 66.3687C50.6948 65.4714 51.3927 65.2222 51.9909 65.2222C52.5392 65.2222 53.1374 65.3717 53.6359 65.5711L53.7854 64.3249Z" fill="white"/>
<path d="M121.628 58.3437H123.174V53.5084H124.52V52.3619H123.174V51.6142C123.174 51.1655 123.323 50.7169 123.872 50.7169C124.221 50.7169 124.42 50.8665 124.52 50.9163L124.669 49.6202C124.37 49.5704 123.921 49.4707 123.523 49.4707C122.276 49.4707 121.628 50.3181 121.628 51.5145V52.3619H120.482V53.5084H121.628V58.3437ZM115.248 55.2033C115.248 54.306 115.746 53.4586 116.743 53.4586C117.74 53.4586 118.239 54.306 118.239 55.2033C118.239 56.2002 117.94 57.247 116.743 57.247C115.597 57.2969 115.248 56.2002 115.248 55.2033ZM113.653 55.4026C113.653 57.0975 114.799 58.4932 116.743 58.4932C118.737 58.4932 119.884 57.1473 119.884 55.4026C119.884 53.4586 118.538 52.2622 116.743 52.2622C114.999 52.2622 113.653 53.4586 113.653 55.4026ZM105.527 52.4118H103.833L106.126 58.6926C106.126 59.3407 105.727 59.7394 105.129 59.7394C104.73 59.7394 104.53 59.6896 104.331 59.6398L104.231 60.7863C104.58 60.886 104.979 60.9358 105.328 60.9358C106.923 60.9358 107.322 59.6398 107.82 58.3437L110.064 52.4118H108.468L107.023 56.7486L105.527 52.4118ZM100.592 56.5492C100.592 57.7455 101.24 58.4932 102.487 58.4932C102.935 58.4932 103.284 58.4434 103.633 58.3437L103.583 57.0975C103.434 57.1972 103.135 57.247 102.885 57.247C102.287 57.247 102.138 56.7486 102.138 56.2501V53.4586H103.533V52.3121H102.138V50.6172L100.592 51.1157V52.3121H99.4459V53.4586H100.592V56.5492ZM96.9535 51.3151H98.4988V49.8196H96.9535V51.3151ZM96.9535 58.3437H98.4988V52.4118H96.9535V58.3437ZM95.4581 52.4616C94.9596 52.3619 94.511 52.2622 93.7632 52.2622C92.5669 52.2622 91.4204 52.8105 91.4204 54.1066C91.4204 56.2501 94.1122 55.4525 94.1122 56.6489C94.1122 57.247 93.4641 57.3966 93.1152 57.3966C92.5669 57.3966 92.0684 57.247 91.5699 56.9978L91.4702 58.2938C92.0185 58.4434 92.6167 58.5431 93.2149 58.5431C94.4611 58.5431 95.7073 57.9948 95.7073 56.599C95.7073 54.4555 93.0155 55.0537 93.0155 54.1066C93.0155 53.6081 93.514 53.4586 93.9128 53.4586C94.4611 53.4586 94.8101 53.5583 95.3085 53.7078L95.4581 52.4616ZM87.4325 58.3437H88.9778V56.1504C88.9778 55.303 88.9778 53.7078 90.224 53.7078C90.5231 53.7078 90.7723 53.7577 90.9219 53.8574V52.3121C90.7723 52.2622 90.5729 52.2622 90.4234 52.2622C89.4763 52.2622 88.8781 53.2093 88.7784 53.7577V52.4118H87.4325V58.3437ZM85.7875 56.7486C85.1893 57.0476 84.5413 57.3467 83.7936 57.3467C82.8465 57.3467 82.1486 56.7984 82.0987 55.8513H86.2361C86.2361 53.7577 85.5881 52.2622 83.3948 52.2622C81.5504 52.2622 80.6531 53.7078 80.6531 55.4026C80.6531 57.3467 81.7997 58.4932 83.7437 58.4932C84.5912 58.4932 85.2392 58.3437 85.7875 57.9948V56.7486ZM82.0987 54.8045C82.1486 54.0069 82.5972 53.4087 83.4945 53.4087C84.3419 53.4087 84.6909 54.0567 84.7407 54.8045H82.0987ZM76.1668 58.3437H77.9613L80.1547 52.4118H78.6094L77.1638 56.7486L75.6683 52.4118H73.9735L76.1668 58.3437ZM71.5309 51.3151H73.0762V49.8196H71.5309V51.3151ZM71.5309 58.3437H73.0762V52.4118H71.5309V58.3437ZM64.4525 58.3437H65.9978V55.4525C65.9978 54.7048 66.247 53.4586 67.3437 53.4586C68.3406 53.4586 68.3406 54.4555 68.3406 55.1534V58.3437H69.8859V54.6051C69.8859 53.2592 69.2877 52.2622 67.8421 52.2622C67.0446 52.2622 66.3965 52.5114 65.8981 53.2093V52.4118H64.4525V58.3437ZM56.2773 55.4525C56.2773 57.596 57.5236 58.4932 59.5673 58.4932C61.661 58.4932 62.8573 57.596 62.8573 55.4525V50.2683H61.2622V54.9042C61.2622 56.2999 60.8135 57.1972 59.5673 57.1972C58.3211 57.1972 57.8725 56.2999 57.8725 54.9042V50.2683H56.2773C56.2773 50.2683 56.2773 55.4525 56.2773 55.4525Z" fill="white"/>
<path d="M104.83 28.4348C104.83 36.56 98.2505 43.1898 90.0754 43.1898C81.9003 43.1898 75.3203 36.56 75.3203 28.4348V7H104.83V28.4348Z" fill="white"/>
<path d="M86.0867 20.8571L83.3949 19.3118L80.7031 20.8571V28.434C80.7031 33.6182 84.8904 37.8055 90.0746 37.8055C95.2588 37.8055 99.4461 33.6182 99.4461 28.434V13.1804L102.138 11.6351L99.4461 10.0898L96.7543 11.6351V28.434C96.7543 32.1228 93.7135 35.1137 90.0247 35.1137C86.336 35.1137 83.3451 32.1228 83.3451 28.434V22.4024L86.0867 20.8571Z" fill="#090909"/>
<path d="M91.4227 28.4333C91.4227 29.181 90.8245 29.7792 90.0768 29.7792C89.3291 29.7792 88.7309 29.181 88.7309 28.4333V19.311L91.4227 17.7657L88.7309 16.2204L86.0391 17.7657V28.4333C86.0391 30.6764 87.8336 32.471 90.0768 32.471C92.3199 32.471 94.1145 30.6764 94.1145 28.4333V16.2703L96.8063 14.725L94.1145 13.1797L91.4227 14.725V28.4333Z" fill="#090909"/>
</svg>
