<svg width="180" height="80" viewBox="0 0 180 80" fill="none" xmlns="http://www.w3.org/2000/svg">
<path d="M92.8554 20.7819H94.4244L98.5983 31.4583H97.0272L95.8598 28.2428H91.3446L90.1487 31.4583H88.6836L92.8554 20.7819ZM91.7926 27.0469H95.4118L93.6316 22.0671H93.6025L91.7926 27.0469ZM105.46 31.4581H104.262V30.2319H104.233C103.694 31.1895 102.828 31.6375 101.721 31.6375C99.687 31.6375 99.0589 30.4714 99.0589 28.8117V23.7273H100.33V28.9606C100.33 29.903 100.928 30.5164 101.9 30.5164C103.44 30.5164 104.188 29.4841 104.188 28.0937V23.7273H105.46V31.4581ZM107.776 29.0208C107.821 30.1578 108.807 30.5164 109.854 30.5164C110.646 30.5164 111.723 30.3364 111.723 29.365C111.723 28.3776 110.467 28.2135 109.196 27.9289C107.941 27.645 106.669 27.2268 106.669 25.7457C106.669 24.1905 108.208 23.5473 109.555 23.5473C111.26 23.5473 112.621 24.086 112.725 25.97H111.455C111.364 24.9833 110.496 24.6697 109.659 24.6697C108.896 24.6697 108.014 24.8788 108.014 25.6564C108.014 26.5683 109.361 26.7178 110.541 27.0024C111.813 27.2856 113.069 27.7045 113.069 29.2002C113.069 31.0399 111.35 31.6375 109.78 31.6375C108.044 31.6375 106.579 30.9347 106.504 29.0208H107.776ZM115.938 23.7271H117.479V24.8489H115.938V29.6495C115.938 30.2318 116.103 30.3363 116.896 30.3363H117.479V31.4581H116.507C115.191 31.4581 114.668 31.1894 114.668 29.7679V24.8489H113.352V23.7272H114.668V21.4089H115.938V23.7271ZM118.763 23.7271H119.961V25.3571H119.99C120.604 24.1157 121.455 23.5029 122.832 23.5479V24.8939C120.782 24.8939 120.035 26.06 120.035 28.0195V31.4581H118.763V23.7271ZM130.338 31.4286C130.113 31.5629 129.829 31.6377 129.426 31.6377C128.767 31.6377 128.349 31.279 128.349 30.4412C127.646 31.2638 126.702 31.6377 125.626 31.6377C124.222 31.6377 123.07 31.0097 123.07 29.469C123.07 27.7193 124.371 27.3454 125.686 27.092C127.093 26.8226 128.288 26.9126 128.288 25.955C128.288 24.8485 127.376 24.6692 126.57 24.6692C125.493 24.6692 124.699 24.9981 124.64 26.135H123.369C123.443 24.2205 124.924 23.5475 126.644 23.5475C128.034 23.5475 129.545 23.8618 129.545 25.6711V29.6491C129.545 30.2466 129.545 30.516 129.949 30.516C130.054 30.516 130.172 30.5007 130.338 30.4412V31.4286ZM128.274 27.4659C127.78 27.8245 126.823 27.8391 125.971 27.9886C125.134 28.1382 124.415 28.4373 124.415 29.3797C124.415 30.2168 125.134 30.516 125.911 30.516C127.585 30.516 128.274 29.469 128.274 28.7669V27.4659ZM131.293 20.7819H132.564V31.4583H131.293V20.7819ZM135.209 22.3364H133.939V20.7812H135.209V22.3364ZM133.939 23.7275H135.209V31.4583H133.939V23.7275ZM143.584 31.4286C143.358 31.5629 143.075 31.6377 142.67 31.6377C142.012 31.6377 141.594 31.279 141.594 30.4412C140.891 31.2638 139.949 31.6377 138.872 31.6377C137.467 31.6377 136.316 31.0097 136.316 29.469C136.316 27.7193 137.617 27.3454 138.932 27.092C140.339 26.8226 141.534 26.9126 141.534 25.955C141.534 24.8485 140.623 24.6692 139.815 24.6692C138.738 24.6692 137.945 24.9981 137.886 26.135H136.614C136.689 24.2205 138.17 23.5475 139.889 23.5475C141.281 23.5475 142.791 23.8618 142.791 25.6711V29.6491C142.791 30.2466 142.791 30.516 143.194 30.516C143.299 30.516 143.419 30.5007 143.584 30.4412V31.4286ZM141.52 27.4659C141.026 27.8245 140.069 27.8391 139.216 27.9886C138.381 28.1382 137.661 28.4373 137.661 29.3797C137.661 30.2168 138.381 30.516 139.157 30.516C140.831 30.516 141.52 29.469 141.52 28.7669V27.4659ZM144.464 23.7271H145.66V24.9528H145.69C146.228 23.9959 147.096 23.5479 148.202 23.5479C150.237 23.5479 150.863 24.7139 150.863 26.3743V31.4581H149.593V26.2248C149.593 25.2824 148.996 24.6696 148.024 24.6696C146.483 24.6696 145.735 25.7013 145.735 27.0917V31.4581H144.464V23.7271ZM96.4438 42.3355H96.4743V33.6768H97.8196V44.3546H96.2645L90.687 35.7852H90.6566V44.3546H89.3112V33.6768H90.8214L96.4438 42.3355ZM106.386 44.324C106.162 44.4584 105.877 44.5338 105.474 44.5338C104.816 44.5338 104.398 44.1745 104.398 43.3366C103.694 44.1592 102.752 44.5338 101.676 44.5338C100.27 44.5338 99.1186 43.9051 99.1186 42.3652C99.1186 40.6154 100.42 40.2415 101.736 39.9881C103.142 39.7181 104.337 39.8081 104.337 38.8512C104.337 37.744 103.426 37.5646 102.618 37.5646C101.541 37.5646 100.749 37.8935 100.689 39.0305H99.4177C99.4932 37.1167 100.973 36.4436 102.694 36.4436C104.084 36.4436 105.593 36.7573 105.593 38.5666V42.5445C105.593 43.1435 105.593 43.4114 105.998 43.4114C106.102 43.4114 106.222 43.3969 106.386 43.3366V44.324ZM104.322 40.362C103.83 40.72 102.872 40.7352 102.021 40.8841C101.183 41.0337 100.465 41.3335 100.465 42.2759C100.465 43.1123 101.183 43.4114 101.96 43.4114C103.635 43.4114 104.322 42.3652 104.322 41.6624V40.362ZM109.031 36.6227H110.573V37.7437H109.031V42.5442C109.031 43.1273 109.196 43.2325 109.989 43.2325H110.573V44.3542H109.6C108.284 44.3542 107.761 44.0849 107.761 42.664V37.7437H106.445V36.6227H107.761V34.3052H109.031V36.6227ZM113.022 35.232H111.751V33.6768H113.022V35.232ZM111.751 36.6224H113.022V44.3539H111.751V36.6224ZM117.733 36.4432C120.185 36.4432 121.486 38.2227 121.486 40.4952C121.486 42.7532 120.185 44.5334 117.733 44.5334C115.28 44.5334 113.979 42.7532 113.979 40.4952C113.979 38.2227 115.28 36.4432 117.733 36.4432ZM117.733 43.4117C119.063 43.4117 120.141 42.3648 120.141 40.4952C120.141 38.6112 119.063 37.5649 117.733 37.5649C116.402 37.5649 115.325 38.6112 115.325 40.4952C115.325 42.3648 116.402 43.4117 117.733 43.4117ZM122.606 36.6227H123.803V37.849H123.832C124.371 36.892 125.239 36.4433 126.344 36.4433C128.379 36.4433 129.007 37.6101 129.007 39.2698V44.3542H127.736V39.1202C127.736 38.1779 127.138 37.5651 126.166 37.5651C124.626 37.5651 123.877 38.5968 123.877 39.9878V44.3542H122.606V36.6227ZM137.095 44.324C136.87 44.4584 136.587 44.5338 136.184 44.5338C135.524 44.5338 135.106 44.1745 135.106 43.3366C134.403 44.1592 133.46 44.5338 132.384 44.5338C130.979 44.5338 129.828 43.9051 129.828 42.3652C129.828 40.6154 131.128 40.2415 132.445 39.9881C133.851 39.7181 135.047 39.8081 135.047 38.8512C135.047 37.744 134.133 37.5646 133.327 37.5646C132.251 37.5646 131.458 37.8935 131.398 39.0305H130.127C130.201 37.1167 131.682 36.4436 133.401 36.4436C134.792 36.4436 136.303 36.7573 136.303 38.5666V42.5445C136.303 43.1435 136.303 43.4114 136.707 43.4114C136.811 43.4114 136.931 43.3969 137.095 43.3366V44.324ZM135.031 40.362C134.538 40.72 133.581 40.7352 132.73 40.8841C131.892 41.0337 131.173 41.3335 131.173 42.2759C131.173 43.1123 131.892 43.4114 132.668 43.4114C134.343 43.4114 135.031 42.3652 135.031 41.6624V40.362ZM138.051 33.6769H139.321V44.3546H138.051V33.6769ZM97.8494 53.391C97.8494 56.0832 96.3102 57.5033 93.6478 57.5033C90.8968 57.5033 89.2662 56.2327 89.2662 53.391V46.5721H90.687V53.391C90.687 55.2758 91.7644 56.3075 93.6478 56.3075C95.4426 56.3075 96.4286 55.2758 96.4286 53.391V46.5721H97.8494V53.391ZM99.239 49.5178H100.435V50.7448H100.465C101.003 49.7871 101.872 49.3392 102.977 49.3392C105.011 49.3392 105.64 50.5052 105.64 52.1649V57.2493H104.367V52.0154C104.367 51.073 103.77 50.4595 102.797 50.4595C101.258 50.4595 100.51 51.4919 100.51 52.8823V57.2493H99.239V49.5178ZM108.223 48.1269H106.953V46.5718H108.223V48.1269ZM106.953 49.518H108.223V57.2495H106.953V49.518ZM109.151 49.5179H110.572L112.739 55.963H112.769L114.878 49.5179H116.209L113.383 57.2495H112.022L109.151 49.5179ZM123.116 54.7967C122.772 56.5014 121.547 57.4285 119.811 57.4285C117.344 57.4285 116.178 55.7238 116.103 53.3613C116.103 51.0438 117.628 49.3391 119.737 49.3391C122.474 49.3391 123.311 51.8955 123.236 53.765H117.448C117.404 55.1111 118.167 56.3076 119.856 56.3076C120.903 56.3076 121.637 55.7987 121.861 54.7967L123.116 54.7967ZM121.89 52.6432C121.83 51.4322 120.919 50.4593 119.662 50.4593C118.332 50.4593 117.538 51.4627 117.448 52.6432H121.89ZM124.207 49.5178H125.403V51.1478H125.432C126.045 49.9069 126.898 49.2935 128.274 49.3392V50.6845C126.225 50.6845 125.477 51.8512 125.477 53.8101V57.2493H124.207V49.5178ZM130.007 54.8114C130.052 55.9484 131.039 56.3077 132.086 56.3077C132.879 56.3077 133.956 56.1277 133.956 55.1548C133.956 54.1688 132.698 54.0047 131.428 53.7202C130.172 53.4363 128.9 53.018 128.9 51.537C128.9 49.9811 130.442 49.3392 131.786 49.3392C133.492 49.3392 134.853 49.8772 134.957 51.762H133.685C133.596 50.7746 132.729 50.4596 131.892 50.4596C131.13 50.4596 130.247 50.6694 130.247 51.4469C130.247 52.3602 131.592 52.5084 132.774 52.793C134.045 53.0762 135.302 53.4958 135.302 54.9907C135.302 56.8305 133.582 57.4287 132.011 57.4287C130.277 57.4287 128.812 56.7266 128.737 54.8114H130.007ZM137.452 48.1269H136.182V46.5718H137.452V48.1269ZM136.182 49.518H137.452V57.2495H136.182V49.518ZM140.892 49.5178H142.431V50.6402H140.892V55.4407C140.892 56.0231 141.056 56.1276 141.848 56.1276H142.431V57.2493H141.46C140.144 57.2493 139.62 56.98 139.62 55.5592V50.6402H138.304V49.5178H139.62V47.2003H140.892V49.5178ZM146.872 58.2814C146.288 59.7916 145.764 60.3455 144.629 60.3455C144.33 60.3455 144.031 60.3143 143.745 60.2098V59.0431C143.986 59.1185 144.241 59.2231 144.494 59.2231C145.017 59.2231 145.301 58.969 145.541 58.521L146.065 57.204L142.999 49.5175H144.434L146.692 55.8441H146.721L148.891 49.5175H150.237L146.872 58.2814Z" fill="white"/>
<path d="M81.6025 51.1889C81.5859 51.1709 79.8922 49.5036 78.445 48.8084C77.7526 48.4767 77.189 48.2371 76.6157 48.0779C76.768 47.767 76.921 47.4561 77.0692 47.1549C78.1411 44.9994 79.0661 43.1361 78.6659 41.9001C78.6465 41.8399 78.6154 41.7782 78.5891 41.7159L78.5918 41.7138C78.5873 41.7056 78.5824 41.6975 78.5773 41.6896C78.4187 41.3372 78.1542 40.9605 77.842 40.6614C77.2714 40.1164 75.8339 39.3222 75.0605 38.895L74.8216 38.7628C74.1597 38.3916 73.4029 38.3646 72.6357 38.6838C71.2176 39.2738 70.0765 40.8788 69.8293 41.7637C69.4201 43.2344 70.1132 43.7039 70.1907 43.7496L71.7431 44.7141L70.0211 48.8056C68.2208 49.4219 66.3125 50.2548 64.4353 51.0747C61.8436 52.2068 59.3945 53.2779 57.3775 53.728L57.2127 53.7661C57.005 53.8139 56.7689 53.8699 56.4234 53.9143C56.1159 53.9517 55.9497 53.96 55.85 53.96H55.8355C55.769 53.9607 55.6181 53.9579 55.2663 53.9143C54.9208 53.8699 54.6847 53.8139 54.477 53.7654L54.3129 53.728C52.2952 53.2779 49.8461 52.2068 47.2544 51.0747C45.3772 50.2548 43.4682 49.4219 41.6686 48.8056L39.9473 44.7148L41.499 43.7496L41.5433 43.7163C41.5765 43.6859 42.3458 42.9554 41.8486 41.7312C41.4554 40.7645 40.2208 39.1041 38.8207 38.6132C38.1331 38.3722 37.476 38.4221 36.8674 38.7628L36.6292 38.895C35.8558 39.3222 34.4176 40.1164 33.8477 40.6614C33.5348 40.9605 33.271 41.3372 33.1124 41.6896L33.0972 41.7138L33.1006 41.7159C33.0736 41.7782 33.0425 41.8413 33.0238 41.9001C32.6229 43.1361 33.5479 44.9987 34.6198 47.1549C34.7694 47.4547 34.9217 47.767 35.074 48.0779C34.5 48.2371 33.9364 48.4767 33.2453 48.8084C31.7968 49.5036 30.1031 51.1709 30.0872 51.1889C30.0402 51.2353 30.0102 51.2963 30.0022 51.3619C29.9941 51.4275 30.0085 51.4939 30.0429 51.5503C30.0519 51.5642 30.9105 52.9823 31.1757 53.962C31.4457 54.9667 31.3793 56.5468 31.3502 57.0343C31.3398 57.0959 31.3377 57.1541 31.3405 57.2109H31.3391C31.3391 57.2143 31.3398 57.2178 31.3398 57.2219C31.3398 57.2247 31.3391 57.2275 31.3391 57.2309C31.3391 57.2344 31.3412 57.2365 31.3419 57.2393C31.3592 57.8555 31.8986 58.4593 32.798 58.8595C33.3942 59.1247 34.1282 59.293 34.8725 59.293C35.7879 59.293 36.7185 59.0389 37.4289 58.4011C37.4296 58.4004 37.4324 58.3991 37.4324 58.3977C37.4331 58.397 37.4338 58.397 37.4345 58.397C37.4386 58.3935 37.4428 58.3901 37.4497 58.3824C37.6117 58.237 39.223 56.81 41.6388 55.5719C41.8729 55.6799 42.1104 55.7935 42.3555 55.916L42.4691 55.9707C43.4066 56.4167 46.7157 57.9538 49.9216 59.0423C52.9426 60.0692 55.1126 60.1959 55.7129 60.2097H55.9837C56.5771 60.1959 58.7471 60.0692 61.7674 59.0423C64.974 57.9538 68.2824 56.4167 69.22 55.9707L69.3342 55.916C69.5786 55.7935 69.8168 55.6799 70.0509 55.5719C72.4667 56.81 74.0787 58.2384 74.2393 58.3824C74.2469 58.3901 74.2511 58.3935 74.2552 58.397C74.2552 58.397 74.2566 58.397 74.2566 58.3977C74.2573 58.3991 74.2594 58.4011 74.2608 58.4018C74.9712 59.0395 75.9011 59.293 76.8165 59.293C77.5608 59.293 78.2955 59.1247 78.891 58.8595C79.7904 58.4593 80.3312 57.8555 80.3478 57.2393C80.3485 57.2365 80.3499 57.2344 80.3499 57.2309V57.2219C80.3499 57.2178 80.3506 57.2143 80.3506 57.2109H80.3492C80.352 57.1541 80.3499 57.0959 80.3395 57.0343C80.3104 56.5468 80.2433 54.9667 80.514 53.9627C80.7792 52.9823 81.6378 51.5642 81.6461 51.5503C81.6808 51.4941 81.6954 51.4277 81.6874 51.362C81.6795 51.2964 81.6496 51.2353 81.6025 51.1889ZM70.3978 41.9223C70.6124 41.1523 71.6794 39.7204 72.8628 39.2274C73.4645 38.9774 74.0274 38.9933 74.5343 39.2772L74.7752 39.4109C75.3984 39.755 76.6178 40.4294 77.2382 40.9217C76.9647 40.91 76.6558 40.957 76.3089 41.0976C74.6367 41.7741 73.148 43.6852 73.148 44.7176C73.148 44.7861 73.157 44.8422 73.1619 44.9031L70.5072 43.2531C70.5037 43.251 70.1097 42.954 70.3978 41.9223ZM73.9914 45.4183C73.9672 45.4051 73.738 45.2729 73.738 44.7176C73.738 44.4302 73.9277 43.9995 74.2462 43.5439L75.2627 44.1602C75.2717 44.2509 75.2717 44.3894 75.2315 44.5382C75.1214 44.9315 74.7081 45.4751 74.1583 45.4557C74.1105 45.4536 74.0219 45.4328 73.9914 45.4183ZM72.2493 45.0305L73.6556 45.9037C73.6556 45.9037 73.657 45.9044 73.6577 45.9064L73.6639 45.9099C73.666 45.9106 73.668 45.9113 73.6694 45.912C73.7241 45.9466 73.7678 45.9653 73.7823 45.9701C73.9194 46.0235 74.078 46.0428 74.1368 46.0449C74.9636 46.0885 75.6103 45.3726 75.7993 44.6961C75.9129 44.289 75.8277 43.9421 75.818 43.9033L75.7875 43.789L74.6132 43.0765C75.1173 42.4977 75.7952 41.9423 76.5305 41.6439C77.4971 41.2506 77.9486 41.8052 78.0552 41.9659C78.0711 42.0047 78.0926 42.0462 78.1051 42.0829C78.4319 43.0897 77.5553 44.8526 76.5416 46.8924C76.3713 47.2373 76.1961 47.5897 76.0223 47.9477C75.6158 47.8771 75.1865 47.8397 74.6838 47.8397C73.5095 47.8397 72.1759 48.1229 70.762 48.5639L72.2493 45.0305ZM36.9138 39.4109L37.1547 39.2772C37.6166 39.019 38.0978 38.9843 38.6261 39.1692C39.8988 39.6158 40.997 41.2028 41.3023 41.9534C41.6118 42.7144 41.2407 43.1776 41.1576 43.2676L38.5271 44.9038C38.5333 44.8422 38.5417 44.7861 38.5417 44.7176C38.5417 43.6852 37.0523 41.7741 35.3801 41.0976C35.0339 40.957 34.7243 40.91 34.4508 40.9217C35.0706 40.4308 36.2913 39.755 36.9138 39.4109ZM37.6997 45.419C37.672 45.4328 37.5792 45.4536 37.5314 45.4557C36.9671 45.4737 36.5683 44.9308 36.4582 44.5382C36.4173 44.3894 36.418 44.2509 36.4263 44.1602L37.4435 43.5439C37.7613 43.9995 37.951 44.4302 37.951 44.7176C37.951 45.2078 37.7738 45.3677 37.7218 45.4051L37.6997 45.419ZM35.1474 46.8918C34.1337 44.8519 33.2578 43.0897 33.5846 42.0829C33.5964 42.0462 33.6179 42.0054 33.6345 41.9659C33.7404 41.8059 34.1919 41.2527 35.1592 41.6439C35.8945 41.9423 36.5724 42.4977 37.0765 43.0765L35.9022 43.789L35.8717 43.9033C35.8613 43.9421 35.7768 44.289 35.8904 44.6961C36.0787 45.3726 36.731 46.0879 37.5529 46.0449C37.6138 46.0422 37.7841 46.0207 37.9178 45.9653C37.9323 45.9605 37.9559 45.948 37.987 45.9307C37.9953 45.9265 38.005 45.9231 38.012 45.9189L39.4397 45.0305L40.927 48.5639C39.5131 48.1229 38.1809 47.8397 37.0059 47.8397C36.5032 47.8397 36.0732 47.8771 35.6667 47.9477C35.4957 47.5947 35.3226 47.2427 35.1474 46.8918ZM37.7163 56.855C37.4047 57.5882 37.098 57.904 37.0509 57.949C37.0446 57.9538 37.0419 57.9573 37.0391 57.9587C35.9949 58.9018 34.2362 58.8547 33.0376 58.3208C32.3549 58.0175 31.9311 57.5931 31.9291 57.2129L31.9353 57.1063C32.098 56.3232 33.9911 54.3318 37.4047 54.2909C37.6055 54.937 37.9739 56.2491 37.7163 56.855ZM38.3132 56.9339C38.516 56.2498 38.3007 55.2416 38.0327 54.3325C38.784 54.4405 39.7804 54.7583 40.9547 55.2652C39.8732 55.8489 38.9744 56.4485 38.3132 56.9339ZM70.7357 55.2652C71.91 54.7583 72.9064 54.4405 73.657 54.3325C73.389 55.2416 73.1737 56.2498 73.3765 56.9346C72.7153 56.4485 71.8179 55.8489 70.7357 55.2652ZM78.6521 58.3208C77.4535 58.854 75.6948 58.9011 74.6506 57.9587C74.6478 57.9573 74.6457 57.9552 74.6416 57.9518C74.5987 57.9102 74.2878 57.5959 73.9734 56.855C73.7158 56.2484 74.0842 54.9356 74.2843 54.2909C77.6986 54.3318 79.591 56.3232 79.7537 57.1063L79.7613 57.2129C79.7593 57.5931 79.3348 58.0175 78.6521 58.3208ZM79.9448 53.809C79.7766 54.4329 79.7274 55.2444 79.7226 55.9188C78.7836 54.8476 76.84 53.6968 74.1804 53.6968C73.0629 53.6968 71.2965 54.2812 69.0718 55.3877L68.9679 55.4383C68.0373 55.88 64.7539 57.4054 61.5784 58.4835C58.5692 59.5069 56.3887 59.6094 55.9733 59.6198H55.7206C55.3127 59.6108 53.1288 59.509 50.1113 58.4835C46.9358 57.4054 43.6524 55.88 42.7218 55.4383L42.6179 55.3877C40.3932 54.2812 38.6268 53.6968 37.5093 53.6968C34.8497 53.6968 32.9061 54.8476 31.9678 55.9188C31.9623 55.2444 31.9131 54.4322 31.7449 53.809C31.5185 52.9698 30.925 51.8938 30.6682 51.4493C31.1182 51.0262 32.4103 49.8629 33.5002 49.3401C34.8386 48.6976 35.6217 48.4289 37.0059 48.4289C39.7285 48.4289 43.4343 50.0485 47.0182 51.6141C49.637 52.7593 52.111 53.8402 54.1848 54.3027L54.342 54.3387C54.5635 54.3913 54.8156 54.4509 55.1922 54.4987C55.5475 54.543 55.7406 54.5506 55.8639 54.5506C55.9484 54.5506 56.1422 54.543 56.4975 54.4987C56.8741 54.4509 57.1255 54.3913 57.3477 54.3387L57.5049 54.3027C59.578 53.8402 62.052 52.7593 64.6715 51.6141C68.2547 50.0485 71.9612 48.4289 74.6838 48.4289C76.068 48.4289 76.8511 48.6976 78.1895 49.3401C79.2787 49.8629 80.5722 51.0262 81.0215 51.4493C80.7646 51.8938 80.1712 52.9698 79.9448 53.809Z" fill="white"/>
<path d="M55.8788 52.0914H55.8746C54.9018 52.0914 53.4373 51.8166 49.9524 49.7877C46.3109 47.6655 44.4864 46.2281 43.3044 43.3165C42.1398 40.4485 41.707 36.9635 41.707 30.4562C41.707 24.2036 41.9632 19.3283 41.9653 19.2805C41.9701 19.2002 42.0068 19.1254 42.0671 19.0728C42.0968 19.0465 42.1316 19.0265 42.1694 19.0143C42.2072 19.002 42.2471 18.9976 42.2866 19.0015C48.8486 19.5873 53.0142 19.6745 54.9135 19.6745C55.5457 19.6745 55.8635 19.6648 55.867 19.6641C55.8898 19.6648 56.2077 19.6745 56.8398 19.6745C58.7398 19.6745 62.9054 19.5873 69.4675 19.0015C69.5457 18.9932 69.626 19.0202 69.6863 19.0728C69.7472 19.1254 69.7839 19.2002 69.7881 19.2805C69.7901 19.3283 70.047 24.2036 70.047 30.4562C70.047 36.9635 69.6136 40.4485 68.4489 43.3165C67.267 46.2281 65.4424 47.6655 61.8017 49.7878C58.3161 51.8166 56.8523 52.0914 55.8788 52.0914ZM42.5393 19.6163C42.4839 20.7754 42.2963 25.1106 42.2963 30.4561C42.2963 36.879 42.718 40.3044 43.8508 43.0941C44.9683 45.8465 46.7278 47.2272 50.2494 49.2774C53.6326 51.2494 55.0333 51.5022 55.8746 51.5022H55.8788C56.7214 51.5022 58.1215 51.2494 61.5047 49.2774C65.0263 47.2272 66.785 45.8465 67.9026 43.0941C69.0361 40.3044 69.4564 36.879 69.4564 30.4561C69.4564 25.1092 69.2694 20.7754 69.2147 19.6163C62.8057 20.1792 58.7191 20.2644 56.8398 20.2644C56.209 20.2644 55.885 20.254 55.8691 20.2533C55.8691 20.2533 55.5443 20.2644 54.9135 20.2644C53.035 20.2644 48.9483 20.1792 42.5393 19.6163Z" fill="white"/>
<path d="M66.2181 39.8793C64.8519 39.8793 63.9144 40.4713 63.0876 40.9948C62.4049 41.4248 61.8143 41.798 61.0471 41.798C60.2799 41.798 59.6899 41.4248 59.0072 40.9948C58.1798 40.4713 57.2429 39.8793 55.8747 39.8793C54.5086 39.8793 53.5717 40.4713 52.7443 40.9948C52.0616 41.4248 51.4716 41.798 50.7037 41.798C49.9372 41.798 49.3473 41.4248 48.6639 40.9948C47.8364 40.4713 46.8996 39.8793 45.5321 39.8793C44.8189 39.8793 44.2241 40.0427 43.6992 40.2712C43.8315 40.8535 43.9831 41.4012 44.1583 41.9157C44.5765 41.7059 45.01 41.5639 45.5334 41.5639C46.4121 41.5639 47.0381 41.9607 47.7644 42.4184C48.5545 42.9169 49.4491 43.4826 50.7037 43.4826C51.9591 43.4826 52.8544 42.9169 53.6437 42.4184C54.3694 41.9607 54.996 41.5639 55.8761 41.5639C56.7555 41.5639 57.3821 41.9607 58.1071 42.4184C58.8971 42.9169 59.7931 43.4826 61.0471 43.4826C62.3017 43.4826 63.197 42.9169 63.9871 42.4184C64.7127 41.9607 65.3387 41.5639 66.2201 41.5639C66.7429 41.5639 67.1757 41.7059 67.5939 41.9157C67.7691 41.4012 67.9207 40.8549 68.053 40.2719C67.5281 40.0427 66.9326 39.8793 66.2181 39.8793ZM47.7641 38.6281C48.5542 39.1267 49.4495 39.6924 50.7041 39.6924C51.9588 39.6924 52.8541 39.1267 53.6435 38.6281C54.3691 38.1698 54.9964 37.7737 55.8765 37.7737C56.7552 37.7737 57.3818 38.1698 58.1075 38.6281C58.8975 39.1267 59.7928 39.6924 61.0475 39.6924C62.3015 39.6924 63.1968 39.1267 63.9868 38.6281C64.0256 38.6032 64.0616 38.5811 64.0997 38.5575C63.4003 38.3394 58.4364 36.8542 58.4301 36.8507C57.1471 36.4886 56.1549 36.2372 55.8627 36.2372H55.8447C55.1654 36.2372 50.7346 37.5881 47.6471 38.5547C47.6859 38.5783 47.7247 38.6032 47.7641 38.6281ZM66.2181 43.6701C64.8519 43.6701 63.9144 44.2615 63.0876 44.785C62.4049 45.2164 61.8143 45.5882 61.0471 45.5882C60.2799 45.5882 59.6899 45.2164 59.0072 44.785C58.1798 44.2615 57.2429 43.6702 55.8747 43.6702C54.5086 43.6702 53.5717 44.2615 52.7443 44.785C52.0616 45.2164 51.4716 45.5882 50.7037 45.5882C49.9372 45.5882 49.3473 45.2164 48.6639 44.785C47.8364 44.2615 46.8996 43.6702 45.5321 43.6702C45.3216 43.6702 45.1249 43.6882 44.9345 43.7124C45.2862 44.3564 45.6982 44.9159 46.1864 45.4338C46.7514 45.5702 47.2312 45.8721 47.7644 46.2086C48.5545 46.7071 49.4491 47.2729 50.7037 47.2729C51.9591 47.2729 52.8544 46.7071 53.6437 46.2086C54.3694 45.7502 54.996 45.3549 55.8761 45.3549C56.7555 45.3549 57.3821 45.7502 58.1071 46.2086C58.8971 46.7071 59.7931 47.2729 61.0471 47.2729C62.3017 47.2729 63.197 46.7071 63.9871 46.2086C64.5196 45.8721 65.0008 45.5702 65.5658 45.4338C66.054 44.9159 66.4653 44.3564 66.8177 43.7131C66.6266 43.6882 66.4286 43.6701 66.2181 43.6701ZM58.1995 48.371C57.5362 47.9237 56.8493 47.4604 55.8744 47.4604C55.0414 47.4604 54.4286 47.8856 53.8373 48.2962C53.2729 48.6881 52.692 49.0876 51.7974 49.2718C52.6643 49.7302 53.3553 50.039 53.9148 50.246C54.2486 50.0563 54.5408 49.8583 54.7976 49.6803C55.2907 49.3383 55.5829 49.1444 55.8764 49.1444C56.3134 49.1444 56.6679 49.3694 57.2571 49.7676C57.4635 49.9067 57.6892 50.0584 57.9419 50.2079C58.4896 49.9988 59.1599 49.6928 59.9873 49.2545C59.2596 49.0793 58.7375 48.7338 58.1995 48.371ZM63.0115 22.4457L62.4257 23.2427L63.1839 23.8783L62.1966 23.9136L62.1716 24.9059L61.5242 24.1636L60.7362 24.7549L60.9087 23.7904L59.96 23.539L60.8186 23.0737L60.4274 22.1736L61.3331 22.553L61.7853 21.6875L62.0539 22.6396L63.0115 22.4457ZM57.0962 25.4273L56.1753 25.7527L57.0727 26.1487L56.7528 27.0731L57.6224 26.6126L58.1459 27.447L58.3259 26.4714L59.3071 26.5904L58.6569 25.8454L59.3604 25.1488L58.3841 25.1904L58.2671 24.2085L57.6861 24.9917L56.8497 24.4758L57.0962 25.4273ZM64.1711 26.035L63.2903 26.4546L64.2237 26.7544L64.0014 27.7093L64.8199 27.1588L65.4264 27.9343L65.5033 26.9455L66.492 26.9621L65.7671 26.2877L66.3944 25.5226L65.4271 25.6652L65.2083 24.7014L64.7118 25.5392L63.8262 25.1155L64.1711 26.035ZM61.4495 27.9943L61.1836 28.8882L61.9529 28.3585L62.7277 28.8882L62.4625 27.9846L63.2041 27.4195L62.2721 27.3974L61.955 26.5118L61.642 27.3829L60.7065 27.4195L61.4495 27.9943ZM59.5474 30.7232L58.7408 31.2751L59.7108 31.426L59.6416 32.403L60.3624 31.7328L61.0839 32.403L61.0043 31.4136L61.9834 31.2751L61.1628 30.7232L61.6621 29.8695L60.7294 30.1624L60.3624 29.2435L60.0037 30.1499L59.0627 29.8695L59.5474 30.7232Z" fill="white"/>
<path d="M55.946 35.2427C56.9894 35.2427 66.9222 38.4293 67.2102 38.5151C67.4983 38.6009 68.4455 38.9852 68.4455 38.1772C68.4455 37.3706 67.1285 36.9759 63.2697 35.1298C59.4115 33.2852 56.8932 31.9766 55.9584 31.9766C55.0236 31.9766 52.506 33.2852 48.6472 35.1298C44.7883 36.9759 43.4713 37.3706 43.4713 38.1772C43.4713 38.9852 44.4186 38.6009 44.7066 38.5151C44.994 38.4293 54.8859 35.2427 55.9286 35.2427H55.946ZM33.7027 51.5198C33.6369 51.3779 33.5981 51.2837 33.5891 51.2311C33.5919 51.2248 33.6099 51.2027 33.7262 51.1182L33.648 51.0081C33.5448 51.0656 33.4597 51.1106 33.3925 51.1438C33.3239 51.1784 33.2478 51.2124 33.1508 51.2768L33.2291 51.3869C33.3226 51.3419 33.369 51.337 33.3842 51.3328C33.387 51.3342 33.3987 51.3398 33.4195 51.373C33.4645 51.4443 33.594 51.6971 33.8045 52.1236L33.8973 52.2635L33.945 52.3611C33.7976 52.2932 33.6106 52.1991 33.38 52.0744C33.0421 51.8916 32.7506 51.7289 32.4847 51.5814L32.2479 51.7088C32.2071 51.7289 32.1427 51.7573 32.043 51.8224L32.1205 51.9339C32.2147 51.8958 32.2438 51.8882 32.2659 51.8861L32.2915 51.8695L32.3075 51.9131C32.3199 51.9297 32.34 51.9657 32.3684 52.0218L32.7354 52.753C32.7873 52.8589 32.8289 52.9455 32.8586 53.0127C32.9099 53.1311 32.941 53.2072 32.9521 53.2384L32.9729 53.2322L32.9549 53.2924C32.9507 53.2979 32.9244 53.3159 32.8206 53.3983L32.8801 53.5195L32.9002 53.5091C33.0096 53.4468 33.0975 53.4011 33.164 53.3679L33.3953 53.2349L33.3475 53.138L33.3184 53.1297L33.299 53.1394C33.2796 53.1498 33.2464 53.1608 33.2007 53.1768L33.2069 53.1968L33.1571 53.1705C33.1481 53.1588 33.1238 53.1228 33.0643 53.012C32.9937 52.879 32.9272 52.7516 32.8663 52.6277L32.689 52.314L32.5699 52.073C33.2409 52.4428 33.7629 52.7211 34.1341 52.8998C34.1978 52.8804 34.2601 52.8617 34.3231 52.8458L34.3432 52.7973C34.2781 52.6879 34.114 52.3639 33.8536 51.8376C33.8197 51.7698 33.7699 51.6631 33.7027 51.5198ZM33.6397 51.0372C33.6376 51.0379 33.6355 51.0379 33.6341 51.04C33.6355 51.0379 33.6369 51.0379 33.639 51.0351L33.6397 51.0372ZM33.1792 51.2858L33.1813 51.2913L33.1778 51.2858H33.1792ZM33.9603 52.3916C33.9236 52.3742 33.8765 52.3514 33.8349 52.3313C33.8737 52.3445 33.9146 52.3632 33.9506 52.3715L33.9603 52.3916ZM33.3094 53.1574L33.3101 53.1581L33.3087 53.1588H33.308C33.308 53.1581 33.3087 53.1581 33.3094 53.1574ZM32.5533 52.0405C32.6855 52.1132 32.8067 52.1804 32.9272 52.2455C32.8109 52.1873 32.6931 52.1291 32.5657 52.0661L32.5533 52.0405ZM35.9047 52.1558C35.8687 52.1641 35.8458 52.1648 35.8458 52.1648L34.704 50.6712L34.5344 50.7356L34.4623 52.3095C34.4533 52.4341 34.4485 52.5062 34.445 52.5255L34.4166 52.5837C34.4132 52.5865 34.3973 52.5962 34.3072 52.6516L34.3446 52.7783L34.8799 52.6003L34.8238 52.4785C34.7587 52.4944 34.713 52.502 34.6569 52.4764C34.6514 52.4584 34.6451 52.4037 34.6479 52.2472L34.6355 52.0997L35.1742 51.9266L35.35 52.1814C35.3867 52.2333 35.3985 52.2603 35.4013 52.2943C35.3978 52.297 35.3784 52.3109 35.2531 52.3746L35.3106 52.4958L36.0106 52.2693L35.9559 52.1482L35.9047 52.1558ZM35.0945 51.784C35.0905 51.7854 35.0863 51.7866 35.0821 51.7874C35.0855 51.7853 35.089 51.784 35.0931 51.7819L35.0945 51.784ZM34.6368 51.9169L34.6431 51.7576L34.6424 51.9162C34.6403 51.9162 34.6389 51.9169 34.6368 51.9169ZM34.8646 51.8338C34.7899 51.8553 34.7269 51.8754 34.6818 51.9044C34.6742 51.9072 34.6652 51.9093 34.6576 51.9121L34.6867 51.2473L34.992 51.6399L35.0821 51.766C35.0177 51.7867 34.9463 51.8089 34.8646 51.8338ZM34.8536 52.5851V52.5816L34.855 52.5851H34.8536ZM35.3237 52.4688L35.3341 52.466L35.3237 52.4701V52.4688ZM36.9617 50.3269L36.9229 50.2944C36.889 50.3034 36.8551 50.311 36.8211 50.3158C36.7574 50.3262 36.6314 50.3421 36.4424 50.3643L35.9868 50.4176C35.8026 50.4391 35.6787 50.4529 35.6143 50.4571C35.5741 50.4605 35.5374 50.4619 35.5021 50.4619L35.4723 50.5021C35.4834 50.5457 35.4917 50.5866 35.4986 50.6246C35.5021 50.6475 35.5159 50.75 35.563 50.948L35.6752 50.9141C35.6683 50.8379 35.6655 50.7701 35.6683 50.707L35.7015 50.6634C35.7617 50.6503 35.8324 50.6392 35.9127 50.6295L36.0512 50.5935C36.056 50.6184 36.0713 50.7396 36.0969 50.9549L36.1897 51.7498C36.2174 51.9852 36.2201 52.0656 36.2174 52.0905C36.2153 52.1106 36.2084 52.1251 36.1973 52.1334C36.1917 52.1383 36.1654 52.1507 36.0318 52.193L36.047 52.3238L36.0685 52.3204C36.2063 52.2954 36.3281 52.2781 36.4341 52.265C36.5338 52.2532 36.657 52.2428 36.8225 52.211L36.7872 52.0822C36.6847 52.0912 36.6383 52.0843 36.6342 52.0822C36.621 52.0753 36.6113 52.0642 36.6051 52.0469C36.5968 52.0219 36.5809 51.9423 36.5532 51.7069L36.4604 50.9134C36.4355 50.7015 36.4223 50.581 36.4022 50.572L36.5636 50.5526C36.6487 50.5429 36.7228 50.5367 36.8073 50.536C36.8073 50.536 36.8128 50.545 36.8232 50.5831C36.8385 50.6433 36.8509 50.707 36.8835 50.7936L36.9956 50.7604C36.9769 50.5769 36.9665 50.4806 36.9659 50.4688C36.9629 50.4216 36.9615 50.3743 36.9617 50.3269ZM36.799 52.1923L36.7983 52.1874L36.8011 52.1923H36.799ZM38.6714 50.5793C38.6763 50.5765 38.6901 50.5696 38.733 50.5696C38.7504 50.5682 38.7704 50.571 38.8154 50.553L38.8058 50.42L38.5226 50.4062C38.4969 50.4027 38.4166 50.3875 38.2574 50.3951L38.2671 50.5281C38.3661 50.5391 38.4035 50.5544 38.4332 50.5869C38.4367 50.6021 38.4402 50.6492 38.4318 50.7849C38.4201 50.9274 38.4081 51.0698 38.3958 51.2122L38.373 51.485C38.3571 51.6698 38.3342 51.7959 38.3024 51.8589C38.2733 51.9198 38.2262 51.9683 38.1646 52.0022C38.1023 52.0375 38.0192 52.05 37.9208 52.0417C37.8329 52.0354 37.7616 52.0133 37.7076 51.9794C37.6556 51.9454 37.6176 51.9039 37.594 51.8533C37.5719 51.8021 37.5601 51.7363 37.5608 51.656C37.5608 51.6179 37.5677 51.5168 37.5816 51.3562L37.6189 50.8909C37.6356 50.7067 37.6501 50.5862 37.6833 50.5004C37.6903 50.4955 37.7103 50.4879 37.7609 50.4879C37.7803 50.4872 37.8024 50.4886 37.8502 50.472L37.8391 50.339L37.1017 50.2975L37.1093 50.4297L37.2651 50.483C37.2686 50.4941 37.272 50.5177 37.2714 50.5627C37.2658 50.6624 37.2589 50.7739 37.2485 50.8985L37.1966 51.4919C37.1848 51.6345 37.18 51.7211 37.1813 51.7543C37.1813 51.8076 37.1924 51.8623 37.2125 51.9226C37.2326 51.9835 37.2651 52.0403 37.3087 52.0901C37.3524 52.1414 37.4119 52.1843 37.4846 52.2182C37.5836 52.2639 37.693 52.2916 37.8087 52.3006C37.8398 52.3041 37.8696 52.3062 37.8987 52.3062C37.9631 52.3062 38.0233 52.2986 38.0773 52.2861C38.157 52.266 38.2276 52.2342 38.2885 52.1878C38.3464 52.1446 38.3955 52.0908 38.4332 52.0292C38.4692 51.9697 38.4969 51.8956 38.5142 51.809C38.5316 51.7239 38.5433 51.6408 38.5503 51.5604L38.5766 51.2468C38.5849 51.154 38.598 51.0287 38.6167 50.8694C38.641 50.6658 38.6513 50.6174 38.6714 50.5793ZM37.1211 50.3203V50.3224L37.1204 50.3203H37.1211ZM41.65 53.1441C41.6078 53.1241 41.5988 53.1171 41.5974 53.1158L41.5828 53.131L41.5794 53.068L41.5801 52.9371L41.5766 51.2358L41.4014 51.1867L40.6238 52.1381C40.5137 52.2703 40.4403 52.3596 40.403 52.4039C40.3219 52.4988 40.2742 52.5521 40.2596 52.5674L40.2749 52.5812L40.2028 52.5964C40.2001 52.5964 40.1828 52.5944 40.1211 52.5888L40.1239 52.5667C40.0824 52.5549 40.0685 52.5459 40.0429 52.5085C40.0339 52.4905 40.0145 52.431 39.982 52.3333L39.8421 51.8175C39.8351 51.7887 39.8275 51.7601 39.8192 51.7316C39.8061 51.688 39.7957 51.6471 39.7722 51.6278C39.7722 51.6257 39.7715 51.6243 39.7715 51.6229C39.9016 51.6014 40.0076 51.5537 40.0872 51.481C40.1668 51.4062 40.2215 51.3134 40.2499 51.2054C40.2728 51.114 40.2721 51.0295 40.2458 50.954C40.2208 50.8786 40.1786 50.8211 40.1225 50.7844C40.0685 50.7491 39.9847 50.7172 39.8656 50.6854C39.7897 50.6667 39.7132 50.6498 39.6364 50.6348C39.57 50.6218 39.504 50.6068 39.4384 50.5898C39.3484 50.5663 39.2792 50.5483 39.2238 50.531C39.1282 50.5019 39.0721 50.4853 39.0306 50.4963L39.0167 50.6279C39.1324 50.666 39.158 50.6847 39.1677 50.7041C39.1691 50.7151 39.1649 50.7553 39.1317 50.8945L38.8367 52.0259C38.8173 52.0917 38.8014 52.1415 38.7592 52.2025C38.7446 52.2025 38.7093 52.1983 38.593 52.1935L38.5798 52.3326C38.6788 52.352 38.7848 52.3769 38.899 52.406C39.0271 52.4386 39.1524 52.4753 39.3027 52.4981L39.3172 52.3589C39.2487 52.3396 39.2085 52.3264 39.1698 52.2911C39.1684 52.2835 39.1684 52.2613 39.1815 52.1997C39.1864 52.1768 39.2099 52.0751 39.2528 51.8964C39.2882 51.7503 39.3221 51.6125 39.3553 51.4837C39.3768 51.402 39.4211 51.2393 39.4883 50.997C39.518 50.8882 39.5381 50.8197 39.5277 50.8031C39.561 50.8052 39.5956 50.81 39.6302 50.8197C39.7064 50.8398 39.7583 50.8592 39.7825 50.8779C39.8213 50.9076 39.8497 50.9519 39.867 51.0087C39.8843 51.0655 39.8829 51.1327 39.8643 51.2081C39.8449 51.2822 39.8123 51.348 39.7673 51.4006C39.723 51.4526 39.6773 51.4844 39.6309 51.4976C39.5831 51.51 39.5284 51.4983 39.4107 51.4879L39.3879 51.5495C39.4038 51.573 39.419 51.6049 39.4315 51.6471C39.4592 51.733 39.489 51.8507 39.5229 51.9989L39.6406 52.5161C39.6461 52.5473 39.6489 52.5729 39.6648 52.6124C39.723 52.6248 39.7812 52.6373 39.84 52.6525C39.8843 52.6643 39.957 52.6837 40.0498 52.7114L40.0491 52.7169L40.565 52.8873L40.5913 52.7557C40.484 52.7107 40.4618 52.6906 40.4583 52.6546C40.4653 52.6366 40.493 52.5888 40.5885 52.4649L40.6668 52.3396L41.202 52.5244L41.1909 52.8326C41.1895 52.8956 41.1833 52.9253 41.1639 52.9537C41.1549 52.9537 41.1238 52.9482 40.9971 52.9295L40.9714 53.0604L41.3467 53.1898L41.6597 53.3179L41.6957 53.1677L41.65 53.1441ZM40.7776 52.1935L40.878 52.0695L40.7824 52.1962C40.781 52.1955 40.7789 52.1955 40.7776 52.1935ZM41.2249 52.3389C41.1529 52.3147 41.0813 52.2893 41.0102 52.2627C40.9347 52.235 40.8662 52.208 40.8108 52.208C40.8066 52.2059 40.8018 52.2031 40.7983 52.2025L41.2186 51.6866L41.2276 52.1789L41.2249 52.3389ZM41.2242 52.3583V52.361C41.2199 52.3592 41.2155 52.3578 41.211 52.3569C41.2159 52.3576 41.22 52.3583 41.2242 52.3583ZM38.6041 52.3174C38.6054 52.3174 38.6075 52.3174 38.6089 52.3181C38.6075 52.3181 38.6054 52.3174 38.6041 52.3174ZM39.2882 52.4718L39.2889 52.4683V52.4725C39.2889 52.4725 39.2882 52.4725 39.2882 52.4718ZM44.3806 52.6143L44.4242 52.4634L44.1112 52.3339C44.0856 52.3228 44.0295 52.2937 43.9159 52.2529C43.8654 52.3083 43.8218 52.3547 43.7858 52.39C43.7491 52.4274 43.6501 52.5222 43.4901 52.6752L43.2021 52.9522C43.1446 53.0083 43.0663 53.0879 42.9853 53.1835C42.9611 53.2056 42.9389 53.225 42.9119 53.2506L42.9528 51.8042C42.8787 51.7779 42.8067 51.7488 42.7361 51.7176C42.6821 51.6934 42.5858 51.6463 42.4175 51.5875L42.3808 51.719C42.4162 51.7363 42.4536 51.7599 42.4944 51.7883L42.5138 51.8298C42.5117 51.8443 42.4979 51.8928 42.4272 52.0576C42.3725 52.1857 42.3081 52.3325 42.2341 52.4973C42.1517 52.6808 42.0928 52.8096 42.0561 52.885C41.9834 53.0388 41.9342 53.1378 41.9086 53.1828C41.8955 53.2036 41.8872 53.2126 41.8657 53.2202C41.8601 53.2202 41.8338 53.2174 41.6995 53.1897L41.6649 53.3227C41.7293 53.3448 41.8144 53.3794 41.919 53.4258C42 53.4618 42.0776 53.5006 42.1807 53.5304L42.2174 53.3988C42.1323 53.3538 42.1087 53.3365 42.1025 53.331L42.0658 53.3109L42.0914 53.2707C42.097 53.2513 42.1288 53.1731 42.1877 53.0353C42.2472 52.8968 42.2985 52.777 42.3435 52.678L42.4626 52.3616L42.5706 52.1192L42.5512 52.847C42.5477 52.9654 42.5408 53.1447 42.529 53.3836C42.5235 53.5235 42.5173 53.6322 42.5242 53.7326L42.6183 53.7589C42.6613 53.7146 42.7187 53.6571 42.7915 53.5865C42.9099 53.4688 43.0013 53.3808 43.0656 53.3185L43.4686 52.9079L43.7511 52.6441L43.3731 53.4854C43.2969 53.6564 43.2498 53.7547 43.2311 53.7824C43.2111 53.8129 43.1972 53.8177 43.1924 53.8198C43.1827 53.8198 43.1515 53.8136 43.0227 53.7838L42.9881 53.9154L43.3149 54.0518L43.6611 54.2179L43.7082 54.0677C43.6023 54.0102 43.5884 53.9985 43.5773 53.9583C43.5836 53.9341 43.6071 53.8683 43.6466 53.7644C43.6535 53.7471 43.6812 53.6855 43.7269 53.583L44.1472 52.6593C44.1756 52.5956 44.2005 52.5741 44.2345 52.5651C44.2594 52.5651 44.2968 52.5769 44.3459 52.5991L44.3806 52.6143ZM42.8905 53.2693L42.9022 52.8892L42.905 53.2569C42.8995 53.2617 42.896 53.2652 42.8905 53.2693ZM41.6912 53.3095C41.6933 53.3109 41.696 53.3116 41.6981 53.313C41.696 53.313 41.6926 53.3116 41.6912 53.3116V53.3095ZM42.1697 53.502L42.1724 53.4964L42.1717 53.5034C42.171 53.5034 42.1704 53.5034 42.1697 53.502ZM42.5927 52.0694L42.583 52.4377L42.5747 52.1102L42.5927 52.0694ZM43.7906 52.6074L43.6009 53.0284L43.7574 52.6372L43.7906 52.6074ZM45.8928 53.9633C45.9687 53.8989 46.0296 53.8188 46.0714 53.7285C46.1164 53.6337 46.1338 53.5457 46.1227 53.4668C46.1123 53.3886 46.0839 53.3242 46.0396 53.275C45.9953 53.2252 45.9267 53.1795 45.8353 53.1358L45.0432 52.7882L45.0044 52.9156L45.1374 53.0119C45.1374 53.0181 45.1346 53.0313 45.1235 53.0611C45.1138 53.086 45.0861 53.1469 45.0425 53.2452L44.7385 53.9003C44.6638 54.0574 44.5931 54.1994 44.5246 54.324C44.4927 54.3829 44.4803 54.3981 44.4616 54.4078C44.4443 54.4078 44.4069 54.4002 44.2947 54.3725L44.2552 54.5068C44.3459 54.5428 44.4401 54.5837 44.5363 54.6287C44.625 54.6723 44.7552 54.736 44.9276 54.8246L44.9476 54.835L44.9982 54.682L44.8652 54.6058L44.8542 54.6245L44.8431 54.5685C44.8445 54.5553 44.8549 54.5214 44.8929 54.4362C44.9463 54.3136 44.9996 54.1959 45.0536 54.0831L45.3846 53.3893C45.4303 53.2944 45.4677 53.2217 45.4711 53.185C45.521 53.1954 45.5646 53.2099 45.6027 53.2279C45.6781 53.2639 45.7232 53.3152 45.7412 53.3865C45.7585 53.4585 45.7418 53.5478 45.692 53.6538C45.6442 53.7549 45.5874 53.8213 45.5237 53.8539C45.46 53.8871 45.4337 53.9093 45.307 53.8393C45.2959 53.831 45.2849 53.8206 45.2488 53.8047L45.2018 53.8269L45.2031 53.8407C45.2045 53.8816 45.2031 53.9162 45.2073 53.9598C45.2253 53.9757 45.2447 53.9896 45.2655 54.0034C45.2855 54.0159 45.307 54.0277 45.3299 54.0394C45.4192 54.081 45.5175 54.0955 45.6228 54.081C45.7266 54.0664 45.818 54.0263 45.8928 53.9633ZM44.2829 54.4957C44.2843 54.4964 44.285 54.4971 44.2864 54.4978C44.285 54.4978 44.2843 54.4964 44.2822 54.4964L44.2829 54.4957ZM46.9262 55.5367C46.9213 55.518 46.9116 55.4571 46.8971 55.3546C46.8964 55.3476 46.8915 55.2971 46.8839 55.2029L46.8514 54.8215C46.8514 54.8118 46.8486 54.7827 46.8445 54.7328C46.8396 54.6857 46.8368 54.6407 46.8292 54.6186C46.9559 54.6186 47.0646 54.5902 47.1533 54.5334C47.2447 54.4759 47.3146 54.3935 47.3603 54.2925C47.4005 54.2073 47.415 54.1235 47.4025 54.0439C47.3901 53.9649 47.3603 53.9019 47.3111 53.8555C47.2648 53.8112 47.1872 53.7641 47.0757 53.7129C47.0196 53.688 46.9476 53.6575 46.859 53.6215C46.7959 53.5969 46.7335 53.5704 46.672 53.5419C46.5883 53.5038 46.5232 53.4726 46.4782 53.4498C46.3854 53.402 46.3265 53.3708 46.2871 53.3785L46.2504 53.5045C46.3598 53.5647 46.3805 53.5869 46.3861 53.6056C46.3847 53.6208 46.3715 53.663 46.3168 53.7884L45.8252 54.8478C45.7941 54.9101 45.7698 54.9551 45.7207 55.0084C45.713 55.0084 45.6847 55.0015 45.5552 54.9703L45.5178 55.1054C45.6113 55.1414 45.7117 55.185 45.819 55.2334C45.9388 55.2882 46.0565 55.3463 46.1998 55.3962L46.2393 55.2611C46.215 55.2494 46.1417 55.2134 46.105 55.1684C46.1056 55.1587 46.1112 55.1365 46.1333 55.0811C46.1423 55.0583 46.1832 54.962 46.2573 54.7945C46.3175 54.6581 46.3764 54.5293 46.4318 54.4074C46.4671 54.3298 46.5398 54.1782 46.6492 53.9511C46.6977 53.8507 46.7302 53.7856 46.7219 53.7683C46.7558 53.7766 46.7884 53.7884 46.8202 53.8029C46.9089 53.8431 46.9455 53.8708 46.9601 53.8874C46.9926 53.9227 47.0127 53.9712 47.0196 54.03C47.0273 54.0889 47.0141 54.1547 46.9816 54.2267C46.949 54.2973 46.9054 54.3555 46.8521 54.3991C46.7988 54.442 46.7482 54.4662 46.688 54.4697C46.6409 54.4697 46.5813 54.4517 46.4851 54.4205L46.4525 54.478C46.4643 54.5029 46.4726 54.5383 46.4775 54.5812C46.4899 54.6719 46.4989 54.7924 46.5052 54.944L46.5294 55.4723C46.5294 55.5049 46.5273 55.5312 46.5356 55.5741C46.591 55.5956 46.6457 55.6184 46.7004 55.6441C46.7482 55.6655 46.8237 55.7029 46.9282 55.7542L46.9476 55.7631L46.9961 55.6087C46.9566 55.59 46.9455 55.5796 46.9262 55.5367ZM45.5448 55.0936C45.5448 55.0936 45.5462 55.095 45.5476 55.0957C45.5468 55.0957 45.5461 55.0954 45.5455 55.095L45.5448 55.0936ZM46.1894 55.3685L46.1915 55.3636L46.1908 55.3685H46.1894ZM47.6166 55.8907L47.6103 55.8318C47.6145 55.8062 47.6332 55.7515 47.6699 55.6691L47.9794 54.9497C47.9863 54.9338 48.0348 54.8271 48.1248 54.627C48.1504 54.5689 48.1691 54.5301 48.1795 54.5093C48.2017 54.4643 48.2148 54.4463 48.2584 54.4297C48.2744 54.4311 48.3533 54.4622 48.4101 54.4629L48.4447 54.3258C48.3291 54.2822 48.2086 54.2337 48.0819 54.1783C47.969 54.1292 47.87 54.0828 47.7564 54.0502L47.7197 54.1846C47.8104 54.2289 47.8368 54.2441 47.8541 54.2822C47.8471 54.3106 47.8236 54.3757 47.7828 54.4795C47.7634 54.5273 47.7184 54.6312 47.6477 54.7939L47.4248 55.307C47.3888 55.3894 47.3465 55.4787 47.2988 55.5736C47.2669 55.6373 47.2475 55.6733 47.2094 55.6899C47.197 55.6878 47.1554 55.6719 47.0571 55.6567L47.0218 55.7924C47.1111 55.8242 47.2122 55.8644 47.3237 55.9129C47.4518 55.9696 47.5709 56.0236 47.6817 56.079L47.701 56.0887L47.7467 55.9329C47.6643 55.8955 47.638 55.8803 47.6297 55.8741L47.6166 55.8907ZM48.4177 54.3383C48.4163 54.3376 48.4142 54.3355 48.4129 54.3355C48.4142 54.3355 48.4163 54.3362 48.4177 54.3376V54.3383ZM47.7668 54.0779L47.7654 54.0828L47.7661 54.0772L47.7668 54.0779ZM47.0488 55.7799C47.0502 55.7806 47.0523 55.7806 47.0536 55.782C47.0523 55.782 47.0502 55.7806 47.0481 55.7806L47.0488 55.7799ZM50.5197 55.3171L50.5571 55.1648L50.2365 55.0505C50.2115 55.0401 50.1534 55.0152 50.0384 54.9792C49.99 55.0387 49.9491 55.0872 49.9152 55.1253C49.8799 55.1627 49.7871 55.2631 49.6348 55.4251L49.3613 55.7159C49.3066 55.7748 49.2318 55.8586 49.1563 55.9576C49.1338 55.9814 49.1107 56.0047 49.0871 56.0275L49.0531 54.5824C48.9788 54.5595 48.9051 54.5343 48.8323 54.507C48.7776 54.4848 48.6778 54.444 48.5075 54.3927L48.4777 54.5264C48.513 54.5416 48.5525 54.5644 48.5948 54.5894L48.6058 54.5727L48.6169 54.6288C48.6141 54.6551 48.5892 54.732 48.5414 54.8615C48.493 54.993 48.4362 55.1426 48.3711 55.3102C48.2977 55.4992 48.2458 55.6315 48.2132 55.7076C48.1481 55.8655 48.1045 55.9666 48.081 56.0123C48.0706 56.0337 48.0616 56.0434 48.0401 56.0531C48.0325 56.0531 48.0034 56.049 47.8733 56.0303L47.8456 56.1646C47.9113 56.1833 47.9972 56.2145 48.1045 56.2553C48.1869 56.2872 48.2665 56.3211 48.3711 56.346L48.4016 56.2138C48.3129 56.1715 48.2894 56.1563 48.2832 56.1501L48.2458 56.1328L48.2679 56.0912C48.2728 56.0718 48.3012 55.9922 48.3524 55.8523C48.405 55.7097 48.45 55.5878 48.4902 55.486L48.592 55.1648L48.6875 54.9169L48.7055 55.6439C48.7083 55.7637 48.7104 55.9423 48.7118 56.1812C48.7132 56.3197 48.7125 56.4312 48.7242 56.5295L48.8205 56.5524C48.8606 56.5053 48.9153 56.4444 48.9839 56.371C49.0968 56.247 49.1833 56.1535 49.2435 56.0884L49.6244 55.6585L49.8937 55.3794L49.56 56.2408C49.4762 56.4561 49.445 56.524 49.4333 56.5441C49.4146 56.5745 49.4014 56.5808 49.3952 56.5828C49.382 56.5828 49.3467 56.5752 49.2255 56.5551L49.1972 56.6881L49.5309 56.8079L49.8861 56.9567L49.9242 56.803C49.8238 56.7552 49.8044 56.7435 49.7878 56.7012C49.7926 56.6756 49.8127 56.6105 49.8473 56.5039C49.8543 56.4852 49.8778 56.4236 49.9187 56.3169L50.2898 55.3746C50.3154 55.3095 50.339 55.2873 50.3763 55.2756C50.4013 55.2756 50.4387 55.2852 50.4857 55.3046L50.5197 55.3171ZM50.5294 55.1772L50.5183 55.1738L50.5301 55.1765L50.5294 55.1772ZM49.067 56.049L49.0559 55.5387L49.0801 56.0351C49.0753 56.04 49.0718 56.0441 49.067 56.049ZM47.8712 56.1515C47.8733 56.1515 47.8767 56.1535 47.8788 56.1535C47.8767 56.1542 47.8733 56.1522 47.8712 56.1528V56.1515ZM48.3593 56.3183L48.3614 56.3135L48.3607 56.3197C48.3607 56.3197 48.3593 56.319 48.3593 56.3183ZM48.6917 54.9072L48.7069 54.8663L48.7166 55.2354L48.6917 54.9072ZM49.9311 55.3406L49.7629 55.7748L49.9 55.3732L49.9311 55.3406ZM52.0697 55.824L52.1078 55.797C52.1237 55.797 52.1542 55.8005 52.238 55.8039L52.2553 55.671L51.9818 55.599C51.9576 55.5914 51.8807 55.5651 51.7242 55.5339L51.7062 55.6668C51.8011 55.6987 51.835 55.7201 51.8572 55.7582C51.8578 55.7707 51.853 55.8129 51.8149 55.9507C51.8004 55.9999 51.7602 56.1384 51.693 56.3634L51.6148 56.6244C51.5608 56.8031 51.5123 56.9222 51.4694 56.9769C51.4279 57.0309 51.3725 57.0676 51.3046 57.0884C51.2374 57.1112 51.1537 57.1064 51.0574 57.078C50.9736 57.0531 50.9078 57.0171 50.8628 56.9734C50.8178 56.9284 50.7894 56.8786 50.7777 56.8266C50.7652 56.7712 50.7666 56.7062 50.7839 56.6265C50.7929 56.5878 50.8199 56.4929 50.8656 56.3364L50.9986 55.8891C51.0519 55.7105 51.092 55.5962 51.1163 55.5484L51.1633 55.5166C51.1904 55.5166 51.2312 55.5242 51.3094 55.5263L51.3413 55.4196L51.3067 55.3885L50.6129 55.2022L50.5935 55.3345L50.7347 55.4183C50.7361 55.4349 50.7327 55.4612 50.7244 55.4972C50.6994 55.5948 50.669 55.7008 50.6336 55.8206L50.4619 56.3925C50.4211 56.5282 50.3975 56.6127 50.392 56.6438C50.3821 56.701 50.3809 56.7594 50.3885 56.8169C50.3961 56.8813 50.4162 56.9423 50.4488 56.9997C50.4813 57.0579 50.5305 57.1126 50.5949 57.1611C50.6814 57.2248 50.7818 57.2753 50.8947 57.3093C50.9833 57.3356 51.0657 57.3487 51.1419 57.3487L51.1613 57.348C51.2423 57.346 51.3184 57.3286 51.3877 57.2954C51.4538 57.2654 51.5134 57.2225 51.5629 57.1694C51.6107 57.1181 51.6522 57.0517 51.6868 56.97C51.7207 56.8903 51.7491 56.8121 51.7727 56.7352L51.8627 56.434C51.889 56.3447 51.9278 56.2249 51.9783 56.0726C52.0448 55.8759 52.0642 55.8323 52.0697 55.824ZM51.3011 55.4086L51.2921 55.4058L51.3011 55.4072V55.4086ZM51.1419 57.3245C51.1426 57.3245 51.1433 57.3252 51.144 57.3252L51.1419 57.3279V57.3245Z" fill="white"/>
<path d="M53.8682 56.0026C53.8329 56.0698 53.801 56.1245 53.7747 56.1674C53.7477 56.211 53.675 56.3267 53.5552 56.515L53.3399 56.8515C53.297 56.9187 53.2402 57.0149 53.1834 57.1271C53.1654 57.1541 53.1488 57.1783 53.1287 57.2088L52.8275 55.7949C52.75 55.7862 52.6729 55.7746 52.5962 55.7603C52.5381 55.7499 52.4328 55.7277 52.2563 55.709L52.2514 55.8454C52.2895 55.8544 52.3317 55.8676 52.3781 55.8863L52.4072 55.9216C52.4086 55.9389 52.4044 55.9957 52.376 56.1632C52.3532 56.3017 52.3248 56.4589 52.2923 56.6369C52.2549 56.8356 52.2286 56.9754 52.2106 57.0558C52.1766 57.2233 52.1517 57.3307 52.1372 57.3791C52.1316 57.3971 52.1254 57.411 52.0818 57.4283C52.0568 57.4283 52.0153 57.4255 51.9357 57.4366L51.9336 57.573C52.0015 57.5799 52.0922 57.5931 52.205 57.6139C52.2923 57.6305 52.3754 57.6492 52.4841 57.654L52.4889 57.5176C52.392 57.4927 52.367 57.4816 52.3608 57.4774L52.3207 57.4671L52.3359 57.4227C52.3366 57.4027 52.349 57.3182 52.3733 57.1714C52.3989 57.0232 52.4217 56.8944 52.4418 56.7864L52.482 56.4513L52.5305 56.1916L52.6828 56.902C52.707 57.017 52.7423 57.1936 52.788 57.4283C52.8143 57.5654 52.8351 57.6734 52.8649 57.769L52.9632 57.7731C52.9944 57.7205 53.0366 57.6506 53.0906 57.5647C53.1786 57.4227 53.2464 57.314 53.2935 57.24L53.5871 56.7463L53.8004 56.4222L53.6321 57.33C53.5982 57.5128 53.5753 57.6194 53.5642 57.6506C53.5518 57.6852 53.54 57.6942 53.5172 57.6976C53.4908 57.6976 53.4472 57.6928 53.3621 57.7018L53.3593 57.8368L54.0849 57.9732L54.0946 57.8147C53.9811 57.7856 53.9638 57.7773 53.9416 57.7413C53.9416 57.7149 53.9492 57.6464 53.9638 57.5356C53.9665 57.5162 53.9783 57.4511 53.9991 57.339L54.1895 56.344C54.202 56.2754 54.2213 56.2484 54.2345 56.2387C54.2463 56.2304 54.2927 56.2235 54.3688 56.238L54.4055 56.2456L54.4131 56.0871L54.0773 56.0358C54.0503 56.031 53.9887 56.0164 53.8682 56.0026ZM53.1121 57.233L52.9362 56.3952L53.1232 57.2164C53.119 57.2233 53.1162 57.2268 53.1121 57.233ZM51.9564 57.5543C51.9578 57.5543 51.9606 57.555 51.962 57.555C51.9606 57.5557 51.9578 57.555 51.9564 57.5557V57.5543ZM52.4668 57.6298L52.4681 57.6229V57.6305C52.4681 57.6305 52.4674 57.6305 52.4668 57.6298ZM52.5402 56.1369L52.6177 56.4991L52.5318 56.1819L52.5402 56.1369ZM53.8308 56.3765L53.7463 56.8321L53.8059 56.4139L53.8308 56.3765ZM55.9554 56.3003C56.0503 56.3024 56.1285 56.3176 56.1881 56.3474C56.2483 56.3779 56.303 56.4243 56.346 56.4734C56.3508 56.5316 56.3536 56.6105 56.3744 56.7276L56.4838 56.7096C56.4886 56.6237 56.4976 56.5316 56.5101 56.4319C56.5177 56.3703 56.5274 56.3183 56.5398 56.2775L56.5225 56.2353C56.4145 56.1882 56.3196 56.1535 56.2373 56.1342C56.1542 56.1155 56.06 56.1051 55.9333 56.103C55.6425 56.103 55.4119 56.1916 55.2471 56.3661C55.0781 56.5441 54.9902 56.7795 54.9854 57.0641C54.9826 57.2296 55.0089 57.3861 55.0629 57.5287C55.0989 57.6236 55.1508 57.7129 55.218 57.7946C55.2852 57.8777 55.3697 57.9441 55.468 57.9954C55.5933 58.0584 55.7394 58.0909 55.9021 58.093L55.9319 58.0937C56.0337 58.0937 56.1202 58.084 56.1909 58.0639C56.267 58.0432 56.3557 58.003 56.4616 57.9344L56.5121 57.7793L56.4727 57.7343L56.4581 57.7433C56.3778 57.7911 56.303 57.8244 56.2359 57.8437C56.1729 57.861 56.1036 57.8701 56.0233 57.8701C55.9097 57.8687 55.8121 57.8458 55.7332 57.8036C55.6764 57.7724 55.6175 57.7219 55.5615 57.6533C55.504 57.5848 55.459 57.4968 55.4257 57.3923C55.3918 57.2884 55.3759 57.1638 55.378 57.0232C55.3821 56.792 55.4368 56.6112 55.5421 56.4845C55.6438 56.3627 55.7796 56.3003 55.9554 56.3003ZM55.9305 58.0715C55.9312 58.0715 55.9319 58.0709 55.9319 58.0709V58.0729L55.9305 58.0715ZM58.3057 56.5763C58.2787 56.4953 58.2448 56.4212 58.2032 56.3561C58.161 56.2896 58.1028 56.2266 58.0308 56.167C57.9567 56.1082 57.8743 56.0639 57.7864 56.039C57.6673 56.0064 57.5371 55.9981 57.398 56.0126C57.2588 56.0293 57.1307 56.068 57.0171 56.1303C56.9278 56.1788 56.8482 56.2508 56.7782 56.3471C56.7083 56.4412 56.6591 56.5534 56.6301 56.6808C56.6024 56.8082 56.5968 56.9557 56.6155 57.1191C56.6398 57.331 56.6958 57.5069 56.7831 57.6433C56.8696 57.7776 56.9811 57.8773 57.1148 57.9369C57.2138 57.9819 57.3259 58.0047 57.4485 58.0047C57.4887 58.0047 57.5309 58.0026 57.5738 57.9971C57.7331 57.9784 57.873 57.9327 57.9914 57.8572C58.0765 57.8012 58.1513 57.7264 58.2122 57.6343C58.2739 57.5422 58.3175 57.439 58.3417 57.3268C58.375 57.1766 58.3826 57.016 58.3632 56.847C58.3514 56.748 58.3327 56.6566 58.3057 56.5763ZM57.9699 57.4176C57.9429 57.5443 57.8965 57.6377 57.8314 57.6966C57.7663 57.7548 57.6874 57.7894 57.5974 57.7998C57.5004 57.8108 57.4118 57.7949 57.3343 57.7492C57.2567 57.7042 57.1861 57.6184 57.1244 57.4923C57.0628 57.3663 57.0192 57.1988 56.9964 56.9952C56.9797 56.8546 56.9825 56.7217 57.004 56.6019C57.024 56.4849 57.0684 56.3914 57.1348 56.3256C57.2013 56.2598 57.2885 56.2197 57.3931 56.2079C57.4166 56.2058 57.4388 56.2037 57.4603 56.2037C57.5226 56.2037 57.5759 56.2148 57.6195 56.237C57.6791 56.2674 57.7338 56.3152 57.7829 56.3789C57.8328 56.4426 57.8743 56.5264 57.9083 56.6234C57.9422 56.7224 57.9664 56.8345 57.981 56.9564C58.001 57.1344 57.9976 57.2895 57.9699 57.4176ZM60.181 56.8563C60.1706 56.8064 60.1734 56.7953 60.1748 56.794C60.1782 56.7829 60.1935 56.7649 60.2482 56.7171L60.2018 56.616L59.5246 56.8037L59.5744 56.9248C59.6769 56.9075 59.7434 56.8992 59.8043 56.9041C59.8078 56.9096 59.8195 56.9338 59.8466 57.0425L59.8729 57.1637C59.8881 57.2302 59.8971 57.2752 59.9075 57.28C59.8707 57.3126 59.8303 57.3407 59.787 57.3638C59.7448 57.3865 59.6999 57.4038 59.6534 57.4151C59.4913 57.4559 59.3349 57.4151 59.1874 57.2987C59.0385 57.1789 58.9319 56.9913 58.8702 56.7413C58.8142 56.5128 58.8245 56.3176 58.8993 56.1618C58.9741 56.0067 59.1015 55.9077 59.2774 55.864C59.3542 55.8453 59.4256 55.8377 59.49 55.8447C59.555 55.8509 59.616 55.8668 59.6707 55.8924C59.6942 55.9028 59.7178 55.9181 59.7358 55.9312C59.7468 55.9554 59.7579 55.9859 59.769 56.0233C59.7856 56.0759 59.7967 56.1168 59.8292 56.159L59.9331 56.114C59.9006 55.9187 59.8839 55.781 59.8833 55.7013L59.8528 55.6584C59.7828 55.6418 59.6921 55.6328 59.5737 55.6314C59.4567 55.6314 59.3342 55.6459 59.2095 55.6771C59.107 55.7027 59.0143 55.7359 58.9326 55.7782C58.8502 55.8204 58.7747 55.8758 58.7082 55.943C58.6397 56.0108 58.5843 56.0925 58.5406 56.1846C58.4977 56.2767 58.4707 56.3813 58.461 56.4928C58.4513 56.6029 58.4638 56.7303 58.4977 56.8667C58.5379 57.0301 58.6009 57.1734 58.6868 57.2939C58.7421 57.3728 58.8121 57.4421 58.8945 57.5009C58.9776 57.5605 59.0717 57.6027 59.1742 57.629C59.2421 57.6449 59.312 57.6533 59.384 57.6533C59.4685 57.6533 59.5571 57.6422 59.6478 57.62C59.7503 57.5951 59.8514 57.5563 59.9483 57.5065C60.0446 57.4573 60.1561 57.3853 60.2862 57.269C60.2634 57.2039 60.2438 57.1379 60.2274 57.0709C60.217 57.0273 60.2018 56.956 60.181 56.8563ZM61.6655 55.4228C61.6157 55.2747 61.588 55.177 61.5859 55.1237C61.5901 55.1161 61.6108 55.096 61.7348 55.0261L61.6683 54.9091C61.5596 54.9541 61.4703 54.9894 61.4003 55.015C61.3276 55.0413 61.2473 55.0662 61.1448 55.1189L61.2092 55.2366C61.2979 55.2068 61.3394 55.202 61.3699 55.202C61.3726 55.2033 61.3837 55.2103 61.4003 55.2449C61.4363 55.3197 61.5374 55.5849 61.6995 56.0349L61.7756 56.1845L61.8123 56.2856C61.6732 56.2025 61.498 56.0889 61.2826 55.938C60.9676 55.7185 60.6968 55.5225 60.4476 55.3487L60.1983 55.4478C60.1561 55.463 60.0889 55.4838 59.983 55.5371L60.0467 55.6569C60.1471 55.6292 60.1761 55.625 60.1872 55.625L60.2232 55.6126L60.2357 55.6589C60.2461 55.6749 60.2613 55.7137 60.2835 55.7725L60.566 56.5397C60.6061 56.6512 60.6373 56.7419 60.6595 56.8118C60.6975 56.9351 60.7204 57.0133 60.728 57.0466L60.7481 57.0424L60.7245 57.1013C60.7197 57.1047 60.6955 57.1186 60.5784 57.1899L60.6248 57.3187L60.6449 57.309C60.7605 57.2612 60.8533 57.2238 60.9226 57.1989L61.0652 57.1504L61.1677 57.093L61.131 56.9912L61.1026 56.9801L61.0832 56.9877C61.0624 56.9946 61.0285 57.0036 60.9807 57.0133L60.9648 57.0334H60.9613L60.9385 57.0016C60.9267 56.9849 60.9018 56.9282 60.8637 56.8333C60.8083 56.6948 60.7578 56.5605 60.7107 56.4303L60.5694 56.1014L60.4773 55.8459C61.1158 56.2981 61.5901 56.6228 61.939 56.8423C62.0048 56.8305 62.0692 56.8194 62.1336 56.8098L62.1592 56.7634C62.1073 56.6491 61.9799 56.3105 61.7798 55.7559C61.7542 55.6839 61.7161 55.5731 61.6655 55.4228ZM61.6572 54.9354C61.6551 54.9366 61.6527 54.9373 61.6503 54.9374C61.6517 54.9368 61.6545 54.9361 61.6565 54.934L61.6572 54.9354ZM61.1718 55.1313L61.1732 55.1369L61.1705 55.132C61.1705 55.132 61.1712 55.1313 61.1718 55.1313ZM61.8241 56.3188C61.7902 56.2987 61.7465 56.2697 61.7078 56.2447C61.7438 56.2634 61.7819 56.2842 61.8165 56.2987L61.8241 56.3188ZM60.01 55.5502L60.0113 55.5558L60.0086 55.5502H60.01ZM61.0922 57.0071H61.0908C61.0901 57.0072 61.0894 57.0074 61.0887 57.0078C61.0894 57.0071 61.0908 57.0071 61.0915 57.0043L61.0922 57.0071ZM60.4649 55.812L60.8139 56.0578C60.7012 55.984 60.5881 55.9108 60.4746 55.8383L60.4649 55.812ZM63.4559 54.7972C63.406 54.728 63.3513 54.6678 63.2911 54.6172C63.2329 54.5674 63.1581 54.5237 63.0709 54.4891C62.9885 54.4559 62.8943 54.4337 62.7994 54.4393C62.6769 54.4427 62.5495 54.4739 62.4214 54.5307C62.2926 54.5881 62.1818 54.6629 62.0918 54.7557C62.0212 54.8284 61.9672 54.9219 61.9291 55.034C61.891 55.1455 61.8771 55.2681 61.8889 55.3976C61.8986 55.5277 61.9381 55.6697 62.0052 55.8199C62.0911 56.0152 62.1977 56.1668 62.3203 56.2686C62.4449 56.3732 62.5806 56.4348 62.7254 56.4507C62.7544 56.4549 62.7828 56.4563 62.8119 56.4563C62.931 56.4563 63.0549 56.4272 63.1817 56.3711C63.3284 56.306 63.4482 56.2195 63.5383 56.1142C63.6033 56.0339 63.6518 55.9397 63.683 55.8338C63.7141 55.7278 63.7245 55.6164 63.7141 55.5014C63.7017 55.3477 63.6594 55.1919 63.5916 55.0389C63.5507 54.9468 63.505 54.8658 63.4559 54.7972ZM62.967 56.2167C62.9374 56.2167 62.9079 56.2132 62.8791 56.2063C62.7925 56.1869 62.699 56.126 62.6021 56.0249C62.5059 55.9217 62.4138 55.7756 62.3314 55.588C62.2739 55.4585 62.2365 55.3311 62.2206 55.2106C62.2053 55.0922 62.2199 54.989 62.2642 54.9066C62.3071 54.8242 62.3785 54.7605 62.4747 54.7183C62.5398 54.6892 62.6007 54.6733 62.654 54.6733C62.67 54.6733 62.6845 54.6761 62.699 54.6774C62.7655 54.6892 62.8327 54.7183 62.8978 54.7654C62.9635 54.8111 63.0286 54.8776 63.0909 54.9606C63.1533 55.0451 63.2094 55.1441 63.2592 55.2563C63.3312 55.4197 63.3748 55.5693 63.3866 55.7002C63.3991 55.8289 63.3825 55.9314 63.3374 56.0076C63.2924 56.0831 63.228 56.1385 63.1456 56.1758C63.0854 56.2028 63.0252 56.2167 62.967 56.2167ZM64.8344 54.6273C64.7977 54.5858 64.7603 54.5539 64.7229 54.5318C64.6855 54.5089 64.6419 54.4944 64.5941 54.4868C64.5463 54.4791 64.4909 54.4812 64.4238 54.493C64.4002 54.4964 64.349 54.5089 64.2708 54.529C64.1939 54.5505 64.133 54.5636 64.0907 54.5733C64.0346 54.5823 63.9889 54.5844 63.9536 54.5782C63.9206 54.5721 63.8899 54.557 63.865 54.5345C63.8366 54.511 63.8103 54.4743 63.784 54.4244C63.7508 54.3545 63.7452 54.2839 63.7674 54.2091C63.7888 54.135 63.8435 54.0768 63.9301 54.0339C63.9883 54.0062 64.0561 53.982 64.115 53.9917C64.1766 53.9944 64.2244 54.0055 64.2534 54.0228C64.2777 54.0581 64.3123 54.1212 64.3871 54.2216L64.4819 54.1516C64.4511 54.0854 64.4225 54.0182 64.3961 53.9501C64.3757 53.8977 64.3579 53.8443 64.3428 53.7902L64.3192 53.7611L64.2631 53.7486C64.2077 53.7486 64.1482 53.7563 64.0873 53.7708C64.009 53.7902 63.9336 53.8172 63.8615 53.8525C63.7914 53.8874 63.726 53.9312 63.667 53.9827C63.609 54.0339 63.5619 54.0963 63.5285 54.1662C63.4959 54.2361 63.4814 54.3192 63.4862 54.4141C63.4918 54.5075 63.5174 54.6024 63.5624 54.6938C63.5943 54.7582 63.6344 54.8163 63.6808 54.8648C63.7279 54.9147 63.7805 54.9507 63.838 54.9728C63.8962 54.9957 63.9619 55.004 64.0333 54.995C64.0797 54.9894 64.1717 54.9721 64.3102 54.9417C64.385 54.9271 64.4411 54.9209 64.5166 54.9216C64.5567 54.9257 64.592 54.941 64.6225 54.9659C64.6544 54.9936 64.6821 55.0303 64.7056 55.0774C64.7333 55.1342 64.7471 55.1916 64.7478 55.2456C64.7485 55.2997 64.7305 55.3509 64.6959 55.3994C64.6613 55.4478 64.6121 55.4873 64.5512 55.5178C64.4916 55.5462 64.43 55.56 64.3296 55.56C64.2528 55.5531 64.1904 55.5316 64.1482 55.5025C64.0977 55.4222 64.0596 55.3537 64.0035 55.2858L63.9086 55.3557C63.9979 55.5406 64.0561 55.6839 64.0983 55.8003C64.1302 55.8017 64.1607 55.803 64.1897 55.803C64.2541 55.803 64.3123 55.7975 64.3649 55.7885C64.4411 55.7747 64.5228 55.747 64.6073 55.7047C64.7236 55.6479 64.815 55.578 64.8801 55.4977C64.9209 55.4464 64.9535 55.3834 64.9798 55.3087C65.0044 55.2372 65.0163 55.162 65.0151 55.0864C65.013 54.9874 64.986 54.8856 64.9348 54.781C64.905 54.7222 64.8718 54.6709 64.8344 54.6273ZM66.5219 54.3311L66.5129 54.3463C66.4637 54.4253 66.4139 54.4897 66.364 54.5374C66.311 54.5865 66.2514 54.6278 66.1868 54.66C66.0877 54.7105 65.9922 54.7362 65.9001 54.7362C65.835 54.7362 65.7595 54.7182 65.6771 54.6828C65.5961 54.6496 65.5151 54.5942 65.4362 54.516C65.3579 54.4391 65.2859 54.3366 65.2215 54.2106C65.117 54.005 65.0817 53.8194 65.1156 53.6588C65.1495 53.4995 65.2444 53.3797 65.396 53.3029C65.4798 53.2599 65.556 53.2378 65.6294 53.2364C65.6944 53.2364 65.7623 53.2509 65.8218 53.2738C65.8537 53.3229 65.8918 53.3908 65.9659 53.4863L66.0545 53.4185C66.0157 53.334 65.9801 53.2481 65.9479 53.1609C65.925 53.1021 65.9105 53.0522 65.9022 53.0107L65.8675 52.9809C65.7491 52.9885 65.6494 53.0037 65.5677 53.0252C65.4867 53.046 65.3988 53.0806 65.3053 53.1277C65.036 53.2641 64.8656 53.4538 64.7991 53.6906C64.7327 53.9281 64.7652 54.176 64.8933 54.4301C64.9688 54.5783 65.065 54.705 65.1779 54.8047C65.2534 54.8726 65.3413 54.928 65.4396 54.9688C65.5359 55.009 65.6404 55.0291 65.7478 55.0291H65.7547C65.8939 55.0263 66.0386 54.9882 66.184 54.9148C66.2851 54.8636 66.3675 54.8096 66.4256 54.7535C66.4845 54.6995 66.544 54.6226 66.6057 54.5125L66.5773 54.3505L66.5219 54.3311ZM67.5421 53.6363C67.5809 53.7478 67.6037 53.826 67.61 53.8856C67.6072 53.8918 67.5913 53.9119 67.5151 53.9569C67.4569 53.9943 67.3911 54.0303 67.3191 54.0649C67.2444 54.1023 67.1786 54.1314 67.1474 54.1626C67.1213 54.1162 67.0966 54.0691 67.0733 54.0213L66.8164 53.5449C66.8559 53.5186 66.9092 53.4895 66.975 53.457C67.047 53.4196 67.1093 53.3954 67.2 53.3857C67.2132 53.3954 67.2395 53.4293 67.3226 53.5519L67.4147 53.4819L67.1253 52.9467L67.0332 53.0166C67.0664 53.0859 67.0865 53.1371 67.0934 53.1876C67.0934 53.1876 67.0851 53.1973 67.0415 53.2195C66.9459 53.2714 66.8912 53.2998 66.876 53.3081C66.8261 53.3324 66.7777 53.3545 66.7562 53.3829L66.6343 53.135C66.5644 52.9965 66.5132 52.8795 66.4682 52.8096C66.5284 52.7736 66.5879 52.7396 66.6475 52.7099C66.7112 52.6787 66.7777 52.651 66.849 52.6268C66.8988 52.6081 66.9182 52.6067 66.9397 52.6171C66.9501 52.6295 66.9743 52.6676 67.0616 52.7909L67.1502 52.7251L67.0089 52.3664L66.9715 52.3408L66.9286 52.3519C66.8524 52.3865 66.8012 52.4094 66.7763 52.4225L66.5734 52.5305C66.4598 52.5887 66.3581 52.6413 66.2653 52.6877L65.8858 52.9024L65.9592 53.0041C66.0548 52.964 66.0915 52.9543 66.1178 52.9591C66.1282 52.9688 66.1524 53.0041 66.2092 53.1122L66.5956 53.8828C66.6267 53.9438 66.6731 54.0455 66.7361 54.1847C66.77 54.2609 66.7936 54.3156 66.806 54.3371C66.7922 54.3731 66.7714 54.4118 66.7417 54.4721L66.7839 54.5566L66.8026 54.5462C67.0096 54.4361 67.1211 54.3779 67.1377 54.3696C67.1987 54.3391 67.3108 54.2858 67.4728 54.2076L67.6397 54.1314C67.72 54.0912 67.7824 54.0566 67.8225 54.0303L67.8357 53.9812C67.7851 53.878 67.7284 53.7457 67.6363 53.5692L67.5421 53.6363ZM67.6266 53.5976L67.621 53.601L67.6252 53.5955C67.6266 53.5969 67.6266 53.5976 67.6266 53.5976ZM67.3323 53.5228H67.3337L67.3323 53.5242V53.5228ZM67.1163 52.9758H67.1142L67.1156 52.9751L67.1163 52.9758ZM69.2875 53.1796L69.2855 53.2011L69.2467 53.1671C69.2287 53.1588 69.1761 53.1263 69.0895 53.0702L68.6567 52.7558C68.6484 52.7489 68.6242 52.7316 68.5847 52.7032C68.548 52.6776 68.5127 52.6499 68.483 52.6513C68.4823 52.6499 68.4809 52.6499 68.4795 52.6485C68.5681 52.5502 68.6201 52.447 68.6367 52.3397C68.6519 52.2324 68.6367 52.1264 68.5903 52.024C68.5515 51.9381 68.4975 51.8723 68.4296 51.8301C68.3708 51.7927 68.3126 51.7788 68.2268 51.7754C68.1631 51.7823 68.0765 51.81 67.965 51.8606C67.9089 51.8855 67.839 51.9208 67.7545 51.9637C67.7047 51.9914 67.6437 52.0205 67.5717 52.053C67.4879 52.0925 67.4215 52.1209 67.3751 52.1403C67.2788 52.1791 67.2214 52.2019 67.1957 52.2372L67.2671 52.348C67.3661 52.312 67.4035 52.3044 67.4332 52.312C67.4409 52.321 67.4637 52.3542 67.5246 52.4837L68.0045 53.5487C68.0308 53.6124 68.0495 53.6608 68.0585 53.7322C68.0523 53.7384 68.0287 53.7564 67.9207 53.8326L67.9782 53.96L67.9983 53.9503C68.0869 53.9025 68.1852 53.8547 68.2925 53.8062C68.4123 53.7515 68.5328 53.6996 68.6644 53.6241L68.5882 53.5064C68.5231 53.5341 68.4795 53.5452 68.4303 53.5473C68.4241 53.5404 68.4102 53.5217 68.3825 53.4683C68.3708 53.4462 68.3258 53.3527 68.2475 53.1872C68.1838 53.0515 68.1243 52.9234 68.0682 52.8015C68.0336 52.7254 67.9657 52.5696 67.866 52.3397C67.821 52.2365 67.794 52.1694 67.7753 52.1638C67.8038 52.1437 67.8342 52.1263 67.866 52.1119C67.9546 52.071 67.9989 52.0614 68.0246 52.0614C68.0723 52.0614 68.1208 52.078 68.1686 52.1105C68.2178 52.1437 68.2586 52.1964 68.2912 52.2677C68.3237 52.3383 68.3389 52.4096 68.3375 52.4789C68.3348 52.5474 68.3195 52.6007 68.2912 52.6388C68.2628 52.6776 68.2067 52.7136 68.1132 52.7697L68.1354 52.832C68.1617 52.8396 68.1928 52.8562 68.2302 52.8805C68.3057 52.931 68.4033 53.0037 68.5231 53.0972L68.9386 53.4261C68.9628 53.4469 68.9808 53.4649 69.0182 53.4863C69.0708 53.458 69.1241 53.4323 69.1788 53.4074C69.2266 53.3859 69.3042 53.3527 69.4226 53.28L69.3471 53.1623C69.3097 53.1782 69.2938 53.1796 69.2875 53.1796ZM69.3949 53.2696L69.3935 53.2675L69.3956 53.2689C69.3956 53.2689 69.3949 53.2689 69.3949 53.2696ZM70.3816 52.417C70.3782 52.4094 70.3768 52.4046 70.374 52.3977L70.2743 52.4558C70.3027 52.5708 70.3186 52.6497 70.3193 52.7092C70.3145 52.7176 70.2951 52.7349 70.2182 52.7736C70.151 52.8063 70.0824 52.8358 70.0126 52.8623C69.9343 52.8927 69.8672 52.9156 69.8325 52.9433C69.8145 52.9031 69.7938 52.8533 69.7723 52.7958L69.5604 52.2986C69.602 52.2758 69.6574 52.2509 69.7259 52.2246C69.8014 52.1955 69.8651 52.1761 69.9572 52.1754C69.9669 52.1837 69.9897 52.2169 70.0631 52.3506L70.1614 52.2903L69.9232 51.7309L69.8249 51.7911C69.8512 51.8645 69.8665 51.9178 69.8685 51.9677C69.8672 51.9691 69.8589 51.9767 69.8138 51.9954L69.64 52.0681C69.5888 52.0875 69.539 52.1055 69.5161 52.1311L69.4157 51.8742C69.3596 51.7288 69.3188 51.6076 69.2807 51.5342C69.3417 51.5034 69.4044 51.4759 69.4683 51.4518C69.5341 51.4262 69.604 51.4047 69.6767 51.3867C69.7204 51.3756 69.7411 51.3729 69.7688 51.3853C69.782 51.4047 69.8076 51.4636 69.8734 51.5702L69.9683 51.5121L69.8602 51.1423L69.8249 51.1139L69.782 51.1201C69.7017 51.1472 69.6497 51.1665 69.6234 51.1762L69.4109 51.2649C69.2938 51.314 69.1858 51.3563 69.0896 51.3937L68.6928 51.5723L68.7558 51.6803C68.8493 51.6512 68.8888 51.6457 68.9185 51.6498C68.9262 51.6595 68.9476 51.6928 68.9954 51.8105L69.3098 52.6144C69.3347 52.6781 69.3721 52.7833 69.4212 52.9281C69.4482 53.007 69.4669 53.0638 69.4773 53.0866C69.4607 53.1185 69.4372 53.1538 69.3998 53.2147L69.4344 53.3026L69.4545 53.2936C69.6705 53.2036 69.7868 53.1552 69.8042 53.1489C69.8679 53.1247 69.9842 53.0804 70.1531 53.0188L70.3262 52.9571C70.4107 52.9246 70.4744 52.8969 70.518 52.8734L70.5347 52.8249C70.4959 52.7245 70.4523 52.5902 70.3816 52.417ZM70.3622 52.4254L70.356 52.4267L70.3616 52.4233C70.3616 52.424 70.3616 52.424 70.3622 52.4254ZM72.6149 52.1311L72.5997 52.1505L72.5685 52.1104C72.5526 52.0993 72.5069 52.0571 72.4314 51.9857C72.4259 51.9802 72.3912 51.9442 72.3268 51.8763L72.0651 51.5973C72.0589 51.589 72.0381 51.5682 72.0042 51.5315C71.973 51.4997 71.9432 51.4685 71.9142 51.4623C71.9135 51.4616 71.9121 51.4609 71.9107 51.4595C72.0153 51.3792 72.0866 51.2864 72.1226 51.1853C72.1572 51.0814 72.162 50.9734 72.135 50.8661C72.1129 50.7733 72.072 50.6999 72.0132 50.6459C71.9543 50.5905 71.8913 50.5601 71.7909 50.5531C71.73 50.5531 71.651 50.5642 71.5513 50.5884C71.4911 50.603 71.4156 50.6238 71.3256 50.6514C71.2723 50.6688 71.2058 50.6875 71.1297 50.7061C71.0396 50.7283 70.9697 50.7442 70.9198 50.7532C70.8181 50.7747 70.7578 50.7872 70.726 50.8169L70.7758 50.9388C70.8395 50.9284 70.8859 50.9229 70.9455 50.9333C70.9517 50.9437 70.9676 50.9817 71.0029 51.1195L71.2778 52.2551C71.2917 52.3223 71.3007 52.3749 71.2958 52.4462C71.2847 52.4545 71.2377 52.4704 71.1421 52.5189L71.1753 52.6553L71.1961 52.6477C71.2924 52.6186 71.3976 52.5888 71.5119 52.5618C71.64 52.53 71.7681 52.5016 71.9121 52.4517L71.8588 52.3216C71.7902 52.3368 71.748 52.3451 71.696 52.3319C71.6905 52.325 71.6801 52.3049 71.6635 52.2461C71.6566 52.2225 71.6289 52.1221 71.5832 51.9456C71.5451 51.8002 71.5105 51.6631 71.4786 51.5322C71.4585 51.4505 71.4205 51.2864 71.3651 51.0406C71.3408 50.9312 71.3256 50.8613 71.3083 50.8516C71.3401 50.8377 71.3734 50.8266 71.4073 50.8176C71.4682 50.8017 71.5105 50.7975 71.5686 50.7975C71.6171 50.8045 71.6628 50.8308 71.7051 50.8716C71.7473 50.9139 71.7784 50.9727 71.7971 51.0489C71.8151 51.1264 71.8172 51.1971 71.8027 51.2642C71.7881 51.3314 71.7625 51.382 71.7279 51.4138C71.6912 51.4477 71.6303 51.4727 71.5292 51.51L71.5382 51.5758C71.5638 51.5883 71.5929 51.6104 71.6227 51.6409C71.6877 51.7039 71.7701 51.7926 71.8698 51.9082L72.2174 52.3084C72.2417 52.3382 72.2534 52.359 72.2846 52.3818C72.3421 52.3645 72.3995 52.3486 72.4577 52.3347C72.5089 52.3216 72.5913 52.3036 72.7201 52.2544L72.6675 52.1242C72.6398 52.1305 72.6239 52.1311 72.6149 52.1311ZM71.8858 52.4365L71.8851 52.4323L71.8872 52.4365H71.8858ZM73.869 51.6606C73.8683 51.6523 73.8676 51.6475 73.8669 51.6399L73.7561 51.6724C73.7547 51.7901 73.7513 51.8711 73.7374 51.9293C73.7319 51.9335 73.7111 51.9466 73.6239 51.966C73.5567 51.9805 73.4819 51.9916 73.4023 52.0013C73.3192 52.0117 73.2479 52.0166 73.2084 52.0352C73.1993 51.9826 73.1914 51.9297 73.1849 51.8767L73.1025 51.3442C73.1489 51.3317 73.2084 51.3221 73.2811 51.3124C73.3421 51.3054 73.394 51.3027 73.439 51.3027L73.5179 51.3214C73.5249 51.3317 73.5394 51.3691 73.5775 51.518L73.6876 51.4834L73.5941 50.8824L73.484 50.9163C73.4916 50.9932 73.493 51.0486 73.4826 51.0984C73.4812 51.0991 73.4709 51.1053 73.4231 51.1116C73.3164 51.1275 73.2548 51.1372 73.2375 51.1393C73.1828 51.1462 73.1295 51.1496 73.1004 51.1704L73.0679 50.8962C73.0485 50.7418 73.0381 50.6144 73.0201 50.5334C73.0886 50.5189 73.1551 50.5078 73.2223 50.4995C73.2867 50.4918 73.3469 50.4856 73.4397 50.4877C73.5069 50.4891 73.52 50.4953 73.529 50.5092C73.5346 50.5244 73.5449 50.5694 73.5851 50.7155L73.691 50.683L73.6779 50.2966L73.6537 50.2647L73.61 50.255L73.6073 50.2557C73.5235 50.2627 73.4681 50.2675 73.4404 50.271L73.2126 50.3049C73.0866 50.3229 72.9723 50.3381 72.8691 50.3499L72.4405 50.4261L72.4752 50.5465C72.5749 50.5403 72.6185 50.5431 72.64 50.5576C72.6469 50.5701 72.6586 50.6116 72.6753 50.7321L72.7819 51.5873C72.7902 51.6558 72.8006 51.7659 72.8131 51.9196C72.82 52.002 72.8234 52.0623 72.8283 52.0858C72.8041 52.1142 72.7722 52.144 72.7224 52.1917L72.7334 52.2845L72.8504 52.2679C73.0208 52.2423 73.115 52.2298 73.1295 52.227C73.1973 52.2201 73.3206 52.2063 73.4992 52.1876L73.6827 52.1703C73.7727 52.1599 73.842 52.1474 73.8891 52.1363L73.9175 52.0941C73.9043 51.9854 73.8946 51.8462 73.869 51.6627V51.6606ZM73.8482 51.6634L73.842 51.6641L73.8482 51.6613V51.6634ZM75.4681 51.9593C75.455 51.9441 75.4217 51.8907 75.3677 51.8028L75.115 51.332C75.1102 51.323 75.0963 51.2966 75.0728 51.2544C75.0513 51.2142 75.0312 51.1769 75.0042 51.1623C75.0028 51.1616 75.0021 51.1602 75.0014 51.1589C75.124 51.1083 75.2168 51.0377 75.277 50.9484C75.338 50.8583 75.3705 50.7566 75.3719 50.6444C75.3747 50.5495 75.3546 50.4678 75.3123 50.4C75.2694 50.3314 75.2161 50.2864 75.1538 50.2622C75.0915 50.2407 75.0001 50.2275 74.8803 50.2255L74.811 50.2248C74.7559 50.2248 74.7007 50.2257 74.6455 50.2276C74.6137 50.2289 74.5777 50.2296 74.5382 50.2296L74.4427 50.2289C74.3632 50.2273 74.2838 50.2243 74.2045 50.2199C74.1138 50.213 74.0604 50.2102 74.0238 50.231L74.0404 50.3619C74.1615 50.375 74.1913 50.3854 74.2052 50.4013C74.21 50.4145 74.2149 50.4595 74.2135 50.5959L74.1837 51.7633C74.1795 51.8326 74.1747 51.8845 74.1512 51.9531C74.1463 51.9544 74.12 51.96 73.9843 51.9828L74.003 52.1213C74.0653 52.1192 74.1304 52.1185 74.1982 52.1185L74.3305 52.1192C74.4627 52.1241 74.5936 52.1289 74.7446 52.1179L74.7272 51.9787C74.6975 51.9766 74.6178 51.9731 74.5673 51.9468C74.5645 51.9378 74.5604 51.9157 74.5583 51.8554C74.5576 51.8305 74.5576 51.7273 74.559 51.5431C74.5604 51.3936 74.5625 51.2516 74.5652 51.118C74.5666 51.0335 74.5735 50.8653 74.5832 50.6132C74.5881 50.5017 74.5915 50.4297 74.5777 50.4173C74.6088 50.411 74.6338 50.4097 74.6815 50.4083C74.7612 50.4103 74.8152 50.418 74.8436 50.4304C74.8879 50.4512 74.9253 50.4879 74.9551 50.5391C74.9848 50.5904 74.9994 50.6562 74.9973 50.7344C74.9959 50.8106 74.9793 50.8819 74.9467 50.9442C74.9163 51.0044 74.8782 51.0467 74.836 51.0688C74.802 51.0868 74.7522 51.0958 74.6899 51.0958L74.6199 51.109L74.6123 51.1755C74.6324 51.1942 74.6545 51.2219 74.676 51.2593C74.7224 51.3375 74.7792 51.4448 74.8457 51.5812L75.0776 52.0576C75.0901 52.0874 75.0991 52.1123 75.1233 52.1469L75.2369 52.1455L75.3033 52.1462C75.3546 52.1469 75.4391 52.1504 75.5554 52.1566L75.5768 52.1587V52.1365L75.5602 51.9974C75.5166 51.9953 75.5014 51.9891 75.4681 51.9593ZM74.7238 52.0964L74.7245 52.0929L74.7252 52.0964H74.7238ZM77.0091 51.7284L77.0777 51.4216C77.0984 51.3316 77.1282 51.2084 77.1684 51.054C77.2182 50.8622 77.2362 50.8088 77.2425 50.7978L77.2238 50.7874L77.2868 50.7694C77.3089 50.7694 77.3415 50.7735 77.4093 50.7659L77.4169 50.6337L77.1386 50.5803C77.1137 50.5755 77.0354 50.554 76.8782 50.5339L76.8692 50.6676C76.9696 50.6932 77.0029 50.7133 77.025 50.7486C77.0278 50.7631 77.0237 50.8102 76.9966 50.9432C76.9863 50.9944 76.9551 51.1336 76.9039 51.3628L76.8436 51.6294C76.8028 51.8108 76.7626 51.9326 76.7231 51.9894C76.6858 52.0467 76.6309 52.0905 76.5667 52.114C76.5002 52.1404 76.4171 52.1417 76.3195 52.1203C76.2322 52.1002 76.1664 52.0704 76.1187 52.0289C76.0702 51.988 76.0383 51.9409 76.0231 51.8883C76.0065 51.8357 76.0044 51.7678 76.0155 51.6882C76.0203 51.6501 76.0411 51.5525 76.0771 51.3939L76.1782 50.939C76.2184 50.7569 76.2502 50.6406 76.2724 50.5893L76.3292 50.5547C76.3555 50.5547 76.3915 50.5603 76.4635 50.554L76.4877 50.446L76.4503 50.4176L75.7461 50.2805L75.7351 50.4121L75.8819 50.4869C75.8846 50.4986 75.8846 50.5222 75.877 50.5665C75.8597 50.6641 75.8368 50.7735 75.8092 50.8961L75.6776 51.477C75.6464 51.6155 75.6291 51.7014 75.6257 51.7332C75.6194 51.7872 75.6222 51.8447 75.634 51.9063C75.6457 51.9686 75.6707 52.0289 75.7074 52.0843C75.7441 52.141 75.7967 52.1916 75.8639 52.2352C75.9546 52.2934 76.0591 52.3363 76.1734 52.3619C76.2447 52.3785 76.3132 52.3855 76.3769 52.3855C76.4772 52.387 76.5762 52.3627 76.6643 52.3148C76.7308 52.2775 76.7868 52.2304 76.8298 52.1757C76.8734 52.1237 76.9101 52.0538 76.9392 51.9693C76.9683 51.8876 76.9918 51.8066 77.0091 51.7284ZM76.8942 50.5589L76.8928 50.563V50.5589H76.8942ZM76.4469 50.4384L76.4358 50.4356L76.4469 50.437V50.4384ZM79.3052 51.4826C79.281 51.4715 79.2256 51.4411 79.1134 51.3975C79.0615 51.4529 79.0165 51.4979 78.9798 51.5332C78.9424 51.5692 78.8427 51.6613 78.6793 51.8129L78.385 52.0836C78.3269 52.1383 78.2472 52.2159 78.1641 52.3101C78.1399 52.3315 78.1171 52.3523 78.0894 52.3752L78.1586 50.9315C78.0861 50.9033 78.0145 50.8728 77.9439 50.8401C77.8906 50.8144 77.7944 50.766 77.6282 50.703L77.5887 50.8331C77.6234 50.8518 77.6614 50.8761 77.7009 50.9058L77.7141 50.8878L77.7196 50.9467C77.7175 50.964 77.6988 51.0173 77.6282 51.1731C77.5714 51.3005 77.5036 51.4445 77.4267 51.6086C77.3402 51.7914 77.2785 51.9195 77.2411 51.9943C77.165 52.146 77.1137 52.2436 77.0874 52.2865C77.075 52.3087 77.066 52.317 77.0438 52.3246C77.039 52.3246 77.0113 52.3218 76.8783 52.2914L76.8416 52.4229C76.9053 52.4458 76.9891 52.4832 77.0937 52.5316C77.1733 52.5697 77.2495 52.6092 77.3526 52.641L77.3921 52.5109C77.3076 52.4638 77.2848 52.4458 77.2792 52.4396L77.2425 52.4195L77.2681 52.38C77.2744 52.3606 77.3076 52.2831 77.3692 52.1467C77.4222 52.0278 77.4767 51.9096 77.5326 51.7921L77.658 51.4764L77.7702 51.2396L77.7369 51.9652C77.7307 52.0836 77.7196 52.2623 77.7037 52.5005C77.6947 52.6404 77.6871 52.7498 77.6919 52.8495L77.7854 52.8792C77.829 52.8356 77.8886 52.7795 77.9613 52.7096C78.0831 52.5947 78.1773 52.5081 78.2417 52.4486L78.6502 52.0463L78.9396 51.7859L78.545 52.6203C78.4667 52.7885 78.4162 52.8875 78.3982 52.9139C78.3767 52.945 78.3629 52.9499 78.358 52.9506C78.349 52.9506 78.3185 52.9436 78.1904 52.9111L78.1517 53.042L78.8192 53.3577L78.869 53.2081C78.842 53.1922 78.7596 53.1472 78.7402 53.0967C78.7472 53.0717 78.7714 53.008 78.8136 52.9042C78.8212 52.8869 78.8496 52.8259 78.8974 52.7234L79.3357 51.8101C79.3662 51.7457 79.3904 51.725 79.4236 51.716C79.4486 51.716 79.4867 51.7291 79.5365 51.7534L79.5697 51.7693L79.6168 51.6197L79.3052 51.4826ZM79.5884 51.6301L79.5808 51.626L79.5898 51.6294L79.5884 51.6301ZM78.0672 52.3945L78.1108 51.5318L78.0824 52.3821C78.0769 52.3869 78.0734 52.3904 78.0672 52.3945ZM77.6386 50.7314L77.6372 50.7341L77.6379 50.7307C77.6379 50.7307 77.6379 50.7314 77.6386 50.7314ZM76.8679 52.4112C76.87 52.4119 76.8721 52.4132 76.8742 52.4132C76.8728 52.4132 76.8693 52.4112 76.8679 52.4112ZM77.3429 52.6127L77.345 52.6078L77.3443 52.6133C77.3436 52.6127 77.3429 52.6127 77.3429 52.6127ZM77.7937 51.1897L77.7764 51.5595L77.775 51.2299L77.7937 51.1897ZM78.9798 51.7499L78.7832 52.166L78.9466 51.7797L78.9798 51.7499ZM78.1801 53.0309L78.1884 53.035L78.1794 53.0316L78.1801 53.0309Z" fill="white"/>
</svg>
