<svg width="113" height="80" viewBox="0 0 113 80" fill="none" xmlns="http://www.w3.org/2000/svg">
<g clip-path="url(#clip0_419_2215)">
<path fill-rule="evenodd" clip-rule="evenodd" d="M22 5H91V74H22V5Z" fill="black"/>
<path fill-rule="evenodd" clip-rule="evenodd" d="M42.2966 68.2513C41.5101 68.6443 40.8221 68.7918 39.9376 68.7918C37.5786 68.7918 35.9563 67.2683 35.9563 65.1058C35.9563 63.7789 36.6937 62.5496 37.8728 61.9106C38.5118 61.5666 39.2492 61.3701 40.0847 61.3701C40.7727 61.3701 41.2642 61.4686 41.9526 61.7141L42.346 61.9106V63.4341C41.7561 63.0411 40.9206 62.7959 40.1832 62.7959C38.7581 62.7959 37.7261 63.7789 37.7261 65.1058C37.7261 66.3831 38.7091 67.366 40.1345 67.366C40.8225 67.366 41.6089 67.1198 42.1989 66.7278L42.2973 66.678V68.2513H42.2966ZM46.5231 68.3494V66.8259C46.8671 67.0721 47.1127 67.1699 47.4076 67.2683C47.8991 67.4648 48.1941 67.4648 48.6365 67.366C48.8824 67.317 49.2261 67.1198 49.2261 66.7768C49.2261 66.0888 48.5871 65.9413 47.7026 65.4499C46.9655 65.0561 46.5721 64.3194 46.5721 63.6314C46.5721 62.5994 47.1127 61.4689 49.1276 61.4689C49.6195 61.4689 50.16 61.6164 50.6515 61.8129V63.1889C50.0125 62.894 49.6191 62.7959 49.0786 62.7959C48.5871 62.7959 48.2925 63.1399 48.2925 63.3851C48.2431 63.6314 48.2925 63.975 48.833 64.2704L49.521 64.6634C50.4056 65.1549 50.9465 65.6464 50.9465 66.6293C50.9465 67.8088 49.9631 68.7918 48.5381 68.7918C47.4076 68.7918 46.8671 68.5459 46.5231 68.3494ZM55.4679 61.4689H57.1883V68.6934H55.4679V61.4689ZM67.4601 68.5953L67.3126 68.1528L67.0664 67.7104L66.9189 67.2687L66.6239 66.6787C66.4281 66.2857 66.1331 65.6467 65.6417 65.3518C65.8872 65.254 66.0347 65.1552 66.2309 64.9587C66.6239 64.6147 66.8208 64.0742 66.8208 63.5333C66.8208 62.8943 66.4768 62.2063 65.9356 61.8623C65.4938 61.5674 65.1498 61.4693 64.1178 61.4693H61.5129V68.6937H63.2329V65.7448H63.4792C63.7734 65.7448 63.8232 65.7448 63.9707 65.7946C64.3147 65.8923 64.6089 66.2861 64.9039 66.925L65.1502 67.5142L65.3467 68.0057L65.4942 68.3007L65.5919 68.5956L65.6417 68.6934H67.5092L67.4601 68.5953ZM64.2649 64.4669L64.0684 64.5159H63.2329V62.7472H64.1182C64.6587 62.7472 65.0514 63.0912 65.0514 63.6317C65.0517 64.0738 64.7077 64.4669 64.2649 64.4669ZM77.3876 65.1058C77.3876 63.0411 75.7166 61.4192 73.5541 61.3701C71.3917 61.4192 69.7207 63.0411 69.7207 65.1058C69.7207 67.1699 71.3917 68.7421 73.5051 68.7918H73.5541C75.7166 68.7918 77.3876 67.1699 77.3876 65.1058ZM73.5541 67.3664C72.3746 67.3664 71.4414 66.3344 71.4414 65.1549C71.4414 63.9263 72.3746 62.894 73.5541 62.894C74.6846 62.894 75.6676 63.9267 75.6676 65.1549C75.6676 66.3344 74.6846 67.3664 73.5541 67.3664Z" fill="white"/>
<path fill-rule="evenodd" clip-rule="evenodd" d="M69.7206 14.0909V31.784C69.7697 31.9315 69.8191 32.0296 69.8681 32.1771C70.2619 33.406 70.4086 34.1921 69.9666 35.175C69.9168 35.3225 69.8191 35.47 69.7203 35.6665V55.0793C76.454 50.7054 80.8766 43.1859 80.8766 34.5855C80.8766 25.985 76.454 18.4158 69.7206 14.0909ZM47.0145 40.3849C46.2281 40.3351 46.2281 39.6968 46.2281 39.3528V30.3096C46.2281 30.3096 46.13 29.425 47.1624 27.9012C47.211 27.7537 47.4079 27.4591 47.6045 27.1638V11.8793C46.3756 12.3705 45.1961 12.9604 44.0656 13.5994V29.769C44.2625 29.6706 44.4096 29.6216 44.6061 29.6216C45.1961 29.6216 45.3926 29.6216 45.4413 30.2111V40.925C45.3432 41.269 44.9992 41.4656 44.1143 40.6795L44.0652 55.5218C45.1957 56.2098 46.3752 56.7997 47.6041 57.2418V40.3849C47.4106 40.4335 47.208 40.4335 47.0145 40.3849ZM59.6947 39.4506C59.4485 39.156 59.1048 38.9594 59.1048 37.7799V26.4761C59.1048 26.2302 59.0071 25.8371 59.5963 25.7387L60.3827 25.6893V10.5033C59.2302 10.3056 58.0627 10.2069 56.8933 10.2084V23.6256C56.9423 23.6747 56.9423 23.7237 56.9423 23.8222C57.0408 24.6573 57.8763 25.1491 57.9253 25.2476C58.1218 25.4437 58.2693 25.5912 58.3191 26.034V38.8614C58.2693 39.2548 58.0728 39.5003 57.6304 39.1563C57.4836 39.0582 57.1886 38.8123 56.8933 38.5668V58.9633C58.0728 58.9135 59.2523 58.8158 60.3827 58.6683V40.2868C60.0387 39.8934 59.7434 39.5494 59.6947 39.4506ZM42.3946 34.5361C41.5097 33.5531 42.1487 31.7346 42.5421 31.2922C42.6892 31.1447 42.9352 30.8501 43.3286 30.4567V14.0905C36.5952 18.4154 32.1228 25.9843 32.1228 34.5851C32.1228 43.1859 36.5956 50.7054 43.3286 55.079V36.207C43.132 35.6175 42.7877 35.0766 42.3946 34.5361ZM51.536 38.517C51.1426 38.6151 50.6021 38.8116 50.504 38.1236V36.7966V25.0507C50.504 24.6082 51.0939 24.4114 51.4869 24.6569C51.5854 24.7063 51.7329 24.7063 51.8803 24.6079V10.6505C50.6518 10.8473 49.5214 11.1913 48.3909 11.5844V25.9352C48.5384 25.6893 48.7349 25.4434 48.833 25.3457C49.177 25.0507 49.7179 24.4608 49.7179 26.1317V37.5831C49.7179 38.3201 49.9144 39.3031 49.128 39.6965C48.8333 39.893 48.5874 40.0405 48.3909 40.1389V57.5368C49.5214 57.9792 50.6518 58.2745 51.8803 58.5198V38.3699C51.7325 38.4186 51.6344 38.468 51.536 38.517ZM55.3204 37.2885C55.0254 37.0425 54.7799 36.797 54.7799 35.5681V24.0187C54.7799 23.3303 55.0748 22.8882 55.3698 22.6423C55.566 22.5442 55.8613 22.2489 56.1068 22.1018V10.208C54.9274 10.208 53.7969 10.3064 52.6664 10.503V23.7728C52.9614 23.3303 53.4039 22.7898 53.6 22.7407C53.8459 22.6917 54.0425 22.6917 54.0425 23.5272V36.6985C54.0425 37.2885 53.9934 37.3865 53.3545 37.6811C53.1576 37.8286 52.912 37.9271 52.6664 38.0746V58.6672C53.7969 58.8147 54.927 58.9128 56.1068 58.9622V37.9271C55.7628 37.6325 55.4679 37.3865 55.3204 37.2885ZM68.3446 29.5231C68.3446 29.5231 68.6396 29.9165 68.9338 30.3586V13.5994C67.8528 12.9114 66.6736 12.3705 65.4451 11.8793V26.9672C65.8868 27.3603 66.2806 27.7043 66.4281 27.8518C66.8698 28.0973 66.8698 29.0313 66.8698 29.5718V39.1556C66.8698 39.9417 66.9675 41.0235 66.1327 41.7115C65.9853 41.859 65.739 42.0064 65.4447 42.0555V43.3825H65.4938C65.7887 43.284 66.3293 43.235 66.3293 43.7755C66.2802 44.1202 66.0343 45.5449 65.5915 45.8403C65.5425 45.8893 65.4938 45.8893 65.4447 45.938V57.2916C66.6497 56.8076 67.816 56.2324 68.9335 55.5708V37.3865C68.7369 37.9271 68.5895 38.3699 68.5895 38.6154C68.5404 39.2544 68.4427 39.5984 68.1964 40.3849C67.9015 41.1713 67.6559 40.6798 67.6559 40.2374V29.6216C67.6566 28.6382 68.3446 29.5231 68.3446 29.5231ZM64.5112 45.8403C64.2162 45.6928 64.0687 45.6437 63.9706 45.0538C63.9209 44.5133 63.8232 44.2674 63.6259 43.9728C63.3317 43.4315 63.7734 42.94 64.4124 43.284C64.5108 43.3338 64.5598 43.3825 64.6586 43.3825V42.252C63.9706 42.252 63.3807 42.0064 63.3807 41.269V25.6403C63.3807 25.1488 63.6263 25.051 63.9212 25.4437C64.0687 25.5912 64.315 25.8862 64.659 26.2302V11.5844C63.5285 11.191 62.349 10.847 61.1696 10.6505V21.4632C61.317 21.9052 61.5136 22.2987 61.8085 22.6427C62.644 23.5275 62.5943 24.3136 62.5943 25.5425V41.4169C62.5943 41.7118 62.5452 42.6948 61.661 41.8593C61.661 41.8593 61.4645 41.613 61.1696 41.2694V58.5201C62.349 58.2745 63.5285 57.9796 64.659 57.5371V45.9383C64.6089 45.8893 64.5602 45.8893 64.5112 45.8403Z" fill="white"/>
</g>
<defs>
<clipPath id="clip0_419_2215">
<rect width="69" height="69" fill="white" transform="translate(22 5)"/>
</clipPath>
</defs>
</svg>
