<svg width="287" height="243" viewBox="0 0 287 243" fill="none" xmlns="http://www.w3.org/2000/svg">
<path d="M94.8623 91.5114L119.506 49H168.193M94.8623 91.5114H143.249M94.8623 91.5114L106.884 111.57M168.193 49L194.039 91.5114L182.081 110.073M168.193 49L143.249 91.5114M168.193 131.628L143.249 91.5114M168.193 131.628H143.249M168.193 131.628L182.081 110.073M106.884 111.57H131.227M106.884 111.57H83.7424L60 151.087M131.227 111.57L143.249 131.628M131.227 111.57L106.884 151.985M143.249 131.628L131.828 151.985M60 151.087L106.884 151.985M60 151.087L84.3435 192.102L131.828 193M106.884 151.985L131.828 193M131.828 193L143.249 171.744M143.249 171.744L131.828 151.985M143.249 171.744L154.97 191.204H203.657M131.828 151.985H179.614M179.614 151.985L203.657 110.372M179.614 151.985L203.657 191.204M203.657 110.372L182.081 110.073M203.657 110.372L228 151.985L203.657 191.204" stroke="#595959"/>
</svg>
