<svg width="287" height="243" viewBox="0 0 287 243" fill="none" xmlns="http://www.w3.org/2000/svg">
<path d="M134.751 201.042V191.443L143.591 186.312L152.267 191.443V202.15M152.267 202.15L144.082 207L126.567 196.642M152.267 202.15L160.288 197.396M126.567 196.642L127.058 177.21L143.591 167.445L160.288 177.21V197.396M126.567 196.642L118.546 191.899M160.288 197.396L168.472 192.546M118.546 191.899L119.037 163.142L143.591 148.578L168.472 163.142V192.546M118.546 191.899L110.852 187.349M168.472 192.546L177.148 187.405M177.148 187.405L176.493 148.578L143.591 129.711L110.852 148.578V187.349M177.148 187.405L184.514 183.04M110.852 187.349L102.34 182.315M102.34 182.315V134.676L143.591 110.513L184.514 135.173V183.04M102.34 182.315L94.319 177.572M184.514 183.04L193.026 177.995M94.319 177.572L95.1375 120.609L143.591 92.4737L193.026 120.609V177.995M94.319 177.572L86.3406 172.854M193.026 177.995L201.702 172.854M201.702 172.854L200.72 106.045L143.591 73.4412L86.7891 106.045L86.3406 172.854M201.702 172.854L208.741 168.683M86.3406 172.854L78.277 168.086M78.277 168.086L66 160.825V76.8358L144.082 36L222 76.8358V160.825L208.741 168.683M78.277 168.086V92.4737L143.591 54.4087L208.741 92.4737V168.683" stroke="#595959"/>
</svg>
