<svg width="273" height="225" viewBox="0 0 273 225" fill="none" xmlns="http://www.w3.org/2000/svg">
<path opacity="0.8" d="M0 196.743H273M0 206.327H25.7718M273 206.327H245.286M25.7718 206.327V224.458H0H27.5849M25.7718 206.327H27.5849M273 224.458H245.286M58.4075 224.458V206.327M58.4075 224.458H27.5849M58.4075 224.458H60.3501M58.4075 206.327H27.5849M58.4075 206.327H60.3501M92.0792 206.327V224.458M92.0792 206.327H60.3501M92.0792 206.327H93.5038M92.0792 224.458H60.3501M92.0792 224.458H93.5038M127.694 224.458V206.327M127.694 224.458H93.5038M127.694 224.458H129.248M127.694 206.327H93.5038M127.694 206.327H129.248M158.387 206.327V224.458M158.387 206.327H129.248M158.387 206.327H160.329M158.387 224.458H129.248M158.387 224.458H160.329M187.137 224.458V206.327M187.137 224.458H160.329M187.137 224.458H188.691M187.137 206.327H160.329M187.137 206.327H188.691M214.981 206.327V224.458M214.981 206.327H188.691M214.981 206.327H216.147M214.981 224.458H188.691M214.981 224.458H216.147M243.991 206.327V224.458M243.991 206.327H216.147M243.991 206.327H245.286M243.991 224.458H216.147M243.991 224.458H245.286M27.5849 206.327V224.458M60.3501 206.327V224.458M93.5038 206.327V224.458M129.248 206.327V224.458M160.329 206.327V224.458M188.691 206.327V224.458M216.147 206.327V224.458M245.286 206.327V224.458" stroke="url(#paint0_linear_2421_1947)" stroke-width="0.5"/>
<g opacity="0.5">
<path d="M45.379 196.743L49.4175 113.955M45.379 196.743H37.4856L43.1762 115.974L48.3161 114.333M45.379 196.743H52.3545L55.2916 115.974L50.5189 114.333M49.4175 113.955L48.3161 114.333M49.4175 113.955L50.5189 114.333M48.3161 114.333L49.0503 105.327H50.06M50.5189 114.333L51.0696 105.327H50.06M50.06 105.327L50.1517 100.921H49.0503M49.0503 100.921H51.6203V95.7816L49.0503 95.598V100.921ZM69.4263 107.346L25.9209 86.6033L33.08 36.6731L19.4961 131.394M69.4263 107.346L71.9962 81.8305M69.4263 107.346L67.107 127.722L66.8563 129.925" stroke="white" stroke-width="0.5"/>
<path d="M65.3867 126.988H69.0581" stroke="white" stroke-width="0.5"/>
<path d="M65.7539 121.848H69.4252" stroke="white" stroke-width="0.5"/>
<path d="M18.3906 126.988H22.062" stroke="white" stroke-width="0.5"/>
<path d="M19.4961 121.113H23.1674" stroke="white" stroke-width="0.5"/>
<path d="M20.2266 115.606H23.8979" stroke="white" stroke-width="0.5"/>
<path d="M21.3281 108.998H24.9995" stroke="white" stroke-width="0.5"/>
<path d="M22.0586 100.554H25.7299" stroke="white" stroke-width="0.5"/>
<path d="M23.1602 92.11H26.8315" stroke="white" stroke-width="0.5"/>
<path d="M25.0039 78.5259H28.6752" stroke="white" stroke-width="0.5"/>
<path d="M26.832 64.942H30.5034" stroke="white" stroke-width="0.5"/>
<path d="M28.6719 51.3578H32.3432" stroke="white" stroke-width="0.5"/>
<path d="M66.4922 116.708H70.1635" stroke="white" stroke-width="0.5"/>
<path d="M67.2227 110.466H70.894" stroke="white" stroke-width="0.5"/>
<path d="M68.1406 102.39H71.812" stroke="white" stroke-width="0.5"/>
<path d="M68.6953 96.1491H72.3666" stroke="white" stroke-width="0.5"/>
<path d="M69.4258 90.2746H73.0971" stroke="white" stroke-width="0.5"/>
</g>
<path d="M74.5834 94.3867C74.6389 94.3924 74.7263 94.4159 74.8507 94.4704C75.0982 94.579 75.4369 94.7846 75.8609 95.0867C76.7056 95.6884 77.8483 96.6446 79.2105 97.8869C81.9332 100.37 85.5118 103.975 89.2994 108.113C93.0871 112.251 96.3628 116.134 98.596 119.065C99.7132 120.532 100.565 121.754 101.09 122.649C101.353 123.098 101.528 123.453 101.615 123.709C101.658 123.838 101.674 123.927 101.674 123.983L101.674 123.985L101.672 123.985C101.617 123.979 101.529 123.956 101.405 123.901C101.157 123.793 100.819 123.587 100.395 123.285C99.55 122.683 98.4072 121.727 97.0451 120.485C94.3223 118.002 90.7438 114.396 86.9561 110.258C83.1685 106.12 79.8927 102.238 77.6596 99.3065C76.5424 97.8401 75.6906 96.6175 75.1658 95.723C74.9023 95.2739 74.7274 94.9184 74.641 94.6623C74.5977 94.5337 74.5821 94.4445 74.5813 94.3887L74.5807 94.3866L74.5834 94.3867Z" stroke="#595959" stroke-width="0.5"/>
<path d="M47.6327 54.0958C47.6951 54.0389 47.8269 53.9903 48.1 54.0335C48.3685 54.0761 48.7243 54.2009 49.1689 54.4174C50.0557 54.8493 51.2409 55.6184 52.6933 56.7014C55.5951 58.865 59.527 62.2521 64.2134 66.6082C73.5846 75.3189 85.9537 87.8873 99.0988 102.248C112.244 116.609 123.672 130.038 131.522 140.142C135.448 145.194 138.475 149.409 140.374 152.491C141.324 154.033 141.986 155.281 142.338 156.203C142.515 156.665 142.607 157.03 142.626 157.301C142.645 157.577 142.585 157.704 142.523 157.761C142.461 157.818 142.329 157.868 142.055 157.824C141.786 157.782 141.431 157.657 140.986 157.44C140.099 157.009 138.914 156.239 137.461 155.156C134.56 152.993 130.628 149.606 125.941 145.25C116.57 136.539 104.201 123.971 91.0561 109.61C77.911 95.2491 66.4829 81.8194 58.6328 71.7163C54.7072 66.6639 51.6801 62.4485 49.781 59.3672C48.8303 57.8249 48.1688 56.5764 47.8168 55.655C47.6403 55.1931 47.5474 54.8277 47.5287 54.5564C47.5097 54.28 47.5705 54.1528 47.6327 54.0958Z" stroke="#595959" stroke-width="0.5"/>
<path d="M76.6445 27.4174C76.7068 27.3605 76.8386 27.3119 77.1117 27.3551C77.3802 27.3977 77.7361 27.5224 78.1806 27.739C79.0674 28.1709 80.2526 28.94 81.7051 30.023C84.6068 32.1866 88.5387 35.5737 93.2251 39.9298C102.596 48.6405 114.965 61.2089 128.11 75.5696C141.256 89.9303 152.684 103.36 160.534 113.463C164.459 118.515 167.486 122.731 169.386 125.812C170.336 127.355 170.998 128.603 171.35 129.524C171.526 129.986 171.619 130.352 171.638 130.623C171.657 130.899 171.597 131.026 171.535 131.083C171.472 131.14 171.34 131.189 171.067 131.146C170.798 131.103 170.442 130.979 169.998 130.762C169.111 130.33 167.926 129.561 166.473 128.478C163.571 126.314 159.639 122.927 154.953 118.571C145.582 109.861 133.213 97.2921 120.068 82.9315C106.923 68.5707 95.4946 55.141 87.6446 45.0379C83.7189 39.9855 80.6918 35.7701 78.7927 32.6888C77.8421 31.1465 77.1805 29.898 76.8285 28.9766C76.652 28.5147 76.5592 28.1493 76.5405 27.878C76.5215 27.6016 76.5822 27.4744 76.6445 27.4174Z" stroke="#595959" stroke-width="0.5"/>
<path d="M99.3418 20.1865C99.695 19.8632 100.308 19.7569 101.245 19.9589C102.172 20.1588 103.351 20.6473 104.756 21.4129C107.564 22.9423 111.22 25.5462 115.475 29.0254C123.983 35.9814 134.855 46.4098 146.071 58.6626C157.286 70.9154 166.716 82.6655 172.894 91.7542C175.984 96.2998 178.255 100.171 179.53 103.102C180.169 104.569 180.552 105.787 180.669 106.728C180.788 107.679 180.628 108.281 180.275 108.604C179.922 108.928 179.308 109.033 178.371 108.831C177.444 108.631 176.265 108.142 174.86 107.377C172.053 105.847 168.398 103.244 164.142 99.7649C155.634 92.8089 144.762 82.3799 133.546 70.127C122.331 57.8743 112.902 46.1248 106.724 37.0361C103.633 32.4902 101.362 28.6189 100.086 25.6876C99.4478 24.2205 99.0645 23.0032 98.9471 22.0623C98.8286 21.1114 98.9887 20.5099 99.3418 20.1865Z" stroke="#595959" stroke-width="0.5"/>
<path d="M115.193 9.0747C115.75 8.56461 116.556 8.31476 117.616 8.34198C118.678 8.36932 119.973 8.67418 121.477 9.24736C124.483 10.3936 128.267 12.5921 132.577 15.6713C141.194 21.8274 151.87 31.4724 162.557 43.1482C173.245 54.8239 181.91 66.3093 187.282 75.4358C189.969 80.0005 191.825 83.9636 192.701 87.0588C193.14 88.6069 193.33 89.9248 193.263 90.9849C193.197 92.0435 192.876 92.8232 192.319 93.3333C191.762 93.8432 190.957 94.0933 189.897 94.0661C188.835 94.0388 187.539 93.7333 186.036 93.16C183.03 92.0138 179.246 89.8158 174.936 86.7368C166.319 80.5808 155.643 70.9356 144.956 59.2599C134.268 47.5841 125.603 36.0988 120.231 26.9722C117.544 22.4071 115.688 18.4439 114.811 15.3485C114.373 13.8005 114.183 12.4832 114.25 11.4232C114.316 10.3647 114.636 9.58479 115.193 9.0747Z" stroke="#595959" stroke-width="0.5"/>
<path d="M106.701 67.7082C106.756 67.714 106.843 67.7374 106.968 67.7919C107.215 67.9005 107.554 68.1062 107.978 68.4082C108.823 69.0099 109.965 69.9662 111.328 71.2084C114.05 73.6915 117.629 77.297 121.417 81.4349C125.204 85.5729 128.48 89.4555 130.713 92.3867C131.83 93.8532 132.682 95.0758 133.207 95.9703C133.47 96.4193 133.645 96.7748 133.732 97.031C133.775 97.1596 133.791 97.2488 133.792 97.3045L133.791 97.3066L133.789 97.3065C133.734 97.3007 133.646 97.2773 133.522 97.2228C133.275 97.1142 132.936 96.9086 132.512 96.6065C131.667 96.0048 130.524 95.0486 129.162 93.8063C126.44 91.3233 122.861 87.7178 119.073 83.5799C115.286 79.4419 112.01 75.5592 109.777 72.6281C108.66 71.1616 107.808 69.939 107.283 69.0445C107.02 68.5955 106.845 68.24 106.758 67.9838C106.715 67.8553 106.699 67.766 106.698 67.7102L106.698 67.7081L106.701 67.7082Z" stroke="#595959" stroke-width="0.5"/>
<defs>
<linearGradient id="paint0_linear_2421_1947" x1="1.95909e-10" y1="210.601" x2="287.764" y2="210.73" gradientUnits="userSpaceOnUse">
<stop stop-color="white"/>
<stop offset="1" stop-color="white" stop-opacity="0"/>
</linearGradient>
</defs>
</svg>
