<svg width="1054" height="865" viewBox="0 0 1054 865" fill="none" xmlns="http://www.w3.org/2000/svg">
<path d="M0 757.019H1054M0 794.019H99.5M1054 794.019H947M99.5 794.019V864.019H0H106.5M99.5 794.019H106.5M1054 864.019H947M225.5 864.019V794.019M225.5 864.019H106.5M225.5 864.019H233M225.5 794.019H106.5M225.5 794.019H233M355.5 794.019V864.019M355.5 794.019H233M355.5 794.019H361M355.5 864.019H233M355.5 864.019H361M493 864.019V794.019M493 864.019H361M493 864.019H499M493 794.019H361M493 794.019H499M611.5 794.019V864.019M611.5 794.019H499M611.5 794.019H619M611.5 864.019H499M611.5 864.019H619M722.5 864.019V794.019M722.5 864.019H619M722.5 864.019H728.5M722.5 794.019H619M722.5 794.019H728.5M830 794.019V864.019M830 794.019H728.5M830 794.019H834.5M830 864.019H728.5M830 864.019H834.5M942 794.019V864.019M942 794.019H834.5M942 794.019H947M942 864.019H834.5M942 864.019H947M106.5 794.019V864.019M233 794.019V864.019M361 794.019V864.019M499 794.019V864.019M619 794.019V864.019M728.5 794.019V864.019M834.5 794.019V864.019M947 794.019V864.019" stroke="url(#paint0_linear_3025_11524)"/>
<g opacity="0.6">
<path d="M175.179 757.019L190.771 437.388M175.179 757.019H144.704L166.674 445.184L186.518 438.85M175.179 757.019H202.11L213.45 445.184L195.023 438.85M190.771 437.388L186.518 438.85M190.771 437.388L195.023 438.85M186.518 438.85L189.353 404.078H193.251M195.023 438.85L197.149 404.078H193.251M193.251 404.078L193.605 387.069H189.353M189.353 387.069H199.275V367.225L189.353 366.516V387.069ZM268.021 411.874L100.055 331.789L127.695 139.019L75.25 504.716M268.021 411.874L277.943 313.363M268.021 411.874L259.067 490.542L258.099 499.046" stroke="white"/>
<path d="M252.43 487.706H266.604" stroke="white"/>
<path d="M253.848 467.862H268.022" stroke="white"/>
<path d="M71 487.706H85.1743" stroke="white"/>
<path d="M75.25 465.026H89.4243" stroke="white"/>
<path d="M78.0859 443.765H92.2602" stroke="white"/>
<path d="M82.3398 418.253H96.5142" stroke="white"/>
<path d="M85.1758 385.651H99.3501" stroke="white"/>
<path d="M89.4258 353.05H103.6" stroke="white"/>
<path d="M96.5156 300.604H110.69" stroke="white"/>
<path d="M103.602 248.159H117.776" stroke="white"/>
<path d="M110.688 195.714H124.862" stroke="white"/>
<path d="M256.684 448.019H270.858" stroke="white"/>
<path d="M259.52 423.921H273.694" stroke="white"/>
<path d="M263.062 392.737H277.237" stroke="white"/>
<path d="M265.188 368.644H279.362" stroke="white"/>
<path d="M268.023 345.964H282.198" stroke="white"/>
</g>
<g opacity="0.6">
<path d="M478.332 757L471.873 624.596M478.332 757H490.956L481.855 627.826L473.635 625.202M478.332 757H467.176L462.479 627.826L470.112 625.202M471.873 624.596L473.635 625.202M471.873 624.596L470.112 625.202M473.635 625.202L472.461 610.798H470.846M470.112 625.202L469.231 610.798H470.846M470.846 610.798L470.699 603.752H472.461M472.461 603.752H468.35V595.532L472.461 595.238V603.752ZM439.873 614.027L509.451 580.853L498.002 501L519.727 652.486M439.873 614.027L435.763 573.22M439.873 614.027L443.582 646.615L443.983 650.137" stroke="white"/>
<path d="M446.332 645.44H440.46" stroke="white"/>
<path d="M445.742 637.22H439.871" stroke="white"/>
<path d="M521.484 645.44H515.613" stroke="white"/>
<path d="M519.727 636.045H513.855" stroke="white"/>
<path d="M518.551 627.238H512.679" stroke="white"/>
<path d="M516.789 616.67H510.918" stroke="white"/>
<path d="M515.613 603.165H509.742" stroke="white"/>
<path d="M513.855 589.66H507.984" stroke="white"/>
<path d="M510.918 567.935H505.046" stroke="white"/>
<path d="M507.984 546.21H502.113" stroke="white"/>
<path d="M505.047 524.485H499.175" stroke="white"/>
<path d="M444.57 629H438.699" stroke="white"/>
<path d="M443.395 619.018H437.523" stroke="white"/>
<path d="M441.93 606.1H436.058" stroke="white"/>
<path d="M441.047 596.12H435.175" stroke="white"/>
<path d="M439.871 586.725H434" stroke="white"/>
</g>
<defs>
<linearGradient id="paint0_linear_3025_11524" x1="7.56368e-10" y1="810.519" x2="1111" y2="811.019" gradientUnits="userSpaceOnUse">
<stop stop-color="#595959"/>
<stop offset="1" stop-color="#595959" stop-opacity="0"/>
</linearGradient>
</defs>
</svg>
