<svg width="136" height="80" viewBox="0 0 136 80" fill="none" xmlns="http://www.w3.org/2000/svg">
<path d="M58.125 23.3885L51.9613 26.947L50.9819 21.7715L56.9286 16.9918L58.125 23.3885ZM69.9085 16.2368L63.9625 19.6154L62.5852 11.7804L68.5306 7L69.9085 16.2368ZM77.668 22.994L71.2865 25.1495L69.9085 16.2726L75.9993 12.9664L77.668 22.994Z" fill="white"/>
<path d="M85.6806 32.1942L79.0447 32.8051L77.595 22.5258L84.012 21.0171L85.6806 32.1942ZM72.9546 33.7035L66.5363 34.9612L65.3037 27.2703L71.5043 24.6826L72.9546 33.7035Z" fill="white"/>
<path d="M80.8217 42.8318L74.1877 42.6525L72.8452 33.6315L79.2615 32.5538L80.8217 42.8318ZM65.3397 27.3411L59.2122 29.7848L58.0887 23.317L64.0709 19.542L65.3397 27.3411ZM60.4454 36.3256L54.064 37.477L52.9761 32.3015L59.249 29.893L60.4454 36.3256Z" fill="white"/>
<path d="M67.9504 42.7595H61.4966L60.3363 36.2187L66.6454 34.9969L67.9504 42.7595ZM55.152 42.6878L48.5896 42.4002L47.6464 38.3038L54.0279 37.3688L55.152 42.6878ZM53.157 32.3015L46.9209 34.4935L45.8699 30.1806L51.9974 26.9819L53.157 32.3015Z" fill="white"/>
<path d="M47.7917 38.4819L41.3379 38.877L40.54 35.7866L46.8846 34.4565L47.7917 38.4819Z" fill="white"/>
<path d="M35.2549 46.6218H36.6947V49.4378H36.723C36.8664 49.192 37.019 48.9651 37.1617 48.7382L38.6206 46.6218H40.4037L38.2772 49.3341L40.5182 52.9911H38.8212L37.2478 50.2404L36.6947 50.9113V52.9898H35.2549V46.6218ZM50.0081 50.2984H47.6435V51.8097H50.2844V52.9918H46.1846V46.6212H50.1508V47.8032H47.6435V49.1255H50.0081V50.2984ZM56.3514 46.7059C56.8184 46.6309 57.5149 46.5742 58.2871 46.5742C59.2409 46.5742 59.9078 46.7164 60.3656 47.0756C60.7471 47.3788 60.9563 47.8221 60.9563 48.4083C60.9563 49.2207 60.3748 49.7794 59.8217 49.977V50.005C60.2696 50.1836 60.5176 50.6107 60.68 51.1962C60.88 51.9147 61.0799 52.746 61.2042 52.9918H59.7171C59.6118 52.8125 59.4599 52.2928 59.2692 51.5085C59.0975 50.7144 58.8206 50.4966 58.2299 50.4881H57.7912V52.9931H56.3514V46.7059ZM57.7912 49.4475H58.3634C59.0883 49.4475 59.5171 49.0883 59.5171 48.5308C59.5171 47.9447 59.1166 47.6507 58.4489 47.6422C58.0957 47.6422 57.8958 47.6709 57.7912 47.6898V49.4475ZM68.6631 51.3566L68.2059 52.9918H66.699L68.6631 46.6212H70.5692L72.5615 52.9918H70.9981L70.5021 51.3566H68.6631ZM70.2936 50.2795L69.8944 48.9286C69.7799 48.5504 69.6655 48.0771 69.5701 47.6996H69.5517C69.4557 48.0771 69.3616 48.5589 69.2564 48.9286L68.8749 50.2795H70.2936ZM78.497 46.6218H79.9559V51.7817H82.5112V52.9911H78.497V46.6218ZM89.999 51.3566L89.5419 52.9918H88.035L89.999 46.6212H91.9052L93.8975 52.9918H92.334L91.8381 51.3566H89.999ZM91.6282 50.2795L91.2283 48.9286C91.1139 48.5504 90.9994 48.0771 90.9047 47.6996H90.8856C90.7896 48.0771 90.6956 48.5589 90.5903 48.9286L90.2088 50.2795H91.6282Z" fill="white"/>
<path d="M15.445 63.7544C15.9521 64.0119 16.7309 64.2688 17.5346 64.2688C18.4002 64.2688 18.8574 63.9135 18.8574 63.3743C18.8574 62.8592 18.4614 62.5651 17.4603 62.2098C16.0758 61.7332 15.1727 60.973 15.1727 59.7714C15.1727 58.3618 16.3599 57.284 18.3253 57.284C19.2652 57.284 19.9571 57.4803 20.4517 57.7013L20.0314 59.2094C19.4881 58.9487 18.892 58.8145 18.2884 58.8168C17.4722 58.8168 17.0762 59.1839 17.0762 59.6129C17.0762 60.141 17.5465 60.3732 18.6219 60.778C20.0933 61.3166 20.7859 62.0768 20.7859 63.2406C20.7859 64.6254 19.7105 65.8029 17.4228 65.8029C16.4711 65.8029 15.5312 65.5584 15.0615 65.3003L15.445 63.7544ZM23.5293 58.9864H21.291V57.4177H27.6961V58.9864H25.421V65.6784H23.5293V58.9864ZM29.6108 63.5581L29.0169 65.6784H27.0634L29.6102 57.4177H32.0833L34.6682 65.6784H32.6404L31.9971 63.5581H29.6108ZM31.7248 62.1596L31.2052 60.4071C31.0566 59.9168 30.9086 59.3045 30.7849 58.8142H30.7599C30.6363 59.3045 30.5126 59.9298 30.3765 60.4071L29.8818 62.1596H31.7248ZM35.6417 57.5279C36.2475 57.4307 37.1499 57.3551 38.1517 57.3551C39.3882 57.3551 40.2532 57.5396 40.8471 58.0058C41.3417 58.3983 41.614 58.9727 41.614 59.7329C41.614 60.7865 40.8596 61.5102 40.1427 61.7671V61.8043C40.7241 62.037 41.0451 62.5886 41.2556 63.3482C41.5154 64.2812 41.7752 65.3589 41.9357 65.6771H40.0065C39.8704 65.445 39.673 64.7695 39.4257 63.7531C39.2034 62.7236 38.8449 62.4413 38.078 62.4295H37.5097V65.6778H35.6417V57.5279ZM37.5084 61.0819H38.2503C39.1902 61.0819 39.746 60.6163 39.746 59.8933C39.746 59.1331 39.2264 58.7536 38.3615 58.7406C37.9044 58.7406 37.6445 58.7777 37.5084 58.8025V61.0819ZM44.4423 58.9864H42.204V57.4177H48.6092V58.9864H46.334V65.6784H44.4423V58.9864ZM51.3513 57.4177V62.1727C51.3513 63.5953 51.8952 64.3177 52.8595 64.3177C53.8488 64.3177 54.3927 63.6305 54.3927 62.1727V57.4177H56.2719V62.0501C56.2719 64.5994 54.9735 65.8127 52.797 65.8127C50.6955 65.8127 49.459 64.6593 49.459 62.0246V57.4177H51.3513ZM57.7656 57.5279C58.3464 57.4307 59.1633 57.3551 60.3131 57.3551C61.4753 57.3551 62.3034 57.5768 62.8605 58.0182C63.392 58.4354 63.7511 59.12 63.7511 59.9304C63.7511 60.7389 63.4788 61.4255 62.9842 61.8916C62.3409 62.4928 61.3891 62.7614 60.2762 62.7614C60.0289 62.7614 59.8066 62.749 59.633 62.7249V65.6784H57.7663L57.7656 57.5279ZM59.6323 61.2781C59.7934 61.3159 59.9908 61.327 60.2631 61.327C61.2642 61.327 61.8831 60.8243 61.8831 59.9794C61.8831 59.2191 61.351 58.7666 60.4117 58.7666C60.0283 58.7666 59.7685 58.8038 59.6323 58.839V61.2781ZM74.2191 62.5162C74.1729 61.3847 74.1482 60.2525 74.1448 59.12H74.1073C73.8383 60.1977 73.529 61.2651 73.1799 62.32L72.1663 65.5421H70.6956L69.805 62.3435C69.5058 61.2805 69.2541 60.205 69.0506 59.12H69.0256C68.9769 60.2356 68.9394 61.5102 68.8763 62.5404L68.7296 65.6784H66.9852L67.5173 57.4177H70.0266L70.8423 60.1749C71.1027 61.1314 71.3625 62.1603 71.5474 63.1285H71.5848C71.8197 62.172 72.1038 61.0812 72.3761 60.1626L73.2667 57.417H75.726L76.1831 65.6784H74.3408L74.2191 62.5162ZM79.3837 57.4177V65.6784H77.4914V57.4177H79.3837ZM80.9406 63.7544C81.4471 64.0119 82.2265 64.2688 83.0296 64.2688C83.8952 64.2688 84.353 63.9135 84.353 63.3743C84.353 62.8592 83.957 62.5651 82.9553 62.2098C81.5714 61.7332 80.6683 60.973 80.6683 59.7714C80.6683 58.3618 81.8555 57.284 83.8209 57.284C84.7615 57.284 85.4534 57.4803 85.948 57.7013L85.5257 59.2094C84.9828 58.9484 84.3868 58.8141 83.7834 58.8168C82.9678 58.8168 82.5718 59.1839 82.5718 59.6129C82.5718 60.141 83.0421 60.3732 84.1175 60.778C85.5896 61.3166 86.2822 62.0768 86.2822 63.2406C86.2822 64.6254 85.2054 65.8029 82.9191 65.8029C81.966 65.8029 81.0268 65.5584 80.5565 65.3003L80.9406 63.7544ZM87.4786 63.7544C87.9857 64.0119 88.7645 64.2688 89.5689 64.2688C90.4332 64.2688 90.893 63.9135 90.893 63.3743C90.893 62.8592 90.4963 62.5651 89.4952 62.2098C88.1114 61.7332 87.2069 60.973 87.2069 59.7714C87.2069 58.3618 88.3948 57.284 90.3608 57.284C91.3008 57.284 91.992 57.4803 92.4867 57.7013L92.0664 59.2094C91.7322 59.0503 91.139 58.8168 90.3233 58.8168C89.5077 58.8168 89.1118 59.1839 89.1118 59.6129C89.1118 60.141 89.5807 60.3732 90.6575 60.778C92.1282 61.3166 92.8208 62.0768 92.8208 63.2406C92.8208 64.6254 91.7454 65.8029 89.4578 65.8029C88.5067 65.8029 87.5654 65.5584 87.0964 65.3003L87.4786 63.7544ZM95.8464 57.4177V65.6784H93.9541V57.4177H95.8464ZM104.97 61.462C104.97 64.1703 103.312 65.8134 100.876 65.8134C98.4031 65.8134 96.9567 63.9624 96.9567 61.6093C96.9567 59.1331 98.5531 57.2827 101.012 57.2827C103.572 57.2827 104.97 59.1826 104.97 61.462ZM98.949 61.5722C98.949 63.1898 99.7146 64.3294 100.976 64.3294C102.251 64.3294 102.979 63.1278 102.979 61.522C102.979 60.0393 102.262 58.7647 100.964 58.7647C99.6903 58.7647 98.949 59.967 98.949 61.5722ZM106.067 65.6784V57.4177H108.269L110 60.4449C110.515 61.3585 110.969 62.3046 111.36 63.2771H111.397C111.274 62.1857 111.237 61.0701 111.237 59.8333V57.4183H112.968V65.6791H110.989L109.209 62.4915C108.714 61.6087 108.171 60.5433 107.762 59.5751L107.725 59.5875C107.775 60.6783 107.799 61.8427 107.799 63.1904V65.6784H106.067Z" fill="white"/>
<path d="M117.69 62.9057C119.256 62.9057 120.526 61.6472 120.526 60.0949C120.526 58.5426 119.256 57.2842 117.69 57.2842C116.124 57.2842 114.854 58.5426 114.854 60.0949C114.854 61.6472 116.124 62.9057 117.69 62.9057Z" stroke="white" stroke-width="1.25323" stroke-miterlimit="10"/>
<path d="M116.664 61.6157V58.8154H117.917C118.169 58.8154 118.36 58.8409 118.491 58.8904C118.622 58.9413 118.726 59.0299 118.805 59.1571C118.884 59.2842 118.923 59.425 118.923 59.5789C118.923 59.7778 118.858 59.9453 118.728 60.0816C118.599 60.2179 118.398 60.3046 118.127 60.3411C118.226 60.388 118.301 60.435 118.353 60.4806C118.462 60.5797 118.565 60.7042 118.663 60.8529L119.155 61.6151H118.684L118.311 61.0322C118.201 60.864 118.111 60.7355 118.041 60.6462C117.971 60.5569 117.907 60.495 117.852 60.4591C117.799 60.425 117.741 60.3998 117.681 60.3848C117.612 60.3737 117.542 60.3691 117.473 60.3711H117.039V61.6144H116.664V61.6157ZM117.038 60.051H117.842C118.013 60.051 118.146 60.034 118.242 59.9981C118.332 59.9682 118.41 59.9089 118.462 59.8299C118.511 59.7554 118.537 59.6681 118.537 59.5789C118.537 59.4466 118.488 59.3377 118.391 59.2523C118.294 59.1669 118.141 59.1245 117.932 59.1245H117.038V60.051Z" fill="white"/>
</svg>
