<svg width="151" height="80" viewBox="0 0 151 80" fill="none" xmlns="http://www.w3.org/2000/svg">
<path d="M60.7061 51.1992C60.6566 51.1361 60.6025 51.0729 60.5529 51.0098L60.5483 51.0053C60.2598 50.6447 59.9668 50.2885 59.6737 49.9368C59.6692 49.9278 59.6602 49.9233 59.6557 49.9143C59.6422 49.8963 59.6286 49.8827 59.6106 49.8647C59.3176 49.5131 59.0155 49.1704 58.7135 48.8278C58.5962 48.6925 58.4745 48.5618 58.3573 48.4311C58.1499 48.2011 57.9425 47.9712 57.7351 47.7458C57.5999 47.597 57.4601 47.4527 57.3204 47.3085C57.122 47.1011 56.9236 46.8937 56.7208 46.6863C56.5765 46.5376 56.4367 46.3933 56.2925 46.249C56.0851 46.0416 55.8777 45.8388 55.6703 45.6314C55.5306 45.4961 55.3953 45.3609 55.2556 45.2256C54.9941 44.9777 54.7326 44.7297 54.4666 44.4863C54.3088 44.3375 54.1465 44.1932 53.9887 44.049C53.7182 43.8055 53.4477 43.5621 53.1727 43.3231C53.0104 43.1834 52.8481 43.0436 52.6813 42.9038C52.4784 42.7325 52.2801 42.5612 52.0772 42.3944C51.8968 42.2456 51.7165 42.0968 51.5362 41.9526C51.3468 41.7993 51.153 41.646 50.9636 41.4972C50.7743 41.3485 50.5849 41.1997 50.3911 41.0509C50.2062 40.9066 50.0169 40.7669 49.8275 40.6271C49.6292 40.4784 49.4308 40.3296 49.2324 40.1808C49.0521 40.0501 48.8718 39.9193 48.6869 39.7931C48.2721 39.5 47.8574 39.207 47.4381 38.923C47.2848 38.8193 47.136 38.7156 46.9828 38.6164C46.7438 38.4586 46.5004 38.3008 46.2569 38.143C46.0991 38.0438 45.9413 37.9402 45.7835 37.841C45.5356 37.6832 45.2831 37.5299 45.0352 37.3766C44.8819 37.2819 44.7331 37.1918 44.5798 37.1016C44.3183 36.9438 44.0568 36.786 43.7909 36.6327C43.6601 36.5561 43.5249 36.4795 43.3941 36.4028C43.1056 36.236 42.8171 36.0737 42.524 35.9114C42.506 35.9024 42.4879 35.8934 42.4699 35.8844C41.3789 35.2847 40.2653 34.7167 39.1295 34.1757C39.0393 34.1306 38.9492 34.09 38.859 34.045C38.5254 33.8872 38.1918 33.7339 37.8581 33.5806C37.7635 33.5355 37.6643 33.4949 37.5696 33.4499C37.2225 33.2966 36.8753 33.1433 36.5237 32.99C36.4651 32.963 36.4065 32.9404 36.3478 32.9134C34.7293 32.2281 33.066 31.5924 31.3619 31.0108C31.3348 31.0018 31.3123 30.9928 31.2852 30.9838C30.8705 30.844 30.4557 30.7043 30.0364 30.5735C29.9913 30.56 29.9508 30.5465 29.9057 30.533C27.6876 29.8251 25.3931 29.203 23.0307 28.6665C21.9036 29.4284 20.7856 30.2129 19.6768 31.0108C35.3563 33.8736 52.8118 42.6013 61.6747 52.4202C61.6747 52.4202 61.6747 52.4157 61.6702 52.4157C61.6702 52.4112 61.6657 52.4112 61.6657 52.4067C61.3591 52.0054 61.0525 51.6042 60.7369 51.212C60.7152 51.2082 60.7107 51.2037 60.7061 51.1992Z" fill="white"/>
<path d="M51.1853 15.8781C51.1943 15.86 51.2033 15.8375 51.2169 15.8149C51.2124 15.824 51.2078 15.8375 51.1988 15.8465C51.1943 15.86 51.1898 15.869 51.1853 15.8781Z" fill="white"/>
<path d="M51.7529 38.0537C51.7574 38.0672 51.7665 38.0808 51.7755 38.0988C51.7665 38.0853 51.7619 38.0672 51.7529 38.0537Z" fill="white"/>
<path d="M51.7354 38.0127C51.7399 38.0262 51.7489 38.0397 51.7534 38.0533C51.7489 38.0352 51.7399 38.0262 51.7354 38.0127Z" fill="white"/>
<path d="M30.0201 30.5743C30.4393 30.7096 30.8541 30.8448 31.2689 30.9846C31.2959 30.9936 31.3185 31.0026 31.3455 31.0116C33.0542 31.5932 34.713 32.2289 36.3315 32.9141C36.3901 32.9412 36.4487 32.9637 36.5073 32.9908C36.859 33.1395 37.2061 33.2928 37.5532 33.4506C37.6479 33.4957 37.7471 33.5363 37.8418 33.5814C38.1799 33.7346 38.5135 33.8879 38.8426 34.0457C38.9328 34.0908 39.023 34.1314 39.1131 34.1765C40.2492 34.7175 41.3628 35.2855 42.4536 35.8851C42.4716 35.8941 42.4896 35.9032 42.5077 35.9122C42.8007 36.0745 43.0892 36.2368 43.3778 36.4036C43.5085 36.4802 43.6438 36.5569 43.7745 36.6335C44.0405 36.7868 44.302 36.9446 44.5635 37.1024C44.7167 37.1925 44.87 37.2872 45.0188 37.3774C45.2713 37.5307 45.5192 37.684 45.7672 37.8417C45.925 37.9409 46.0828 38.0446 46.2406 38.1438C46.484 38.3016 46.7275 38.4549 46.9664 38.6172C47.1197 38.7164 47.2685 38.8246 47.4217 38.9237C47.841 39.2078 48.2603 39.5008 48.6706 39.7939C48.8509 39.9246 49.0357 40.0508 49.2161 40.1816C49.4189 40.3303 49.6128 40.4791 49.8112 40.6279C50.0005 40.7677 50.1854 40.9119 50.3747 41.0517C50.5686 41.2005 50.7579 41.3492 50.9473 41.498C51.1411 41.6513 51.3305 41.8001 51.5198 41.9533C51.7002 42.1021 51.8805 42.2464 52.0608 42.3952C52.2637 42.562 52.4666 42.7333 52.6649 42.9046C52.8272 43.0444 52.9941 43.1796 53.1564 43.3239C53.4314 43.5628 53.7019 43.8063 53.9724 44.0497C54.1347 44.194 54.2925 44.3383 54.4502 44.487C54.7162 44.7305 54.9777 44.9785 55.2392 45.2264C55.379 45.3617 55.5187 45.4969 55.654 45.6322C55.8614 45.835 56.0732 46.0424 56.2761 46.2498C56.4204 46.3941 56.5647 46.5428 56.7044 46.6871C56.9028 46.8945 57.1057 47.1019 57.304 47.3093C57.4438 47.4535 57.579 47.6023 57.7188 47.7466C57.9262 47.972 58.1336 48.2019 58.3409 48.4318C58.4582 48.5626 58.5799 48.6978 58.6971 48.8286C58.9992 49.1712 59.2967 49.5138 59.5943 49.8655C59.6168 49.888 59.6348 49.9151 59.6574 49.9376C59.9549 50.2893 60.2435 50.6454 60.532 51.0061C60.5861 51.0737 60.6447 51.1413 60.6988 51.2135C61.0144 51.6057 61.321 52.0069 61.6275 52.4082C61.632 52.4127 61.632 52.4172 61.6365 52.4217C64.053 43.8832 67.2041 36.5531 71.0449 30.4128L51.7545 38.0992C51.741 38.0722 51.7184 38.0271 51.6869 37.9595C51.6869 37.9595 51.6869 37.964 51.6914 37.964C51.6914 37.964 51.6914 37.9595 51.6869 37.9595L68.4797 28.4564L24.8678 27.2031V27.0453L68.3219 25.7965L51.1639 15.8741C51.1594 15.8831 51.1594 15.8876 51.1549 15.8922C51.1594 15.8876 51.1594 15.8786 51.1639 15.8741C51.1684 15.8651 51.1729 15.8516 51.1774 15.8426C51.182 15.829 51.191 15.8155 51.2 15.7975C51.209 15.7794 51.218 15.7569 51.2315 15.7344C51.2225 15.7479 51.218 15.7659 51.209 15.7794C51.218 15.7614 51.227 15.7434 51.2315 15.7344L69.9855 23.511L65.3962 13.2235C65.4053 13.219 65.4098 13.2144 65.4188 13.2099C65.4503 13.1919 65.4729 13.1784 65.4909 13.1694C65.5044 13.1603 65.518 13.1558 65.5315 13.1468L72.9971 23.1639L74.3991 12.439H74.4352H74.5119H74.5479L76.0086 23.5876C80.4581 18.3447 85.6019 14.3323 91.3996 11.5554C85.7554 10.5816 80.1157 10 74.4715 10C54.4327 10 34.5878 16.618 17.0781 27.5096C21.5772 28.2355 25.8376 29.2453 29.8633 30.5257C29.9344 30.5473 29.975 30.5608 30.0201 30.5743ZM65.4992 13.1819C65.4812 13.1954 65.4586 13.2044 65.4451 13.2134C65.4541 13.2089 65.4721 13.1999 65.4992 13.1819ZM51.2716 15.6975C51.2759 15.693 51.2759 15.693 51.2716 15.6975V15.6975ZM51.6997 37.9407C51.6997 37.9362 51.6952 37.9317 51.6952 37.9317C51.6997 37.9362 51.6997 37.9362 51.6997 37.9407Z" fill="white"/>
<path d="M77.6076 27.5225H74.4971V44.2251H77.6076V27.5225Z" fill="white"/>
<path d="M89.4729 44.2251L82.2826 35.8762L89.4729 27.5225H85.3165L78.3018 35.8762L85.3165 44.2251H89.4729Z" fill="white"/>
<path d="M123.285 37.2824C125.814 38.0669 126.598 38.4906 126.598 39.6403C126.598 40.2173 126.377 40.4698 126.161 40.6501C124.862 41.7051 121.089 41.5202 118.83 41.0559L118.217 43.9953C118.578 44.0765 120.431 44.4371 122.536 44.4371C124.484 44.4371 126.656 44.1261 128.058 42.9809C129.073 42.1604 129.609 41.0063 129.609 39.636C129.609 36.0882 126.467 35.1099 124.177 34.3976C121.621 33.6131 120.828 33.1758 120.828 32.0036C120.828 31.4085 121.053 31.1561 121.265 30.9848C122.545 29.9794 126.242 30.304 128.383 30.8405L129.001 27.8875C128.325 27.7207 122.306 26.3322 119.408 28.6134C118.371 29.4294 117.825 30.597 117.825 31.9989C117.821 35.583 120.976 36.5611 123.285 37.2824Z" fill="white"/>
<path d="M102.02 30.633L103.309 27.5225H90.8936V44.2251H94.0043V37.8956H98.8911L100.144 34.8663H94.0043V30.633H102.02Z" fill="white"/>
<path d="M104.255 40.6547H108.669L109.927 37.6251H105.418L108.195 30.4121L113.52 44.2251H116.973L110.057 27.5225H106.338L99.4226 44.2251H102.88L104.255 40.6547Z" fill="white"/>
<path d="M19.5473 65.6436H19.0514L18.1136 66.9014L17.5546 67.6768H17.5005L17.5366 66.9014V65.6436H17.1038V69.4078H17.5366V68.159L18.028 67.5416L19.1235 69.4078H19.6284L18.3075 67.2575L19.5473 65.6436Z" fill="white"/>
<path d="M21.6389 68.524C21.6389 68.7088 21.5802 68.8486 21.4675 68.9523C21.3503 69.0515 21.2106 69.1011 21.0483 69.1011C20.8589 69.1011 20.7146 69.0425 20.6245 68.9252C20.5343 68.808 20.4847 68.6367 20.4847 68.4113V66.626H20.0745V68.4383C20.0745 68.79 20.1466 69.0515 20.2864 69.2228C20.4306 69.3941 20.6245 69.4752 20.8724 69.4752C21.0663 69.4752 21.2196 69.4302 21.3323 69.3445C21.445 69.2588 21.5307 69.1281 21.5848 68.9568H21.6389V69.4121H22.0491V66.626H21.6389V68.524Z" fill="white"/>
<path d="M25.4303 67.8347L25.1959 69.0472H25.1418L24.8668 67.8347L24.5828 66.6265H24.1094L23.8299 67.8347L23.5549 69.0472H23.5008L23.2618 67.8347L22.9913 66.6265H22.5901L23.2618 69.4079H23.7803L24.1184 68.0599L24.3213 67.0412H24.3754L24.5602 68.0599L24.9029 69.4079H25.4213L26.0886 66.6265H25.7008L25.4303 67.8347Z" fill="white"/>
<path d="M28.3244 67.474C28.3244 67.1765 28.2432 66.9511 28.0809 66.7978C27.9186 66.6445 27.6752 66.5679 27.3596 66.5679C27.1432 66.5679 26.9584 66.6175 26.7961 66.7212C26.6383 66.8248 26.5211 66.9511 26.4489 67.0999L26.6924 67.3253C26.7645 67.19 26.8502 67.0908 26.9493 67.0187C27.0485 66.9466 27.1793 66.915 27.3416 66.915C27.5399 66.915 27.6842 66.9646 27.7744 67.0593C27.8645 67.1585 27.9141 67.3072 27.9141 67.5146V67.8212H27.4137C27.0485 67.8212 26.7825 67.8978 26.6112 68.0466C26.4399 68.1999 26.3542 68.4028 26.3542 68.6642C26.3542 68.9302 26.4219 69.1331 26.5526 69.2684C26.6879 69.4036 26.8862 69.4757 27.1567 69.4757C27.328 69.4757 27.4768 69.4307 27.6031 69.3405C27.7293 69.2503 27.8104 69.1196 27.86 68.9528H27.9141V69.0069C27.9141 69.2774 28.0494 69.4126 28.3154 69.4126H28.6084V69.052H28.3289V67.474H28.3244ZM27.9141 68.5558C27.9141 68.6279 27.8961 68.6956 27.8645 68.7632C27.833 68.8308 27.7879 68.8894 27.7293 68.939C27.6707 68.9886 27.6031 69.0337 27.5219 69.0652C27.4408 69.0968 27.3551 69.1148 27.2604 69.1148C27.1116 69.1148 26.9944 69.0833 26.9088 69.0156C26.8231 68.948 26.778 68.8488 26.778 68.7091V68.5603C26.778 68.4251 26.8276 68.3214 26.9268 68.2492C27.026 68.1771 27.1838 68.141 27.4002 68.141H27.9141V68.5558Z" fill="white"/>
<path d="M29.357 65.4224C29.1856 65.4224 29.1045 65.4945 29.1045 65.6433V65.7289C29.1045 65.8777 29.1901 65.9498 29.357 65.9498C29.5238 65.9498 29.6094 65.8777 29.6094 65.7289V65.6433C29.6094 65.4945 29.5238 65.4224 29.357 65.4224Z" fill="white"/>
<path d="M29.5597 66.6265H29.1494V69.4126H29.5597V66.6265Z" fill="white"/>
<path d="M30.9217 65.8599H30.5475V66.3783C30.5475 66.4595 30.534 66.5226 30.5069 66.5632C30.4799 66.6037 30.4258 66.6263 30.3401 66.6263H30.0967V66.9869H30.5069V68.9887C30.5069 69.1374 30.5385 69.2411 30.6061 69.3087C30.6737 69.3764 30.7819 69.4079 30.9262 69.4079H31.4266V69.0473H30.9127V66.9869H31.4537V66.6263H30.9127V65.8599H30.9217Z" fill="white"/>
<path d="M33.2471 69.4078H33.6799V67.6948H35.1361V67.3116H33.6799V66.0268H35.2803V65.6436H33.2471V69.4078Z" fill="white"/>
<path d="M37.5482 66.9011C37.449 66.7839 37.3273 66.6982 37.1875 66.6441C37.0477 66.59 36.8945 66.563 36.7322 66.563C36.5699 66.563 36.4211 66.59 36.2768 66.6441C36.1371 66.6982 36.0153 66.7839 35.9162 66.9011C35.817 67.0183 35.7358 67.1716 35.6772 67.3565C35.6186 67.5413 35.5916 67.7622 35.5916 68.0192C35.5916 68.2762 35.6186 68.5016 35.6772 68.6819C35.7358 68.8667 35.8125 69.0155 35.9162 69.1372C36.0153 69.2545 36.1371 69.3446 36.2768 69.3942C36.4166 69.4483 36.5699 69.4754 36.7322 69.4754C36.8945 69.4754 37.0432 69.4483 37.1875 69.3942C37.3273 69.3401 37.449 69.2545 37.5482 69.1372C37.6474 69.02 37.7285 68.8667 37.7871 68.6819C37.8457 68.4971 37.8728 68.2762 37.8728 68.0192C37.8728 67.7622 37.8457 67.5368 37.7871 67.3565C37.7285 67.1716 37.6519 67.0183 37.5482 66.9011ZM37.431 68.2984C37.431 68.5735 37.3723 68.7763 37.2506 68.9116C37.1289 69.0468 36.9576 69.11 36.7367 69.11C36.5158 69.11 36.3399 69.0423 36.2227 68.9116C36.101 68.7763 36.0424 68.5735 36.0424 68.2984V67.7349C36.0424 67.4599 36.101 67.257 36.2227 67.1218C36.3444 66.9865 36.5158 66.9189 36.7367 66.9189C36.9576 66.9189 37.1334 66.9865 37.2506 67.1218C37.3723 67.257 37.431 67.4599 37.431 67.7349V68.2984Z" fill="white"/>
<path d="M40.0322 68.524C40.0322 68.7088 39.9736 68.8486 39.8609 68.9523C39.7436 69.0515 39.6039 69.1011 39.4416 69.1011C39.2522 69.1011 39.108 69.0425 39.0178 68.9252C38.9276 68.808 38.878 68.6367 38.878 68.4113V66.626H38.4678V68.4383C38.4678 68.79 38.5399 69.0515 38.6797 69.2228C38.8239 69.3941 39.0178 69.4752 39.2658 69.4752C39.4596 69.4752 39.6129 69.4302 39.7256 69.3445C39.8383 69.2588 39.924 69.1281 39.9781 68.9568H40.0322V69.4121H40.4424V66.626H40.0322V68.524Z" fill="white"/>
<path d="M42.4306 66.5586C42.2367 66.5586 42.0834 66.6037 41.9707 66.6893C41.858 66.775 41.7724 66.9057 41.7183 67.0771H41.6642V66.6217H41.2539V69.4079H41.6642V67.5099C41.6642 67.325 41.7228 67.1852 41.8355 67.0816C41.9527 66.9824 42.0925 66.9283 42.2548 66.9283C42.4441 66.9283 42.5884 66.9869 42.6785 67.1086C42.7687 67.2258 42.8183 67.3971 42.8183 67.6226V69.4079H43.2286V67.5955C43.2286 67.2439 43.1564 66.9824 43.0167 66.8111C42.8724 66.6443 42.6785 66.5586 42.4306 66.5586Z" fill="white"/>
<path d="M45.6087 67.0728H45.5546C45.5005 66.8924 45.4148 66.7617 45.2931 66.6805C45.1714 66.5994 45.0271 66.5588 44.8513 66.5588C44.6845 66.5588 44.5402 66.5949 44.414 66.6625C44.2877 66.7301 44.1841 66.8293 44.0939 66.9555C44.0082 67.0818 43.9406 67.2351 43.9 67.4154C43.8549 67.5957 43.8369 67.7986 43.8369 68.0195C43.8369 68.2449 43.8595 68.4433 43.9 68.6236C43.9451 68.804 44.0082 68.9573 44.0939 69.0835C44.1795 69.2097 44.2877 69.3089 44.414 69.3765C44.5402 69.4442 44.6845 69.4802 44.8513 69.4802C45.0226 69.4802 45.1714 69.4396 45.2931 69.3585C45.4148 69.2773 45.5005 69.1466 45.5546 68.9663H45.6087V69.4126H46.0189V65.4185H45.6087V67.0728ZM45.6087 68.5828C45.6087 68.664 45.5907 68.7361 45.5591 68.7992C45.523 68.8623 45.4779 68.9209 45.4238 68.966C45.3697 69.0111 45.3021 69.0472 45.2255 69.0742C45.1488 69.1013 45.0677 69.1103 44.982 69.1103C44.7566 69.1103 44.5808 69.0382 44.4636 68.8984C44.3464 68.7541 44.2832 68.5558 44.2832 68.2988V67.7352C44.2832 67.4783 44.3418 67.2799 44.4636 67.1356C44.5808 66.9914 44.7566 66.9192 44.982 66.9192C45.0677 66.9192 45.1488 66.9328 45.2255 66.9553C45.3021 66.9824 45.3697 67.0184 45.4238 67.0635C45.4779 67.1086 45.523 67.1672 45.5591 67.2303C45.5952 67.2934 45.6087 67.3656 45.6087 67.4467V68.5828Z" fill="white"/>
<path d="M48.5981 67.4736C48.5981 67.176 48.5169 66.9506 48.3546 66.7973C48.1923 66.644 47.9489 66.5674 47.6333 66.5674C47.4169 66.5674 47.232 66.617 47.0697 66.7207C46.912 66.8244 46.7947 66.9506 46.7226 67.0994L46.9661 67.3248C47.0382 67.1895 47.1238 67.0903 47.223 67.0182C47.3222 66.9461 47.453 66.9145 47.6153 66.9145C47.8136 66.9145 47.9579 66.9641 48.0481 67.0588C48.1382 67.158 48.1878 67.3067 48.1878 67.5141V67.8207H47.6874C47.3222 67.8207 47.0562 67.8973 46.8849 68.0461C46.7136 68.1994 46.6279 68.4023 46.6279 68.6638C46.6279 68.9298 46.6956 69.1326 46.8263 69.2679C46.9615 69.4031 47.1599 69.4753 47.4304 69.4753C47.6017 69.4753 47.7505 69.4302 47.8767 69.34C48.003 69.2498 48.0841 69.1191 48.1337 68.9523H48.1878V69.0064C48.1878 69.2769 48.3231 69.4121 48.5891 69.4121H48.8821V69.0515H48.6026V67.4736H48.5981ZM48.1878 68.5553C48.1878 68.6274 48.1698 68.6951 48.1382 68.7627C48.1067 68.8303 48.0616 68.8889 48.003 68.9385C47.9444 68.9881 47.8767 69.0332 47.7956 69.0647C47.7144 69.0963 47.6288 69.1143 47.5341 69.1143C47.3853 69.1143 47.2681 69.0828 47.1825 69.0152C47.0968 68.9475 47.0517 68.8483 47.0517 68.7086V68.5598C47.0517 68.4246 47.1013 68.3209 47.2005 68.2487C47.2997 68.1766 47.4575 68.1405 47.6739 68.1405H48.1878V68.5553Z" fill="white"/>
<path d="M49.9686 65.8599H49.5944V66.3783C49.5944 66.4595 49.5809 66.5226 49.5538 66.5632C49.5268 66.6037 49.4727 66.6263 49.387 66.6263H49.1436V66.9869H49.5538V68.9887C49.5538 69.1374 49.5854 69.2411 49.653 69.3087C49.7206 69.3764 49.8288 69.4079 49.9731 69.4079H50.4825V69.0473H49.9686V66.9869H50.5096V66.6263H49.9686V65.8599Z" fill="white"/>
<path d="M51.5323 66.626H51.1221V69.4121H51.5323V66.626Z" fill="white"/>
<path d="M51.3296 65.4224C51.1583 65.4224 51.0771 65.4945 51.0771 65.6433V65.7289C51.0771 65.8777 51.1628 65.9498 51.3296 65.9498C51.4964 65.9498 51.5821 65.8777 51.5821 65.7289V65.6433C51.5821 65.4945 51.4964 65.4224 51.3296 65.4224Z" fill="white"/>
<path d="M54.107 66.9011C54.0078 66.7839 53.8861 66.6982 53.7463 66.6441C53.6066 66.59 53.4533 66.563 53.291 66.563C53.1287 66.563 52.9799 66.59 52.8357 66.6441C52.6959 66.6982 52.5742 66.7839 52.475 66.9011C52.3758 67.0183 52.2947 67.1716 52.2361 67.3565C52.1774 67.5413 52.1504 67.7622 52.1504 68.0192C52.1504 68.2762 52.1774 68.5016 52.2361 68.6819C52.2947 68.8667 52.3713 69.0155 52.475 69.1372C52.5742 69.2545 52.6959 69.3446 52.8357 69.3942C52.9754 69.4483 53.1287 69.4754 53.291 69.4754C53.4533 69.4754 53.6021 69.4483 53.7463 69.3942C53.8861 69.3401 54.0078 69.2545 54.107 69.1372C54.2062 69.02 54.2873 68.8667 54.346 68.6819C54.4046 68.4971 54.4316 68.2762 54.4316 68.0192C54.4316 67.7622 54.4046 67.5368 54.346 67.3565C54.2873 67.1716 54.2107 67.0183 54.107 66.9011ZM53.9898 68.2984C53.9898 68.5735 53.9312 68.7763 53.8095 68.9116C53.6877 69.0468 53.5164 69.11 53.2955 69.11C53.0746 69.11 52.8988 69.0423 52.7816 68.9116C52.6598 68.7763 52.6012 68.5735 52.6012 68.2984V67.7349C52.6012 67.4599 52.6598 67.257 52.7816 67.1218C52.9033 66.9865 53.0746 66.9189 53.2955 66.9189C53.5164 66.9189 53.6922 66.9865 53.8095 67.1218C53.9312 67.257 53.9898 67.4599 53.9898 67.7349V68.2984Z" fill="white"/>
<path d="M56.2304 66.5586C56.0365 66.5586 55.8832 66.6037 55.7705 66.6893C55.6578 66.775 55.5722 66.9057 55.5181 67.0771H55.464V66.6217H55.0537V69.4079H55.464V67.5099C55.464 67.325 55.5226 67.1852 55.6353 67.0816C55.7525 66.9824 55.8923 66.9283 56.0546 66.9283C56.2439 66.9283 56.3882 66.9869 56.4783 67.1086C56.5685 67.2258 56.6181 67.3971 56.6181 67.6226V69.4079H57.0284V67.5955C57.0284 67.2439 56.9562 66.9824 56.8165 66.8111C56.6722 66.6443 56.4783 66.5586 56.2304 66.5586Z" fill="white"/>
<path d="M59.2048 65.5445C59.1192 65.6302 59.0786 65.7609 59.0786 65.9458V66.6265H58.6729V66.9872H59.0786V69.4127H59.4889V66.9872H60.0254V66.6265H59.4889V65.7789H60.0254V65.4183H59.6106C59.4257 65.4138 59.2905 65.4589 59.2048 65.5445Z" fill="white"/>
<path d="M62.2574 66.9011C62.1582 66.7839 62.0365 66.6982 61.8967 66.6441C61.757 66.59 61.6037 66.563 61.4414 66.563C61.2791 66.563 61.1303 66.59 60.9861 66.6441C60.8463 66.6982 60.7246 66.7839 60.6254 66.9011C60.5262 67.0183 60.4451 67.1716 60.3864 67.3565C60.3278 67.5413 60.3008 67.7622 60.3008 68.0192C60.3008 68.2762 60.3278 68.5016 60.3864 68.6819C60.4451 68.8667 60.5217 69.0155 60.6254 69.1372C60.7246 69.2545 60.8463 69.3446 60.9861 69.3942C61.1258 69.4483 61.2791 69.4754 61.4414 69.4754C61.6037 69.4754 61.7525 69.4483 61.8967 69.3942C62.0365 69.3401 62.1582 69.2545 62.2574 69.1372C62.3566 69.02 62.4377 68.8667 62.4963 68.6819C62.555 68.4971 62.582 68.2762 62.582 68.0192C62.582 67.7622 62.555 67.5368 62.4963 67.3565C62.4377 67.1716 62.3611 67.0183 62.2574 66.9011ZM62.1402 68.2984C62.1402 68.5735 62.0816 68.7763 61.9599 68.9116C61.8381 69.0468 61.6668 69.11 61.4459 69.11C61.225 69.11 61.0492 69.0423 60.9319 68.9116C60.8102 68.7763 60.7516 68.5735 60.7516 68.2984V67.7349C60.7516 67.4599 60.8102 67.257 60.9319 67.1218C61.0537 66.9865 61.225 66.9189 61.4459 66.9189C61.6668 66.9189 61.8426 66.9865 61.9599 67.1218C62.0816 67.257 62.1402 67.4599 62.1402 67.7349V68.2984Z" fill="white"/>
<path d="M63.9074 66.7613C63.7947 66.8515 63.7135 66.9823 63.6685 67.14H63.6144V66.6216H63.2041V69.4077H63.6144V67.5548C63.6144 67.3835 63.6685 67.2528 63.7767 67.1671C63.8849 67.0814 64.0381 67.0364 64.232 67.0364H64.5025V66.6216H64.3492C64.1689 66.6261 64.0201 66.6712 63.9074 66.7613Z" fill="white"/>
<path d="M66.671 65.8599H66.2968V66.3783C66.2968 66.4595 66.2833 66.5226 66.2562 66.5632C66.2292 66.6037 66.1751 66.6263 66.0894 66.6263H65.8459V66.9869H66.2607V68.9887C66.2607 69.1374 66.2923 69.2411 66.3599 69.3087C66.4275 69.3764 66.5357 69.4079 66.68 69.4079H67.1804V69.0473H66.6665V66.9869H67.2075V66.6263H66.6665V65.8599H66.671Z" fill="white"/>
<path d="M69.0016 66.5587C68.8078 66.5587 68.6545 66.6038 68.5418 66.6894C68.4291 66.7751 68.3434 66.9058 68.2893 67.0772H68.2352V65.4136H67.825V69.4077H68.2352V67.5097C68.2352 67.3249 68.2938 67.1851 68.4065 67.0814C68.5237 66.9822 68.6635 66.9281 68.8258 66.9281C69.0152 66.9281 69.1594 66.9867 69.2496 67.1085C69.3398 67.2257 69.3893 67.397 69.3893 67.6224V69.4077H69.7996V67.5954C69.7996 67.2437 69.7275 66.9822 69.5877 66.8109C69.4434 66.6443 69.2496 66.5587 69.0016 66.5587Z" fill="white"/>
<path d="M72.3192 66.9011C72.2245 66.7839 72.1118 66.6982 71.9766 66.6441C71.8413 66.59 71.6926 66.563 71.5303 66.563C71.368 66.563 71.2192 66.59 71.0749 66.6441C70.9352 66.6982 70.8134 66.7839 70.7143 66.9011C70.6151 67.0183 70.5339 67.1716 70.4753 67.3565C70.4167 67.5413 70.3896 67.7622 70.3896 68.0192C70.3896 68.2762 70.4167 68.5016 70.4753 68.6819C70.5339 68.8667 70.6106 69.0155 70.7143 69.1372C70.8134 69.2545 70.9352 69.3446 71.0749 69.3942C71.2147 69.4483 71.368 69.4754 71.5303 69.4754C71.7872 69.4754 72.0036 69.4168 72.1704 69.295C72.3373 69.1778 72.4635 69.02 72.5491 68.8307L72.2696 68.6278C72.202 68.7901 72.1073 68.9118 71.9901 68.993C71.8729 69.0741 71.7196 69.1147 71.5303 69.1147C71.3093 69.1147 71.138 69.0471 71.0163 68.9118C70.8901 68.7766 70.8315 68.5737 70.8315 68.2987V68.1229H72.6168V68.0192C72.6168 67.7622 72.5897 67.5368 72.5401 67.3565C72.486 67.1716 72.4139 67.0183 72.3192 66.9011ZM72.1795 67.8073H70.8315V67.7352C70.8315 67.4601 70.8946 67.2528 71.0163 67.113C71.138 66.9732 71.3094 66.9011 71.5348 66.9011C71.9676 66.9011 72.184 67.1761 72.184 67.7306V67.8073H72.1795Z" fill="white"/>
<path d="M75.2548 65.6436L74.0781 69.4123H74.5109L74.8445 68.2852H76.2016L76.5352 69.4123H76.977L75.7958 65.6436H75.2548ZM74.9482 67.9245L75.3765 66.4954L75.4937 66.0265H75.5478L75.6651 66.4954L76.1024 67.9245H74.9482Z" fill="white"/>
<path d="M79.0728 67.0728H79.0187C78.9646 66.8924 78.8789 66.7617 78.7572 66.6805C78.6355 66.5994 78.4912 66.5588 78.3154 66.5588C78.1486 66.5588 78.0043 66.5949 77.8781 66.6625C77.7519 66.7301 77.6482 66.8293 77.558 66.9555C77.4723 67.0818 77.4047 67.2351 77.3641 67.4154C77.3191 67.5957 77.301 67.7986 77.301 68.0195C77.301 68.2449 77.3236 68.4433 77.3641 68.6236C77.4092 68.804 77.4723 68.9573 77.558 69.0835C77.6437 69.2097 77.7519 69.3089 77.8781 69.3765C78.0043 69.4442 78.1486 69.4802 78.3154 69.4802C78.4867 69.4802 78.6355 69.4396 78.7572 69.3585C78.8789 69.2773 78.9646 69.1466 79.0187 68.9663H79.0728V69.4126H79.4831V65.4185H79.0728V67.0728ZM79.0728 68.5828C79.0728 68.664 79.0548 68.7361 79.0232 68.7992C78.9871 68.8623 78.9421 68.9209 78.888 68.966C78.8339 69.0111 78.7662 69.0472 78.6896 69.0742C78.613 69.1013 78.5318 69.1103 78.4461 69.1103C78.2207 69.1103 78.0449 69.0382 77.9277 68.8984C77.8105 68.7541 77.7474 68.5558 77.7474 68.2988V67.7352C77.7474 67.4783 77.806 67.2799 77.9277 67.1356C78.0449 66.9914 78.2207 66.9192 78.4461 66.9192C78.5318 66.9192 78.613 66.9328 78.6896 66.9553C78.7662 66.9824 78.8339 67.0184 78.888 67.0635C78.9421 67.1086 78.9871 67.1672 79.0232 67.2303C79.0593 67.2934 79.0728 67.3656 79.0728 67.4467V68.5828Z" fill="white"/>
<path d="M81.3763 68.0278L81.1194 69.0467H81.0653L80.8038 68.0278L80.38 66.626H79.9697L80.8443 69.4074H81.3267L82.2014 66.626H81.8046L81.3763 68.0278Z" fill="white"/>
<path d="M84.4018 67.4736C84.4018 67.176 84.3206 66.9506 84.1583 66.7973C83.996 66.644 83.7526 66.5674 83.437 66.5674C83.2206 66.5674 83.0358 66.617 82.8735 66.7207C82.7157 66.8244 82.5984 66.9506 82.5263 67.0994L82.7698 67.3248C82.8419 67.1895 82.9276 67.0903 83.0267 67.0182C83.1259 66.9461 83.2567 66.9145 83.419 66.9145C83.6173 66.9145 83.7616 66.9641 83.8518 67.0588C83.9419 67.158 83.9915 67.3067 83.9915 67.5141V67.8207H83.4911C83.1259 67.8207 82.8599 67.8973 82.6886 68.0461C82.5173 68.1994 82.4316 68.4023 82.4316 68.6638C82.4316 68.9298 82.4993 69.1326 82.63 69.2679C82.7653 69.4031 82.9636 69.4753 83.2341 69.4753C83.4054 69.4753 83.5542 69.4302 83.6804 69.34C83.8067 69.2498 83.8878 69.1191 83.9374 68.9523H83.9915V69.0064C83.9915 69.2769 84.1268 69.4121 84.3928 69.4121H84.6858V69.0515H84.4063V67.4736H84.4018ZM83.9915 68.5553C83.9915 68.6274 83.9735 68.6951 83.9419 68.7627C83.9104 68.8303 83.8653 68.8889 83.8067 68.9385C83.7481 68.9881 83.6805 69.0332 83.5993 69.0647C83.5182 69.0963 83.4325 69.1143 83.3378 69.1143C83.189 69.1143 83.0718 69.0828 82.9862 69.0152C82.9005 68.9475 82.8554 68.8483 82.8554 68.7086V68.5598C82.8554 68.4246 82.905 68.3209 83.0042 68.2487C83.1034 68.1766 83.2612 68.1405 83.4776 68.1405H83.9915V68.5553Z" fill="white"/>
<path d="M86.403 66.5586C86.2091 66.5586 86.0559 66.6037 85.9431 66.6893C85.8304 66.775 85.7448 66.9057 85.6907 67.0771H85.6366V66.6217H85.2263V69.4079H85.6366V67.5099C85.6366 67.325 85.6952 67.1852 85.8079 67.0816C85.9206 66.9779 86.0649 66.9283 86.2272 66.9283C86.4165 66.9283 86.5608 66.9869 86.651 67.1086C86.7411 67.2258 86.7907 67.3971 86.7907 67.6226V69.4079H87.201V67.5955C87.201 67.2439 87.1288 66.9824 86.9891 66.8111C86.8448 66.6443 86.651 66.5586 86.403 66.5586Z" fill="white"/>
<path d="M89.3381 68.9931C89.2299 69.0742 89.0857 69.1103 88.9053 69.1103C88.6799 69.1103 88.5131 69.0427 88.4049 68.9119C88.2967 68.7767 88.2426 68.5738 88.2426 68.2988V67.7353C88.2426 67.4603 88.2967 67.2574 88.4049 67.1221C88.5131 66.9869 88.6799 66.9193 88.9053 66.9193C89.0766 66.9193 89.2164 66.9598 89.3156 67.0365C89.4148 67.1131 89.4914 67.2258 89.5365 67.3701L89.8746 67.1988C89.8025 67.0139 89.6898 66.8607 89.532 66.7389C89.3742 66.6217 89.1668 66.5586 88.9053 66.5586C88.5582 66.5586 88.2877 66.6713 88.0938 66.8967C87.9 67.1221 87.8008 67.4963 87.8008 68.0148C87.8008 68.5332 87.9 68.9074 88.0938 69.1329C88.2922 69.3583 88.5627 69.471 88.9053 69.471C89.1533 69.471 89.3607 69.4124 89.5275 69.2997C89.6943 69.187 89.8205 69.0337 89.9017 68.8398L89.5996 68.6279C89.532 68.7947 89.4463 68.9165 89.3381 68.9931Z" fill="white"/>
<path d="M92.1239 66.9011C92.0292 66.7839 91.9165 66.6982 91.7813 66.6441C91.646 66.59 91.4972 66.563 91.3349 66.563C91.1726 66.563 91.0239 66.59 90.8796 66.6441C90.7398 66.6982 90.6181 66.7839 90.5189 66.9011C90.4198 67.0183 90.3386 67.1716 90.28 67.3565C90.2214 67.5413 90.1943 67.7622 90.1943 68.0192C90.1943 68.2762 90.2214 68.5016 90.28 68.6819C90.3386 68.8667 90.4152 69.0155 90.5189 69.1372C90.6181 69.2545 90.7398 69.3446 90.8796 69.3942C91.0194 69.4483 91.1726 69.4754 91.3349 69.4754C91.5919 69.4754 91.8083 69.4168 91.9751 69.295C92.1419 69.1778 92.2682 69.02 92.3538 68.8307L92.0743 68.6278C92.0067 68.7901 91.912 68.9118 91.7948 68.993C91.6776 69.0741 91.5243 69.1147 91.3349 69.1147C91.114 69.1147 90.9427 69.0471 90.821 68.9118C90.6948 68.7766 90.6362 68.5737 90.6362 68.2987V68.1229H92.4215V68.0192C92.4215 67.7622 92.3944 67.5368 92.3448 67.3565C92.2907 67.1716 92.2186 67.0183 92.1239 66.9011ZM91.9841 67.8073H90.6362V67.7352C90.6362 67.4601 90.6993 67.2528 90.821 67.113C90.9427 66.9732 91.114 66.9011 91.3395 66.9011C91.7723 66.9011 91.9887 67.1761 91.9887 67.7306V67.8073H91.9841Z" fill="white"/>
<path d="M95.7119 66.5586C95.509 66.5586 95.3467 66.6037 95.225 66.6893C95.1033 66.775 95.0131 66.9057 94.9545 67.0771H94.9004C94.8373 66.9012 94.7471 66.7705 94.6299 66.6848C94.5082 66.5992 94.3639 66.5586 94.1881 66.5586C93.9987 66.5586 93.85 66.6037 93.7463 66.6893C93.6426 66.775 93.5614 66.9057 93.5073 67.0771H93.4532V66.6217H93.043V69.4079H93.4532V67.5099C93.4532 67.325 93.5073 67.1852 93.62 67.0816C93.7282 66.9824 93.868 66.9283 94.0258 66.9283C94.2106 66.9283 94.3459 66.9869 94.4315 67.1086C94.5217 67.2258 94.5623 67.3971 94.5623 67.6226V69.4079H94.9725V67.5099C94.9725 67.325 95.0266 67.1852 95.1393 67.0816C95.2475 66.9824 95.3828 66.9283 95.5451 66.9283C95.7299 66.9283 95.8652 66.9869 95.9509 67.1086C96.041 67.2258 96.0816 67.3971 96.0816 67.6226V69.4079H96.4919V67.5955C96.4919 67.2439 96.4197 66.9824 96.2754 66.8111C96.1402 66.6443 95.9508 66.5586 95.7119 66.5586Z" fill="white"/>
<path d="M99.0214 66.9011C98.9267 66.7839 98.814 66.6982 98.6787 66.6441C98.5435 66.59 98.3947 66.563 98.2324 66.563C98.0701 66.563 97.9213 66.59 97.7771 66.6441C97.6373 66.6982 97.5156 66.7839 97.4164 66.9011C97.3172 67.0183 97.2361 67.1716 97.1775 67.3565C97.1188 67.5413 97.0918 67.7622 97.0918 68.0192C97.0918 68.2762 97.1188 68.5016 97.1775 68.6819C97.2361 68.8667 97.3127 69.0155 97.4164 69.1372C97.5156 69.2545 97.6373 69.3446 97.7771 69.3942C97.9168 69.4483 98.0701 69.4754 98.2324 69.4754C98.4894 69.4754 98.7058 69.4168 98.8726 69.295C99.0394 69.1778 99.1656 69.02 99.2513 68.8307L98.9718 68.6278C98.9042 68.7901 98.8095 68.9118 98.6923 68.993C98.575 69.0741 98.4218 69.1147 98.2324 69.1147C98.0115 69.1147 97.8402 69.0471 97.7185 68.9118C97.5922 68.7766 97.5336 68.5737 97.5336 68.2987V68.1229H99.3189V68.0192C99.3189 67.7622 99.2919 67.5368 99.2423 67.3565C99.1882 67.1716 99.116 67.0183 99.0214 66.9011ZM98.8816 67.8073H97.5336V67.7352C97.5336 67.4601 97.5967 67.2528 97.7185 67.113C97.8402 66.9732 98.0115 66.9011 98.2369 66.9011C98.6697 66.9011 98.8861 67.1761 98.8861 67.7306V67.8073H98.8816Z" fill="white"/>
<path d="M101.122 66.5586C100.928 66.5586 100.775 66.6037 100.662 66.6893C100.549 66.775 100.464 66.9057 100.41 67.0771H100.356V66.6217H99.9453V69.4079H100.356V67.5099C100.356 67.325 100.414 67.1852 100.527 67.0816C100.64 66.9779 100.784 66.9283 100.946 66.9283C101.136 66.9283 101.28 66.9869 101.37 67.1086C101.46 67.2258 101.51 67.3971 101.51 67.6226V69.4079H101.92V67.5955C101.92 67.2439 101.848 66.9824 101.708 66.8111C101.564 66.6443 101.37 66.5586 101.122 66.5586Z" fill="white"/>
<path d="M103.254 65.8599H102.88V66.3783C102.88 66.4595 102.867 66.5226 102.84 66.5632C102.813 66.6037 102.759 66.6263 102.673 66.6263H102.429V66.9869H102.84V68.9887C102.84 69.1374 102.871 69.2411 102.939 69.3087C103.007 69.3764 103.115 69.4079 103.259 69.4079H103.759V69.0473H103.245V66.9869H103.786V66.6263H103.245V65.8599H103.254Z" fill="white"/>
<path d="M107.307 66.9011C107.208 66.7839 107.086 66.6982 106.947 66.6441C106.807 66.59 106.653 66.563 106.491 66.563C106.329 66.563 106.18 66.59 106.036 66.6441C105.896 66.6982 105.774 66.7839 105.675 66.9011C105.576 67.0183 105.495 67.1716 105.436 67.3565C105.378 67.5413 105.351 67.7622 105.351 68.0192C105.351 68.2762 105.378 68.5016 105.436 68.6819C105.495 68.8667 105.571 69.0155 105.675 69.1372C105.774 69.2545 105.896 69.3446 106.036 69.3942C106.176 69.4483 106.329 69.4754 106.491 69.4754C106.653 69.4754 106.802 69.4483 106.947 69.3942C107.086 69.3401 107.208 69.2545 107.307 69.1372C107.406 69.02 107.488 68.8667 107.546 68.6819C107.605 68.4971 107.632 68.2762 107.632 68.0192C107.632 67.7622 107.605 67.5368 107.546 67.3565C107.488 67.1716 107.406 67.0183 107.307 66.9011ZM107.19 68.2984C107.19 68.5735 107.131 68.7763 107.01 68.9116C106.888 69.0468 106.717 69.11 106.496 69.11C106.275 69.11 106.099 69.0423 105.982 68.9116C105.86 68.7763 105.801 68.5735 105.801 68.2984V67.7349C105.801 67.4599 105.86 67.257 105.982 67.1218C106.103 66.9865 106.275 66.9189 106.496 66.9189C106.717 66.9189 106.892 66.9865 107.01 67.1218C107.131 67.257 107.19 67.4599 107.19 67.7349V68.2984Z" fill="white"/>
<path d="M108.498 65.5445C108.412 65.6302 108.372 65.7609 108.372 65.9458V66.6265H107.966V66.9872H108.372V69.4127H108.782V66.9872H109.318V66.6265H108.782V65.7789H109.318V65.4183H108.904C108.714 65.4138 108.583 65.4589 108.498 65.5445Z" fill="white"/>
<path d="M112.911 67.6719C112.834 67.5863 112.735 67.5142 112.613 67.4555C112.491 67.3969 112.343 67.3428 112.167 67.3023L111.887 67.2301C111.666 67.176 111.509 67.1039 111.409 67.0092C111.31 66.9145 111.261 66.7793 111.261 66.5945C111.261 66.369 111.319 66.2022 111.441 66.103C111.563 66.0039 111.739 65.9498 111.968 65.9498C112.171 65.9498 112.338 65.9903 112.464 66.067C112.591 66.1436 112.699 66.2563 112.798 66.4096L113.118 66.1842C112.983 65.9768 112.83 65.8235 112.649 65.7243C112.469 65.6252 112.252 65.5801 111.986 65.5801C111.639 65.5801 111.364 65.6657 111.157 65.8371C110.95 66.0084 110.846 66.2608 110.846 66.5945C110.846 66.8875 110.923 67.1129 111.08 67.2707C111.238 67.433 111.482 67.5502 111.811 67.6359L112.09 67.708C112.32 67.7666 112.482 67.8433 112.577 67.947C112.672 68.0461 112.717 68.1949 112.717 68.3888C112.717 68.8667 112.46 69.1056 111.95 69.1056C111.757 69.1056 111.585 69.0605 111.441 68.9704C111.297 68.8802 111.166 68.7494 111.053 68.5781L110.742 68.8351C110.877 69.038 111.044 69.1958 111.243 69.3085C111.445 69.4212 111.68 69.4798 111.95 69.4798C112.32 69.4798 112.613 69.3851 112.821 69.2003C113.032 69.0154 113.136 68.7449 113.136 68.3888C113.136 68.2355 113.118 68.1002 113.087 67.983C113.046 67.8613 112.992 67.7576 112.911 67.6719Z" fill="white"/>
<path d="M115.12 68.9931C115.012 69.0742 114.868 69.1103 114.688 69.1103C114.462 69.1103 114.295 69.0427 114.187 68.9119C114.079 68.7767 114.025 68.5738 114.025 68.2988V67.7353C114.025 67.4603 114.079 67.2574 114.187 67.1221C114.295 66.9869 114.462 66.9193 114.688 66.9193C114.859 66.9193 114.999 66.9598 115.098 67.0365C115.197 67.1131 115.274 67.2258 115.319 67.3701L115.657 67.1988C115.585 67.0139 115.472 66.8607 115.314 66.7389C115.156 66.6217 114.949 66.5586 114.688 66.5586C114.34 66.5586 114.07 66.6713 113.876 66.8967C113.678 67.1221 113.583 67.4963 113.583 68.0148C113.583 68.5332 113.682 68.9074 113.876 69.1329C114.07 69.3583 114.345 69.471 114.688 69.471C114.936 69.471 115.143 69.4124 115.31 69.2997C115.477 69.187 115.603 69.0337 115.684 68.8398L115.382 68.6279C115.319 68.7947 115.229 68.9165 115.12 68.9931Z" fill="white"/>
<path d="M116.616 66.626H116.206V69.4121H116.616V66.626Z" fill="white"/>
<path d="M116.414 65.4229C116.242 65.4229 116.161 65.495 116.161 65.6438V65.7294C116.161 65.8782 116.247 65.9503 116.414 65.9503C116.58 65.9503 116.666 65.8782 116.666 65.7294V65.6438C116.666 65.495 116.58 65.4229 116.414 65.4229Z" fill="white"/>
<path d="M119.164 66.9011C119.069 66.7839 118.957 66.6982 118.821 66.6441C118.686 66.59 118.537 66.563 118.375 66.563C118.213 66.563 118.064 66.59 117.92 66.6441C117.78 66.6982 117.658 66.7839 117.559 66.9011C117.46 67.0183 117.379 67.1716 117.32 67.3565C117.261 67.5413 117.234 67.7622 117.234 68.0192C117.234 68.2762 117.261 68.5016 117.32 68.6819C117.379 68.8667 117.455 69.0155 117.559 69.1372C117.658 69.2545 117.78 69.3446 117.92 69.3942C118.059 69.4483 118.213 69.4754 118.375 69.4754C118.632 69.4754 118.848 69.4168 119.015 69.295C119.182 69.1778 119.308 69.02 119.394 68.8307L119.114 68.6278C119.047 68.7901 118.952 68.9118 118.835 68.993C118.718 69.0741 118.564 69.1147 118.375 69.1147C118.154 69.1147 117.983 69.0471 117.861 68.9118C117.735 68.7766 117.676 68.5737 117.676 68.2987V68.1229H119.461V68.0192C119.461 67.7622 119.434 67.5368 119.385 67.3565C119.331 67.1716 119.259 67.0183 119.164 66.9011ZM119.024 67.8073H117.676V67.7352C117.676 67.4601 117.739 67.2528 117.861 67.113C117.983 66.9732 118.154 66.9011 118.379 66.9011C118.812 66.9011 119.029 67.1761 119.029 67.7306V67.8073H119.024Z" fill="white"/>
<path d="M121.265 66.5586C121.071 66.5586 120.917 66.6037 120.805 66.6893C120.692 66.775 120.606 66.9057 120.552 67.0771H120.498V66.6217H120.088V69.4079H120.498V67.5099C120.498 67.325 120.557 67.1852 120.669 67.0816C120.787 66.9824 120.926 66.9283 121.089 66.9283C121.278 66.9283 121.422 66.9869 121.513 67.1086C121.603 67.2258 121.652 67.3971 121.652 67.6226V69.4079H122.063V67.5955C122.063 67.2439 121.99 66.9824 121.851 66.8111C121.711 66.6443 121.513 66.5586 121.265 66.5586Z" fill="white"/>
<path d="M124.199 68.9931C124.091 69.0742 123.947 69.1103 123.767 69.1103C123.541 69.1103 123.374 69.0427 123.266 68.9119C123.158 68.7767 123.104 68.5738 123.104 68.2988V67.7353C123.104 67.4603 123.158 67.2574 123.266 67.1221C123.374 66.9869 123.541 66.9193 123.767 66.9193C123.938 66.9193 124.078 66.9598 124.177 67.0365C124.276 67.1131 124.353 67.2258 124.398 67.3701L124.736 67.1988C124.664 67.0139 124.551 66.8607 124.393 66.7389C124.236 66.6217 124.028 66.5586 123.767 66.5586C123.42 66.5586 123.149 66.6713 122.955 66.8967C122.757 67.1221 122.662 67.4963 122.662 68.0148C122.662 68.5332 122.761 68.9074 122.955 69.1329C123.149 69.3583 123.424 69.471 123.767 69.471C124.015 69.471 124.222 69.4124 124.389 69.2997C124.556 69.187 124.682 69.0337 124.763 68.8398L124.461 68.6279C124.398 68.7947 124.308 68.9165 124.199 68.9931Z" fill="white"/>
<path d="M126.985 66.9011C126.891 66.7839 126.778 66.6982 126.643 66.6441C126.508 66.59 126.359 66.563 126.197 66.563C126.034 66.563 125.885 66.59 125.741 66.6441C125.601 66.6982 125.48 66.7839 125.381 66.9011C125.281 67.0183 125.2 67.1716 125.142 67.3565C125.083 67.5413 125.056 67.7622 125.056 68.0192C125.056 68.2762 125.083 68.5016 125.142 68.6819C125.2 68.8667 125.277 69.0155 125.381 69.1372C125.48 69.2545 125.601 69.3446 125.741 69.3942C125.881 69.4483 126.034 69.4754 126.197 69.4754C126.453 69.4754 126.67 69.4168 126.837 69.295C127.004 69.1778 127.13 69.02 127.215 68.8307L126.936 68.6278C126.868 68.7901 126.774 68.9118 126.656 68.993C126.539 69.0741 126.386 69.1147 126.197 69.1147C125.976 69.1147 125.804 69.0471 125.683 68.9118C125.556 68.7766 125.498 68.5737 125.498 68.2987V68.1229H127.283V68.0192C127.283 67.7622 127.256 67.5368 127.206 67.3565C127.152 67.1716 127.08 67.0183 126.985 66.9011ZM126.846 67.8073H125.498V67.7352C125.498 67.4601 125.561 67.2528 125.683 67.113C125.804 66.9732 125.976 66.9011 126.201 66.9011C126.634 66.9011 126.85 67.1761 126.85 67.7306V67.8073H126.846Z" fill="white"/>
<path d="M128.829 67.8342L128.617 67.7982C128.459 67.7711 128.347 67.7215 128.274 67.6584C128.202 67.5953 128.171 67.4961 128.171 67.3609C128.171 67.0633 128.333 66.9145 128.662 66.9145C128.82 66.9145 128.951 66.9461 129.05 67.0137C129.149 67.0813 129.23 67.158 129.293 67.2436L129.559 67.0002C129.456 66.8604 129.329 66.7522 129.19 66.6801C129.045 66.608 128.874 66.5674 128.662 66.5674C128.531 66.5674 128.414 66.5809 128.301 66.6125C128.193 66.644 128.099 66.6936 128.017 66.7567C127.936 66.8244 127.878 66.9055 127.833 67.0092C127.788 67.1129 127.769 67.2346 127.769 67.3744C127.769 67.6133 127.837 67.7936 127.968 67.9154C128.099 68.0326 128.301 68.1182 128.572 68.1678L128.784 68.2039C128.951 68.231 129.063 68.2851 129.122 68.3617C129.185 68.4383 129.212 68.5375 129.212 68.6592C129.212 68.8125 129.163 68.9252 129.068 69.0064C128.973 69.0875 128.842 69.1281 128.68 69.1281C128.522 69.1281 128.387 69.0921 128.274 69.0199C128.162 68.9478 128.054 68.8441 127.959 68.7088L127.675 68.9478C127.792 69.1146 127.927 69.2408 128.094 69.3355C128.256 69.4302 128.455 69.4753 128.685 69.4753C128.991 69.4753 129.221 69.3986 129.379 69.2453C129.537 69.092 129.613 68.8802 129.613 68.6097C129.613 68.3933 129.555 68.2219 129.433 68.0957C129.311 67.9737 129.113 67.8838 128.829 67.8342Z" fill="white"/>
<path d="M102.231 55.4004C102.005 55.4004 101.856 55.5266 101.856 55.8242C101.856 56.1172 102.005 56.248 102.231 56.248H102.343C102.569 56.248 102.722 56.1127 102.722 55.8242C102.722 55.5266 102.564 55.4004 102.343 55.4004H102.231Z" fill="white"/>
<path d="M101.041 55.4009C100.816 55.4009 100.667 55.5271 100.667 55.8247C100.667 56.1177 100.816 56.2484 101.041 56.2484H101.154C101.379 56.2484 101.533 56.1132 101.533 55.8247C101.533 55.5271 101.375 55.4009 101.154 55.4009H101.041Z" fill="white"/>
<path d="M120.89 59.5306C120.89 59.3142 120.867 59.0392 120.831 58.7416L120.773 58.3539L120.133 58.4531L120.2 58.8498C120.245 59.1474 120.268 59.3863 120.268 59.5351C120.268 59.8687 120.119 60.022 119.844 60.022H119.731C119.411 60.022 119.267 59.8371 119.267 59.3502V58.8137H118.618V59.3502C118.618 59.8507 118.415 60.0355 117.969 60.0355C117.68 60.0355 117.41 59.9589 117.112 59.7875L117.058 59.756L117.4 59.0932L116.841 58.8092L116.535 59.4269C116.341 59.8236 116.161 59.9318 115.737 59.9318H115.588H115.227C114.831 59.9318 114.646 59.747 114.646 59.3412V58.5072H113.997V59.3412C113.997 59.8281 113.857 60.0129 113.541 60.0129H113.406C113.072 60.0129 112.951 59.8281 112.951 59.3412V58.8047H112.302V59.3412C112.302 59.8416 112.099 60.0265 111.652 60.0265C111.364 60.0265 111.102 59.9498 110.8 59.7785L110.746 59.747L111.08 59.0842L110.521 58.8002L110.214 59.4178C110.02 59.8146 109.84 59.9228 109.416 59.9228H103.164C102.776 59.9228 102.605 59.8101 102.605 59.4539V56.8887H101.924V57.2854L101.135 57.7047C100.279 58.16 99.8818 58.5838 99.8818 59.2646C99.8818 59.9273 100.261 60.315 100.95 60.315C101.464 60.315 101.78 60.0851 101.929 59.5306H101.965V59.6207C101.965 60.4052 102.33 60.7704 103.232 60.7704H109.092C109.683 60.7704 110.025 60.6937 110.323 60.3916L110.526 60.5089C110.936 60.7568 111.22 60.8605 111.509 60.8605C111.964 60.8605 112.252 60.563 112.338 59.9904H112.383C112.482 60.572 112.771 60.8605 113.285 60.8605C113.754 60.8605 114.024 60.6081 114.083 59.9904H114.119C114.254 60.5269 114.624 60.7749 115.318 60.7749H115.404C115.994 60.7749 116.342 60.6982 116.635 60.3962L116.837 60.5134C117.248 60.7613 117.532 60.865 117.82 60.865C118.276 60.865 118.564 60.5675 118.65 59.9949H118.695C118.799 60.5765 119.141 60.865 119.777 60.865C120.507 60.865 120.89 60.4052 120.89 59.5306ZM101.933 58.9715C101.933 59.3502 101.717 59.4765 101.122 59.4765C100.666 59.4765 100.504 59.3592 100.504 59.0662C100.504 58.7596 100.734 58.5793 101.266 58.3043L101.938 57.9617V58.9715H101.933Z" fill="white"/>
<path d="M122.185 56.6317V57.1457H123.817V56.5867H123.303C122.969 56.5867 122.78 56.483 122.78 56.2891C122.78 56.1629 122.897 56.0637 123.077 56.0637C123.212 56.0637 123.348 56.1313 123.451 56.235L123.762 55.8338C123.605 55.6399 123.33 55.5137 123.077 55.5137C122.653 55.5137 122.338 55.8112 122.338 56.208C122.338 56.3477 122.392 56.4965 122.478 56.5957L122.469 56.6317H122.185Z" fill="white"/>
<path d="M128.442 57.8305C127.779 57.8305 127.414 58.2408 127.175 58.8539L126.968 59.3904C126.819 59.7872 126.692 59.9359 126.309 59.9359H124.763H124.411C124.398 58.6015 123.866 57.8125 123 57.8125C122.171 57.8125 121.567 58.5654 121.567 59.5212C121.567 60.3191 122.035 60.779 122.833 60.779H123.731C123.546 61.3696 122.964 61.7257 121.927 61.7257H121.494V62.5688H121.959C123.284 62.5688 124.082 61.9196 124.33 60.779H124.583H126.129C126.62 60.779 126.927 60.6618 127.152 60.3552L129.15 60.9142L129.709 60.0937V59.8052C129.709 58.5699 129.253 57.8305 128.442 57.8305ZM123.794 59.9359H122.87C122.428 59.9359 122.189 59.7781 122.189 59.413C122.189 58.9666 122.482 58.6601 122.933 58.6601C123.438 58.6601 123.789 59.1064 123.789 59.7917V59.9359H123.794ZM129.068 60.0081L127.504 59.5662L127.621 59.2462C127.756 58.89 127.955 58.6736 128.306 58.6736C128.784 58.6736 129.068 59.0974 129.068 59.8007V60.0081Z" fill="white"/>
<path d="M20.3588 63.624C20.3588 63.3264 20.201 63.2002 19.9801 63.2002H19.8674C19.6419 63.2002 19.4932 63.3264 19.4932 63.624C19.4932 63.9125 19.6419 64.0478 19.8674 64.0478H19.9801C20.2055 64.0478 20.3588 63.917 20.3588 63.624Z" fill="white"/>
<path d="M18.7899 64.0473C19.0153 64.0473 19.1686 63.912 19.1686 63.6235C19.1686 63.3259 19.0108 63.1997 18.7899 63.1997H18.6772C18.4518 63.1997 18.303 63.3259 18.303 63.6235C18.303 63.912 18.4518 64.0473 18.6772 64.0473H18.7899Z" fill="white"/>
<path d="M40.3071 59.3457V55.3335H39.6083V59.3457C39.6083 59.7469 39.4505 59.9363 39.0177 59.9363H38.2648H37.6472L37.6337 59.9182C38.2243 59.4494 38.4452 59.2239 38.4452 58.6965C38.4452 57.9526 37.9222 57.5559 36.9078 57.5559C36.4074 57.5559 35.8484 57.6911 35.393 57.912V58.7776L36.3037 59.9047L36.2947 59.9363H34.8881H28.4372C28.0359 59.9363 27.8466 59.7514 27.8466 59.3457V55.3335H27.1523V59.3457C27.1523 59.7424 26.9494 59.9363 26.5346 59.9363H25.9666C25.633 59.9363 25.5022 59.8236 25.3399 59.3862L24.7809 57.8895H24.028L23.6177 58.1419C22.9144 58.5838 22.5583 59.0436 22.5583 59.5981C22.5583 59.6973 22.5673 59.7785 22.5808 59.8596C22.4411 59.9272 22.2743 59.9408 21.9677 59.9408C21.6566 59.9408 21.2058 59.8957 20.6918 59.8236L19.7586 59.6838V60.5404L21.4357 60.7793C21.2779 61.3474 20.6377 61.6765 19.6549 61.6765H19.1415C18.1812 61.6765 17.5996 61.2437 17.5996 60.4908C17.5996 60.1482 17.7349 59.6838 17.9197 59.2825L17.3517 59.1112C17.1352 59.6252 17 60.1932 17 60.6396C17 61.8568 17.8881 62.5781 19.3939 62.5781C20.9493 62.5781 21.9186 61.9109 22.0584 60.7568C22.3379 60.6846 22.5092 60.4818 22.6129 60.1436H22.658C22.8428 60.5539 23.2711 60.7928 23.9338 60.7928H24.849V60.2473L24.8941 60.2383C25.133 60.6396 25.4171 60.7883 25.9581 60.7883H26.1159C26.7651 60.7883 27.0536 60.5494 27.1753 59.9363H27.2204C27.3466 60.5178 27.7659 60.7883 28.5098 60.7883H34.9069H35.6733C36.1196 60.7883 36.5614 60.6756 36.9401 60.4232C37.3188 60.6756 37.7967 60.7883 38.2521 60.7883H39.0049C39.9329 60.7793 40.3071 60.324 40.3071 59.3457ZM23.8254 59.9363C23.379 59.9363 23.1311 59.81 23.1311 59.5125C23.1311 59.251 23.4151 59.0346 23.8073 58.8317L24.2537 58.6063L24.6504 59.6658C24.6865 59.7649 24.718 59.8506 24.7541 59.9363H23.8254ZM37.0118 59.7785L35.9884 58.5612V58.5297C36.2859 58.4485 36.606 58.4034 36.9036 58.4034C37.5392 58.4034 37.8368 58.5432 37.8368 58.8498C37.8368 59.1112 37.6339 59.2465 37.2462 59.5711L37.0118 59.7785Z" fill="white"/>
<path d="M42.0292 55.333H41.335V60.7788H42.0292V55.333Z" fill="white"/>
<path d="M44.0352 61.1715V63.0425H44.7204V61.185C44.7204 60.635 44.9143 60.4411 45.4643 60.4411H47.6779V59.6567C47.6779 58.3357 47.0963 57.5693 46.1406 57.5693C45.5455 57.5693 44.9323 57.921 44.6934 58.6649L45.284 59.0075C45.4688 58.6333 45.7303 58.4124 46.1496 58.4124C46.6951 58.4124 47.0422 58.8542 47.0603 59.5891H45.4643C44.4995 59.5936 44.0352 60.0985 44.0352 61.1715Z" fill="white"/>
<path d="M59.6379 55.5723C59.4124 55.5723 59.2637 55.6985 59.2637 55.996C59.2637 56.2891 59.4124 56.4198 59.6379 56.4198H59.7506C59.976 56.4198 60.1293 56.2846 60.1293 55.996C60.1293 55.6985 59.9715 55.5723 59.7506 55.5723H59.6379Z" fill="white"/>
<path d="M60.8283 55.5723C60.6029 55.5723 60.4541 55.6985 60.4541 55.996C60.4541 56.2891 60.6029 56.4198 60.8283 56.4198H60.941C61.1664 56.4198 61.3197 56.2846 61.3197 55.996C61.3197 55.6985 61.1619 55.5723 60.941 55.5723H60.8283Z" fill="white"/>
<path d="M64.3085 56.6768C64.0831 56.6768 63.9343 56.803 63.9343 57.1005C63.9343 57.3936 64.0831 57.5243 64.3085 57.5243H64.4212C64.6466 57.5243 64.7999 57.3891 64.7999 57.1005C64.7999 56.803 64.6421 56.6768 64.4212 56.6768H64.3085Z" fill="white"/>
<path d="M63.1183 56.6768C62.8929 56.6768 62.7441 56.803 62.7441 57.1005C62.7441 57.3936 62.8929 57.5243 63.1183 57.5243H63.231C63.4565 57.5243 63.6097 57.3891 63.6097 57.1005C63.6097 56.803 63.4519 56.6768 63.231 56.6768H63.1183Z" fill="white"/>
<path d="M69.4205 59.3452V55.333H68.7217V59.3452C68.7217 59.7464 68.5639 59.9358 68.1311 59.9358H67.6082C67.2069 59.9358 67.0176 59.7509 67.0176 59.3452V55.333H66.3233V59.3452C66.3233 59.7419 66.1204 59.9358 65.7056 59.9358H64.6913C64.2945 59.9358 64.1097 59.7509 64.1097 59.3452V58.2136H63.4605V59.3452C63.4605 59.7419 63.2576 59.9358 62.8428 59.9358H62.0178H61.0485L61.035 59.8997C61.4813 59.512 61.7067 59.0702 61.7067 58.5517C61.7067 57.7086 61.1342 57.0324 60.3046 57.0324C59.4706 57.0324 58.9026 57.7177 58.9026 58.5517C58.9026 59.0747 59.1189 59.512 59.5743 59.8997L59.5608 59.9358H58.596H52.1538C51.8022 59.9358 51.6309 59.7509 51.3694 59.0206L50.6075 56.9107L49.8996 57.1631L50.5939 59.0927C50.6841 59.3542 50.7337 59.503 50.7337 59.6157C50.7337 59.8636 50.5714 59.9358 50.0394 59.9358H49.025V59.4083H48.3623V59.9538C48.3623 60.5128 48.6779 60.7833 49.1738 60.7833H49.8681C50.5038 60.7833 50.7833 60.5534 50.8734 59.9718L50.9095 59.9628C51.1981 60.5895 51.5046 60.7833 52.1628 60.7833L52.1719 60.7788V60.7833H58.8575C59.3714 60.7833 59.8718 60.6706 60.2956 60.3821C60.7284 60.6751 61.2198 60.7833 61.7428 60.7833H62.41C63.0728 60.7833 63.3658 60.5444 63.483 59.9313H63.5281C63.6543 60.5128 64.0511 60.7833 64.7814 60.7833L64.7904 60.7743L65.2909 60.7833C65.9401 60.7833 66.2286 60.5444 66.3503 59.9313H66.3954C66.5216 60.5128 66.9409 60.7833 67.6848 60.7833H68.1266C69.0463 60.7788 69.4205 60.3235 69.4205 59.3452ZM60.3049 59.7645C59.8045 59.4894 59.4979 59.1378 59.4979 58.6599C59.4979 58.182 59.818 57.871 60.2598 57.871H60.341C60.7873 57.871 61.1029 58.182 61.1029 58.6599C61.1029 59.1378 60.8053 59.4849 60.3049 59.7645Z" fill="white"/>
<path d="M75.5607 57.042C75.3353 57.042 75.1865 57.1682 75.1865 57.4658C75.1865 57.7588 75.3353 57.8896 75.5607 57.8896H75.6734C75.8988 57.8896 76.0521 57.7543 76.0521 57.4658C76.0521 57.1682 75.8943 57.042 75.6734 57.042H75.5607Z" fill="white"/>
<path d="M74.3754 57.0415C74.15 57.0415 74.0012 57.1677 74.0012 57.4653C74.0012 57.7583 74.15 57.8891 74.3754 57.8891H74.4881C74.7135 57.8891 74.8668 57.7538 74.8668 57.4653C74.8668 57.1677 74.709 57.0415 74.4881 57.0415H74.3754Z" fill="white"/>
<path d="M80.4564 61.9013C80.4564 61.6038 80.2986 61.4775 80.0777 61.4775H79.965C79.7396 61.4775 79.5908 61.6038 79.5908 61.9013C79.5908 62.1899 79.7396 62.3251 79.965 62.3251H80.0777C80.3031 62.3296 80.4564 62.1944 80.4564 61.9013Z" fill="white"/>
<path d="M78.7756 61.478C78.5501 61.478 78.4014 61.6043 78.4014 61.9018C78.4014 62.1903 78.5501 62.3256 78.7756 62.3256H78.8883C79.1137 62.3256 79.267 62.1903 79.267 61.9018C79.267 61.6043 79.1092 61.478 78.8883 61.478H78.7756Z" fill="white"/>
<path d="M84.3924 60.7791H84.6449H93.0977L93.3367 60.4139C93.6072 60.6979 93.8957 60.7791 94.3195 60.7791H94.7613C95.6765 60.7791 96.0507 60.3237 96.0507 59.3454V55.3332H95.3519V59.3454C95.3519 59.7466 95.1941 59.936 94.7613 59.936H94.324C94.0535 59.936 93.8551 59.9044 93.6387 59.7737V59.6114C93.6387 58.3716 93.0932 57.7991 91.903 57.7991H85.6592V57.763L88.8374 56.1129V55.2563L85.3572 57.0597V58.6466H91.912C92.674 58.6466 93.0211 58.9622 93.0211 59.652V59.936H84.8297H84.478C84.4645 58.6015 83.9325 57.8126 83.0669 57.8126C82.2374 57.8126 81.6333 58.5655 81.6333 59.5212C81.6333 60.3192 82.1022 60.7836 82.9001 60.7836H83.7928C83.6079 61.3742 83.0264 61.7303 81.9894 61.7303H81.5566V62.5734H82.021C83.3465 62.5686 84.1444 61.9194 84.3924 60.7791ZM82.9317 59.936C82.4899 59.936 82.2509 59.7782 82.2509 59.413C82.2509 58.9667 82.5395 58.6601 82.9948 58.6601C83.4997 58.6601 83.8514 59.1065 83.8514 59.7917V59.9315H82.9317V59.936Z" fill="white"/>
<path d="M97.7724 55.333H97.0781V60.7788H97.7724V55.333Z" fill="white"/>
<path d="M81.0159 59.3994C81.0159 59.174 80.9843 58.8539 80.9257 58.4617L80.8265 57.8125L80.1773 57.9162L80.2945 58.5654C80.3622 58.9892 80.3847 59.2281 80.3847 59.3994C80.3847 59.8097 80.1368 59.9359 79.4605 59.9359H79.0593C78.6355 59.9359 78.4416 59.7511 78.4416 59.3453V58.2137H77.7924V59.3453C77.7924 59.8367 77.4408 59.963 76.0161 59.963H73.7169C72.4636 59.963 71.9496 59.7105 71.9496 59.0974C71.9496 58.8134 72.0533 58.4797 72.2426 58.083L71.6701 57.9117C71.4672 58.3986 71.3635 58.8494 71.3635 59.2462C71.3635 60.4409 72.0939 60.8646 74.2128 60.8646H75.4706C77.1567 60.8646 77.6932 60.6482 77.833 59.9089H77.8691C78.0043 60.4995 78.4055 60.7745 79.1269 60.7745H79.4605C80.5155 60.779 81.0159 60.3282 81.0159 59.3994Z" fill="white"/>
</svg>
