<svg width="156" height="36" viewBox="0 0 156 36" fill="none" xmlns="http://www.w3.org/2000/svg">
<g clip-path="url(#clip0_1633_99)">
<path d="M107.005 0.359141C111.19 0.859141 115.65 4.71914 116.135 8.99914C117.19 18.2892 107.345 21.8842 101.595 26.7992C99.8796 28.2692 98.2646 30.2392 97.6646 32.4492H116.18V35.7242H94.0596C93.4296 25.8292 103.45 22.4992 109.385 17.0642C116.245 10.7792 112.305 2.45914 103.36 3.67414C100.16 4.10914 98.0146 6.99414 97.4896 10.0092L94.3846 9.35914C94.7446 6.73414 96.2996 3.77914 98.4996 2.25414C99.5646 1.51414 101.805 0.509141 103.075 0.354141C103.94 0.249141 106.14 0.249141 107.01 0.354141L107.005 0.359141Z" fill="white"/>
<path d="M3.275 0.359375V15.0194C3.375 15.8994 3.83 16.3444 4.66 16.5794C5.49 16.8144 7.335 16.8694 8.265 16.9044C19.935 17.3694 31.67 17.6144 43.33 17.8844C43.94 17.8994 48.75 17.6994 48.825 17.9594C48.935 18.3394 48.475 18.1944 48.25 18.2044C34.67 18.7494 20.795 18.4244 7.28 19.3494C6.135 19.4294 4.93 19.0844 4.005 20.0044C3.815 20.1944 3.27 21.2144 3.27 21.3944V35.7193H0V0.359375H3.275Z" fill="white"/>
<path d="M140.27 0.359375C141.51 0.704375 142.78 0.884375 144 1.29937C149.805 3.26437 154.335 8.47437 155.56 14.4744C155.735 15.3444 155.8 16.2094 156 17.0644V19.1944L155.51 21.6494V17.9644C155.51 12.2444 149.585 6.04937 144.4 4.33937C127.15 -1.34063 115.005 20.7744 128.55 32.4594L131.915 34.7444C118.235 29.7994 116.265 10.9094 128.65 3.07437C130.52 1.89437 133.82 0.579375 136.01 0.359375H140.27Z" fill="white"/>
<path d="M89.4697 0.359375L64.1547 35.7244H60.3047L85.3747 0.359375H89.4697Z" fill="white"/>
<path d="M56.3692 0.359375V3.63437H35.2292V14.8494C35.2292 15.3544 32.3892 14.7244 31.9492 14.9344V0.359375H56.3642H56.3692Z" fill="white"/>
<path d="M65.0559 0.359375L73.3459 12.6394C73.4459 12.8244 73.4109 12.9444 73.3309 13.1244C73.2359 13.3394 71.9509 15.1044 71.7409 15.3144C71.6259 15.4294 71.6009 15.6494 71.3609 15.5894L60.9609 0.359375H65.0559Z" fill="white"/>
<path d="M26.2195 0.359375L26.0645 14.6944L22.9395 14.6044V0.359375H26.2195Z" fill="white"/>
<path d="M35.2301 20.8242V32.4492H56.2051V35.7242H31.9551V20.8242H35.2301Z" fill="white"/>
<path d="M86.0296 35.7243L77.0796 22.4643C76.9796 22.2843 77.0246 22.1543 77.0946 21.9793C77.2296 21.6343 78.7946 19.5093 79.0596 19.5093L90.1247 35.7193H86.0296V35.7243Z" fill="white"/>
<path d="M26.2195 21.1543V35.7243H22.9395V21.3143L26.2195 21.1543Z" fill="white"/>
<path d="M50.8457 18.9794C49.6657 17.7994 51.3707 15.8844 52.6857 17.0544C54.0007 18.2244 52.1107 20.2444 50.8457 18.9794Z" fill="white"/>
</g>
<defs>
<clipPath id="clip0_1633_99">
<rect width="156" height="36" fill="white"/>
</clipPath>
</defs>
</svg>
