<svg width="287" height="243" viewBox="0 0 287 243" fill="none" xmlns="http://www.w3.org/2000/svg">
<path d="M169.64 127.636V76.6728M169.64 76.6728L193.524 62.3395M169.64 76.6728L120.014 46.9444M193.524 62.3395L219 76.6728V126.574M193.524 62.3395V122.593M193.524 122.593L151.594 147.278M193.524 122.593L217.408 136.926M217.408 136.926V163.735L174.682 188.154M217.408 136.926L166.455 165.858M166.455 165.858L124.26 140.907M166.455 165.858V192.932M166.455 192.932L142.837 207L100.111 182.049M166.455 192.932L115.237 163.204M115.237 163.204V114.099M115.237 163.204L91.884 176.741M91.884 176.741L68 163.204V114.099M91.884 176.741V117.284M91.884 117.284L133.814 93.1296M91.884 117.284L68 103.481M68 103.481V77.7346L110.195 53.0494M68 103.481L120.014 74.2839M120.014 74.2839L161.678 98.9691M120.014 74.2839V46.9444M120.014 46.9444L142.837 35L184.766 59.1543" stroke="#595959"/>
</svg>
