<svg width="1512" height="467" viewBox="0 0 1512 467" fill="none" xmlns="http://www.w3.org/2000/svg">
<g clip-path="url(#clip0_3018_11522)">
<path d="M-14.84 444V54.6196H88.1647L289.646 236.293C293.042 239.311 297.381 243.462 302.664 248.744C308.323 254.026 313.983 259.497 319.642 265.157C325.679 270.816 330.773 276.099 334.923 281.004H340.017C340.017 274.212 339.828 265.723 339.451 255.535C339.451 245.348 339.451 236.293 339.451 228.369V54.6196H448.115V444H346.808L149.854 266.289C140.799 258.365 131.366 249.498 121.556 239.688C111.746 229.878 103.823 222.144 97.786 216.484H93.2584C93.2584 221.389 93.2584 229.313 93.2584 240.254C93.6357 251.196 93.8243 262.893 93.8243 275.344V444H-14.84ZM521.849 444V54.6196H636.739V444H521.849ZM710.34 444V54.6196H825.23V351.183H1075.38V444H710.34ZM1074.77 444L1266.06 54.6196H1394.53L1585.83 444H1460.75L1431.32 381.744H1223.05L1193.62 444H1074.77ZM1261.53 297.416H1392.83L1357.75 218.182C1356.24 214.786 1354.16 209.881 1351.52 203.467C1348.88 196.676 1346.05 189.695 1343.03 182.527C1340.01 174.98 1337.37 168.189 1335.11 162.152C1332.84 155.738 1330.96 151.021 1329.45 148.003H1325.49C1322.84 154.794 1319.64 162.718 1315.86 171.773C1312.09 180.829 1308.51 189.507 1305.11 197.807C1302.09 206.108 1299.26 212.9 1296.62 218.182L1261.53 297.416Z" fill="white"/>
</g>
<defs>
<clipPath id="clip0_3018_11522">
<rect width="1512" height="467" fill="white"/>
</clipPath>
</defs>
</svg>
