<svg width="1804" height="439" viewBox="0 0 1804 439" fill="none" xmlns="http://www.w3.org/2000/svg">
<path d="M0.486847 439V0.425903H116.505L343.442 205.051C347.266 208.451 352.154 213.126 358.103 219.075C364.478 225.025 370.852 231.187 377.227 237.562C384.027 243.936 389.764 249.886 394.439 255.411H400.176C400.176 247.761 399.963 238.199 399.538 226.725C399.538 215.251 399.538 205.051 399.538 196.127V0.425903H521.931V439H407.825L185.988 238.837C175.789 229.912 165.165 219.925 154.115 208.876C143.066 197.827 134.141 189.115 127.342 182.74H122.242C122.242 188.265 122.242 197.189 122.242 209.514C122.667 221.838 122.88 235.012 122.88 249.036V439H0.486847Z" fill="white"/>
<path d="M604.98 439V0.425903H734.385V439H604.98Z" fill="white"/>
<path d="M817.285 439V0.425903H946.69V334.456H1228.45V439H817.285Z" fill="white"/>
<path d="M1227.75 439L1443.21 0.425903H1587.92L1803.38 439H1662.5L1629.35 368.879H1394.77L1361.62 439H1227.75ZM1438.11 273.897H1586L1546.48 184.653C1544.78 180.828 1542.45 175.303 1539.47 168.078C1536.5 160.429 1533.31 152.567 1529.91 144.492C1526.51 135.993 1523.53 128.343 1520.98 121.544C1518.43 114.319 1516.31 109.007 1514.61 105.607H1510.15C1507.17 113.257 1503.56 122.181 1499.31 132.381C1495.06 142.58 1491.02 152.354 1487.2 161.704C1483.8 171.053 1480.61 178.703 1477.64 184.653L1438.11 273.897Z" fill="white"/>
</svg>
