<svg width="287" height="243" viewBox="0 0 287 243" fill="none" xmlns="http://www.w3.org/2000/svg">
<path d="M91.8205 165.583C108.725 185.42 129.894 198.355 150.434 203.248C170.975 208.142 190.85 204.99 205.25 192.718C219.65 180.447 225.915 161.323 224.341 140.266C222.767 119.209 213.352 96.2575 196.447 76.4209C179.542 56.5842 158.374 43.6485 137.834 38.755C117.293 33.8613 97.4183 37.0144 83.0182 49.2861C68.6182 61.5577 62.3537 80.6804 63.9277 101.737C65.5017 122.794 74.9159 145.746 91.8205 165.583Z" stroke="#595959"/>
<path d="M97.6462 160.891C110.512 175.988 126.621 185.827 142.248 189.546C157.874 193.266 172.98 190.861 183.921 181.537C194.862 172.214 199.632 157.68 198.438 141.661C197.244 125.643 190.085 108.176 177.219 93.0793C164.354 77.9826 148.244 68.1445 132.618 64.4252C116.991 60.7058 101.885 63.1103 90.9441 72.434C80.0033 81.7578 75.2335 96.2912 76.4275 112.31C77.6216 128.328 84.781 145.794 97.6462 160.891Z" stroke="#595959"/>
<path d="M100.598 160.632C110.475 172.223 122.881 179.737 134.936 182.534C146.991 185.331 158.659 183.406 167.141 176.178C175.623 168.949 179.375 157.734 178.526 145.388C177.676 133.041 172.224 119.6 162.347 108.01C152.47 96.4199 140.063 88.9044 128.008 86.1076C115.952 83.3108 104.284 85.2365 95.8018 92.4647C87.3201 99.6929 83.5688 110.908 84.4182 123.254C85.2677 135.6 90.7205 149.042 100.598 160.632Z" stroke="#595959"/>
<path d="M99.1337 161.632C106.732 170.548 116.346 176.264 125.731 178.314C135.115 180.364 144.239 178.746 150.93 173.045C157.621 167.343 160.665 158.59 160.129 149C159.594 139.409 155.474 129.01 147.876 120.094C140.278 111.178 130.664 105.461 121.279 103.411C111.895 101.361 102.771 102.98 96.0801 108.681C89.3895 114.383 86.3443 123.135 86.88 132.725C87.4158 142.316 91.5355 152.716 99.1337 161.632Z" stroke="#595959"/>
<path d="M100.736 162.191C106.709 169.2 114.069 173.853 121.12 175.728C128.172 177.602 134.865 176.688 139.6 172.653C144.336 168.617 146.3 162.154 145.568 154.893C144.835 147.635 141.407 139.63 135.434 132.621C129.461 125.612 122.101 120.958 115.051 119.084C107.998 117.209 101.306 118.123 96.5701 122.159C91.8344 126.194 89.8705 132.657 90.603 139.918C91.3352 147.177 94.7625 155.182 100.736 162.191Z" stroke="#595959"/>
<path d="M101.713 162.163C106.326 167.576 111.845 171.3 117.018 172.963C122.199 174.628 126.951 174.205 130.156 171.474C133.361 168.742 134.532 164.118 133.709 158.738C132.888 153.367 130.086 147.327 125.474 141.914C120.861 136.502 115.342 132.777 110.169 131.114C104.987 129.449 100.236 129.871 97.0307 132.602C93.8254 135.334 92.6545 139.959 93.4769 145.339C94.2979 150.71 97.1005 156.75 101.713 162.163Z" stroke="#595959"/>
<path d="M102.722 163.259C106.118 167.245 110.001 170.134 113.512 171.594C117.051 173.066 120.063 173.036 121.898 171.473C123.732 169.909 124.24 166.94 123.348 163.212C122.463 159.514 120.227 155.222 116.83 151.236C113.433 147.25 109.551 144.363 106.04 142.902C102.501 141.43 99.4879 141.46 97.6531 143.023C95.8186 144.587 95.3119 147.556 96.2042 151.284C97.0893 154.982 99.325 159.273 102.722 163.259Z" stroke="#595959"/>
<path d="M102.598 163.652L220.2 58.8608M220.2 58.8608H213.302M220.2 58.8608V64.9381" stroke="#595959"/>
</svg>
