<svg width="1054" height="866" viewBox="0 0 1054 866" fill="none" xmlns="http://www.w3.org/2000/svg">
<path d="M0 758H1054M0 795H99.5M1054 795H947M99.5 795V865H0H106.5M99.5 795H106.5M1054 865H947M225.5 865V795M225.5 865H106.5M225.5 865H233M225.5 795H106.5M225.5 795H233M355.5 795V865M355.5 795H233M355.5 795H361M355.5 865H233M355.5 865H361M493 865V795M493 865H361M493 865H499M493 795H361M493 795H499M611.5 795V865M611.5 795H499M611.5 795H619M611.5 865H499M611.5 865H619M722.5 865V795M722.5 865H619M722.5 865H728.5M722.5 795H619M722.5 795H728.5M830 795V865M830 795H728.5M830 795H834.5M830 865H728.5M830 865H834.5M942 795V865M942 795H834.5M942 795H947M942 865H834.5M942 865H947M106.5 795V865M233 795V865M361 795V865M499 795V865M619 795V865M728.5 795V865M834.5 795V865M947 795V865" stroke="url(#paint0_linear_2112_6744)"/>
<path d="M175.179 758L190.771 438.369M175.179 758H144.704L166.674 446.165L186.518 439.831M175.179 758H202.11L213.45 446.165L195.023 439.831M190.771 438.369L186.518 439.831M190.771 438.369L195.023 439.831M186.518 439.831L189.353 405.06H193.251M195.023 439.831L197.149 405.06H193.251M193.251 405.06L193.605 388.05H189.353M189.353 388.05H199.275V368.206L189.353 367.498V388.05ZM268.021 412.856L100.055 332.771L127.695 140L75.25 505.697M268.021 412.856L277.943 314.344M268.021 412.856L259.067 491.523L258.099 500.028" stroke="#595959"/>
<path d="M252.43 488.688H266.604" stroke="#595959"/>
<path d="M253.848 468.844H268.022" stroke="#595959"/>
<path d="M71 488.688H85.1743" stroke="#595959"/>
<path d="M75.25 466.008H89.4243" stroke="#595959"/>
<path d="M78.0859 444.746H92.2602" stroke="#595959"/>
<path d="M82.3398 419.234H96.5142" stroke="#595959"/>
<path d="M85.1758 386.633H99.3501" stroke="#595959"/>
<path d="M89.4258 354.031H103.6" stroke="#595959"/>
<path d="M96.5156 301.586H110.69" stroke="#595959"/>
<path d="M103.602 249.141H117.776" stroke="#595959"/>
<path d="M110.688 196.695H124.862" stroke="#595959"/>
<path d="M256.684 449H270.858" stroke="#595959"/>
<path d="M259.52 424.902H273.694" stroke="#595959"/>
<path d="M263.062 393.719H277.237" stroke="#595959"/>
<path d="M265.188 369.625H279.362" stroke="#595959"/>
<path d="M268.023 346.945H282.198" stroke="#595959"/>
<g opacity="0.3">
<path d="M287.574 362.42C287.606 362.39 287.709 362.328 287.995 362.357C288.278 362.386 288.666 362.499 289.168 362.719C290.167 363.157 291.504 363.971 293.15 365.143C296.434 367.482 300.862 371.19 306.127 375.992C316.652 385.59 330.478 399.519 345.108 415.501C359.738 431.484 372.393 446.486 381.025 457.817C385.343 463.484 388.646 468.222 390.687 471.7C391.709 473.442 392.401 474.846 392.75 475.88C392.925 476.399 393.003 476.796 393.007 477.081C393.011 477.369 392.939 477.465 392.907 477.494C392.875 477.524 392.773 477.586 392.487 477.557C392.204 477.528 391.815 477.415 391.313 477.195C390.314 476.756 388.976 475.943 387.331 474.771C384.047 472.432 379.619 468.724 374.355 463.923C363.83 454.324 350.003 440.395 335.373 424.412C320.743 408.429 308.089 393.428 299.456 382.097C295.138 376.43 291.835 371.692 289.794 368.214C288.772 366.472 288.08 365.068 287.731 364.034C287.556 363.515 287.479 363.118 287.475 362.833C287.471 362.546 287.542 362.449 287.574 362.42Z" stroke="#595959"/>
<path d="M183.576 206.923C183.97 206.562 184.656 206.389 185.769 206.565C186.872 206.74 188.292 207.244 190.026 208.089C193.489 209.776 198.091 212.766 203.706 216.952C214.929 225.32 230.124 238.41 248.222 255.232C284.414 288.873 332.178 337.407 382.935 392.858C433.691 448.308 477.822 500.168 508.139 539.187C523.299 558.698 534.997 574.989 542.343 586.907C546.018 592.869 548.59 597.716 549.964 601.315C550.653 603.117 551.03 604.576 551.107 605.69C551.184 606.814 550.951 607.481 550.557 607.843C550.162 608.204 549.476 608.378 548.363 608.201C547.26 608.026 545.84 607.522 544.106 606.678C540.643 604.991 536.041 602.001 530.426 597.815C519.203 589.446 504.009 576.356 485.911 559.534C449.718 525.892 401.953 477.359 351.197 421.909C300.44 366.458 256.31 314.598 225.993 275.579C210.833 256.068 199.134 239.778 191.789 227.86C188.114 221.898 185.542 217.05 184.167 213.452C183.479 211.65 183.102 210.191 183.025 209.077C182.948 207.953 183.181 207.285 183.576 206.923Z" stroke="#595959"/>
<path d="M295.576 103.923C295.97 103.562 296.656 103.389 297.769 103.565C298.872 103.74 300.292 104.244 302.026 105.089C305.489 106.776 310.091 109.766 315.706 113.952C326.929 122.32 342.124 135.41 360.222 152.232C396.414 185.873 444.178 234.407 494.935 289.858C545.691 345.308 589.822 397.168 620.139 436.187C635.299 455.698 646.997 471.989 654.343 483.907C658.018 489.869 660.59 494.716 661.964 498.315C662.653 500.117 663.03 501.576 663.107 502.69C663.184 503.814 662.951 504.481 662.557 504.843C662.162 505.204 661.476 505.378 660.363 505.201C659.26 505.026 657.84 504.522 656.106 503.678C652.643 501.991 648.041 499.001 642.426 494.815C631.203 486.446 616.009 473.356 597.911 456.534C561.718 422.892 513.953 374.359 463.197 318.909C412.44 263.458 368.31 211.598 337.993 172.579C322.833 153.068 311.134 136.778 303.789 124.86C300.114 118.898 297.542 114.05 296.167 110.452C295.479 108.65 295.102 107.191 295.025 106.077C294.948 104.953 295.181 104.285 295.576 103.923Z" stroke="#595959"/>
<path d="M383.226 76.0049C384.761 74.6002 387.325 74.2256 390.987 75.0152C394.629 75.8006 399.226 77.7117 404.667 80.676C415.543 86.6014 429.684 96.6742 446.122 110.114C478.993 136.988 520.983 177.268 564.294 224.585C607.606 271.902 644.025 317.281 667.894 352.395C679.831 369.955 688.617 384.929 693.559 396.286C696.032 401.967 697.53 406.715 697.991 410.412C698.455 414.129 697.855 416.65 696.321 418.054C694.786 419.459 692.223 419.833 688.561 419.043C684.919 418.258 680.322 416.347 674.881 413.383C664.005 407.457 649.864 397.384 633.426 383.945C600.555 357.071 558.565 316.791 515.254 269.474C471.942 222.157 435.523 176.777 411.654 141.664C399.717 124.104 390.931 109.129 385.989 97.7728C383.516 92.0915 382.018 87.3441 381.557 83.647C381.093 79.9301 381.692 77.4095 383.226 76.0049Z" stroke="#595959"/>
<path d="M444.395 33.1038C446.663 31.0271 449.904 30.0473 454.073 30.1543C458.245 30.2614 463.303 31.4569 469.134 33.6801C480.793 38.1259 495.44 46.6393 512.095 58.5373C545.397 82.3287 586.638 119.591 627.915 164.685C669.192 209.779 702.67 254.146 723.431 289.417C733.813 307.057 741.001 322.398 744.401 334.404C746.101 340.408 746.846 345.551 746.584 349.717C746.323 353.879 745.061 357.021 742.792 359.097C740.524 361.174 737.283 362.154 733.114 362.047C728.942 361.94 723.885 360.744 718.054 358.52C706.395 354.075 691.747 345.561 675.093 333.663C641.791 309.872 600.55 272.611 559.273 227.517C517.996 182.422 484.518 138.055 463.757 102.783C453.375 85.1438 446.187 69.8027 442.787 57.7966C441.087 51.7927 440.341 46.6498 440.603 42.4845C440.864 38.3221 442.126 35.1805 444.395 33.1038Z" stroke="#595959"/>
<path d="M411.574 259.42C411.606 259.39 411.709 259.328 411.995 259.357C412.278 259.386 412.666 259.499 413.168 259.719C414.167 260.157 415.504 260.971 417.15 262.143C420.434 264.482 424.862 268.19 430.127 272.992C440.652 282.59 454.478 296.519 469.108 312.501C483.738 328.484 496.393 343.486 505.025 354.817C509.343 360.484 512.646 365.222 514.687 368.7C515.709 370.442 516.401 371.846 516.75 372.88C516.925 373.399 517.003 373.796 517.007 374.081C517.011 374.369 516.939 374.465 516.907 374.494C516.875 374.524 516.773 374.586 516.487 374.557C516.204 374.528 515.815 374.415 515.313 374.195C514.314 373.756 512.976 372.943 511.331 371.771C508.047 369.432 503.619 365.724 498.355 360.923C487.83 351.324 474.003 337.395 459.373 321.412C444.743 305.429 432.089 290.428 423.456 279.097C419.138 273.43 415.835 268.692 413.794 265.214C412.772 263.472 412.08 262.068 411.731 261.034C411.556 260.515 411.479 260.118 411.475 259.833C411.471 259.546 411.542 259.449 411.574 259.42Z" stroke="#595959"/>
</g>
<defs>
<linearGradient id="paint0_linear_2112_6744" x1="7.56368e-10" y1="811.5" x2="1111" y2="812" gradientUnits="userSpaceOnUse">
<stop stop-color="#595959"/>
<stop offset="1" stop-color="#595959" stop-opacity="0"/>
</linearGradient>
</defs>
</svg>
