<svg width="180" height="80" viewBox="0 0 180 80" fill="none" xmlns="http://www.w3.org/2000/svg">
<path d="M20.5228 34.7234C20.3363 34.8007 19.9374 34.7749 19.6732 34.8315C19.1396 34.883 18.5282 35.0168 17.9428 35.2536C17.1191 35.5985 16.2384 36.2058 15.4146 36.6846C15.3628 35.9434 16.5077 34.9654 17.145 34.6462C16.7719 34.4867 15.1504 34.4867 15.1504 33.6682C15.1504 31.8409 16.9585 29.8076 18.9582 29.8076C19.5436 29.8076 20.2897 30.1783 20.2897 30.868C20.2897 31.0018 19.7561 31.8203 19.466 32.2166C19.1706 32.0828 18.3987 31.5269 17.9998 31.5269C17.575 31.5269 16.6684 31.846 16.6684 32.3196C16.6684 33.0093 19.782 33.138 19.8389 33.138H21.5952C21.4087 33.5086 20.8751 34.3013 20.528 34.7234H20.5228Z" fill="white"/>
<path d="M24.3564 36.6845L23.4238 26.8941C23.4238 26.7602 23.6103 26.5492 23.7191 26.4463C24.0662 25.9985 24.5688 25.494 24.9417 25.0977C25.0247 25.7051 25.0765 26.3691 25.1283 26.9765C25.3148 29.1178 25.636 32.3761 25.9002 34.1211C25.9002 34.1726 26.0349 34.2807 26.1385 34.3064C26.4027 34.3579 26.6462 34.5689 26.9104 34.5689H27.3611V36.6845H24.3512H24.3564Z" fill="white"/>
<path d="M32.5832 34.5691V36.6847H31.0394C30.6922 36.6847 30.2933 36.206 30.2415 35.9435C30.1068 36.103 29.5214 36.6847 29.2572 36.6847H26.5684V34.5691H30.0032C30.485 34.5691 30.4021 33.1948 30.4539 33.1381C30.8787 32.5565 31.547 31.8667 32.1843 31.2593C32.2102 32.0263 31.7336 33.0558 31.4642 34.1161C31.7025 34.3272 31.9978 34.5639 32.3138 34.5639C32.4744 34.5639 32.635 34.3786 32.7645 34.3786C32.7127 34.3786 32.6557 34.5639 32.578 34.5639L32.5832 34.5691Z" fill="white"/>
<path d="M32.1533 36.6846V34.5691H32.661C34.7385 33.8278 39.023 30.0187 40.7274 30.0187C41.6859 30.0187 43.9757 31.6865 43.9757 32.8241C43.9757 32.9322 43.3903 33.8536 43.1779 34.5691H44.4835V36.6846H32.1533ZM36.7331 29.226C36.6243 29.226 35.3758 28.3509 35.3758 28.1142C35.3758 27.9546 36.5207 26.8428 36.7072 26.8428C36.8937 26.8428 38.1163 27.9289 38.1163 28.1142C38.1163 28.4333 36.8626 29.226 36.7331 29.226ZM39.5307 32.3196C38.308 32.3196 36.8678 33.6683 35.4275 34.358H41.0486C41.1263 34.3837 41.8205 34.1984 41.8205 33.8536C41.8205 33.0351 39.9555 32.3196 39.5307 32.3196Z" fill="white"/>
<path d="M43.6028 36.6848V34.5692H46.5299C46.5817 34.2758 46.504 33.828 46.6646 33.617C47.5453 32.5051 49.7264 30.3895 51.1355 30.3895C52.1458 30.3895 52.3893 32.0316 52.3893 32.5308C52.3893 32.639 52.3893 32.953 52.3375 33.1125C52.1251 33.5603 51.752 34.0133 51.4878 34.5692H53.0835V36.6848H43.6028ZM49.1927 29.01L47.8613 27.9239C48.2861 27.4761 49.084 26.6782 49.1927 26.6782C49.3275 26.6782 50.1512 27.4452 50.633 27.8673C50.2082 28.2636 49.6228 28.7423 49.1927 29.0049V29.01ZM50.7625 33.4831C50.6538 33.2206 50.4983 32.8757 50.203 32.6904C50.0424 32.6132 49.7523 32.5051 49.6435 32.5051C49.4311 32.5051 47.8613 33.0096 47.8613 33.5089C47.8613 34.1729 49.2187 34.5692 49.514 34.5692C49.6487 34.5692 50.26 34.4354 50.5812 34.3067C50.69 34.2295 50.7936 34.1214 50.8454 34.0957C50.8454 33.8846 50.8195 33.5912 50.7677 33.4883L50.7625 33.4831Z" fill="white"/>
<path d="M56.7052 36.6846C56.358 36.4736 56.4927 35.8405 56.2803 35.4699C56.0161 35.8405 55.7208 36.2883 55.3737 36.6846H52.2031V34.569H56.0886L55.1302 28.0884L56.7518 25.8647C56.8036 26.4464 56.9383 27.2649 56.9642 27.6354C57.1248 29.329 57.4149 31.8409 57.5496 33.9565C57.5755 34.3786 57.9226 34.5639 58.2438 34.5639H58.5909V36.6795H56.7L56.7052 36.6846Z" fill="white"/>
<path d="M63.8648 28.7213C63.6006 29.0404 63.1706 29.6221 62.8287 30.0442C62.7768 30.0957 62.7768 30.1523 62.7768 30.281L63.2276 33.9305L62.7198 36.5763C62.5852 36.5763 62.4815 36.6843 62.3468 36.6843H57.793V34.5688H61.7355C61.7873 34.2496 61.8132 34.0643 61.8132 33.9356C61.8132 33.8069 61.6785 32.7466 61.5749 32.1649C61.4402 31.3722 61.2019 29.7817 60.8548 28.6441C60.803 28.4845 60.373 28.2735 60.0829 28.0367C60.5336 27.1102 60.8807 26.4204 61.5749 25.499C61.5749 25.7616 61.6008 26.1064 61.7614 26.3432C61.9998 26.6623 62.4815 26.8991 62.8805 27.1359C63.3312 27.4293 63.8389 27.7433 64.3466 28.0367C64.2378 28.2477 64.0513 28.5154 63.8648 28.7264V28.7213Z" fill="white"/>
<path d="M79.7077 36.6588H71.5066C71.372 36.6588 71.32 36.5816 71.2165 36.5816C70.605 36.5558 69.4598 35.7065 69.3515 34.9395C69.3252 34.8315 69.3252 34.5432 69.3252 34.4093C69.3252 33.4571 69.9367 30.9194 70.5218 30.626L70.6307 30.7084C70.6307 31.2128 70.4446 32.4791 70.4446 32.6901C70.4446 32.7982 70.4704 33.246 70.5793 33.5085C70.7653 33.9306 71.8585 34.4866 72.3096 34.4866H79.3655C79.4433 34.3785 79.5264 34.3012 79.5264 34.1674C79.5264 33.663 78.7803 32.582 78.6194 32.3144L79.7125 30.4098C80.2462 30.8885 80.8577 32.0775 80.8577 32.8445C80.8577 34.0593 80.2725 35.5418 79.7125 36.6536L79.7077 36.6588ZM76.563 29.3031L75.0451 28.5104C74.7495 28.6957 74.4856 28.9891 74.2726 29.2517C73.7395 29.0406 73.1538 28.7472 72.6201 28.4332C72.9157 28.0626 73.6306 27.2441 73.8173 27.2441C73.9519 27.2441 75.0139 27.9854 75.1486 27.9854C75.2575 27.9854 75.8115 27.4552 76.1328 27.2441L77.7028 28.0368C77.4072 28.4332 76.9567 28.9634 76.5576 29.3083L76.563 29.3031Z" fill="white"/>
<path d="M84.1522 36.6849L83.168 28.5108C83.168 28.1659 84.4478 26.2356 84.7116 25.9165L85.2453 32.742C85.2453 34.1164 85.1107 35.2539 84.1522 36.6849Z" fill="white"/>
<path d="M89.1831 40.5967C88.2503 40.5967 85.0021 39.2739 84.7119 38.9032V38.6665C84.7897 38.615 84.7897 38.5893 84.9243 38.5893C85.1624 38.5893 86.7067 39.2224 87.375 39.2224C88.3592 39.2224 91.9288 36.6538 91.9288 35.2022C91.9288 34.5948 90.0118 33.0352 89.8514 32.9528L90.5975 30.8115C92.1412 31.7123 92.9387 33.4573 92.9387 34.8316C92.9387 36.206 91.6332 40.6019 89.1831 40.6019V40.5967Z" fill="white"/>
<path d="M95.255 36.6845L94.3223 26.8941C94.3223 26.7602 94.5089 26.5492 94.6178 26.4463C94.9649 25.9985 95.4674 25.494 95.8402 25.0977C95.9233 25.7051 95.9754 26.3691 96.0269 26.9765C96.2135 29.1178 96.5348 32.3761 96.7987 34.1211C96.7987 34.1726 96.9339 34.2807 97.0374 34.3064C97.3013 34.3579 97.5448 34.5689 97.8092 34.5689H98.2598V36.6845H95.2497H95.255Z" fill="white"/>
<path d="M107.238 34.6205C106.891 35.2279 106.466 35.8662 106.067 36.4736L102.021 35.0169C101.249 35.336 101.435 36.1287 100.798 36.6846H97.4668V34.569H101.063C101.223 34.1985 101.358 33.9616 101.41 33.694C101.705 32.7675 102.663 31.3107 103.751 30.8114C104.259 30.5747 105.295 29.9672 106.176 30.0187C106.228 30.0702 106.31 30.1268 106.336 30.204C106.601 31.0482 107.082 32.3762 107.347 33.4315C107.399 33.5653 107.425 33.9616 107.425 34.0646C107.425 34.1984 107.316 34.4609 107.238 34.6205ZM104.787 32.2115C104.679 32.1034 104.627 32.1343 104.492 32.1343C104.358 32.1343 104.042 32.2115 103.906 32.2681C103.694 32.3505 103.456 32.4535 103.238 32.5873C103.187 32.6388 103.052 32.7211 103.052 32.7726L105.451 33.7249C105.316 33.1689 105.29 32.613 104.787 32.2167V32.2115Z" fill="white"/>
<path d="M113.174 40.8133C112.403 40.7618 111.47 41.2611 110.589 41.8736V41.6883C110.589 41.5545 111.123 41.0552 111.413 40.8133C111.04 40.6537 110.563 40.6794 110.268 40.4684C110.242 40.0206 110.507 39.3566 111.04 38.883C111.175 38.7492 111.413 38.6205 111.574 38.5381C111.734 38.4866 111.972 38.4043 112.107 38.4043C112.242 38.4043 112.319 38.4815 112.428 38.4815C112.48 38.5329 112.589 38.641 112.641 38.6925C112.641 38.744 112.718 38.744 112.718 38.8779C112.718 39.0116 112.506 39.2742 112.346 39.4852C112.346 39.4852 112.268 39.408 112.268 39.3514C112.242 39.2999 112.133 39.2433 112.03 39.1918C111.921 39.1403 111.843 39.1146 111.709 39.1146C111.574 39.1146 111.335 39.2227 111.123 39.2999C111.071 39.2999 110.962 39.4338 110.859 39.5367C110.807 39.5882 110.807 39.5109 110.807 39.6448C110.807 39.7786 110.967 39.8816 111.071 39.9073C111.553 40.0412 112.403 40.0926 112.537 40.0926C112.672 40.0926 112.936 40.0926 113.573 40.0412C113.465 40.2522 113.335 40.5713 113.174 40.8081V40.8133Z" fill="white"/>
<path d="M119.034 29.0922C119.008 29.0922 119.008 29.1179 118.873 29.1179C118.765 29.1179 118.578 29.0408 118.423 28.9326C118.314 29.5143 118.158 30.2812 117.941 30.8886C117.728 31.4446 117.091 32.3196 117.091 32.4483C117.091 32.5564 117.252 32.7366 117.278 32.8189C117.786 33.694 117.837 34.2757 117.837 34.9346C117.837 35.0684 117.786 36.0978 117.677 36.6795H112.004C111.713 36.52 111.605 35.7273 111.605 35.3566C111.605 35.2485 111.631 34.8007 111.657 34.4301C111.682 34.219 111.791 33.9256 111.895 33.6631C112.03 33.7403 112.159 34.008 112.294 34.1933C112.481 34.4301 112.744 34.4558 112.931 34.4558C113.677 34.4558 115.06 33.1072 115.485 32.7366C115.247 32.1549 113.89 30.7548 113.17 30.3276C113.009 30.5129 112.983 30.7497 112.848 30.9607C112.05 30.4563 111.092 29.9312 110.32 29.504C110.108 29.3702 109.947 28.7113 109.947 28.4436C109.947 28.3098 110.108 27.5686 110.211 27.1465H111.807C111.859 27.0384 111.885 26.7758 111.859 26.5648C113.377 27.4656 115.563 29.7408 116.413 31.3262C116.863 30.5849 116.972 29.6585 116.972 28.8915C116.972 28.2841 116.837 27.9392 116.438 27.4605L118.034 25C118.06 25.2111 118.06 25.5302 118.221 25.767C118.355 25.978 118.702 26.1891 118.941 26.3744C118.941 26.3744 120.195 27.0075 120.195 27.2185C120.195 27.3267 119.423 28.49 119.024 29.0716L119.034 29.0922ZM115.947 33.4057C115.573 33.8279 115.066 34.358 114.692 34.5948C115.278 34.6463 115.972 34.6463 116.557 34.5948C116.397 34.2242 116.159 33.7763 115.947 33.4057Z" fill="white"/>
<path d="M123.479 36.6844L122.495 28.5103C122.495 28.1654 123.774 26.2352 124.039 25.916L124.572 32.7415C124.572 34.1159 124.438 35.2535 123.479 36.6844Z" fill="white"/>
<path d="M133.514 28.0579C133.38 28.0579 132.504 27.5534 131.971 27.2394C131.706 27.5328 131.198 28.0063 131.121 28.0063C130.986 28.0063 130.136 27.5019 129.655 27.1879C129.867 26.843 130.349 26.3952 130.748 25.9165C131.172 26.2356 132.002 26.7607 132.131 26.7607C132.209 26.7607 132.799 26.1533 133.089 25.9165L134.716 26.843C134.369 27.1879 133.649 28.0579 133.52 28.0579H133.514ZM136.016 36.6849C135.907 36.6849 135.83 36.6335 135.753 36.5511C135.592 36.443 135.379 36.2062 135.328 36.0209C135.167 35.5165 135.115 34.9348 134.954 34.4046C134.26 34.7238 134.286 36.0209 133.462 36.0981L130.24 35.465V35.1716C130.24 35.0635 130.773 33.6891 131.038 32.8964C131.225 32.3405 132.157 31.7846 132.53 31.5735C133.064 31.2801 133.649 30.9095 134.183 30.5698C134.131 30.3587 133.97 30.0653 133.97 29.9366C133.97 29.808 134.742 28.691 135.115 28.0579C135.462 29.8594 135.675 32.1861 136.182 34.2244C136.26 34.5951 136.607 34.5694 136.98 34.5694H137.54V36.6849H136.022H136.016ZM134.872 33.3751C134.872 33.2413 134.659 32.0265 134.498 31.3882C134.312 31.4397 134.126 31.6507 134.099 31.7588C133.727 32.8707 132.581 33.0817 132.048 33.3751C132.581 33.5347 133.54 33.7715 133.675 33.7715H134.872V33.3751Z" fill="white"/>
<path d="M142.86 28.7213C142.596 29.0404 142.166 29.6221 141.824 30.0442C141.772 30.0957 141.772 30.1523 141.772 30.281L142.223 33.9305L141.715 36.5763C141.581 36.5763 141.477 36.6843 141.342 36.6843H136.788V34.5688H140.731C140.782 34.2496 140.809 34.0643 140.809 33.9356C140.809 33.8069 140.674 32.7466 140.57 32.1649C140.435 31.3722 140.197 29.7817 139.85 28.6441C139.798 28.4845 139.369 28.2735 139.078 28.0367C139.529 27.1102 139.876 26.4204 140.57 25.499C140.57 25.7616 140.596 26.1064 140.757 26.3432C140.995 26.6623 141.477 26.8991 141.876 27.1359C142.327 27.4293 142.834 27.7433 143.342 28.0367C143.233 28.2477 143.046 28.5154 142.86 28.7264V28.7213Z" fill="white"/>
<path d="M146.373 36.6845L145.44 26.8941C145.44 26.7602 145.627 26.5492 145.735 26.4463C146.083 25.9985 146.585 25.494 146.958 25.0977C147.041 25.7051 147.093 26.3691 147.145 26.9765C147.331 29.1178 147.652 32.3761 147.917 34.1211C147.917 34.1726 148.051 34.2807 148.155 34.3064C148.419 34.3579 148.663 34.5689 148.927 34.5689H149.378V36.6845H146.368H146.373Z" fill="white"/>
<path d="M156.2 27.9238C154.709 28.4282 153.164 28.9275 151.595 29.432C152.978 30.6777 154.709 31.9439 156.04 33.6941C156.149 33.8279 156.227 34.039 156.227 34.1985L155.615 36.6847H148.849V34.5691H154.496L151.512 32.0829C151.46 32.191 151.274 32.3454 151.216 32.4536C151.056 32.294 150.735 32.0057 150.497 31.738C150.123 31.3417 149.512 30.6519 149.512 30.5233C149.512 30.3946 150.02 28.6959 150.259 27.826C152.387 27.1929 154.6 26.5031 156.781 25.8442C156.672 26.4516 156.459 27.2752 156.196 27.9341L156.2 27.9238Z" fill="white"/>
<path d="M160.967 41.338C159.822 41.338 156.812 40.4938 156.362 40.1232C156.362 39.7526 156.657 39.8041 156.734 39.8041C156.869 39.8041 158.651 40.1747 158.786 40.1747C159.983 40.1747 164.138 37.6061 164.138 35.5986C164.138 35.4905 164.112 35.1508 164.003 34.8831H163.951C163.417 36.3398 162.806 36.6796 161.77 36.6796C160.387 36.6796 160.252 35.8354 160.252 34.7493C160.252 34.6155 160.226 34.353 160.252 34.1161C160.304 33.6374 161.744 30.7549 163.024 30.7549C163.848 30.7549 164.594 32.3403 164.703 32.6594C164.78 32.8447 164.863 33.0815 164.915 33.3234C165.023 33.7198 165.101 34.4868 165.101 34.6206C165.101 36.9215 163.635 41.3431 160.972 41.3431L160.967 41.338ZM162.273 33.0815C162.086 33.0815 161.05 33.375 161.05 33.9257C161.05 34.3478 162.221 34.5074 162.355 34.5074C162.729 34.5074 162.863 34.4816 163.34 34.2448C163.34 33.4264 162.702 33.0815 162.273 33.0815Z" fill="white"/>
<path d="M17.093 50.5673C17.093 53.5836 18.3985 54.0726 19.528 54.0726C20.849 54.0726 21.9629 53.5218 21.9629 50.4231V45.5536C21.9629 45.2448 22.0924 45.183 22.3203 45.147C22.7918 45.1007 23.429 45.0801 23.7554 45.0801C23.7243 45.7286 23.7088 46.6861 23.7088 48.0347V50.3407C23.7088 54.8859 21.2894 55.5345 19.3 55.5345C16.5335 55.5294 15.0466 54.119 15.0466 50.629V47.3038C15.0466 46.2176 15.0311 45.5485 15 45.2088C15.2953 45.1625 16.4195 45.0801 16.7459 45.0801C17.0412 45.0801 17.0878 45.2242 17.0878 46.0221V50.5673H17.093Z" fill="white"/>
<path d="M28.5429 52.4975C28.1647 53.4395 27.6932 54.6388 27.4808 55.1587C27.4134 55.3028 27.284 55.3852 27.0249 55.3852C26.6674 55.3852 25.9473 55.2874 25.5898 55.1742V55.1072C26.4395 53.1255 28.9884 47.0876 29.6101 45.6154L29.4805 45.2757C30.0867 45.147 30.9985 45.0801 31.1954 45.0801C31.3405 45.0801 31.4907 45.1779 31.5684 45.3735C32.3196 47.1596 33.5629 50.3562 34.1328 51.7666C34.8012 53.4241 35.1949 54.4432 35.5213 55.1278V55.1948C35.1638 55.308 34.05 55.3904 33.6925 55.3904C33.4283 55.3904 33.2987 55.308 33.1381 54.8705C32.8429 54.0417 32.6149 53.4241 32.2419 52.5027H28.548L28.5429 52.4975ZM31.843 51.1489C31.0917 49.1363 30.5996 47.9215 30.4234 47.4016C30.0142 48.4722 29.5583 49.7539 29.0039 51.1489H31.8481H31.843Z" fill="white"/>
<path d="M37.9245 47.417C37.9245 46.6398 37.9245 46.0529 37.8779 45.3735C38.3338 45.2602 39.054 45.1624 39.7223 45.147H43.6907C43.5923 45.8779 43.3954 46.1868 43.1985 46.3978C42.955 46.4956 42.4007 46.4956 41.6651 46.4956H39.9657V49.3988H43.5249C43.3799 50.5363 43.0172 50.7474 42.4474 50.7474H39.9657V53.9285C40.3439 54.0108 40.862 54.0417 41.4837 54.0417C42.152 54.0417 43.3436 54.0417 44.1311 53.9748L44.1621 54.0057C44.0171 54.7057 43.7063 55.0764 43.297 55.3028C43.069 55.3491 42.3334 55.3852 41.0744 55.3852C39.6342 55.3852 38.5566 55.3028 38.168 55.2205L37.9245 54.9117V47.4118V47.417Z" fill="white"/>
<path d="M54.099 44.8997C54.9642 44.8997 56.0418 45.2548 56.4511 45.6769C56.4511 46.0836 56.192 46.7476 55.617 46.7167C55.2388 46.5211 54.5394 46.3101 54.0161 46.3101C53.1509 46.3101 52.5293 46.7167 52.5293 47.4322C52.5293 48.194 53.0681 48.5852 54.586 49.4448C56.0573 50.2736 56.8914 50.8913 56.8914 52.4303C56.8914 54.443 55.13 55.5291 53.1976 55.5291C52.0682 55.5291 51.2393 55.2048 50.8145 54.896C50.5398 54.7158 50.4414 54.5563 50.4414 54.3452C50.4414 54.0054 50.6849 53.4032 50.8352 53.3054C51.4206 53.712 52.4049 54.0673 53.1872 54.0673C54.1664 54.0673 54.8554 53.6451 54.8554 52.8164C54.8554 52.1009 54.4772 51.6943 52.8298 50.8038C50.9336 49.7794 50.6072 48.7448 50.6072 47.7668C50.6072 46.6652 51.3895 44.8945 54.0887 44.8945H54.1042L54.099 44.8997Z" fill="white"/>
<path d="M59.5849 47.4323C59.5849 46.6551 59.5849 45.9859 59.5176 45.2395C59.958 45.1726 61.0667 45.0439 62.196 45.0439C64.6776 45.0439 66.408 45.8881 66.408 48.3383C66.408 50.7885 64.3823 51.5657 63.3047 51.5863C63.0457 51.5863 62.652 51.5554 62.4706 51.4576C62.2271 51.329 61.9318 50.876 61.9318 50.3561C62.0614 50.387 62.2893 50.4024 62.455 50.4024C63.2736 50.4024 64.2839 49.9803 64.2839 48.3435C64.2839 46.7992 63.2373 46.3154 62.2738 46.3154C62.0769 46.3154 61.8489 46.3308 61.621 46.3617V53.3261C61.621 54.4637 61.6521 54.9321 61.6676 55.2564C61.3878 55.3388 60.3776 55.3851 59.9372 55.3851C59.6937 55.3851 59.5798 55.3388 59.5798 55.0917V47.4323H59.5849Z" fill="white"/>
<path d="M70.1902 52.4975C69.812 53.4395 69.3406 54.6388 69.1282 55.1587C69.0611 55.3028 68.9313 55.3852 68.6724 55.3852C68.3149 55.3852 67.5948 55.2874 67.2373 55.1742V55.1072C68.087 53.1255 70.6359 47.0876 71.2575 45.6154L71.1283 45.2757C71.7344 45.147 72.6462 45.0801 72.8431 45.0801C72.9879 45.0801 73.138 45.1779 73.2158 45.3735C73.9673 47.1596 75.2106 50.3562 75.7802 51.7666C76.4485 53.4241 76.8422 54.4432 77.1689 55.1278V55.1948C76.8111 55.308 75.6976 55.3904 75.3398 55.3904C75.076 55.3904 74.9461 55.308 74.7858 54.8705C74.4902 54.0417 74.2623 53.4241 73.8895 52.5027H70.1955L70.1902 52.4975ZM73.4904 51.1489C72.739 49.1363 72.2471 47.9215 72.0706 47.4016C71.6614 48.4722 71.2055 49.7539 70.6515 51.1489H73.4958H73.4904Z" fill="white"/>
<path d="M87.4725 53.6969C87.4258 54.2476 87.2086 54.7212 86.934 54.9786C86.5248 55.2359 85.6596 55.5293 84.5665 55.5293C80.8414 55.5293 78.8311 53.4189 78.8311 50.3201C78.8311 46.9589 81.3954 44.8999 84.6287 44.8999C86.1825 44.8999 87.3743 45.4198 87.6334 45.7132C87.6645 46.264 87.2912 46.8147 86.7683 46.7376C86.2758 46.5265 85.5094 46.3 84.6131 46.3C82.6339 46.3 81.0173 47.5817 81.0173 50.1812C81.0173 52.3894 82.4371 54.0778 85.0379 54.0778C86.1311 54.0778 86.9962 53.7998 87.421 53.6711L87.4677 53.702L87.4725 53.6969Z" fill="white"/>
<path d="M90.1053 47.417C90.1053 46.6398 90.1053 46.0529 90.0586 45.3735C90.5145 45.2602 91.2349 45.1624 91.9032 45.147H95.8712C95.7731 45.8779 95.5762 46.1868 95.3794 46.3978C95.1359 46.4956 94.5812 46.4956 93.8459 46.4956H92.1467V49.3988H95.7055C95.5607 50.5363 95.1981 50.7474 94.6279 50.7474H92.1467V53.9285C92.5248 54.0108 93.043 54.0417 93.6646 54.0417C94.3329 54.0417 95.5242 54.0417 96.3116 53.9748L96.3427 54.0057C96.1979 54.7057 95.8868 55.0764 95.4775 55.3028C95.2496 55.3491 94.5142 55.3852 93.2554 55.3852C91.8152 55.3852 90.7371 55.3028 90.3488 55.2205L90.1053 54.9117V47.4118V47.417Z" fill="white"/>
<path d="M105.382 52.4975C105.004 53.4395 104.533 54.6388 104.32 55.1587C104.253 55.3028 104.124 55.3852 103.864 55.3852C103.507 55.3852 102.787 55.2874 102.43 55.1742V55.1072C103.279 53.1255 105.828 47.0876 106.45 45.6154L106.32 45.2757C106.927 45.147 107.838 45.0801 108.035 45.0801C108.18 45.0801 108.33 45.1779 108.408 45.3735C109.159 47.1596 110.403 50.3562 110.972 51.7666C111.641 53.4241 112.034 54.4432 112.361 55.1278V55.1948C112.003 55.308 110.89 55.3904 110.532 55.3904C110.268 55.3904 110.138 55.308 109.978 54.8705C109.682 54.0417 109.454 53.4241 109.082 52.5027H105.388L105.382 52.4975ZM108.683 51.1489C107.931 49.1363 107.439 47.9215 107.263 47.4016C106.854 48.4722 106.398 49.7539 105.844 51.1489H108.688H108.683Z" fill="white"/>
<path d="M121.163 51.9619C121.163 51.2824 121.132 50.9067 121.096 50.5155C121.619 50.4331 122.402 50.2736 122.858 50.2736C123.101 50.2736 123.199 50.3713 123.199 50.711V54.3811C122.889 54.6385 122.35 54.9834 121.909 55.1945C121.34 55.3541 120.454 55.5342 119.671 55.5342C116.926 55.5342 114.02 54.3348 114.02 50.2941C114.02 46.9535 116.615 44.9048 119.817 44.9048C121.599 44.9048 122.806 45.471 123.199 45.8468C123.215 46.4799 122.744 46.9689 122.221 46.8711C121.485 46.5159 120.635 46.3358 119.77 46.3358C117.76 46.3358 116.211 47.6329 116.211 50.1654C116.211 52.9914 118.107 54.2731 120.019 54.2731C120.475 54.2731 120.967 54.1753 121.163 54.0929V51.967V51.9619Z" fill="white"/>
<path d="M126.329 47.417C126.329 46.6398 126.329 46.0529 126.282 45.3735C126.738 45.2602 127.459 45.1624 128.127 45.147H132.095C131.997 45.8779 131.8 46.1868 131.603 46.3978C131.36 46.4956 130.805 46.4956 130.07 46.4956H128.37V49.3988H131.929C131.784 50.5363 131.422 50.7474 130.852 50.7474H128.37V53.9285C128.748 54.0108 129.267 54.0417 129.888 54.0417C130.557 54.0417 131.748 54.0417 132.535 53.9748L132.566 54.0057C132.422 54.7057 132.11 55.0764 131.701 55.3028C131.473 55.3491 130.738 55.3852 129.479 55.3852C128.039 55.3852 126.961 55.3028 126.572 55.2205L126.329 54.9117V47.4118V47.417Z" fill="white"/>
<path d="M134.794 45.2911V45.2088C135.104 45.1625 136.509 45.0801 136.804 45.0801C136.965 45.0801 137.099 45.1933 137.26 45.3735C137.783 46.1199 139.12 48.1479 140.296 49.9496C141.031 51.1026 141.637 52.0085 142.026 52.8373C141.928 51.5864 141.943 50.9533 141.943 50.1451V45.6154C141.943 45.2396 142.057 45.1779 142.285 45.147C142.793 45.1007 143.233 45.0801 143.607 45.0801C143.575 45.7801 143.56 46.7169 143.56 48.0656V55.2205C143.414 55.2874 142.482 55.4778 142.005 55.4778C141.809 55.4778 141.71 55.411 141.596 55.2514C140.747 54.0829 139.913 52.8167 138.623 50.8349C137.757 49.4708 137.281 48.5649 136.612 47.3141C136.711 48.9509 136.695 49.7951 136.695 50.6239V54.8756C136.695 55.2154 136.597 55.2668 136.338 55.3131C136.043 55.3595 135.519 55.3955 135.032 55.3801C135.063 54.7315 135.079 53.7895 135.079 52.4254V45.6926L134.783 45.286L134.794 45.2911Z" fill="white"/>
<path d="M155.129 53.6969C155.082 54.2476 154.864 54.7212 154.59 54.9786C154.18 55.2359 153.315 55.5293 152.222 55.5293C148.498 55.5293 146.487 53.4189 146.487 50.3201C146.487 46.9589 149.052 44.8999 152.284 44.8999C153.839 44.8999 155.03 45.4198 155.289 45.7132C155.32 46.264 154.947 46.8147 154.424 46.7376C153.932 46.5265 153.165 46.3 152.269 46.3C150.29 46.3 148.674 47.5817 148.674 50.1812C148.674 52.3894 150.093 54.0778 152.694 54.0778C153.787 54.0778 154.652 53.7998 155.077 53.6711L155.123 53.702L155.129 53.6969Z" fill="white"/>
<path d="M160.376 51.2621C160.376 50.9533 160.36 50.7113 160.247 50.5157C159.366 49.0076 157.91 46.8148 156.946 45.4198V45.3735C157.501 45.2139 158.304 45.0801 158.729 45.0801C159.024 45.0801 159.138 45.1625 159.547 45.8419C160.117 46.753 160.936 48.1634 161.64 49.3319C162.345 48.2612 163.909 45.6463 164.22 45.0801C164.826 45.0801 165.365 45.1625 165.593 45.2396C165.852 45.3375 165.821 45.5485 165.609 45.9037C165.199 46.5677 162.785 50.1246 162.604 50.3973C162.474 50.6239 162.423 50.8658 162.423 51.0768V53.3005C162.423 54.4021 162.454 54.8911 162.469 55.2462C162.091 55.3286 161.573 55.3749 160.671 55.3749C160.428 55.3749 160.376 55.3286 160.376 55.0815V51.2518V51.2621Z" fill="white"/>
</svg>
