<svg width="112" height="80" viewBox="0 0 112 80" fill="none" xmlns="http://www.w3.org/2000/svg">
<path d="M92.2119 70.5071C92.2119 69.6098 93.2587 69.4603 93.9566 69.4603H94.6047C94.6047 69.9089 94.5548 70.3575 94.2557 70.7065C94.0065 71.0056 93.6575 71.2548 93.159 71.2548C92.6606 71.2548 92.2119 71.0056 92.2119 70.5071ZM91.4144 67.915C91.9128 67.5162 92.6107 67.2669 93.2587 67.2669C94.156 67.2669 94.6047 67.6159 94.6047 68.563H93.7572C93.1092 68.563 92.3615 68.6128 91.7633 68.9119C91.1651 69.211 90.7663 69.7095 90.7663 70.6068C90.7663 71.7533 91.8131 72.3515 92.86 72.3515C93.5578 72.3515 94.3554 72.0025 94.7043 71.3046C94.7043 71.504 94.7043 71.9028 94.7542 72.2019H96.1001C96.0502 71.7533 96.0502 71.3047 96.0502 70.856C96.0502 70.4074 96.0502 69.9587 96.0502 69.3606V68.6128C96.0502 66.8682 95.3025 66.1204 93.4581 66.1204C92.8101 66.1204 92.0125 66.27 91.3645 66.5691L91.4144 67.915ZM87.9748 65.1733H89.5201V63.6779H87.9748V65.1733ZM87.9748 72.2019H89.5201V66.27H87.9748V72.2019ZM84.8344 72.2019H86.3797V63.5283H84.8344V72.2019ZM79.5505 70.5071C79.5505 69.6098 80.5973 69.4603 81.2952 69.4603H81.9432C81.9432 69.9089 81.8933 70.3575 81.6441 70.7065C81.3949 71.0056 81.0459 71.2548 80.5474 71.2548C79.9493 71.2548 79.5505 71.0056 79.5505 70.5071ZM78.7529 67.915C79.2514 67.5162 79.9493 67.2669 80.5973 67.2669C81.4946 67.2669 81.9432 67.6159 81.9432 68.563H81.0958C80.4477 68.563 79.7 68.6128 79.1018 68.9119C78.5037 69.211 78.1049 69.7095 78.1049 70.6068C78.1049 71.7533 79.1517 72.3515 80.1985 72.3515C80.8964 72.3515 81.6939 72.0025 82.0429 71.3046C82.0429 71.504 82.0429 71.9028 82.0927 72.2019H83.4386C83.3888 71.7533 83.3888 71.3047 83.3888 70.856C83.3888 70.4074 83.3888 69.9587 83.3888 69.3606V68.6128C83.3888 66.8682 82.6411 66.1204 80.8465 66.1204C80.1985 66.1204 79.4009 66.27 78.7529 66.5691V67.915ZM74.0173 72.2019H75.5626V70.0086C75.5626 69.1612 75.5626 67.566 76.8088 67.566C77.1079 67.566 77.3571 67.6159 77.5067 67.7156V66.1703C77.3571 66.1204 77.1578 66.1204 77.0082 66.1204C76.0611 66.1204 75.4629 67.0675 75.3632 67.6159V66.27H73.9675V72.2019H74.0173ZM70.0793 70.4572C70.0793 71.6536 70.7273 72.4013 71.9735 72.4013C72.4222 72.4013 72.7711 72.3515 73.12 72.2518L73.0702 71.0056C72.9207 71.1053 72.6216 71.1551 72.3723 71.1551C71.7741 71.1551 71.6246 70.6566 71.6246 70.1581V67.3666H73.0203V66.2201H71.6246V64.5253L70.0793 65.0238V66.2201H68.9328V67.3666H70.0793V70.4572ZM68.1352 66.3697C67.6367 66.27 67.1881 66.1703 66.4404 66.1703C65.244 66.1703 64.0975 66.7186 64.0975 68.0147C64.0975 70.1581 66.7893 69.3606 66.7893 70.5569C66.7893 71.1551 66.1413 71.3046 65.7923 71.3046C65.244 71.3046 64.7455 71.1551 64.247 70.9059L64.1474 72.2019C64.6957 72.3515 65.2939 72.4512 65.892 72.4512C67.1382 72.4512 68.3845 71.9028 68.3845 70.5071C68.3845 68.3636 65.6926 68.9618 65.6926 68.0147C65.6926 67.5162 66.1911 67.3666 66.5899 67.3666C67.1382 67.3666 67.4872 67.4663 67.9857 67.6159L68.1352 66.3697ZM62.951 66.27H61.4057V69.1612C61.4057 69.9089 61.1565 71.1551 60.0598 71.1551C59.0628 71.1551 59.0628 70.1581 59.0628 69.4603V66.27H57.5175V70.0086C57.5175 71.3545 58.1157 72.3515 59.5613 72.3515C60.3589 72.3515 61.0568 72.0025 61.5054 71.4043V72.2019H62.951V66.27ZM48.495 72.2019H50.1898L50.8877 70.3575H54.1777L54.8756 72.2019H56.6701L53.43 64.1763H51.5856L48.495 72.2019ZM53.6792 69.1113H51.3363L52.4829 65.7715L53.6792 69.1113ZM39.0238 72.2019H40.5691V69.3107C40.5691 68.563 40.8184 67.3168 41.915 67.3168C42.912 67.3168 42.912 68.3138 42.912 69.0116V72.2019H44.4573V68.4633C44.4573 67.1174 43.8591 66.1204 42.4135 66.1204C41.6159 66.1204 40.9181 66.4694 40.5193 67.0675V63.5283H38.974L39.0238 72.2019ZM35.0858 70.4572C35.0858 71.6536 35.7338 72.4013 36.98 72.4013C37.4287 72.4013 37.7776 72.3515 38.1266 72.2518L38.0767 71.0056C37.9272 71.1053 37.6281 71.1551 37.3788 71.1551C36.7807 71.1551 36.6311 70.6566 36.6311 70.1581V67.3666H37.977V66.2201H36.5813V64.5253L35.036 65.0238V66.2201H33.8895V67.3666H35.036L35.0858 70.4572ZM33.042 66.27H31.4967V69.1612C31.4967 69.9089 31.2475 71.1551 30.1508 71.1551C29.1539 71.1551 29.1539 70.1581 29.1539 69.4603V66.27H27.6086V70.0086C27.6086 71.3545 28.2068 72.3515 29.6524 72.3515C30.4499 72.3515 31.1478 72.0025 31.5964 71.4043V72.2019H33.042V66.27ZM21.7763 69.1113C21.7763 68.2141 22.2748 67.3168 23.2718 67.3168C24.2687 67.3168 24.7672 68.1642 24.7672 69.1113C24.7672 70.1083 24.4681 71.1551 23.2718 71.1551C22.0754 71.1551 21.7763 70.1083 21.7763 69.1113ZM20.1812 69.3107C20.1812 71.0056 21.3277 72.4013 23.2718 72.4013C25.2657 72.4013 26.4122 71.0554 26.4122 69.3107C26.4122 67.3666 25.0663 66.1703 23.2718 66.1703C21.5271 66.1204 20.1812 67.3168 20.1812 69.3107ZM18.7854 64.3259C18.1873 64.1265 17.5392 64.0268 16.8414 64.0268C15.3958 64.0268 14 64.6748 14 66.4694C14 69.1612 17.5392 68.5131 17.5392 70.0584C17.5392 70.8062 16.7417 71.1053 16.0936 71.1053C15.4456 71.1053 14.7976 70.9059 14.2492 70.6068L14.0997 72.0524C14.8973 72.2518 15.2961 72.3515 16.1933 72.3515C17.8383 72.3515 19.2341 71.7034 19.2341 69.9089C19.2341 67.2171 15.6948 67.8153 15.6948 66.3697C15.6948 65.4724 16.3927 65.2232 16.9909 65.2232C17.5392 65.2232 18.1374 65.3727 18.6359 65.5721L18.7854 64.3259Z" fill="white"/>
<path d="M86.6289 58.3437H88.1742V53.5084H89.5201V52.3619H88.1742V51.6142C88.1742 51.1655 88.3237 50.7169 88.8721 50.7169C89.221 50.7169 89.4204 50.8665 89.5201 50.9163L89.6696 49.6202C89.3706 49.5704 88.9219 49.4707 88.5231 49.4707C87.2769 49.4707 86.6289 50.3181 86.6289 51.5145V52.3619H85.4824V53.5084H86.6289V58.3437ZM80.2483 55.2033C80.2483 54.306 80.7468 53.4586 81.7438 53.4586C82.7407 53.4586 83.2392 54.306 83.2392 55.2033C83.2392 56.2002 82.9401 57.247 81.7438 57.247C80.5973 57.2969 80.2483 56.2002 80.2483 55.2033ZM78.6532 55.4026C78.6532 57.0975 79.7997 58.4932 81.7438 58.4932C83.7377 58.4932 84.8842 57.1473 84.8842 55.4026C84.8842 53.4586 83.5383 52.2622 81.7438 52.2622C79.9991 52.2622 78.6532 53.4586 78.6532 55.4026ZM70.5279 52.4118H68.8331L71.1261 58.6926C71.1261 59.3407 70.7273 59.7394 70.1291 59.7394C69.7303 59.7394 69.5309 59.6896 69.3316 59.6398L69.2319 60.7863C69.5808 60.886 69.9796 60.9358 70.3285 60.9358C71.9237 60.9358 72.3225 59.6398 72.8209 58.3437L75.0641 52.4118H73.469L72.0234 56.7486L70.5279 52.4118ZM65.5929 56.5492C65.5929 57.7455 66.241 58.4932 67.4872 58.4932C67.9358 58.4932 68.2847 58.4434 68.6337 58.3437L68.5838 57.0975C68.4343 57.1972 68.1352 57.247 67.886 57.247C67.2878 57.247 67.1382 56.7486 67.1382 56.2501V53.4586H68.534V52.3121H67.1382V50.6172L65.5929 51.1157V52.3121H64.4464V53.4586H65.5929V56.5492ZM61.954 51.3151H63.4993V49.8196H61.954V51.3151ZM61.954 58.3437H63.4993V52.4118H61.954V58.3437ZM60.4586 52.4616C59.9601 52.3619 59.5114 52.2622 58.7637 52.2622C57.5674 52.2622 56.4209 52.8105 56.4209 54.1066C56.4209 56.2501 59.1127 55.4525 59.1127 56.6489C59.1127 57.247 58.4646 57.3966 58.1157 57.3966C57.5674 57.3966 57.0689 57.247 56.5704 56.9978L56.4707 58.2938C57.019 58.4434 57.6172 58.5431 58.2154 58.5431C59.4616 58.5431 60.7078 57.9948 60.7078 56.599C60.7078 54.4555 58.016 55.0537 58.016 54.1066C58.016 53.6081 58.5145 53.4586 58.9133 53.4586C59.4616 53.4586 59.8105 53.5583 60.309 53.7078L60.4586 52.4616ZM52.433 58.3437H53.9783V56.1504C53.9783 55.303 53.9783 53.7078 55.2245 53.7078C55.5236 53.7078 55.7728 53.7577 55.9224 53.8574V52.3121C55.7728 52.2622 55.5734 52.2622 55.4239 52.2622C54.4768 52.2622 53.8786 53.2093 53.7789 53.7577V52.4118H52.433V58.3437ZM50.788 56.7486C50.1898 57.0476 49.5418 57.3467 48.7941 57.3467C47.847 57.3467 47.1491 56.7984 47.0992 55.8513H51.2366C51.2366 53.7577 50.5886 52.2622 48.3953 52.2622C46.5509 52.2622 45.6536 53.7078 45.6536 55.4026C45.6536 57.3467 46.8001 58.4932 48.7442 58.4932C49.5916 58.4932 50.2397 58.3437 50.788 57.9948V56.7486ZM47.0992 54.8045C47.1491 54.0069 47.5977 53.4087 48.495 53.4087C49.3424 53.4087 49.6913 54.0567 49.7412 54.8045H47.0992ZM41.1673 58.3437H42.9618L45.1551 52.4118H43.6099L42.1643 56.7486L40.6688 52.4118H38.974L41.1673 58.3437ZM36.5314 51.3151H38.0767V49.8196H36.5314V51.3151ZM36.5314 58.3437H38.0767V52.4118H36.5314V58.3437ZM29.4529 58.3437H30.9982V55.4525C30.9982 54.7048 31.2475 53.4586 32.3441 53.4586C33.3411 53.4586 33.3411 54.4555 33.3411 55.1534V58.3437H34.8864V54.6051C34.8864 53.2592 34.2882 52.2622 32.8426 52.2622C32.0451 52.2622 31.397 52.5114 30.8985 53.2093V52.4118H29.4529V58.3437ZM21.2778 55.4525C21.2778 57.596 22.524 58.4932 24.5678 58.4932C26.6614 58.4932 27.8578 57.596 27.8578 55.4525V50.2683H26.2627V54.9042C26.2627 56.2999 25.814 57.1972 24.5678 57.1972C23.3216 57.1972 22.873 56.2999 22.873 54.9042V50.2683H21.2778C21.2778 50.2683 21.2778 55.4525 21.2778 55.4525Z" fill="white"/>
<path d="M69.83 28.4348C69.83 36.56 63.25 43.1898 55.0749 43.1898C46.8998 43.1898 40.3198 36.56 40.3198 28.4348V7H69.83V28.4348Z" fill="white"/>
<path d="M51.0872 20.858L48.3954 19.3127L45.7036 20.858V28.435C45.7036 33.6192 49.8909 37.8065 55.0751 37.8065C60.2593 37.8065 64.4466 33.6192 64.4466 28.435V13.1814L67.1384 11.6361L64.4466 10.0908L61.7548 11.6361V28.435C61.7548 32.1238 58.714 35.1146 55.0252 35.1146C51.3365 35.1146 48.3456 32.1238 48.3456 28.435V22.4033L51.0872 20.858Z" fill="black"/>
<path d="M56.4207 28.4347C56.4207 29.1824 55.8225 29.7806 55.0748 29.7806C54.3271 29.7806 53.7289 29.1824 53.7289 28.4347V19.3125L56.4207 17.7672L53.7289 16.2219L51.0371 17.7672V28.4347C51.0371 30.6779 52.8316 32.4724 55.0748 32.4724C57.318 32.4724 59.1125 30.6779 59.1125 28.4347V16.2717L61.8043 14.7264L59.1125 13.1812L56.4207 14.7264V28.4347Z" fill="black"/>
</svg>
